%TF.GenerationSoftware,KiCad,Pcbnew,9.0.6*%
%TF.CreationDate,2025-11-20T15:49:29+01:00*%
%TF.ProjectId,N57__ldruckanzeige_Sensor,4e35375f-d66c-4647-9275-636b616e7a65,rev?*%
%TF.SameCoordinates,Original*%
%TF.FileFunction,Copper,L1,Top*%
%TF.FilePolarity,Positive*%
%FSLAX46Y46*%
G04 Gerber Fmt 4.6, Leading zero omitted, Abs format (unit mm)*
G04 Created by KiCad (PCBNEW 9.0.6) date 2025-11-20 15:49:29*
%MOMM*%
%LPD*%
G01*
G04 APERTURE LIST*
G04 Aperture macros list*
%AMRoundRect*
0 Rectangle with rounded corners*
0 $1 Rounding radius*
0 $2 $3 $4 $5 $6 $7 $8 $9 X,Y pos of 4 corners*
0 Add a 4 corners polygon primitive as box body*
4,1,4,$2,$3,$4,$5,$6,$7,$8,$9,$2,$3,0*
0 Add four circle primitives for the rounded corners*
1,1,$1+$1,$2,$3*
1,1,$1+$1,$4,$5*
1,1,$1+$1,$6,$7*
1,1,$1+$1,$8,$9*
0 Add four rect primitives between the rounded corners*
20,1,$1+$1,$2,$3,$4,$5,0*
20,1,$1+$1,$4,$5,$6,$7,0*
20,1,$1+$1,$6,$7,$8,$9,0*
20,1,$1+$1,$8,$9,$2,$3,0*%
G04 Aperture macros list end*
%TA.AperFunction,ComponentPad*%
%ADD10O,10.400000X8.600000*%
%TD*%
%TA.AperFunction,ComponentPad*%
%ADD11C,3.400000*%
%TD*%
%TA.AperFunction,SMDPad,CuDef*%
%ADD12RoundRect,0.237500X0.300000X0.237500X-0.300000X0.237500X-0.300000X-0.237500X0.300000X-0.237500X0*%
%TD*%
%TA.AperFunction,ComponentPad*%
%ADD13R,1.350000X1.350000*%
%TD*%
%TA.AperFunction,ComponentPad*%
%ADD14C,1.350000*%
%TD*%
%TA.AperFunction,ComponentPad*%
%ADD15RoundRect,0.250000X0.350000X0.625000X-0.350000X0.625000X-0.350000X-0.625000X0.350000X-0.625000X0*%
%TD*%
%TA.AperFunction,ComponentPad*%
%ADD16O,1.200000X1.750000*%
%TD*%
%TA.AperFunction,ViaPad*%
%ADD17C,0.800000*%
%TD*%
%TA.AperFunction,Conductor*%
%ADD18C,0.600000*%
%TD*%
%TA.AperFunction,Conductor*%
%ADD19C,0.400000*%
%TD*%
%TA.AperFunction,Conductor*%
%ADD20C,1.800000*%
%TD*%
%TA.AperFunction,Conductor*%
%ADD21C,0.300000*%
%TD*%
G04 APERTURE END LIST*
D10*
%TO.P,H1,1,1*%
%TO.N,PRES_SENSE*%
X91000000Y-100000000D03*
%TD*%
D11*
%TO.P,J3,1,Pin_1*%
%TO.N,unconnected-(J3-Pin_1-Pad1)*%
X97216233Y-112435767D03*
%TO.P,J3,2,Pin_2*%
%TO.N,Net-(J3-Pin_2)*%
X100751767Y-108900233D03*
%TD*%
D12*
%TO.P,C2,1*%
%TO.N,+3.3V*%
X100608500Y-96190000D03*
%TO.P,C2,2*%
%TO.N,GND*%
X98883500Y-96190000D03*
%TD*%
D13*
%TO.P,J2,1,Pin_1*%
%TO.N,GND*%
X107080000Y-90348000D03*
D14*
%TO.P,J2,2,Pin_2*%
%TO.N,TEMP_DQ*%
X105080000Y-90348000D03*
%TO.P,J2,3,Pin_3*%
%TO.N,+3.3V*%
X103080000Y-90348000D03*
%TD*%
D12*
%TO.P,C1,1*%
%TO.N,+3.3V*%
X100608500Y-94666000D03*
%TO.P,C1,2*%
%TO.N,GND*%
X98883500Y-94666000D03*
%TD*%
D10*
%TO.P,H2,1,1*%
%TO.N,Net-(J3-Pin_2)*%
X109000000Y-100000000D03*
%TD*%
D15*
%TO.P,J1,1,Pin_1*%
%TO.N,+3.3V*%
X98984000Y-91872000D03*
D16*
%TO.P,J1,2,Pin_2*%
%TO.N,PRES_SENSE*%
X96984000Y-91872000D03*
%TO.P,J1,3,Pin_3*%
%TO.N,TEMP_DQ*%
X94984000Y-91872000D03*
%TO.P,J1,4,Pin_4*%
%TO.N,GND*%
X92984000Y-91872000D03*
%TD*%
D17*
%TO.N,GND*%
X108255000Y-114298079D03*
X84485675Y-105646753D03*
X88824000Y-113716000D03*
X93523000Y-118923000D03*
X85649000Y-108509000D03*
X106096000Y-116256000D03*
X84485675Y-94353247D03*
X114298079Y-108255000D03*
X110612423Y-112647394D03*
X87352606Y-89387577D03*
X91110000Y-91110000D03*
X104000000Y-87808000D03*
X115514325Y-94353247D03*
X93000000Y-88000000D03*
X116259176Y-97133069D03*
X83740824Y-102866931D03*
X112647394Y-110612423D03*
X102808178Y-119304000D03*
X115514325Y-105646753D03*
X98984000Y-97968000D03*
X91237000Y-116383000D03*
X96444000Y-121717000D03*
X114298079Y-91745000D03*
X100381000Y-121971000D03*
X97000000Y-88000000D03*
X87046000Y-111049000D03*
X112647394Y-89387577D03*
X83740824Y-97133069D03*
X85701921Y-91745000D03*
X116259176Y-102866931D03*
X101000000Y-87808000D03*
X111000000Y-88000000D03*
X107000000Y-88000000D03*
X116510000Y-100000000D03*
X89000000Y-88000000D03*
X96952000Y-95428000D03*
X83490000Y-100000000D03*
%TD*%
D18*
%TO.N,+3.3V*%
X98984000Y-91872000D02*
X98984000Y-93041500D01*
X98984000Y-93041500D02*
X100608500Y-94666000D01*
X102032000Y-94666000D02*
X103080000Y-93618000D01*
X100608500Y-96190000D02*
X100608500Y-94666000D01*
X103080000Y-93618000D02*
X103080000Y-90348000D01*
X100608500Y-94666000D02*
X102032000Y-94666000D01*
D19*
%TO.N,PRES_SENSE*%
X93650000Y-100000000D02*
X91000000Y-100000000D01*
X96984000Y-91872000D02*
X91253000Y-97603000D01*
X91253000Y-97603000D02*
X93650000Y-100000000D01*
D20*
%TO.N,Net-(J3-Pin_2)*%
X109000000Y-100144000D02*
X100751767Y-108392233D01*
X109000000Y-100000000D02*
X109000000Y-100144000D01*
X109000000Y-100000000D02*
X109000000Y-102000000D01*
X100751767Y-108392233D02*
X100751767Y-108900233D01*
X109000000Y-102000000D02*
X110000000Y-103000000D01*
D21*
%TO.N,TEMP_DQ*%
X104054000Y-89322000D02*
X105080000Y-90348000D01*
X94984000Y-91872000D02*
X97534000Y-89322000D01*
X97534000Y-89322000D02*
X104054000Y-89322000D01*
%TD*%
%TA.AperFunction,Conductor*%
%TO.N,PRES_SENSE*%
G36*
X96399681Y-91629940D02*
G01*
X96775770Y-91785096D01*
X96977326Y-91868248D01*
X96983667Y-91874571D01*
X96984562Y-91879276D01*
X96969399Y-92716559D01*
X96965823Y-92724769D01*
X96957489Y-92728045D01*
X96952288Y-92726720D01*
X96915627Y-92707589D01*
X96859263Y-92689990D01*
X96859259Y-92689989D01*
X96859258Y-92689989D01*
X96847523Y-92688510D01*
X96788855Y-92681116D01*
X96788851Y-92681116D01*
X96788850Y-92681116D01*
X96748581Y-92682727D01*
X96716362Y-92684017D01*
X96716358Y-92684017D01*
X96625181Y-92701602D01*
X96625165Y-92701606D01*
X96534860Y-92731794D01*
X96534850Y-92731798D01*
X96534849Y-92731799D01*
X96511584Y-92742715D01*
X96426207Y-92782776D01*
X96326917Y-92842647D01*
X96326902Y-92842657D01*
X96238703Y-92907515D01*
X96178463Y-92961268D01*
X96170008Y-92964219D01*
X96162400Y-92960811D01*
X95895397Y-92693808D01*
X95891970Y-92685535D01*
X95895147Y-92677520D01*
X95948265Y-92621058D01*
X96115330Y-92405735D01*
X96248682Y-92180170D01*
X96336129Y-91970639D01*
X96379494Y-91785105D01*
X96383527Y-91640430D01*
X96387183Y-91632257D01*
X96395548Y-91629062D01*
X96399681Y-91629940D01*
G37*
%TD.AperFunction*%
%TD*%
%TA.AperFunction,Conductor*%
%TO.N,Net-(J3-Pin_2)*%
G36*
X108971212Y-100033740D02*
G01*
X108973070Y-100042500D01*
X108971519Y-100046514D01*
X106535060Y-103988438D01*
X106527796Y-103993674D01*
X106520358Y-103992979D01*
X106497435Y-103982793D01*
X106470423Y-103970791D01*
X106470415Y-103970788D01*
X106413006Y-103956998D01*
X106413002Y-103956997D01*
X106357379Y-103954787D01*
X106357378Y-103954787D01*
X106357376Y-103954787D01*
X106303502Y-103963206D01*
X106303493Y-103963209D01*
X106200782Y-104008108D01*
X106123132Y-104069317D01*
X106104418Y-104084069D01*
X106104415Y-104084071D01*
X106104414Y-104084073D01*
X106014011Y-104183430D01*
X105929125Y-104298578D01*
X105774353Y-104545532D01*
X105774354Y-104545533D01*
X105655592Y-104736536D01*
X105654851Y-104737593D01*
X105573144Y-104841438D01*
X105565335Y-104845821D01*
X105556714Y-104843398D01*
X105555676Y-104842476D01*
X104301829Y-103588629D01*
X104298402Y-103580356D01*
X104301829Y-103572083D01*
X104303166Y-103570934D01*
X104388433Y-103508164D01*
X104389520Y-103507454D01*
X104527414Y-103428235D01*
X104594282Y-103390812D01*
X104786271Y-103271674D01*
X104899448Y-103175129D01*
X104957480Y-103091470D01*
X104974636Y-103012896D01*
X104968660Y-102971978D01*
X104968659Y-102971976D01*
X104968659Y-102971973D01*
X104951706Y-102929953D01*
X104951704Y-102929950D01*
X104919611Y-102882888D01*
X104919610Y-102882886D01*
X104919609Y-102882885D01*
X104919607Y-102882882D01*
X104881857Y-102844415D01*
X104878509Y-102836110D01*
X104882013Y-102827869D01*
X104883577Y-102826580D01*
X108954946Y-100030717D01*
X108963704Y-100028860D01*
X108971212Y-100033740D01*
G37*
%TD.AperFunction*%
%TD*%
%TA.AperFunction,Conductor*%
%TO.N,TEMP_DQ*%
G36*
X104248891Y-89303904D02*
G01*
X104338798Y-89384481D01*
X104427789Y-89464239D01*
X104507338Y-89518958D01*
X104582564Y-89558776D01*
X104735122Y-89607293D01*
X104915601Y-89636959D01*
X104915611Y-89636965D01*
X104915612Y-89636961D01*
X105199779Y-89683999D01*
X105207381Y-89688731D01*
X105209411Y-89697453D01*
X105209346Y-89697810D01*
X105082226Y-90341016D01*
X105077260Y-90348468D01*
X105073016Y-90350226D01*
X104429810Y-90477346D01*
X104421030Y-90475588D01*
X104416064Y-90468136D01*
X104415999Y-90467779D01*
X104368961Y-90183612D01*
X104368943Y-90183498D01*
X104346801Y-90041074D01*
X104304279Y-89882822D01*
X104270100Y-89808723D01*
X104270096Y-89808716D01*
X104270095Y-89808714D01*
X104222664Y-89731988D01*
X104222663Y-89731987D01*
X104141248Y-89628565D01*
X104141238Y-89628554D01*
X104036279Y-89516906D01*
X104033111Y-89508533D01*
X104036531Y-89500622D01*
X104232810Y-89304343D01*
X104241082Y-89300917D01*
X104248891Y-89303904D01*
G37*
%TD.AperFunction*%
%TD*%
%TA.AperFunction,Conductor*%
%TO.N,+3.3V*%
G36*
X103730075Y-90477290D02*
G01*
X103737513Y-90482275D01*
X103739247Y-90491060D01*
X103739142Y-90491532D01*
X103697991Y-90660358D01*
X103697686Y-90661395D01*
X103648310Y-90804419D01*
X103647808Y-90805642D01*
X103543166Y-91024163D01*
X103542962Y-91024570D01*
X103522712Y-91062947D01*
X103445728Y-91232356D01*
X103398344Y-91419768D01*
X103384794Y-91540690D01*
X103384793Y-91540705D01*
X103380376Y-91673718D01*
X103376676Y-91681873D01*
X103368682Y-91685030D01*
X102791048Y-91685030D01*
X102782775Y-91681603D01*
X102779367Y-91674000D01*
X102778052Y-91651092D01*
X102766865Y-91456181D01*
X102759342Y-91419768D01*
X102731388Y-91284456D01*
X102731387Y-91284454D01*
X102731386Y-91284447D01*
X102679448Y-91147843D01*
X102679447Y-91147840D01*
X102616969Y-91024443D01*
X102616964Y-91024434D01*
X102616939Y-91024384D01*
X102574184Y-90942261D01*
X102573804Y-90941457D01*
X102487235Y-90738931D01*
X102486810Y-90737771D01*
X102463002Y-90660358D01*
X102450803Y-90620692D01*
X102450601Y-90619947D01*
X102420704Y-90491437D01*
X102422167Y-90482603D01*
X102429449Y-90477390D01*
X102429749Y-90477325D01*
X103077705Y-90347460D01*
X103082295Y-90347460D01*
X103730075Y-90477290D01*
G37*
%TD.AperFunction*%
%TD*%
%TA.AperFunction,Conductor*%
%TO.N,PRES_SENSE*%
G36*
X93577935Y-95010758D02*
G01*
X93845329Y-95278152D01*
X93848756Y-95286425D01*
X93846151Y-95293785D01*
X93810545Y-95337781D01*
X93810543Y-95337785D01*
X93775797Y-95398612D01*
X93747384Y-95469543D01*
X93726796Y-95548294D01*
X93726796Y-95548299D01*
X93713429Y-95712594D01*
X93713430Y-95712596D01*
X93713430Y-95712598D01*
X93715167Y-95724532D01*
X93736832Y-95873384D01*
X93736833Y-95873386D01*
X93795111Y-96021439D01*
X93887178Y-96152883D01*
X93887181Y-96152887D01*
X94014176Y-96265686D01*
X94091598Y-96314303D01*
X94091608Y-96314308D01*
X94091610Y-96314309D01*
X94165813Y-96350727D01*
X94171730Y-96357448D01*
X94171161Y-96366385D01*
X94169472Y-96368924D01*
X91034171Y-99960749D01*
X91026149Y-99964728D01*
X91017663Y-99961869D01*
X91013684Y-99953847D01*
X91014123Y-99949788D01*
X92244768Y-95724531D01*
X92250371Y-95717547D01*
X92257554Y-95716208D01*
X92280792Y-95719324D01*
X92359570Y-95719496D01*
X92360092Y-95719498D01*
X92360092Y-95719497D01*
X92360095Y-95719498D01*
X92445178Y-95707179D01*
X92557011Y-95676532D01*
X92673836Y-95631219D01*
X92824711Y-95557187D01*
X92975784Y-95468907D01*
X93153654Y-95349531D01*
X93317697Y-95225534D01*
X93561926Y-95010253D01*
X93570398Y-95007354D01*
X93577935Y-95010758D01*
G37*
%TD.AperFunction*%
%TD*%
%TA.AperFunction,Conductor*%
%TO.N,TEMP_DQ*%
G36*
X95840450Y-90818038D02*
G01*
X96037277Y-91014865D01*
X96040704Y-91023138D01*
X96037555Y-91031123D01*
X95998855Y-91072566D01*
X95998837Y-91072586D01*
X95922298Y-91167955D01*
X95922293Y-91167962D01*
X95845635Y-91280151D01*
X95845634Y-91280153D01*
X95716542Y-91517885D01*
X95716540Y-91517889D01*
X95716540Y-91517890D01*
X95630097Y-91746319D01*
X95605195Y-91864723D01*
X95587587Y-91948446D01*
X95584356Y-92103436D01*
X95580758Y-92111636D01*
X95572415Y-92114889D01*
X95568197Y-92114008D01*
X94990673Y-91875751D01*
X94984332Y-91869428D01*
X94983437Y-91864725D01*
X94998579Y-91028620D01*
X95002155Y-91020411D01*
X95010489Y-91017135D01*
X95016234Y-91018763D01*
X95021652Y-91021970D01*
X95082540Y-91048022D01*
X95147332Y-91063373D01*
X95227863Y-91069121D01*
X95310722Y-91062971D01*
X95411063Y-91042234D01*
X95509285Y-91009760D01*
X95509287Y-91009758D01*
X95509290Y-91009758D01*
X95525059Y-91002683D01*
X95612365Y-90963516D01*
X95704996Y-90910587D01*
X95824986Y-90817081D01*
X95833617Y-90814700D01*
X95840450Y-90818038D01*
G37*
%TD.AperFunction*%
%TD*%
%TA.AperFunction,Conductor*%
%TO.N,+3.3V*%
G36*
X101004645Y-94220920D02*
G01*
X101007394Y-94224375D01*
X101031748Y-94270899D01*
X101080792Y-94315842D01*
X101142886Y-94346396D01*
X101142888Y-94346396D01*
X101142889Y-94346397D01*
X101159146Y-94350637D01*
X101214399Y-94365049D01*
X101371156Y-94376598D01*
X101522010Y-94370387D01*
X101608783Y-94366541D01*
X101617199Y-94369599D01*
X101620989Y-94377712D01*
X101621000Y-94378230D01*
X101621000Y-94953769D01*
X101617573Y-94962042D01*
X101609300Y-94965469D01*
X101608782Y-94965458D01*
X101522011Y-94961613D01*
X101522011Y-94961612D01*
X101522007Y-94961612D01*
X101385568Y-94955532D01*
X101385554Y-94955532D01*
X101385551Y-94955532D01*
X101385548Y-94955532D01*
X101226103Y-94964964D01*
X101226099Y-94964964D01*
X101226098Y-94964965D01*
X101226091Y-94964966D01*
X101116034Y-94996572D01*
X101116031Y-94996573D01*
X101042972Y-95047967D01*
X101042971Y-95047968D01*
X101017609Y-95081922D01*
X101006907Y-95106003D01*
X101000415Y-95112171D01*
X100991463Y-95111943D01*
X100987334Y-95108868D01*
X100891021Y-94996572D01*
X100614031Y-94673615D01*
X100611247Y-94665106D01*
X100614031Y-94658384D01*
X100988147Y-94222183D01*
X100996134Y-94218135D01*
X101004645Y-94220920D01*
G37*
%TD.AperFunction*%
%TD*%
%TA.AperFunction,Conductor*%
%TO.N,+3.3V*%
G36*
X100904617Y-95243427D02*
G01*
X100908044Y-95251700D01*
X100908035Y-95252147D01*
X100905442Y-95319887D01*
X100905441Y-95319937D01*
X100901774Y-95442768D01*
X100901163Y-95463248D01*
X100914819Y-95605189D01*
X100914820Y-95605194D01*
X100949448Y-95701250D01*
X101003623Y-95762832D01*
X101039882Y-95782884D01*
X101062086Y-95789118D01*
X101069124Y-95794653D01*
X101070187Y-95803545D01*
X101066414Y-95809370D01*
X100615991Y-96184756D01*
X100607441Y-96187420D01*
X100601009Y-96184756D01*
X100149318Y-95808314D01*
X100145157Y-95800385D01*
X100147821Y-95791835D01*
X100152920Y-95788292D01*
X100199345Y-95771943D01*
X100247555Y-95730498D01*
X100280721Y-95674751D01*
X100301433Y-95608658D01*
X100315860Y-95461256D01*
X100311559Y-95319937D01*
X100308965Y-95252147D01*
X100312073Y-95243749D01*
X100320209Y-95240009D01*
X100320656Y-95240000D01*
X100896344Y-95240000D01*
X100904617Y-95243427D01*
G37*
%TD.AperFunction*%
%TD*%
%TA.AperFunction,Conductor*%
%TO.N,+3.3V*%
G36*
X100615990Y-94671242D02*
G01*
X101066413Y-95046628D01*
X101067681Y-95047684D01*
X101071842Y-95055613D01*
X101069178Y-95064163D01*
X101064076Y-95067708D01*
X101017653Y-95084056D01*
X100969447Y-95125499D01*
X100936279Y-95181246D01*
X100915567Y-95247342D01*
X100915565Y-95247352D01*
X100901140Y-95394736D01*
X100901140Y-95394741D01*
X100901140Y-95394743D01*
X100905441Y-95536063D01*
X100905443Y-95536109D01*
X100905442Y-95536109D01*
X100908035Y-95603853D01*
X100904927Y-95612251D01*
X100896791Y-95615991D01*
X100896344Y-95616000D01*
X100320656Y-95616000D01*
X100312383Y-95612573D01*
X100308956Y-95604300D01*
X100308965Y-95603853D01*
X100311557Y-95536109D01*
X100311559Y-95536063D01*
X100315837Y-95392749D01*
X100302180Y-95250806D01*
X100267552Y-95154749D01*
X100213377Y-95093168D01*
X100177118Y-95073115D01*
X100177117Y-95073114D01*
X100154913Y-95066880D01*
X100147874Y-95061345D01*
X100146812Y-95052453D01*
X100150583Y-95046630D01*
X100601009Y-94671242D01*
X100609559Y-94668579D01*
X100615990Y-94671242D01*
G37*
%TD.AperFunction*%
%TD*%
%TA.AperFunction,Conductor*%
%TO.N,+3.3V*%
G36*
X100062335Y-93696016D02*
G01*
X100062551Y-93696237D01*
X100137673Y-93775439D01*
X100249529Y-93893233D01*
X100411468Y-94039573D01*
X100411470Y-94039574D01*
X100411472Y-94039575D01*
X100411475Y-94039578D01*
X100554080Y-94132470D01*
X100683453Y-94180966D01*
X100789298Y-94189685D01*
X100797258Y-94193779D01*
X100799995Y-94202306D01*
X100799151Y-94205803D01*
X100611462Y-94661234D01*
X100605142Y-94667577D01*
X100603463Y-94668132D01*
X100086244Y-94796469D01*
X100077389Y-94795135D01*
X100072070Y-94787931D01*
X100071739Y-94784562D01*
X100075176Y-94711653D01*
X100075175Y-94711652D01*
X100075176Y-94711649D01*
X100056677Y-94625114D01*
X100019800Y-94541328D01*
X99968841Y-94460968D01*
X99841861Y-94313247D01*
X99841860Y-94313246D01*
X99841854Y-94313239D01*
X99710084Y-94187360D01*
X99710084Y-94187359D01*
X99651933Y-94132469D01*
X99638776Y-94120049D01*
X99635113Y-94111880D01*
X99638300Y-94103512D01*
X99638501Y-94103304D01*
X100045790Y-93696015D01*
X100054062Y-93692589D01*
X100062335Y-93696016D01*
G37*
%TD.AperFunction*%
%TD*%
%TA.AperFunction,Conductor*%
%TO.N,+3.3V*%
G36*
X98990751Y-91881830D02*
G01*
X98994061Y-91884648D01*
X99554603Y-92579815D01*
X99557128Y-92588406D01*
X99552839Y-92596267D01*
X99549403Y-92598187D01*
X99500172Y-92615632D01*
X99452889Y-92642919D01*
X99416820Y-92674971D01*
X99387537Y-92716733D01*
X99369848Y-92762135D01*
X99361149Y-92840307D01*
X99361149Y-92840314D01*
X99370598Y-92917858D01*
X99370599Y-92917861D01*
X99409929Y-93038565D01*
X99409234Y-93047493D01*
X99407078Y-93050463D01*
X99000559Y-93456982D01*
X98992286Y-93460409D01*
X98984013Y-93456982D01*
X98981386Y-93452959D01*
X98937487Y-93340265D01*
X98937478Y-93340241D01*
X98937478Y-93340240D01*
X98851506Y-93122424D01*
X98851500Y-93122408D01*
X98753383Y-92923420D01*
X98753381Y-92923417D01*
X98753381Y-92923416D01*
X98694130Y-92840307D01*
X98665114Y-92799606D01*
X98584485Y-92732193D01*
X98584484Y-92732192D01*
X98584483Y-92732192D01*
X98520273Y-92711240D01*
X98513472Y-92705416D01*
X98512780Y-92696487D01*
X98513738Y-92694325D01*
X98974792Y-91886193D01*
X98981867Y-91880706D01*
X98990751Y-91881830D01*
G37*
%TD.AperFunction*%
%TD*%
%TA.AperFunction,Conductor*%
%TO.N,GND*%
G36*
X110715648Y-87000700D02*
G01*
X110738073Y-87001975D01*
X110988501Y-87016221D01*
X111002478Y-87017817D01*
X111268344Y-87063579D01*
X111282040Y-87066747D01*
X111541003Y-87142358D01*
X111554250Y-87147057D01*
X111802902Y-87251516D01*
X111802971Y-87251545D01*
X111815621Y-87257727D01*
X112050873Y-87389731D01*
X112062732Y-87397301D01*
X112281480Y-87555113D01*
X112281512Y-87555136D01*
X112292446Y-87564011D01*
X112493735Y-87747289D01*
X112500809Y-87754268D01*
X113053523Y-88345141D01*
X113057379Y-88349462D01*
X113116812Y-88419265D01*
X113519364Y-88892054D01*
X113583479Y-88967355D01*
X113587125Y-88971846D01*
X114082395Y-89611813D01*
X114083826Y-89613661D01*
X114087233Y-89618282D01*
X114553457Y-90282639D01*
X114556653Y-90287429D01*
X114991303Y-90972764D01*
X114994290Y-90977726D01*
X115396476Y-91682627D01*
X115399227Y-91687723D01*
X115768043Y-92410601D01*
X115770554Y-92415820D01*
X116105216Y-93155135D01*
X116107481Y-93160465D01*
X116192089Y-93373311D01*
X116376933Y-93838319D01*
X116407269Y-93914633D01*
X116409281Y-93920061D01*
X116580065Y-94416000D01*
X116673521Y-94687384D01*
X116675278Y-94692902D01*
X116903397Y-95471721D01*
X116904895Y-95477316D01*
X117096402Y-96265942D01*
X117097637Y-96271600D01*
X117206364Y-96832364D01*
X117246517Y-97039456D01*
X117252114Y-97068320D01*
X117253083Y-97074030D01*
X117370184Y-97877068D01*
X117370886Y-97882817D01*
X117450368Y-98690478D01*
X117450800Y-98696253D01*
X117492479Y-99506705D01*
X117492642Y-99512495D01*
X117496433Y-100324063D01*
X117496324Y-100329853D01*
X117462218Y-101140655D01*
X117461840Y-101146435D01*
X117389908Y-101954800D01*
X117389260Y-101960555D01*
X117279663Y-102764669D01*
X117278747Y-102770387D01*
X117131724Y-103568499D01*
X117130542Y-103574169D01*
X116946414Y-104364539D01*
X116944969Y-104370148D01*
X116724127Y-105151092D01*
X116722421Y-105156626D01*
X116465367Y-105926369D01*
X116463405Y-105931818D01*
X116170680Y-106688742D01*
X116168465Y-106694094D01*
X115840721Y-107436514D01*
X115838259Y-107441756D01*
X115476208Y-108168056D01*
X115473504Y-108173178D01*
X115077926Y-108881796D01*
X115074986Y-108886785D01*
X114646758Y-109576149D01*
X114643588Y-109580996D01*
X114183638Y-110249614D01*
X114180245Y-110254308D01*
X113689566Y-110900733D01*
X113685957Y-110905263D01*
X113165648Y-111528046D01*
X113161832Y-111532403D01*
X112612992Y-112130234D01*
X112608977Y-112134407D01*
X112032836Y-112705944D01*
X112028630Y-112709926D01*
X111426424Y-113253943D01*
X111422037Y-113257724D01*
X110795082Y-113773030D01*
X110790523Y-113776602D01*
X110140188Y-114262073D01*
X110135467Y-114265428D01*
X109513036Y-114686289D01*
X109512749Y-114686483D01*
X109504331Y-114692140D01*
X109502009Y-114692964D01*
X109455238Y-114725135D01*
X109454659Y-114725525D01*
X109454609Y-114725540D01*
X109452528Y-114726925D01*
X109405356Y-114757239D01*
X109399151Y-114762488D01*
X109398761Y-114762027D01*
X109388174Y-114771266D01*
X108899550Y-115107376D01*
X108889731Y-115114130D01*
X108873420Y-115121238D01*
X108835627Y-115151346D01*
X108832039Y-115153815D01*
X108832038Y-115153816D01*
X108795815Y-115178734D01*
X108795814Y-115178735D01*
X108791994Y-115183211D01*
X108774948Y-115199690D01*
X108402469Y-115496448D01*
X108402467Y-115496449D01*
X108391676Y-115505045D01*
X108386365Y-115507508D01*
X108340274Y-115545996D01*
X108339118Y-115546918D01*
X108339109Y-115546926D01*
X108293191Y-115583511D01*
X108288898Y-115587963D01*
X108279121Y-115597064D01*
X108022813Y-115811103D01*
X108022814Y-115811104D01*
X108012996Y-115819302D01*
X108008498Y-115821497D01*
X107962516Y-115861460D01*
X107961556Y-115862262D01*
X107915692Y-115900563D01*
X107913020Y-115903465D01*
X107903152Y-115913053D01*
X107601507Y-116175217D01*
X107592235Y-116183274D01*
X107588184Y-116185342D01*
X107542631Y-116226385D01*
X107541735Y-116227164D01*
X107541698Y-116227198D01*
X107496200Y-116266743D01*
X107494385Y-116268794D01*
X107484537Y-116278729D01*
X107045803Y-116674039D01*
X107037391Y-116681620D01*
X107034168Y-116683323D01*
X106988474Y-116725696D01*
X106953891Y-116756856D01*
X106942187Y-116767402D01*
X106941903Y-116767736D01*
X106931914Y-116778144D01*
X106374975Y-117294611D01*
X106364636Y-117304199D01*
X106356869Y-117308659D01*
X106316415Y-117348915D01*
X106314805Y-117350409D01*
X106274570Y-117387719D01*
X106269384Y-117393976D01*
X106269046Y-117393696D01*
X106259808Y-117405247D01*
X106026509Y-117637412D01*
X106017190Y-117646684D01*
X106012640Y-117649426D01*
X105970583Y-117693064D01*
X105969643Y-117694000D01*
X105969644Y-117694000D01*
X105927545Y-117735895D01*
X105924653Y-117739645D01*
X105915754Y-117749956D01*
X105272216Y-118417709D01*
X105272217Y-118417710D01*
X105262421Y-118427873D01*
X105254957Y-118432735D01*
X105216795Y-118475216D01*
X105215281Y-118476788D01*
X105215279Y-118476791D01*
X105177154Y-118516352D01*
X105172332Y-118522883D01*
X105171974Y-118522618D01*
X105163415Y-118534642D01*
X104687524Y-119064428D01*
X104687523Y-119064429D01*
X104678142Y-119074871D01*
X104673154Y-119078292D01*
X104634232Y-119123753D01*
X104633192Y-119124911D01*
X104633180Y-119124926D01*
X104594126Y-119168404D01*
X104590330Y-119173941D01*
X104582260Y-119184456D01*
X104030455Y-119828983D01*
X104030456Y-119828984D01*
X104025843Y-119834371D01*
X104025828Y-119834383D01*
X103989515Y-119876804D01*
X103984660Y-119882477D01*
X103984613Y-119882532D01*
X103984606Y-119882540D01*
X103935266Y-119940170D01*
X103935201Y-119940257D01*
X103470641Y-120482980D01*
X103470642Y-120482981D01*
X103465344Y-120489170D01*
X103465223Y-120489254D01*
X103422993Y-120538647D01*
X103422850Y-120538815D01*
X103422804Y-120538869D01*
X103374842Y-120594901D01*
X103374441Y-120595436D01*
X103208395Y-120789652D01*
X103207733Y-120790420D01*
X102095558Y-122069946D01*
X102091435Y-122074459D01*
X101603803Y-122582564D01*
X101601068Y-122585326D01*
X101375211Y-122806362D01*
X101372375Y-122809052D01*
X101180840Y-122985028D01*
X101176893Y-122988502D01*
X100971889Y-123161413D01*
X100967137Y-123165226D01*
X100786917Y-123302667D01*
X100779585Y-123307850D01*
X100163119Y-123710956D01*
X100137005Y-123723935D01*
X99874003Y-123817973D01*
X99861628Y-123821683D01*
X99549641Y-123897753D01*
X99540021Y-123899698D01*
X99393979Y-123923265D01*
X99387485Y-123924138D01*
X99247474Y-123939197D01*
X99234566Y-123939908D01*
X98569142Y-123941795D01*
X98539099Y-123938188D01*
X98422807Y-123909508D01*
X98416304Y-123907715D01*
X98273906Y-123864258D01*
X98268042Y-123862307D01*
X98102056Y-123802460D01*
X98096741Y-123800405D01*
X97884536Y-123712680D01*
X97880157Y-123710770D01*
X97621428Y-123591944D01*
X97617901Y-123590257D01*
X97253885Y-123408970D01*
X97251190Y-123407586D01*
X96823401Y-123181329D01*
X96813284Y-123175348D01*
X96421552Y-122917960D01*
X96419405Y-122916517D01*
X95582878Y-122341550D01*
X95578983Y-122338761D01*
X95413717Y-122215505D01*
X95152070Y-122020367D01*
X95148707Y-122017768D01*
X94795755Y-121735013D01*
X94788225Y-121728466D01*
X93757999Y-120757278D01*
X93756764Y-120756098D01*
X93563839Y-120569142D01*
X92869869Y-119896642D01*
X92429971Y-119468451D01*
X92423238Y-119461358D01*
X92352487Y-119380683D01*
X92352466Y-119380659D01*
X92128299Y-119124911D01*
X91600160Y-118522367D01*
X91599628Y-118521755D01*
X91560751Y-118476788D01*
X90932363Y-117749956D01*
X90394646Y-117127999D01*
X90389377Y-117122554D01*
X88366231Y-114692673D01*
X88363745Y-114689589D01*
X88361323Y-114686483D01*
X86926723Y-112846435D01*
X86767804Y-112642602D01*
X86765974Y-112640195D01*
X86662136Y-112500095D01*
X86512423Y-112298099D01*
X95115733Y-112298099D01*
X95115733Y-112573434D01*
X95115734Y-112573451D01*
X95151671Y-112846422D01*
X95151672Y-112846427D01*
X95151673Y-112846433D01*
X95151674Y-112846435D01*
X95222937Y-113112397D01*
X95328308Y-113366784D01*
X95328313Y-113366795D01*
X95411094Y-113510174D01*
X95465984Y-113605246D01*
X95465986Y-113605249D01*
X95465987Y-113605250D01*
X95633603Y-113823693D01*
X95633609Y-113823700D01*
X95828299Y-114018390D01*
X95828305Y-114018395D01*
X96046754Y-114186016D01*
X96200011Y-114274499D01*
X96285204Y-114323686D01*
X96285209Y-114323688D01*
X96285212Y-114323690D01*
X96539601Y-114429062D01*
X96805567Y-114500327D01*
X97078559Y-114536267D01*
X97078566Y-114536267D01*
X97353900Y-114536267D01*
X97353907Y-114536267D01*
X97626899Y-114500327D01*
X97892865Y-114429062D01*
X98147254Y-114323690D01*
X98385712Y-114186016D01*
X98604161Y-114018395D01*
X98798861Y-113823695D01*
X98966482Y-113605246D01*
X99104156Y-113366788D01*
X99209528Y-113112399D01*
X99280793Y-112846433D01*
X99316733Y-112573441D01*
X99316733Y-112298093D01*
X99280793Y-112025101D01*
X99209528Y-111759135D01*
X99104156Y-111504746D01*
X99104154Y-111504743D01*
X99104152Y-111504738D01*
X99054965Y-111419545D01*
X98966482Y-111266288D01*
X98866372Y-111135821D01*
X98798862Y-111047840D01*
X98798856Y-111047833D01*
X98604166Y-110853143D01*
X98604159Y-110853137D01*
X98385716Y-110685521D01*
X98385715Y-110685520D01*
X98385712Y-110685518D01*
X98240397Y-110601620D01*
X98147261Y-110547847D01*
X98147250Y-110547842D01*
X97892863Y-110442471D01*
X97738040Y-110400987D01*
X97626899Y-110371207D01*
X97626893Y-110371206D01*
X97626888Y-110371205D01*
X97353917Y-110335268D01*
X97353912Y-110335267D01*
X97353907Y-110335267D01*
X97078559Y-110335267D01*
X97078553Y-110335267D01*
X97078548Y-110335268D01*
X96805577Y-110371205D01*
X96805570Y-110371206D01*
X96805567Y-110371207D01*
X96749358Y-110386267D01*
X96539602Y-110442471D01*
X96285215Y-110547842D01*
X96285204Y-110547847D01*
X96046749Y-110685521D01*
X95828306Y-110853137D01*
X95828299Y-110853143D01*
X95633609Y-111047833D01*
X95633603Y-111047840D01*
X95465987Y-111266283D01*
X95328313Y-111504738D01*
X95328308Y-111504749D01*
X95222937Y-111759136D01*
X95151674Y-112025098D01*
X95151671Y-112025111D01*
X95115734Y-112298082D01*
X95115733Y-112298099D01*
X86512423Y-112298099D01*
X86264115Y-111963075D01*
X86262367Y-111960655D01*
X86179623Y-111843138D01*
X86178092Y-111840913D01*
X85952181Y-111504738D01*
X85690697Y-111115627D01*
X85688292Y-111111905D01*
X85371573Y-110601610D01*
X85367016Y-110593617D01*
X85296951Y-110459384D01*
X85296859Y-110458973D01*
X85266565Y-110401169D01*
X85236167Y-110342931D01*
X85232944Y-110336756D01*
X85231967Y-110335152D01*
X85212523Y-110298052D01*
X85211489Y-110296035D01*
X85098097Y-110069712D01*
X84977944Y-109829896D01*
X84975688Y-109825142D01*
X84929108Y-109721360D01*
X84731703Y-109281536D01*
X84728941Y-109274867D01*
X84534119Y-108762565D01*
X98651267Y-108762565D01*
X98651267Y-109037900D01*
X98651268Y-109037917D01*
X98687205Y-109310888D01*
X98687206Y-109310893D01*
X98687207Y-109310899D01*
X98687208Y-109310901D01*
X98758471Y-109576863D01*
X98863842Y-109831250D01*
X98863847Y-109831261D01*
X98928325Y-109942938D01*
X99001518Y-110069712D01*
X99001520Y-110069715D01*
X99001521Y-110069716D01*
X99169137Y-110288159D01*
X99169143Y-110288166D01*
X99363833Y-110482856D01*
X99363839Y-110482861D01*
X99582288Y-110650482D01*
X99735545Y-110738965D01*
X99820738Y-110788152D01*
X99820743Y-110788154D01*
X99820746Y-110788156D01*
X100075135Y-110893528D01*
X100341101Y-110964793D01*
X100614093Y-111000733D01*
X100614100Y-111000733D01*
X100889434Y-111000733D01*
X100889441Y-111000733D01*
X101162433Y-110964793D01*
X101428399Y-110893528D01*
X101682788Y-110788156D01*
X101921246Y-110650482D01*
X102139695Y-110482861D01*
X102334395Y-110288161D01*
X102502016Y-110069712D01*
X102639690Y-109831254D01*
X102745062Y-109576865D01*
X102816327Y-109310899D01*
X102852267Y-109037907D01*
X102852267Y-108762559D01*
X102816327Y-108489567D01*
X102766659Y-108304204D01*
X102768322Y-108234355D01*
X102798751Y-108184432D01*
X105880695Y-105102489D01*
X105891825Y-105092182D01*
X105894858Y-105088326D01*
X106490602Y-104492581D01*
X106551923Y-104459098D01*
X106620687Y-104463741D01*
X106685186Y-104487217D01*
X106685192Y-104487218D01*
X106685196Y-104487220D01*
X106793160Y-104516148D01*
X107081656Y-104593451D01*
X107485877Y-104664726D01*
X107894770Y-104700499D01*
X107894771Y-104700500D01*
X107894772Y-104700500D01*
X110105229Y-104700500D01*
X110105229Y-104700499D01*
X110514123Y-104664726D01*
X110918344Y-104593451D01*
X111314814Y-104487217D01*
X111605055Y-104381578D01*
X111700512Y-104346835D01*
X111700522Y-104346831D01*
X111824517Y-104289010D01*
X112072517Y-104173366D01*
X112427983Y-103968138D01*
X112764209Y-103732710D01*
X113078637Y-103468874D01*
X113368874Y-103178637D01*
X113632710Y-102864209D01*
X113868138Y-102527983D01*
X114073366Y-102172517D01*
X114246833Y-101800517D01*
X114387217Y-101414814D01*
X114493451Y-101018344D01*
X114564726Y-100614123D01*
X114600500Y-100205228D01*
X114600500Y-99794772D01*
X114564726Y-99385877D01*
X114493451Y-98981656D01*
X114405396Y-98653031D01*
X114387219Y-98585192D01*
X114246835Y-98199487D01*
X114246831Y-98199477D01*
X114081706Y-97845368D01*
X114073366Y-97827483D01*
X113868138Y-97472017D01*
X113868130Y-97472006D01*
X113868126Y-97471999D01*
X113632709Y-97135789D01*
X113424821Y-96888038D01*
X113368874Y-96821363D01*
X113078637Y-96531126D01*
X112970037Y-96440000D01*
X112764210Y-96267290D01*
X112428000Y-96031873D01*
X112427989Y-96031866D01*
X112427983Y-96031862D01*
X112238145Y-95922259D01*
X112072523Y-95826637D01*
X112072507Y-95826629D01*
X111700522Y-95653168D01*
X111700512Y-95653164D01*
X111314807Y-95512780D01*
X110957832Y-95417129D01*
X110918344Y-95406549D01*
X110918338Y-95406547D01*
X110918334Y-95406547D01*
X110514128Y-95335274D01*
X110105229Y-95299500D01*
X110105228Y-95299500D01*
X107894772Y-95299500D01*
X107894771Y-95299500D01*
X107485872Y-95335274D01*
X107485870Y-95335274D01*
X107081665Y-95406547D01*
X107081648Y-95406551D01*
X106685192Y-95512780D01*
X106299487Y-95653164D01*
X106299477Y-95653168D01*
X105927492Y-95826629D01*
X105927476Y-95826637D01*
X105572025Y-96031857D01*
X105571999Y-96031873D01*
X105235789Y-96267290D01*
X104921360Y-96531128D01*
X104631128Y-96821360D01*
X104367290Y-97135789D01*
X104131873Y-97471999D01*
X104131857Y-97472025D01*
X103926637Y-97827476D01*
X103926629Y-97827492D01*
X103753168Y-98199477D01*
X103753164Y-98199487D01*
X103612780Y-98585192D01*
X103506551Y-98981648D01*
X103506547Y-98981665D01*
X103435274Y-99385870D01*
X103435274Y-99385872D01*
X103399500Y-99794770D01*
X103399500Y-100205229D01*
X103435274Y-100614127D01*
X103435274Y-100614129D01*
X103506547Y-101018334D01*
X103506551Y-101018351D01*
X103612780Y-101414807D01*
X103753164Y-101800512D01*
X103753168Y-101800522D01*
X103926629Y-102172507D01*
X103926634Y-102172517D01*
X104131862Y-102527983D01*
X104297591Y-102764669D01*
X104337804Y-102822098D01*
X104360131Y-102888305D01*
X104343121Y-102956072D01*
X104323910Y-102980903D01*
X104051340Y-103253472D01*
X104038873Y-103263397D01*
X104037536Y-103264546D01*
X103993490Y-103308725D01*
X103989375Y-103315437D01*
X100518317Y-106786496D01*
X100456994Y-106819981D01*
X100446822Y-106821754D01*
X100377785Y-106830843D01*
X100341101Y-106835673D01*
X100269837Y-106854768D01*
X100075136Y-106906937D01*
X99820749Y-107012308D01*
X99820738Y-107012313D01*
X99582283Y-107149987D01*
X99363840Y-107317603D01*
X99363833Y-107317609D01*
X99169143Y-107512299D01*
X99169137Y-107512306D01*
X99001521Y-107730749D01*
X98863847Y-107969204D01*
X98863842Y-107969215D01*
X98758471Y-108223602D01*
X98687208Y-108489564D01*
X98687205Y-108489577D01*
X98651268Y-108762548D01*
X98651267Y-108762565D01*
X84534119Y-108762565D01*
X84337007Y-108244241D01*
X84336207Y-108242076D01*
X84048277Y-107437907D01*
X84047647Y-107436102D01*
X84007301Y-107317609D01*
X83536121Y-105933780D01*
X83535841Y-105930284D01*
X83514912Y-105871489D01*
X83512359Y-105863989D01*
X83511984Y-105862870D01*
X83495962Y-105814309D01*
X83259408Y-105097323D01*
X83257731Y-105091813D01*
X83148535Y-104700500D01*
X83040318Y-104312693D01*
X83038898Y-104307105D01*
X82961114Y-103968142D01*
X82857971Y-103518671D01*
X82856827Y-103513086D01*
X82712794Y-102717105D01*
X82711909Y-102711470D01*
X82605073Y-101909622D01*
X82604446Y-101903897D01*
X82595543Y-101800512D01*
X82535048Y-101098000D01*
X82534688Y-101092242D01*
X82529153Y-100951634D01*
X82502871Y-100283977D01*
X82502779Y-100278271D01*
X82506267Y-99794770D01*
X85399500Y-99794770D01*
X85399500Y-100205229D01*
X85435274Y-100614127D01*
X85435274Y-100614129D01*
X85506547Y-101018334D01*
X85506551Y-101018351D01*
X85612780Y-101414807D01*
X85753164Y-101800512D01*
X85753168Y-101800522D01*
X85926629Y-102172507D01*
X85926634Y-102172517D01*
X86131862Y-102527983D01*
X86131866Y-102527989D01*
X86131873Y-102528000D01*
X86367290Y-102864210D01*
X86557991Y-103091478D01*
X86631126Y-103178637D01*
X86921363Y-103468874D01*
X86980751Y-103518706D01*
X87235789Y-103732709D01*
X87571999Y-103968126D01*
X87572006Y-103968130D01*
X87572017Y-103968138D01*
X87927483Y-104173366D01*
X87927492Y-104173370D01*
X88299477Y-104346831D01*
X88299487Y-104346835D01*
X88546460Y-104436725D01*
X88685186Y-104487217D01*
X88685187Y-104487217D01*
X88685192Y-104487219D01*
X88809745Y-104520592D01*
X89081656Y-104593451D01*
X89485877Y-104664726D01*
X89894770Y-104700499D01*
X89894771Y-104700500D01*
X89894772Y-104700500D01*
X92105229Y-104700500D01*
X92105229Y-104700499D01*
X92514123Y-104664726D01*
X92918344Y-104593451D01*
X93314814Y-104487217D01*
X93605055Y-104381578D01*
X93700512Y-104346835D01*
X93700522Y-104346831D01*
X93824517Y-104289010D01*
X94072517Y-104173366D01*
X94427983Y-103968138D01*
X94764209Y-103732710D01*
X95078637Y-103468874D01*
X95368874Y-103178637D01*
X95632710Y-102864209D01*
X95868138Y-102527983D01*
X96073366Y-102172517D01*
X96246833Y-101800517D01*
X96387217Y-101414814D01*
X96493451Y-101018344D01*
X96564726Y-100614123D01*
X96600500Y-100205228D01*
X96600500Y-99932791D01*
X99489500Y-99932791D01*
X99489500Y-100067209D01*
X99504980Y-100124980D01*
X99524290Y-100197047D01*
X99524291Y-100197048D01*
X99591495Y-100313450D01*
X99591497Y-100313453D01*
X99591498Y-100313454D01*
X99686546Y-100408502D01*
X99802954Y-100475710D01*
X99932791Y-100510500D01*
X99932794Y-100510500D01*
X100067206Y-100510500D01*
X100067209Y-100510500D01*
X100197046Y-100475710D01*
X100313454Y-100408502D01*
X100408502Y-100313454D01*
X100475710Y-100197046D01*
X100510500Y-100067209D01*
X100510500Y-99932791D01*
X100475710Y-99802954D01*
X100408502Y-99686546D01*
X100313454Y-99591498D01*
X100313453Y-99591497D01*
X100313450Y-99591495D01*
X100197048Y-99524291D01*
X100197047Y-99524290D01*
X100164586Y-99515592D01*
X100067209Y-99489500D01*
X99932791Y-99489500D01*
X99868582Y-99506705D01*
X99802952Y-99524290D01*
X99802951Y-99524291D01*
X99686549Y-99591495D01*
X99686544Y-99591499D01*
X99591499Y-99686544D01*
X99591495Y-99686549D01*
X99524291Y-99802951D01*
X99524290Y-99802952D01*
X99506895Y-99867872D01*
X99489500Y-99932791D01*
X96600500Y-99932791D01*
X96600500Y-99794772D01*
X96564726Y-99385877D01*
X96493451Y-98981656D01*
X96405396Y-98653031D01*
X96387219Y-98585192D01*
X96246835Y-98199487D01*
X96246831Y-98199477D01*
X96081706Y-97845368D01*
X96073366Y-97827483D01*
X95868138Y-97472017D01*
X95868130Y-97472006D01*
X95868126Y-97471999D01*
X95632709Y-97135789D01*
X95424821Y-96888038D01*
X95368874Y-96821363D01*
X95078637Y-96531126D01*
X95013720Y-96476654D01*
X97846001Y-96476654D01*
X97856319Y-96577652D01*
X97910546Y-96741300D01*
X97910551Y-96741311D01*
X98001052Y-96888034D01*
X98001055Y-96888038D01*
X98122961Y-97009944D01*
X98122965Y-97009947D01*
X98269688Y-97100448D01*
X98269699Y-97100453D01*
X98433347Y-97154680D01*
X98534351Y-97164999D01*
X98633500Y-97164998D01*
X98633500Y-96440000D01*
X97846001Y-96440000D01*
X97846001Y-96476654D01*
X95013720Y-96476654D01*
X94764209Y-96267290D01*
X94764208Y-96267289D01*
X94764203Y-96267285D01*
X94428000Y-96031873D01*
X94427989Y-96031866D01*
X94427983Y-96031862D01*
X94249064Y-95928563D01*
X94228718Y-95913886D01*
X94216851Y-95903345D01*
X97846000Y-95903345D01*
X97846000Y-95940000D01*
X98633500Y-95940000D01*
X98633500Y-94916000D01*
X97846001Y-94916000D01*
X97846001Y-94952654D01*
X97856319Y-95053652D01*
X97910546Y-95217300D01*
X97910551Y-95217311D01*
X98000354Y-95362903D01*
X98018795Y-95430295D01*
X98000354Y-95493097D01*
X97910551Y-95638688D01*
X97910546Y-95638699D01*
X97856319Y-95802347D01*
X97846000Y-95903345D01*
X94216851Y-95903345D01*
X94202898Y-95890952D01*
X94183685Y-95869386D01*
X94163252Y-95840214D01*
X94149435Y-95814496D01*
X94136601Y-95781892D01*
X94129278Y-95754342D01*
X94123343Y-95713570D01*
X94122459Y-95685665D01*
X94127204Y-95627340D01*
X94130818Y-95606077D01*
X94131289Y-95604273D01*
X94136163Y-95589479D01*
X94136731Y-95588062D01*
X94155443Y-95556190D01*
X94156632Y-95554722D01*
X94161358Y-95548882D01*
X94167895Y-95540587D01*
X94167896Y-95540583D01*
X94171159Y-95536444D01*
X94171327Y-95536576D01*
X94183086Y-95522147D01*
X96419330Y-93285903D01*
X96427875Y-93278121D01*
X96433634Y-93273347D01*
X96448441Y-93263827D01*
X96491701Y-93225224D01*
X96493442Y-93223782D01*
X96493886Y-93223590D01*
X96499089Y-93219371D01*
X96547642Y-93183667D01*
X96557036Y-93177400D01*
X96612021Y-93144245D01*
X96623351Y-93138191D01*
X96650561Y-93125423D01*
X96719611Y-93114768D01*
X96727407Y-93116061D01*
X96801768Y-93130852D01*
X96885456Y-93147500D01*
X96885459Y-93147500D01*
X97082543Y-93147500D01*
X97212582Y-93121632D01*
X97275835Y-93109051D01*
X97457914Y-93033632D01*
X97621782Y-92924139D01*
X97761139Y-92784782D01*
X97807736Y-92715043D01*
X97861347Y-92670240D01*
X97930672Y-92661532D01*
X97993700Y-92691686D01*
X98029914Y-92749338D01*
X98032255Y-92757396D01*
X98115917Y-92898862D01*
X98115923Y-92898870D01*
X98232129Y-93015076D01*
X98235493Y-93017685D01*
X98237456Y-93020403D01*
X98237651Y-93020598D01*
X98237619Y-93020629D01*
X98276404Y-93074324D01*
X98281593Y-93104562D01*
X98282903Y-93104434D01*
X98283499Y-93110496D01*
X98310418Y-93245822D01*
X98310421Y-93245832D01*
X98363222Y-93373307D01*
X98439887Y-93488045D01*
X98456298Y-93504456D01*
X98489783Y-93565779D01*
X98484799Y-93635471D01*
X98442927Y-93691404D01*
X98407622Y-93709843D01*
X98269697Y-93755547D01*
X98269688Y-93755551D01*
X98122965Y-93846052D01*
X98122961Y-93846055D01*
X98001055Y-93967961D01*
X98001052Y-93967965D01*
X97910551Y-94114688D01*
X97910546Y-94114699D01*
X97856319Y-94278347D01*
X97846000Y-94379345D01*
X97846000Y-94416000D01*
X98759500Y-94416000D01*
X98826539Y-94435685D01*
X98872294Y-94488489D01*
X98883500Y-94540000D01*
X98883500Y-94666000D01*
X99009500Y-94666000D01*
X99076539Y-94685685D01*
X99122294Y-94738489D01*
X99133500Y-94790000D01*
X99133500Y-97164999D01*
X99232640Y-97164999D01*
X99232654Y-97164998D01*
X99333652Y-97154680D01*
X99497300Y-97100453D01*
X99497311Y-97100448D01*
X99644033Y-97009948D01*
X99728674Y-96925307D01*
X99789997Y-96891822D01*
X99859689Y-96896806D01*
X99904037Y-96925307D01*
X99914351Y-96935621D01*
X99914355Y-96935624D01*
X99914357Y-96935626D01*
X99914360Y-96935627D01*
X99914363Y-96935630D01*
X100006856Y-96990329D01*
X100053106Y-97017681D01*
X100093928Y-97029541D01*
X100207897Y-97062653D01*
X100207900Y-97062653D01*
X100207902Y-97062654D01*
X100244065Y-97065500D01*
X100972934Y-97065499D01*
X101009098Y-97062654D01*
X101163894Y-97017681D01*
X101302643Y-96935626D01*
X101416626Y-96821643D01*
X101498681Y-96682894D01*
X101543654Y-96528098D01*
X101546500Y-96491935D01*
X101546499Y-95888066D01*
X101543654Y-95851902D01*
X101498681Y-95697106D01*
X101416626Y-95558357D01*
X101416625Y-95558356D01*
X101414476Y-95554722D01*
X101412142Y-95545526D01*
X101406252Y-95538089D01*
X101403689Y-95512209D01*
X101397293Y-95486998D01*
X101400302Y-95477998D01*
X101399368Y-95468559D01*
X101411203Y-95445403D01*
X101419453Y-95420735D01*
X101426849Y-95414791D01*
X101431167Y-95406345D01*
X101453643Y-95393263D01*
X101473919Y-95376972D01*
X101484960Y-95375036D01*
X101491553Y-95371199D01*
X101526578Y-95367739D01*
X101526676Y-95367722D01*
X101526728Y-95367724D01*
X101526731Y-95367724D01*
X101527684Y-95367766D01*
X101553991Y-95368927D01*
X101556857Y-95369054D01*
X101556863Y-95369056D01*
X101556874Y-95369055D01*
X101590831Y-95370560D01*
X101600173Y-95370867D01*
X101600691Y-95370878D01*
X101640261Y-95369742D01*
X101641125Y-95369718D01*
X101647491Y-95368872D01*
X101647517Y-95369067D01*
X101669205Y-95366500D01*
X102100996Y-95366500D01*
X102192040Y-95348389D01*
X102236328Y-95339580D01*
X102333090Y-95299500D01*
X102363807Y-95286777D01*
X102363808Y-95286776D01*
X102363811Y-95286775D01*
X102478543Y-95210114D01*
X103624114Y-94064543D01*
X103700775Y-93949811D01*
X103702431Y-93945815D01*
X103753578Y-93822332D01*
X103753580Y-93822328D01*
X103773418Y-93722598D01*
X103780500Y-93686996D01*
X103780500Y-91725762D01*
X103780723Y-91718329D01*
X103781207Y-91710253D01*
X103785653Y-91687176D01*
X103789436Y-91573230D01*
X103789535Y-91571588D01*
X103789642Y-91571289D01*
X103790081Y-91565234D01*
X103797305Y-91500763D01*
X103800316Y-91484183D01*
X103814626Y-91427588D01*
X103827217Y-91377785D01*
X103834541Y-91356889D01*
X103885424Y-91244918D01*
X103888636Y-91238370D01*
X103893296Y-91229539D01*
X103901597Y-91213808D01*
X103905474Y-91206271D01*
X103905678Y-91205864D01*
X103908895Y-91199298D01*
X104001862Y-91005155D01*
X104048569Y-90953196D01*
X104115955Y-90934735D01*
X104182625Y-90955636D01*
X104214017Y-90985828D01*
X104259652Y-91048639D01*
X104379360Y-91168347D01*
X104379365Y-91168351D01*
X104498817Y-91255137D01*
X104516315Y-91267850D01*
X104589550Y-91305165D01*
X104667146Y-91344703D01*
X104667148Y-91344703D01*
X104667151Y-91344705D01*
X104753450Y-91372745D01*
X104828152Y-91397018D01*
X104995351Y-91423500D01*
X104995356Y-91423500D01*
X105164649Y-91423500D01*
X105331847Y-91397018D01*
X105492849Y-91344705D01*
X105643685Y-91267850D01*
X105762631Y-91181430D01*
X105828437Y-91157951D01*
X105896491Y-91173776D01*
X105945186Y-91223882D01*
X105951698Y-91238415D01*
X105961646Y-91265088D01*
X105961649Y-91265093D01*
X106047809Y-91380187D01*
X106047812Y-91380190D01*
X106162906Y-91466350D01*
X106162913Y-91466354D01*
X106297620Y-91516596D01*
X106297627Y-91516598D01*
X106357155Y-91522999D01*
X106357172Y-91523000D01*
X106830000Y-91523000D01*
X106830000Y-90663686D01*
X106834394Y-90668080D01*
X106925606Y-90720741D01*
X107027339Y-90748000D01*
X107132661Y-90748000D01*
X107234394Y-90720741D01*
X107325606Y-90668080D01*
X107330000Y-90663686D01*
X107330000Y-91523000D01*
X107802828Y-91523000D01*
X107802844Y-91522999D01*
X107862372Y-91516598D01*
X107862379Y-91516596D01*
X107997086Y-91466354D01*
X107997093Y-91466350D01*
X108112187Y-91380190D01*
X108112190Y-91380187D01*
X108198350Y-91265093D01*
X108198354Y-91265086D01*
X108248596Y-91130379D01*
X108248598Y-91130372D01*
X108254999Y-91070844D01*
X108255000Y-91070827D01*
X108255000Y-90598000D01*
X107395686Y-90598000D01*
X107400080Y-90593606D01*
X107452741Y-90502394D01*
X107480000Y-90400661D01*
X107480000Y-90295339D01*
X107452741Y-90193606D01*
X107400080Y-90102394D01*
X107395686Y-90098000D01*
X108255000Y-90098000D01*
X108255000Y-89625172D01*
X108254999Y-89625155D01*
X108248598Y-89565627D01*
X108248596Y-89565620D01*
X108198354Y-89430913D01*
X108198350Y-89430906D01*
X108112190Y-89315812D01*
X108112187Y-89315809D01*
X107997093Y-89229649D01*
X107997086Y-89229645D01*
X107949151Y-89211767D01*
X107862379Y-89179403D01*
X107862372Y-89179401D01*
X107802844Y-89173000D01*
X107330000Y-89173000D01*
X107330000Y-90032314D01*
X107325606Y-90027920D01*
X107234394Y-89975259D01*
X107132661Y-89948000D01*
X107027339Y-89948000D01*
X106925606Y-89975259D01*
X106834394Y-90027920D01*
X106830000Y-90032314D01*
X106830000Y-89173000D01*
X106357155Y-89173000D01*
X106297627Y-89179401D01*
X106297620Y-89179403D01*
X106162913Y-89229645D01*
X106162906Y-89229649D01*
X106047812Y-89315809D01*
X106047809Y-89315812D01*
X105961649Y-89430906D01*
X105961644Y-89430915D01*
X105951697Y-89457585D01*
X105909825Y-89513518D01*
X105844361Y-89537934D01*
X105776088Y-89523082D01*
X105762631Y-89514568D01*
X105643688Y-89428152D01*
X105643687Y-89428151D01*
X105643685Y-89428150D01*
X105492849Y-89351295D01*
X105331847Y-89298982D01*
X105331845Y-89298981D01*
X105331843Y-89298981D01*
X105302527Y-89294338D01*
X105282792Y-89289528D01*
X105266000Y-89283943D01*
X105265998Y-89283942D01*
X105265993Y-89283941D01*
X104986079Y-89237607D01*
X104986066Y-89237605D01*
X104980690Y-89236714D01*
X104980629Y-89236705D01*
X104978471Y-89236348D01*
X104978394Y-89236338D01*
X104838829Y-89213397D01*
X104821363Y-89209207D01*
X104750719Y-89186741D01*
X104730285Y-89178164D01*
X104724140Y-89174911D01*
X104711882Y-89167485D01*
X104685604Y-89149410D01*
X104673117Y-89139586D01*
X104622601Y-89094311D01*
X108694689Y-89094311D01*
X108694689Y-89094325D01*
X108706183Y-89297933D01*
X108754893Y-89495968D01*
X108754896Y-89495979D01*
X108839159Y-89681682D01*
X108839161Y-89681687D01*
X108839162Y-89681688D01*
X108859868Y-89711266D01*
X108859879Y-89711296D01*
X108895206Y-89761749D01*
X108897283Y-89764715D01*
X108897640Y-89765225D01*
X108897648Y-89765236D01*
X108940265Y-89826115D01*
X108940344Y-89826212D01*
X110580606Y-92168747D01*
X110581589Y-92170151D01*
X110609502Y-92210015D01*
X110656199Y-92276704D01*
X110656304Y-92276792D01*
X110661022Y-92283526D01*
X110661023Y-92283531D01*
X110661042Y-92283554D01*
X110676920Y-92306230D01*
X110676926Y-92306238D01*
X110822607Y-92448961D01*
X110822608Y-92448961D01*
X110822610Y-92448963D01*
X110992041Y-92562490D01*
X110992042Y-92562490D01*
X110992043Y-92562491D01*
X111029242Y-92578461D01*
X111179449Y-92642951D01*
X111378450Y-92687606D01*
X111582267Y-92694934D01*
X111783962Y-92664686D01*
X111976663Y-92597891D01*
X112153810Y-92496825D01*
X112309370Y-92364929D01*
X112438046Y-92206695D01*
X112535454Y-92027511D01*
X112598280Y-91833478D01*
X112624382Y-91631206D01*
X112624381Y-91631196D01*
X112616795Y-91497000D01*
X112612871Y-91427581D01*
X112564141Y-91229539D01*
X112561573Y-91223882D01*
X112479853Y-91043827D01*
X112479852Y-91043826D01*
X112479851Y-91043823D01*
X112461771Y-91018001D01*
X112461766Y-91017993D01*
X110743189Y-88563612D01*
X110743172Y-88563588D01*
X110738401Y-88556771D01*
X110738395Y-88556753D01*
X110730769Y-88545865D01*
X110730742Y-88545786D01*
X110642120Y-88419248D01*
X110642119Y-88419247D01*
X110496427Y-88276545D01*
X110496423Y-88276541D01*
X110326988Y-88163035D01*
X110326985Y-88163033D01*
X110326984Y-88163033D01*
X110326983Y-88163032D01*
X110139589Y-88082595D01*
X110139581Y-88082592D01*
X109940591Y-88037954D01*
X109736786Y-88030636D01*
X109736781Y-88030637D01*
X109736780Y-88030637D01*
X109535097Y-88060892D01*
X109535094Y-88060892D01*
X109535093Y-88060893D01*
X109535088Y-88060894D01*
X109342416Y-88127683D01*
X109342408Y-88127687D01*
X109165271Y-88228748D01*
X109108877Y-88276563D01*
X109009715Y-88360640D01*
X109009713Y-88360641D01*
X109009711Y-88360644D01*
X108881043Y-88518863D01*
X108881042Y-88518865D01*
X108783636Y-88698032D01*
X108783631Y-88698042D01*
X108720802Y-88892054D01*
X108694689Y-89094311D01*
X104622601Y-89094311D01*
X104609437Y-89082513D01*
X104609437Y-89082512D01*
X104519539Y-89001943D01*
X104503708Y-88988471D01*
X104499075Y-88985207D01*
X104499475Y-88984638D01*
X104481002Y-88970477D01*
X104392016Y-88881491D01*
X104392015Y-88881490D01*
X104266485Y-88809016D01*
X104266486Y-88809016D01*
X104231482Y-88799637D01*
X104126475Y-88771500D01*
X97461525Y-88771500D01*
X97377519Y-88794009D01*
X97321513Y-88809016D01*
X97321512Y-88809017D01*
X97195989Y-88881487D01*
X97195984Y-88881491D01*
X95597887Y-90479587D01*
X95585930Y-90490099D01*
X95579077Y-90495383D01*
X95575733Y-90497232D01*
X95485464Y-90567575D01*
X95485130Y-90567834D01*
X95484946Y-90567905D01*
X95470925Y-90577304D01*
X95453820Y-90587077D01*
X95433592Y-90598636D01*
X95422830Y-90604108D01*
X95368066Y-90628676D01*
X95356245Y-90633268D01*
X95352441Y-90634526D01*
X95282611Y-90636886D01*
X95277511Y-90635457D01*
X95275836Y-90634948D01*
X95082543Y-90596500D01*
X95082541Y-90596500D01*
X94885459Y-90596500D01*
X94885457Y-90596500D01*
X94692170Y-90634947D01*
X94692160Y-90634950D01*
X94510092Y-90710364D01*
X94510079Y-90710371D01*
X94346218Y-90819860D01*
X94346214Y-90819863D01*
X94206863Y-90959214D01*
X94206860Y-90959218D01*
X94146664Y-91049308D01*
X94093052Y-91094113D01*
X94023727Y-91102820D01*
X93960699Y-91072665D01*
X93933077Y-91036712D01*
X93924804Y-91020475D01*
X93823032Y-90880397D01*
X93700602Y-90757967D01*
X93560524Y-90656195D01*
X93406257Y-90577591D01*
X93241589Y-90524087D01*
X93241581Y-90524085D01*
X93234000Y-90522884D01*
X93234000Y-91591670D01*
X93214255Y-91571925D01*
X93128745Y-91522556D01*
X93033370Y-91497000D01*
X92934630Y-91497000D01*
X92839255Y-91522556D01*
X92753745Y-91571925D01*
X92734000Y-91591670D01*
X92734000Y-90522884D01*
X92733999Y-90522884D01*
X92726418Y-90524085D01*
X92726410Y-90524087D01*
X92561742Y-90577591D01*
X92407475Y-90656195D01*
X92267397Y-90757967D01*
X92144967Y-90880397D01*
X92043195Y-91020475D01*
X91964591Y-91174742D01*
X91911085Y-91339415D01*
X91884000Y-91510428D01*
X91884000Y-91622000D01*
X92703670Y-91622000D01*
X92683925Y-91641745D01*
X92634556Y-91727255D01*
X92609000Y-91822630D01*
X92609000Y-91921370D01*
X92634556Y-92016745D01*
X92683925Y-92102255D01*
X92703670Y-92122000D01*
X91884000Y-92122000D01*
X91884000Y-92233571D01*
X91911085Y-92404584D01*
X91964591Y-92569257D01*
X92043195Y-92723524D01*
X92144967Y-92863602D01*
X92267397Y-92986032D01*
X92407475Y-93087804D01*
X92561744Y-93166408D01*
X92726415Y-93219914D01*
X92726414Y-93219914D01*
X92733999Y-93221115D01*
X92734000Y-93221114D01*
X92734000Y-92152330D01*
X92753745Y-92172075D01*
X92839255Y-92221444D01*
X92934630Y-92247000D01*
X93033370Y-92247000D01*
X93128745Y-92221444D01*
X93214255Y-92172075D01*
X93234000Y-92152330D01*
X93234000Y-93221115D01*
X93241584Y-93219914D01*
X93406255Y-93166408D01*
X93560524Y-93087804D01*
X93700602Y-92986032D01*
X93823032Y-92863602D01*
X93924803Y-92723524D01*
X93933076Y-92707289D01*
X93981049Y-92656492D01*
X94048870Y-92639696D01*
X94115005Y-92662232D01*
X94146664Y-92694691D01*
X94206860Y-92784782D01*
X94346214Y-92924136D01*
X94346218Y-92924139D01*
X94510079Y-93033628D01*
X94510091Y-93033635D01*
X94608326Y-93074324D01*
X94666056Y-93098236D01*
X94720460Y-93142076D01*
X94742525Y-93208370D01*
X94725246Y-93276070D01*
X94706285Y-93300478D01*
X93322390Y-94684373D01*
X93301151Y-94701389D01*
X93293789Y-94706060D01*
X93293780Y-94706067D01*
X93064508Y-94908162D01*
X93057287Y-94914060D01*
X92920986Y-95017089D01*
X92915314Y-95021131D01*
X92763508Y-95123014D01*
X92756969Y-95127114D01*
X92636751Y-95197364D01*
X92628811Y-95201624D01*
X92515693Y-95257128D01*
X92505914Y-95261415D01*
X92480666Y-95271207D01*
X92435697Y-95288650D01*
X92423636Y-95292630D01*
X92369616Y-95307433D01*
X92354619Y-95310562D01*
X92348609Y-95311432D01*
X92340315Y-95312633D01*
X92322277Y-95313913D01*
X92273918Y-95313808D01*
X92263380Y-95313336D01*
X92105232Y-95299500D01*
X92105228Y-95299500D01*
X89894772Y-95299500D01*
X89894771Y-95299500D01*
X89485872Y-95335274D01*
X89485870Y-95335274D01*
X89081665Y-95406547D01*
X89081648Y-95406551D01*
X88685192Y-95512780D01*
X88299487Y-95653164D01*
X88299477Y-95653168D01*
X87927492Y-95826629D01*
X87927476Y-95826637D01*
X87572025Y-96031857D01*
X87571999Y-96031873D01*
X87235789Y-96267290D01*
X86921360Y-96531128D01*
X86631128Y-96821360D01*
X86367290Y-97135789D01*
X86131873Y-97471999D01*
X86131857Y-97472025D01*
X85926637Y-97827476D01*
X85926629Y-97827492D01*
X85753168Y-98199477D01*
X85753164Y-98199487D01*
X85612780Y-98585192D01*
X85506551Y-98981648D01*
X85506547Y-98981665D01*
X85435274Y-99385870D01*
X85435274Y-99385872D01*
X85399500Y-99794770D01*
X82506267Y-99794770D01*
X82508614Y-99469376D01*
X82508790Y-99463614D01*
X82512974Y-99385872D01*
X82552263Y-98655875D01*
X82552704Y-98650170D01*
X82633723Y-97845343D01*
X82634427Y-97839665D01*
X82752817Y-97039452D01*
X82753795Y-97033767D01*
X82756946Y-97017681D01*
X82909291Y-96239973D01*
X82910519Y-96234391D01*
X83102801Y-95448647D01*
X83104290Y-95443122D01*
X83332924Y-94667204D01*
X83334682Y-94661714D01*
X83599179Y-93897276D01*
X83601172Y-93891924D01*
X83900980Y-93140570D01*
X83903206Y-93135350D01*
X84237650Y-92398782D01*
X84240127Y-92393648D01*
X84608488Y-91673445D01*
X84611214Y-91668408D01*
X84632487Y-91631196D01*
X87375579Y-91631196D01*
X87375580Y-91631205D01*
X87401680Y-91833476D01*
X87401681Y-91833481D01*
X87464508Y-92027521D01*
X87464509Y-92027522D01*
X87561921Y-92206713D01*
X87690580Y-92364929D01*
X87690601Y-92364954D01*
X87690607Y-92364960D01*
X87846125Y-92496820D01*
X87846165Y-92496854D01*
X88023319Y-92597925D01*
X88023325Y-92597927D01*
X88023327Y-92597928D01*
X88206824Y-92661532D01*
X88216027Y-92664722D01*
X88417729Y-92694972D01*
X88621554Y-92687644D01*
X88820562Y-92642987D01*
X89007976Y-92562523D01*
X89177414Y-92448992D01*
X89323105Y-92306260D01*
X89337166Y-92286177D01*
X89337171Y-92286172D01*
X89362102Y-92250568D01*
X91064547Y-89819224D01*
X91064568Y-89819207D01*
X91099104Y-89769872D01*
X91140119Y-89711297D01*
X91140120Y-89711294D01*
X91144645Y-89704832D01*
X91144889Y-89704429D01*
X91160815Y-89681681D01*
X91245082Y-89495968D01*
X91293792Y-89297935D01*
X91305287Y-89094323D01*
X91279175Y-88892065D01*
X91216346Y-88698049D01*
X91118938Y-88518879D01*
X90990268Y-88360657D01*
X90990265Y-88360654D01*
X90990264Y-88360653D01*
X90834717Y-88228770D01*
X90834714Y-88228768D01*
X90657589Y-88127711D01*
X90657583Y-88127708D01*
X90464892Y-88060913D01*
X90284826Y-88033902D01*
X90263217Y-88030661D01*
X90263216Y-88030661D01*
X90263210Y-88030660D01*
X90059408Y-88037978D01*
X89860422Y-88082616D01*
X89860418Y-88082618D01*
X89673021Y-88163057D01*
X89503589Y-88276561D01*
X89503587Y-88276563D01*
X89417746Y-88360644D01*
X89357898Y-88419265D01*
X89341604Y-88442529D01*
X89341603Y-88442528D01*
X89337182Y-88448839D01*
X89337165Y-88448855D01*
X89302904Y-88497783D01*
X89299409Y-88502775D01*
X89299402Y-88502786D01*
X89257082Y-88563209D01*
X89257013Y-88563322D01*
X87608122Y-90918183D01*
X87608023Y-90918261D01*
X87520116Y-91043801D01*
X87435825Y-91229519D01*
X87435821Y-91229532D01*
X87387092Y-91427565D01*
X87387091Y-91427576D01*
X87375579Y-91631196D01*
X84632487Y-91631196D01*
X85012667Y-90966175D01*
X85015643Y-90961240D01*
X85016673Y-90959619D01*
X85449360Y-90278424D01*
X85452537Y-90273671D01*
X85917563Y-89611778D01*
X85920966Y-89607168D01*
X86146626Y-89315812D01*
X86331569Y-89077026D01*
X86416272Y-88967663D01*
X86419892Y-88963205D01*
X86944451Y-88347412D01*
X86948263Y-88343143D01*
X87499486Y-87753954D01*
X87506511Y-87747023D01*
X87707553Y-87563971D01*
X87718459Y-87555119D01*
X87937250Y-87397276D01*
X87949109Y-87389706D01*
X88184378Y-87257692D01*
X88197004Y-87251522D01*
X88445740Y-87147029D01*
X88458979Y-87142332D01*
X88717955Y-87066717D01*
X88731643Y-87063551D01*
X88997518Y-87017787D01*
X89011489Y-87016193D01*
X89283822Y-87000699D01*
X89290865Y-87000500D01*
X110708606Y-87000500D01*
X110715648Y-87000700D01*
G37*
%TD.AperFunction*%
%TD*%
M02*
