%TF.GenerationSoftware,KiCad,Pcbnew,9.0.6*%
%TF.CreationDate,2025-11-20T15:49:29+01:00*%
%TF.ProjectId,N57__ldruckanzeige_Sensor,4e35375f-d66c-4647-9275-636b616e7a65,rev?*%
%TF.SameCoordinates,Original*%
%TF.FileFunction,Legend,Top*%
%TF.FilePolarity,Positive*%
%FSLAX46Y46*%
G04 Gerber Fmt 4.6, Leading zero omitted, Abs format (unit mm)*
G04 Created by KiCad (PCBNEW 9.0.6) date 2025-11-20 15:49:29*
%MOMM*%
%LPD*%
G01*
G04 APERTURE LIST*
G04 Aperture macros list*
%AMRoundRect*
0 Rectangle with rounded corners*
0 $1 Rounding radius*
0 $2 $3 $4 $5 $6 $7 $8 $9 X,Y pos of 4 corners*
0 Add a 4 corners polygon primitive as box body*
4,1,4,$2,$3,$4,$5,$6,$7,$8,$9,$2,$3,0*
0 Add four circle primitives for the rounded corners*
1,1,$1+$1,$2,$3*
1,1,$1+$1,$4,$5*
1,1,$1+$1,$6,$7*
1,1,$1+$1,$8,$9*
0 Add four rect primitives between the rounded corners*
20,1,$1+$1,$2,$3,$4,$5,0*
20,1,$1+$1,$4,$5,$6,$7,0*
20,1,$1+$1,$6,$7,$8,$9,0*
20,1,$1+$1,$8,$9,$2,$3,0*%
G04 Aperture macros list end*
%ADD10C,0.153000*%
%ADD11C,0.250000*%
%ADD12C,0.150000*%
%ADD13C,0.120000*%
%ADD14C,0.000000*%
%ADD15O,10.400000X8.600000*%
%ADD16C,3.400000*%
%ADD17RoundRect,0.237500X0.300000X0.237500X-0.300000X0.237500X-0.300000X-0.237500X0.300000X-0.237500X0*%
%ADD18R,1.350000X1.350000*%
%ADD19C,1.350000*%
%ADD20RoundRect,0.250000X0.350000X0.625000X-0.350000X0.625000X-0.350000X-0.625000X0.350000X-0.625000X0*%
%ADD21O,1.200000X1.750000*%
G04 APERTURE END LIST*
D10*
G36*
X105345265Y-94536017D02*
G01*
X105421891Y-94574330D01*
X105495581Y-94648019D01*
X105533563Y-94761965D01*
X105533563Y-94911147D01*
X104686563Y-94911147D01*
X104686563Y-94761965D01*
X104724544Y-94648020D01*
X104798236Y-94574329D01*
X104874860Y-94536017D01*
X105048052Y-94492719D01*
X105172073Y-94492719D01*
X105345265Y-94536017D01*
G37*
G36*
X105533563Y-93672374D02*
G01*
X105533563Y-93874349D01*
X105505424Y-93930626D01*
X105449145Y-93958766D01*
X105390027Y-93958766D01*
X105333749Y-93930627D01*
X105305610Y-93874349D01*
X105305610Y-93654314D01*
X105304140Y-93639390D01*
X105303087Y-93636849D01*
X105302997Y-93635576D01*
X105515164Y-93635576D01*
X105533563Y-93672374D01*
G37*
G36*
X105533563Y-92196183D02*
G01*
X105533563Y-92398158D01*
X105505424Y-92454435D01*
X105449145Y-92482575D01*
X105390027Y-92482575D01*
X105333749Y-92454436D01*
X105305610Y-92398158D01*
X105305610Y-92178123D01*
X105304140Y-92163199D01*
X105303087Y-92160658D01*
X105302997Y-92159385D01*
X105515164Y-92159385D01*
X105533563Y-92196183D01*
G37*
G36*
X105797674Y-95175258D02*
G01*
X104422452Y-95175258D01*
X104422452Y-94749552D01*
X104533563Y-94749552D01*
X104533563Y-94987647D01*
X104535033Y-95002571D01*
X104546456Y-95030148D01*
X104567562Y-95051254D01*
X104595139Y-95062677D01*
X104610063Y-95064147D01*
X105610063Y-95064147D01*
X105624987Y-95062677D01*
X105652564Y-95051254D01*
X105673670Y-95030148D01*
X105685093Y-95002571D01*
X105686563Y-94987647D01*
X105686563Y-94749552D01*
X105685818Y-94741997D01*
X105685962Y-94739983D01*
X105685359Y-94737333D01*
X105685093Y-94734628D01*
X105684320Y-94732762D01*
X105682637Y-94725360D01*
X105635018Y-94582504D01*
X105628904Y-94568810D01*
X105627102Y-94566733D01*
X105626051Y-94564194D01*
X105616538Y-94552601D01*
X105521298Y-94457363D01*
X105515433Y-94452550D01*
X105514108Y-94451022D01*
X105511803Y-94449571D01*
X105509706Y-94447850D01*
X105507843Y-94447078D01*
X105501417Y-94443033D01*
X105406179Y-94395414D01*
X105405084Y-94394995D01*
X105404643Y-94394668D01*
X105398388Y-94392433D01*
X105392173Y-94390055D01*
X105391623Y-94390015D01*
X105390521Y-94389622D01*
X105200045Y-94342003D01*
X105197456Y-94341620D01*
X105196415Y-94341189D01*
X105190791Y-94340635D01*
X105185210Y-94339810D01*
X105184096Y-94339975D01*
X105181491Y-94339719D01*
X105038634Y-94339719D01*
X105036028Y-94339975D01*
X105034915Y-94339810D01*
X105029333Y-94340635D01*
X105023710Y-94341189D01*
X105022668Y-94341620D01*
X105020080Y-94342003D01*
X104829604Y-94389622D01*
X104828501Y-94390015D01*
X104827952Y-94390055D01*
X104821736Y-94392433D01*
X104815482Y-94394668D01*
X104815040Y-94394995D01*
X104813946Y-94395414D01*
X104718708Y-94443033D01*
X104712281Y-94447078D01*
X104710419Y-94447850D01*
X104708320Y-94449571D01*
X104706017Y-94451022D01*
X104704692Y-94452548D01*
X104698826Y-94457363D01*
X104603588Y-94552601D01*
X104594075Y-94564194D01*
X104593022Y-94566734D01*
X104591222Y-94568811D01*
X104585108Y-94582504D01*
X104537489Y-94725361D01*
X104535806Y-94732760D01*
X104535033Y-94734628D01*
X104534766Y-94737334D01*
X104534164Y-94739984D01*
X104534307Y-94741997D01*
X104533563Y-94749552D01*
X104422452Y-94749552D01*
X104422452Y-93701933D01*
X104866896Y-93701933D01*
X104866896Y-93892409D01*
X104868366Y-93907333D01*
X104869418Y-93909873D01*
X104869613Y-93912615D01*
X104874972Y-93926621D01*
X104922591Y-94021859D01*
X104930580Y-94034550D01*
X104953130Y-94054107D01*
X104981447Y-94063546D01*
X105011221Y-94061430D01*
X105037918Y-94048081D01*
X105057475Y-94025532D01*
X105066914Y-93997215D01*
X105064798Y-93967441D01*
X105059439Y-93953435D01*
X105019896Y-93874349D01*
X105019896Y-93719993D01*
X105048035Y-93663715D01*
X105104313Y-93635576D01*
X105134211Y-93635576D01*
X105152610Y-93672374D01*
X105152610Y-93892409D01*
X105154080Y-93907333D01*
X105155132Y-93909873D01*
X105155327Y-93912615D01*
X105160686Y-93926621D01*
X105208305Y-94021859D01*
X105209877Y-94024356D01*
X105210269Y-94025532D01*
X105211538Y-94026996D01*
X105216294Y-94034550D01*
X105223540Y-94040835D01*
X105229826Y-94048082D01*
X105237379Y-94052837D01*
X105238844Y-94054107D01*
X105240019Y-94054498D01*
X105242517Y-94056071D01*
X105337755Y-94103690D01*
X105351761Y-94109049D01*
X105354502Y-94109243D01*
X105357043Y-94110296D01*
X105371967Y-94111766D01*
X105467205Y-94111766D01*
X105482129Y-94110296D01*
X105484669Y-94109243D01*
X105487411Y-94109049D01*
X105501417Y-94103690D01*
X105596655Y-94056071D01*
X105599151Y-94054499D01*
X105600329Y-94054107D01*
X105601795Y-94052834D01*
X105609346Y-94048082D01*
X105615629Y-94040837D01*
X105622879Y-94034550D01*
X105627634Y-94026995D01*
X105628904Y-94025532D01*
X105629295Y-94024356D01*
X105630868Y-94021859D01*
X105678487Y-93926621D01*
X105683846Y-93912615D01*
X105684040Y-93909873D01*
X105685093Y-93907333D01*
X105686563Y-93892409D01*
X105686563Y-93654314D01*
X105685093Y-93639390D01*
X105684040Y-93636849D01*
X105683846Y-93634108D01*
X105678487Y-93620102D01*
X105670706Y-93604540D01*
X105673670Y-93601577D01*
X105685093Y-93574000D01*
X105685093Y-93544152D01*
X105673670Y-93516575D01*
X105652564Y-93495469D01*
X105624987Y-93484046D01*
X105610063Y-93482576D01*
X105086253Y-93482576D01*
X105071329Y-93484046D01*
X105068788Y-93485098D01*
X105066047Y-93485293D01*
X105052041Y-93490652D01*
X104956803Y-93538271D01*
X104954305Y-93539843D01*
X104953130Y-93540235D01*
X104951665Y-93541504D01*
X104944112Y-93546260D01*
X104937826Y-93553506D01*
X104930580Y-93559792D01*
X104925824Y-93567345D01*
X104924555Y-93568810D01*
X104924163Y-93569985D01*
X104922591Y-93572483D01*
X104874972Y-93667721D01*
X104869613Y-93681727D01*
X104869418Y-93684468D01*
X104868366Y-93687009D01*
X104866896Y-93701933D01*
X104422452Y-93701933D01*
X104422452Y-93067961D01*
X104535033Y-93067961D01*
X104535033Y-93097809D01*
X104546456Y-93125386D01*
X104567562Y-93146492D01*
X104595139Y-93157915D01*
X104610063Y-93159385D01*
X104866896Y-93159385D01*
X104866896Y-93225742D01*
X104868366Y-93240666D01*
X104879789Y-93268243D01*
X104900895Y-93289349D01*
X104928472Y-93300772D01*
X104958320Y-93300772D01*
X104985897Y-93289349D01*
X105007003Y-93268243D01*
X105018426Y-93240666D01*
X105019896Y-93225742D01*
X105019896Y-93159385D01*
X105467205Y-93159385D01*
X105482129Y-93157915D01*
X105484669Y-93156862D01*
X105487411Y-93156668D01*
X105501417Y-93151309D01*
X105596655Y-93103690D01*
X105599151Y-93102118D01*
X105600329Y-93101726D01*
X105601795Y-93100453D01*
X105609346Y-93095701D01*
X105615629Y-93088456D01*
X105622879Y-93082169D01*
X105627634Y-93074614D01*
X105628904Y-93073151D01*
X105629295Y-93071975D01*
X105630868Y-93069478D01*
X105678487Y-92974240D01*
X105683846Y-92960234D01*
X105684040Y-92957492D01*
X105685093Y-92954952D01*
X105686563Y-92940028D01*
X105686563Y-92844790D01*
X105685093Y-92829866D01*
X105673670Y-92802289D01*
X105652564Y-92781183D01*
X105624987Y-92769760D01*
X105595139Y-92769760D01*
X105567562Y-92781183D01*
X105546456Y-92802289D01*
X105535033Y-92829866D01*
X105533563Y-92844790D01*
X105533563Y-92921968D01*
X105505424Y-92978245D01*
X105449145Y-93006385D01*
X105019896Y-93006385D01*
X105019896Y-92844790D01*
X105018426Y-92829866D01*
X105007003Y-92802289D01*
X104985897Y-92781183D01*
X104958320Y-92769760D01*
X104928472Y-92769760D01*
X104900895Y-92781183D01*
X104879789Y-92802289D01*
X104868366Y-92829866D01*
X104866896Y-92844790D01*
X104866896Y-93006385D01*
X104610063Y-93006385D01*
X104595139Y-93007855D01*
X104567562Y-93019278D01*
X104546456Y-93040384D01*
X104535033Y-93067961D01*
X104422452Y-93067961D01*
X104422452Y-92225742D01*
X104866896Y-92225742D01*
X104866896Y-92416218D01*
X104868366Y-92431142D01*
X104869418Y-92433682D01*
X104869613Y-92436424D01*
X104874972Y-92450430D01*
X104922591Y-92545668D01*
X104930580Y-92558359D01*
X104953130Y-92577916D01*
X104981447Y-92587355D01*
X105011221Y-92585239D01*
X105037918Y-92571890D01*
X105057475Y-92549341D01*
X105066914Y-92521024D01*
X105064798Y-92491250D01*
X105059439Y-92477244D01*
X105019896Y-92398158D01*
X105019896Y-92243802D01*
X105048035Y-92187524D01*
X105104313Y-92159385D01*
X105134211Y-92159385D01*
X105152610Y-92196183D01*
X105152610Y-92416218D01*
X105154080Y-92431142D01*
X105155132Y-92433682D01*
X105155327Y-92436424D01*
X105160686Y-92450430D01*
X105208305Y-92545668D01*
X105209877Y-92548165D01*
X105210269Y-92549341D01*
X105211538Y-92550805D01*
X105216294Y-92558359D01*
X105223540Y-92564644D01*
X105229826Y-92571891D01*
X105237379Y-92576646D01*
X105238844Y-92577916D01*
X105240019Y-92578307D01*
X105242517Y-92579880D01*
X105337755Y-92627499D01*
X105351761Y-92632858D01*
X105354502Y-92633052D01*
X105357043Y-92634105D01*
X105371967Y-92635575D01*
X105467205Y-92635575D01*
X105482129Y-92634105D01*
X105484669Y-92633052D01*
X105487411Y-92632858D01*
X105501417Y-92627499D01*
X105596655Y-92579880D01*
X105599151Y-92578308D01*
X105600329Y-92577916D01*
X105601795Y-92576643D01*
X105609346Y-92571891D01*
X105615629Y-92564646D01*
X105622879Y-92558359D01*
X105627634Y-92550804D01*
X105628904Y-92549341D01*
X105629295Y-92548165D01*
X105630868Y-92545668D01*
X105678487Y-92450430D01*
X105683846Y-92436424D01*
X105684040Y-92433682D01*
X105685093Y-92431142D01*
X105686563Y-92416218D01*
X105686563Y-92178123D01*
X105685093Y-92163199D01*
X105684040Y-92160658D01*
X105683846Y-92157917D01*
X105678487Y-92143911D01*
X105670706Y-92128349D01*
X105673670Y-92125386D01*
X105685093Y-92097809D01*
X105685093Y-92067961D01*
X105673670Y-92040384D01*
X105652564Y-92019278D01*
X105624987Y-92007855D01*
X105610063Y-92006385D01*
X105086253Y-92006385D01*
X105071329Y-92007855D01*
X105068788Y-92008907D01*
X105066047Y-92009102D01*
X105052041Y-92014461D01*
X104956803Y-92062080D01*
X104954305Y-92063652D01*
X104953130Y-92064044D01*
X104951665Y-92065313D01*
X104944112Y-92070069D01*
X104937826Y-92077315D01*
X104930580Y-92083601D01*
X104925824Y-92091154D01*
X104924555Y-92092619D01*
X104924163Y-92093794D01*
X104922591Y-92096292D01*
X104874972Y-92191530D01*
X104869613Y-92205536D01*
X104869418Y-92208277D01*
X104868366Y-92210818D01*
X104866896Y-92225742D01*
X104422452Y-92225742D01*
X104422452Y-91895274D01*
X105797674Y-91895274D01*
X105797674Y-95175258D01*
G37*
D11*
G36*
X114830271Y-107709373D02*
G01*
X110517053Y-107709373D01*
X110517053Y-105366911D01*
X110739275Y-105366911D01*
X110742586Y-105391191D01*
X111218776Y-107391191D01*
X111221660Y-107399559D01*
X111222059Y-107402559D01*
X111223629Y-107405271D01*
X111226761Y-107414357D01*
X111237402Y-107429061D01*
X111246496Y-107444769D01*
X111251592Y-107448670D01*
X111255355Y-107453869D01*
X111270812Y-107463381D01*
X111285225Y-107474413D01*
X111291425Y-107476066D01*
X111296893Y-107479431D01*
X111314818Y-107482304D01*
X111332351Y-107486980D01*
X111338711Y-107486134D01*
X111345050Y-107487151D01*
X111362709Y-107482946D01*
X111380698Y-107480556D01*
X111386251Y-107477340D01*
X111392496Y-107475854D01*
X111407202Y-107465211D01*
X111422908Y-107456119D01*
X111426807Y-107451024D01*
X111432008Y-107447261D01*
X111441522Y-107431799D01*
X111452552Y-107417390D01*
X111455925Y-107408394D01*
X111457570Y-107405722D01*
X111458049Y-107402729D01*
X111461156Y-107394446D01*
X111721329Y-106418794D01*
X111981503Y-107394446D01*
X111984609Y-107402728D01*
X111985089Y-107405722D01*
X111986734Y-107408395D01*
X111990107Y-107417389D01*
X112001136Y-107431799D01*
X112010651Y-107447260D01*
X112015850Y-107451022D01*
X112019751Y-107456119D01*
X112035458Y-107465212D01*
X112050163Y-107475854D01*
X112056407Y-107477340D01*
X112061961Y-107480556D01*
X112079954Y-107482946D01*
X112097609Y-107487150D01*
X112103944Y-107486134D01*
X112110308Y-107486980D01*
X112127843Y-107482303D01*
X112145766Y-107479431D01*
X112151233Y-107476066D01*
X112157433Y-107474413D01*
X112171843Y-107463383D01*
X112187304Y-107453869D01*
X112191066Y-107448669D01*
X112196163Y-107444769D01*
X112205256Y-107429061D01*
X112215898Y-107414357D01*
X112219029Y-107405271D01*
X112220600Y-107402559D01*
X112220998Y-107399559D01*
X112223883Y-107391191D01*
X112700074Y-105391191D01*
X112703385Y-105366911D01*
X112702636Y-105362238D01*
X113215377Y-105362238D01*
X113215377Y-107362238D01*
X113217779Y-107386624D01*
X113236443Y-107431684D01*
X113270931Y-107466172D01*
X113315991Y-107484836D01*
X113364763Y-107484836D01*
X113409823Y-107466172D01*
X113444311Y-107431684D01*
X113462975Y-107386624D01*
X113465377Y-107362238D01*
X113465377Y-106556871D01*
X113612566Y-106409681D01*
X114383234Y-107437238D01*
X114399787Y-107455305D01*
X114441754Y-107480155D01*
X114490037Y-107487053D01*
X114537284Y-107474948D01*
X114576301Y-107445685D01*
X114601151Y-107403717D01*
X114608049Y-107355434D01*
X114595944Y-107308188D01*
X114583234Y-107287238D01*
X113791138Y-106231109D01*
X114571622Y-105450626D01*
X114587167Y-105431684D01*
X114605832Y-105386625D01*
X114605832Y-105337851D01*
X114587167Y-105292792D01*
X114552680Y-105258305D01*
X114507621Y-105239640D01*
X114458847Y-105239640D01*
X114413788Y-105258305D01*
X114394846Y-105273850D01*
X113465377Y-106203319D01*
X113465377Y-105362238D01*
X113462975Y-105337852D01*
X113444311Y-105292792D01*
X113409823Y-105258304D01*
X113364763Y-105239640D01*
X113315991Y-105239640D01*
X113270931Y-105258304D01*
X113236443Y-105292792D01*
X113217779Y-105337852D01*
X113215377Y-105362238D01*
X112702636Y-105362238D01*
X112695666Y-105318754D01*
X112670104Y-105277216D01*
X112630592Y-105248622D01*
X112583146Y-105237326D01*
X112534989Y-105245045D01*
X112493450Y-105270607D01*
X112464857Y-105310119D01*
X112456872Y-105333285D01*
X112095420Y-106851378D01*
X111842109Y-105901458D01*
X111839967Y-105895747D01*
X111839648Y-105893344D01*
X111837996Y-105890490D01*
X111833505Y-105878515D01*
X111823479Y-105865416D01*
X111815211Y-105851135D01*
X111808781Y-105846213D01*
X111803861Y-105839785D01*
X111789587Y-105831521D01*
X111776482Y-105821490D01*
X111768655Y-105819403D01*
X111761651Y-105815348D01*
X111745299Y-105813175D01*
X111729356Y-105808924D01*
X111721329Y-105809990D01*
X111713304Y-105808924D01*
X111697368Y-105813173D01*
X111681009Y-105815347D01*
X111673998Y-105819405D01*
X111666179Y-105821491D01*
X111653084Y-105831513D01*
X111638799Y-105839784D01*
X111633876Y-105846215D01*
X111627449Y-105851135D01*
X111619184Y-105865410D01*
X111609155Y-105878514D01*
X111604662Y-105890494D01*
X111603012Y-105893345D01*
X111602692Y-105895746D01*
X111600551Y-105901458D01*
X111347238Y-106851379D01*
X110985788Y-105333285D01*
X110977803Y-105310119D01*
X110949210Y-105270607D01*
X110907671Y-105245045D01*
X110859514Y-105237326D01*
X110812068Y-105248622D01*
X110772556Y-105277215D01*
X110746994Y-105318754D01*
X110739275Y-105366911D01*
X110517053Y-105366911D01*
X110517053Y-105015104D01*
X114830271Y-105015104D01*
X114830271Y-107709373D01*
G37*
G36*
X89430742Y-107709460D02*
G01*
X87498203Y-107709460D01*
X87498203Y-106219380D01*
X87720425Y-106219380D01*
X87720425Y-106505095D01*
X87720844Y-106509349D01*
X87720573Y-106511171D01*
X87721922Y-106520299D01*
X87722827Y-106529481D01*
X87723531Y-106531182D01*
X87724157Y-106535412D01*
X87819395Y-106916364D01*
X87820038Y-106918163D01*
X87820102Y-106919063D01*
X87823984Y-106929209D01*
X87827640Y-106939439D01*
X87828176Y-106940163D01*
X87828860Y-106941949D01*
X87924098Y-107132425D01*
X87930703Y-107142917D01*
X87931967Y-107145969D01*
X87934787Y-107149405D01*
X87937152Y-107153162D01*
X87939643Y-107155322D01*
X87947512Y-107164911D01*
X88137988Y-107355388D01*
X88156930Y-107370933D01*
X88161081Y-107372652D01*
X88164474Y-107375595D01*
X88186849Y-107385585D01*
X88472564Y-107480823D01*
X88484654Y-107483572D01*
X88487706Y-107484836D01*
X88492128Y-107485271D01*
X88496458Y-107486256D01*
X88499748Y-107486022D01*
X88512092Y-107487238D01*
X88702568Y-107487238D01*
X88714911Y-107486022D01*
X88718202Y-107486256D01*
X88722531Y-107485271D01*
X88726954Y-107484836D01*
X88730005Y-107483572D01*
X88742096Y-107480823D01*
X89027810Y-107385585D01*
X89050185Y-107375595D01*
X89053577Y-107372652D01*
X89057729Y-107370933D01*
X89076671Y-107355388D01*
X89171909Y-107260149D01*
X89187454Y-107241207D01*
X89206119Y-107196147D01*
X89206118Y-107196136D01*
X89208520Y-107171761D01*
X89208520Y-106505095D01*
X89206118Y-106480709D01*
X89187454Y-106435649D01*
X89152966Y-106401161D01*
X89107906Y-106382497D01*
X89083520Y-106380095D01*
X88702568Y-106380095D01*
X88678182Y-106382497D01*
X88633122Y-106401161D01*
X88598634Y-106435649D01*
X88579970Y-106480709D01*
X88579970Y-106529481D01*
X88598634Y-106574541D01*
X88633122Y-106609029D01*
X88678182Y-106627693D01*
X88702568Y-106630095D01*
X88958520Y-106630095D01*
X88958520Y-107119984D01*
X88920757Y-107157747D01*
X88682285Y-107237238D01*
X88532375Y-107237238D01*
X88293899Y-107157746D01*
X88138633Y-107002478D01*
X88058603Y-106842419D01*
X87970425Y-106489706D01*
X87970425Y-106234769D01*
X88058603Y-105882055D01*
X88138633Y-105721995D01*
X88293900Y-105566729D01*
X88532375Y-105487238D01*
X88768298Y-105487238D01*
X88932381Y-105569280D01*
X88955266Y-105578037D01*
X89003916Y-105581495D01*
X89050187Y-105566071D01*
X89087032Y-105534115D01*
X89108843Y-105490492D01*
X89112301Y-105441842D01*
X89096877Y-105395572D01*
X89064921Y-105358727D01*
X89044184Y-105345673D01*
X88853708Y-105250435D01*
X88830822Y-105241677D01*
X88826340Y-105241358D01*
X88822192Y-105239640D01*
X88797806Y-105237238D01*
X88512092Y-105237238D01*
X88499748Y-105238453D01*
X88496458Y-105238220D01*
X88492128Y-105239204D01*
X88487706Y-105239640D01*
X88484654Y-105240903D01*
X88472564Y-105243653D01*
X88186849Y-105338891D01*
X88164474Y-105348881D01*
X88161082Y-105351822D01*
X88156931Y-105353542D01*
X88137989Y-105369087D01*
X87947513Y-105559564D01*
X87939646Y-105569149D01*
X87937152Y-105571313D01*
X87934784Y-105575074D01*
X87931968Y-105578506D01*
X87930705Y-105581553D01*
X87924098Y-105592050D01*
X87828860Y-105782526D01*
X87828176Y-105784311D01*
X87827640Y-105785036D01*
X87823984Y-105795265D01*
X87820102Y-105805412D01*
X87820038Y-105806311D01*
X87819395Y-105808111D01*
X87724157Y-106189063D01*
X87723531Y-106193292D01*
X87722827Y-106194994D01*
X87721922Y-106204175D01*
X87720573Y-106213304D01*
X87720844Y-106215125D01*
X87720425Y-106219380D01*
X87498203Y-106219380D01*
X87498203Y-105015016D01*
X89430742Y-105015016D01*
X89430742Y-107709460D01*
G37*
D10*
G36*
X103805460Y-95269026D02*
G01*
X102288852Y-95269026D01*
X102288852Y-94463838D01*
X102399963Y-94463838D01*
X102399963Y-95082885D01*
X102401433Y-95097809D01*
X102412856Y-95125386D01*
X102433962Y-95146492D01*
X102461539Y-95157915D01*
X102491387Y-95157915D01*
X102518964Y-95146492D01*
X102540070Y-95125386D01*
X102551493Y-95097809D01*
X102552963Y-95082885D01*
X102552963Y-94632426D01*
X102807039Y-94854743D01*
X102813491Y-94859355D01*
X102814914Y-94860778D01*
X102816263Y-94861336D01*
X102819239Y-94863464D01*
X102831005Y-94867443D01*
X102842491Y-94872201D01*
X102845073Y-94872201D01*
X102847515Y-94873027D01*
X102859908Y-94872201D01*
X102872339Y-94872201D01*
X102874722Y-94871213D01*
X102877297Y-94871042D01*
X102888436Y-94865533D01*
X102899916Y-94860778D01*
X102901740Y-94858953D01*
X102904053Y-94857810D01*
X102912235Y-94848458D01*
X102921022Y-94839672D01*
X102922009Y-94837288D01*
X102923708Y-94835347D01*
X102927687Y-94823580D01*
X102932445Y-94812095D01*
X102932803Y-94808452D01*
X102933271Y-94807071D01*
X102933137Y-94805065D01*
X102933915Y-94797171D01*
X102933915Y-94672374D01*
X102967906Y-94604391D01*
X102997967Y-94574329D01*
X103065951Y-94540338D01*
X103267926Y-94540338D01*
X103335910Y-94574330D01*
X103365971Y-94604390D01*
X103399963Y-94672374D01*
X103399963Y-94921968D01*
X103365971Y-94989951D01*
X103327131Y-95028791D01*
X103317617Y-95040383D01*
X103306194Y-95067960D01*
X103306194Y-95097808D01*
X103317616Y-95125386D01*
X103338722Y-95146492D01*
X103366299Y-95157915D01*
X103396147Y-95157915D01*
X103423725Y-95146493D01*
X103435317Y-95136979D01*
X103482937Y-95089360D01*
X103487752Y-95083493D01*
X103489279Y-95082169D01*
X103490727Y-95079867D01*
X103492451Y-95077768D01*
X103493223Y-95075902D01*
X103497268Y-95069478D01*
X103544887Y-94974240D01*
X103550246Y-94960234D01*
X103550440Y-94957492D01*
X103551493Y-94954952D01*
X103552963Y-94940028D01*
X103552963Y-94654314D01*
X103551493Y-94639390D01*
X103550440Y-94636849D01*
X103550246Y-94634108D01*
X103544887Y-94620102D01*
X103497268Y-94524864D01*
X103493223Y-94518439D01*
X103492451Y-94516574D01*
X103490727Y-94514474D01*
X103489279Y-94512173D01*
X103487752Y-94510848D01*
X103482937Y-94504982D01*
X103435317Y-94457363D01*
X103429450Y-94452548D01*
X103428127Y-94451022D01*
X103425826Y-94449573D01*
X103423725Y-94447849D01*
X103421858Y-94447075D01*
X103415436Y-94443033D01*
X103320198Y-94395414D01*
X103306192Y-94390055D01*
X103303450Y-94389860D01*
X103300910Y-94388808D01*
X103285986Y-94387338D01*
X103047891Y-94387338D01*
X103032967Y-94388808D01*
X103030426Y-94389860D01*
X103027685Y-94390055D01*
X103013679Y-94395414D01*
X102918441Y-94443033D01*
X102912016Y-94447077D01*
X102910151Y-94447850D01*
X102908051Y-94449573D01*
X102905750Y-94451022D01*
X102904425Y-94452548D01*
X102898559Y-94457364D01*
X102850940Y-94504982D01*
X102846125Y-94510848D01*
X102844599Y-94512173D01*
X102843148Y-94514476D01*
X102841427Y-94516575D01*
X102840655Y-94518437D01*
X102836610Y-94524864D01*
X102788991Y-94620102D01*
X102784534Y-94631749D01*
X102526839Y-94406266D01*
X102520386Y-94401653D01*
X102518964Y-94400231D01*
X102517614Y-94399672D01*
X102514639Y-94397545D01*
X102502872Y-94393565D01*
X102491387Y-94388808D01*
X102488805Y-94388808D01*
X102486363Y-94387982D01*
X102473970Y-94388808D01*
X102461539Y-94388808D01*
X102459155Y-94389795D01*
X102456581Y-94389967D01*
X102445441Y-94395475D01*
X102433962Y-94400231D01*
X102432137Y-94402055D01*
X102429825Y-94403199D01*
X102421642Y-94412550D01*
X102412856Y-94421337D01*
X102411868Y-94423720D01*
X102410170Y-94425662D01*
X102406190Y-94437428D01*
X102401433Y-94448914D01*
X102401074Y-94452556D01*
X102400607Y-94453938D01*
X102400740Y-94455943D01*
X102399963Y-94463838D01*
X102288852Y-94463838D01*
X102288852Y-93972723D01*
X103353814Y-93972723D01*
X103353814Y-94002571D01*
X103365237Y-94030148D01*
X103386343Y-94051254D01*
X103413920Y-94062677D01*
X103428844Y-94064147D01*
X103458403Y-94064147D01*
X103526385Y-94098138D01*
X103565226Y-94136978D01*
X103576818Y-94146492D01*
X103604395Y-94157914D01*
X103634244Y-94157914D01*
X103661821Y-94146492D01*
X103682927Y-94125386D01*
X103694349Y-94097809D01*
X103694349Y-94067960D01*
X103682927Y-94040383D01*
X103673413Y-94028791D01*
X103625795Y-93981172D01*
X103619928Y-93976357D01*
X103618604Y-93974831D01*
X103616300Y-93973380D01*
X103614202Y-93971659D01*
X103612339Y-93970887D01*
X103605913Y-93966842D01*
X103510675Y-93919223D01*
X103496669Y-93913864D01*
X103493927Y-93913669D01*
X103491387Y-93912617D01*
X103476463Y-93911147D01*
X103428844Y-93911147D01*
X103413920Y-93912617D01*
X103386343Y-93924040D01*
X103365237Y-93945146D01*
X103353814Y-93972723D01*
X102288852Y-93972723D01*
X102288852Y-93035267D01*
X102399963Y-93035267D01*
X102399963Y-93654314D01*
X102401433Y-93669238D01*
X102412856Y-93696815D01*
X102433962Y-93717921D01*
X102461539Y-93729344D01*
X102491387Y-93729344D01*
X102518964Y-93717921D01*
X102540070Y-93696815D01*
X102551493Y-93669238D01*
X102552963Y-93654314D01*
X102552963Y-93203855D01*
X102807039Y-93426172D01*
X102813491Y-93430784D01*
X102814914Y-93432207D01*
X102816263Y-93432765D01*
X102819239Y-93434893D01*
X102831005Y-93438872D01*
X102842491Y-93443630D01*
X102845073Y-93443630D01*
X102847515Y-93444456D01*
X102859908Y-93443630D01*
X102872339Y-93443630D01*
X102874722Y-93442642D01*
X102877297Y-93442471D01*
X102888436Y-93436962D01*
X102899916Y-93432207D01*
X102901740Y-93430382D01*
X102904053Y-93429239D01*
X102912235Y-93419887D01*
X102921022Y-93411101D01*
X102922009Y-93408717D01*
X102923708Y-93406776D01*
X102927687Y-93395009D01*
X102932445Y-93383524D01*
X102932803Y-93379881D01*
X102933271Y-93378500D01*
X102933137Y-93376494D01*
X102933915Y-93368600D01*
X102933915Y-93243803D01*
X102967906Y-93175820D01*
X102997967Y-93145758D01*
X103065951Y-93111767D01*
X103267926Y-93111767D01*
X103335910Y-93145759D01*
X103365971Y-93175819D01*
X103399963Y-93243803D01*
X103399963Y-93493397D01*
X103365971Y-93561380D01*
X103327131Y-93600220D01*
X103317617Y-93611812D01*
X103306194Y-93639389D01*
X103306194Y-93669237D01*
X103317616Y-93696815D01*
X103338722Y-93717921D01*
X103366299Y-93729344D01*
X103396147Y-93729344D01*
X103423725Y-93717922D01*
X103435317Y-93708408D01*
X103482937Y-93660789D01*
X103487752Y-93654922D01*
X103489279Y-93653598D01*
X103490727Y-93651296D01*
X103492451Y-93649197D01*
X103493223Y-93647331D01*
X103497268Y-93640907D01*
X103544887Y-93545669D01*
X103550246Y-93531663D01*
X103550440Y-93528921D01*
X103551493Y-93526381D01*
X103552963Y-93511457D01*
X103552963Y-93225743D01*
X103551493Y-93210819D01*
X103550440Y-93208278D01*
X103550246Y-93205537D01*
X103544887Y-93191531D01*
X103497268Y-93096293D01*
X103493223Y-93089868D01*
X103492451Y-93088003D01*
X103490727Y-93085903D01*
X103489279Y-93083602D01*
X103487752Y-93082277D01*
X103482937Y-93076411D01*
X103435317Y-93028792D01*
X103429450Y-93023977D01*
X103428127Y-93022451D01*
X103425826Y-93021002D01*
X103423725Y-93019278D01*
X103421858Y-93018504D01*
X103415436Y-93014462D01*
X103320198Y-92966843D01*
X103306192Y-92961484D01*
X103303450Y-92961289D01*
X103300910Y-92960237D01*
X103285986Y-92958767D01*
X103047891Y-92958767D01*
X103032967Y-92960237D01*
X103030426Y-92961289D01*
X103027685Y-92961484D01*
X103013679Y-92966843D01*
X102918441Y-93014462D01*
X102912016Y-93018506D01*
X102910151Y-93019279D01*
X102908051Y-93021002D01*
X102905750Y-93022451D01*
X102904425Y-93023977D01*
X102898559Y-93028793D01*
X102850940Y-93076411D01*
X102846125Y-93082277D01*
X102844599Y-93083602D01*
X102843148Y-93085905D01*
X102841427Y-93088004D01*
X102840655Y-93089866D01*
X102836610Y-93096293D01*
X102788991Y-93191531D01*
X102784534Y-93203178D01*
X102526839Y-92977695D01*
X102520386Y-92973082D01*
X102518964Y-92971660D01*
X102517614Y-92971101D01*
X102514639Y-92968974D01*
X102502872Y-92964994D01*
X102491387Y-92960237D01*
X102488805Y-92960237D01*
X102486363Y-92959411D01*
X102473970Y-92960237D01*
X102461539Y-92960237D01*
X102459155Y-92961224D01*
X102456581Y-92961396D01*
X102445441Y-92966904D01*
X102433962Y-92971660D01*
X102432137Y-92973484D01*
X102429825Y-92974628D01*
X102421642Y-92983979D01*
X102412856Y-92992766D01*
X102411868Y-92995149D01*
X102410170Y-92997091D01*
X102406190Y-93008857D01*
X102401433Y-93020343D01*
X102401074Y-93023985D01*
X102400607Y-93025367D01*
X102400740Y-93027372D01*
X102399963Y-93035267D01*
X102288852Y-93035267D01*
X102288852Y-92073318D01*
X102400564Y-92073318D01*
X102402680Y-92103092D01*
X102416029Y-92129789D01*
X102438578Y-92149346D01*
X102452272Y-92155460D01*
X103234549Y-92416219D01*
X102452272Y-92676978D01*
X102438578Y-92683092D01*
X102416029Y-92702649D01*
X102402680Y-92729346D01*
X102400564Y-92759120D01*
X102410003Y-92787437D01*
X102429560Y-92809986D01*
X102456257Y-92823335D01*
X102486031Y-92825451D01*
X102500654Y-92822126D01*
X103500654Y-92488793D01*
X103514347Y-92482679D01*
X103518477Y-92479096D01*
X103523365Y-92476653D01*
X103529648Y-92469408D01*
X103536897Y-92463122D01*
X103539341Y-92458233D01*
X103542923Y-92454104D01*
X103545957Y-92444999D01*
X103550245Y-92436425D01*
X103550632Y-92430975D01*
X103552362Y-92425787D01*
X103551681Y-92416219D01*
X103552362Y-92406651D01*
X103550632Y-92401462D01*
X103550245Y-92396013D01*
X103545957Y-92387438D01*
X103542923Y-92378334D01*
X103539341Y-92374204D01*
X103536897Y-92369316D01*
X103529648Y-92363029D01*
X103523365Y-92355785D01*
X103518477Y-92353341D01*
X103514347Y-92349759D01*
X103500654Y-92343645D01*
X102500654Y-92010312D01*
X102486031Y-92006987D01*
X102456257Y-92009103D01*
X102429560Y-92022452D01*
X102410003Y-92045001D01*
X102400564Y-92073318D01*
X102288852Y-92073318D01*
X102288852Y-91895876D01*
X103805460Y-91895876D01*
X103805460Y-95269026D01*
G37*
G36*
X107326465Y-92234398D02*
G01*
X107403091Y-92272711D01*
X107476781Y-92346400D01*
X107514763Y-92460346D01*
X107514763Y-92609528D01*
X106667763Y-92609528D01*
X106667763Y-92460346D01*
X106705744Y-92346401D01*
X106779436Y-92272710D01*
X106856060Y-92234398D01*
X107029252Y-92191100D01*
X107153273Y-92191100D01*
X107326465Y-92234398D01*
G37*
G36*
X107778874Y-94968877D02*
G01*
X106403652Y-94968877D01*
X106403652Y-94305076D01*
X106514763Y-94305076D01*
X106514763Y-94447933D01*
X106515507Y-94455487D01*
X106515364Y-94457501D01*
X106515966Y-94460150D01*
X106516233Y-94462857D01*
X106517006Y-94464724D01*
X106518689Y-94472124D01*
X106566308Y-94614981D01*
X106572422Y-94628674D01*
X106574222Y-94630750D01*
X106575275Y-94633291D01*
X106584788Y-94644884D01*
X106680026Y-94740122D01*
X106685892Y-94744936D01*
X106687217Y-94746463D01*
X106689520Y-94747913D01*
X106691619Y-94749635D01*
X106693481Y-94750406D01*
X106699908Y-94754452D01*
X106795146Y-94802071D01*
X106796240Y-94802489D01*
X106796682Y-94802817D01*
X106802936Y-94805051D01*
X106809152Y-94807430D01*
X106809701Y-94807469D01*
X106810804Y-94807863D01*
X107001280Y-94855482D01*
X107003868Y-94855864D01*
X107004910Y-94856296D01*
X107010533Y-94856849D01*
X107016115Y-94857675D01*
X107017228Y-94857509D01*
X107019834Y-94857766D01*
X107162691Y-94857766D01*
X107165296Y-94857509D01*
X107166410Y-94857675D01*
X107171991Y-94856849D01*
X107177615Y-94856296D01*
X107178656Y-94855864D01*
X107181245Y-94855482D01*
X107371721Y-94807863D01*
X107372823Y-94807469D01*
X107373373Y-94807430D01*
X107379588Y-94805051D01*
X107385843Y-94802817D01*
X107386284Y-94802489D01*
X107387379Y-94802071D01*
X107482617Y-94754452D01*
X107489043Y-94750406D01*
X107490906Y-94749635D01*
X107493003Y-94747913D01*
X107495308Y-94746463D01*
X107496633Y-94744934D01*
X107502498Y-94740122D01*
X107597738Y-94644884D01*
X107607251Y-94633291D01*
X107608302Y-94630751D01*
X107610104Y-94628675D01*
X107616218Y-94614981D01*
X107663837Y-94472125D01*
X107665520Y-94464722D01*
X107666293Y-94462857D01*
X107666559Y-94460151D01*
X107667162Y-94457502D01*
X107667018Y-94455487D01*
X107667763Y-94447933D01*
X107667763Y-94352695D01*
X107667018Y-94345140D01*
X107667162Y-94343126D01*
X107666559Y-94340476D01*
X107666293Y-94337771D01*
X107665520Y-94335905D01*
X107663837Y-94328503D01*
X107616218Y-94185647D01*
X107610104Y-94171953D01*
X107608303Y-94169876D01*
X107607251Y-94167336D01*
X107597737Y-94155744D01*
X107550117Y-94108125D01*
X107538525Y-94098611D01*
X107519024Y-94090534D01*
X107510948Y-94087189D01*
X107496024Y-94085719D01*
X107162691Y-94085719D01*
X107147767Y-94087189D01*
X107120190Y-94098612D01*
X107099084Y-94119718D01*
X107087661Y-94147295D01*
X107086191Y-94162219D01*
X107086191Y-94352695D01*
X107087661Y-94367619D01*
X107099084Y-94395196D01*
X107120190Y-94416302D01*
X107147767Y-94427725D01*
X107177615Y-94427725D01*
X107205192Y-94416302D01*
X107226298Y-94395196D01*
X107237721Y-94367619D01*
X107239191Y-94352695D01*
X107239191Y-94238719D01*
X107464337Y-94238719D01*
X107476781Y-94251162D01*
X107514763Y-94365108D01*
X107514763Y-94435520D01*
X107476781Y-94549465D01*
X107403091Y-94623154D01*
X107326465Y-94661468D01*
X107153273Y-94704766D01*
X107029252Y-94704766D01*
X106856060Y-94661468D01*
X106779436Y-94623156D01*
X106705744Y-94549464D01*
X106667763Y-94435519D01*
X106667763Y-94323136D01*
X106707306Y-94244050D01*
X106712665Y-94230044D01*
X106714781Y-94200270D01*
X106705342Y-94171953D01*
X106685785Y-94149404D01*
X106659088Y-94136055D01*
X106629314Y-94133939D01*
X106600997Y-94143378D01*
X106578447Y-94162935D01*
X106570458Y-94175626D01*
X106522839Y-94270864D01*
X106517480Y-94284870D01*
X106517285Y-94287611D01*
X106516233Y-94290152D01*
X106514763Y-94305076D01*
X106403652Y-94305076D01*
X106403652Y-93728304D01*
X106514950Y-93728304D01*
X106516233Y-93738397D01*
X106516233Y-93748571D01*
X106518098Y-93753075D01*
X106518714Y-93757915D01*
X106523764Y-93766752D01*
X106527656Y-93776148D01*
X106531102Y-93779594D01*
X106533523Y-93783830D01*
X106541568Y-93790060D01*
X106548762Y-93797254D01*
X106553267Y-93799120D01*
X106557123Y-93802106D01*
X106566938Y-93804782D01*
X106576339Y-93808677D01*
X106583972Y-93809428D01*
X106585920Y-93809960D01*
X106587423Y-93809768D01*
X106591263Y-93810147D01*
X107591263Y-93810147D01*
X107606187Y-93808677D01*
X107633764Y-93797254D01*
X107654870Y-93776148D01*
X107666293Y-93748571D01*
X107666293Y-93718723D01*
X107654870Y-93691146D01*
X107633764Y-93670040D01*
X107606187Y-93658617D01*
X107591263Y-93657147D01*
X106879330Y-93657147D01*
X107629218Y-93228640D01*
X107632366Y-93226404D01*
X107633764Y-93225826D01*
X107635188Y-93224401D01*
X107641446Y-93219959D01*
X107647676Y-93211913D01*
X107654870Y-93204720D01*
X107656736Y-93200214D01*
X107659722Y-93196359D01*
X107662398Y-93186543D01*
X107666293Y-93177143D01*
X107666293Y-93172266D01*
X107667576Y-93167562D01*
X107666293Y-93157468D01*
X107666293Y-93147295D01*
X107664427Y-93142790D01*
X107663812Y-93137951D01*
X107658761Y-93129113D01*
X107654870Y-93119718D01*
X107651423Y-93116271D01*
X107649003Y-93112036D01*
X107640957Y-93105805D01*
X107633764Y-93098612D01*
X107629258Y-93096745D01*
X107625403Y-93093760D01*
X107615587Y-93091083D01*
X107606187Y-93087189D01*
X107598553Y-93086437D01*
X107596606Y-93085906D01*
X107595102Y-93086097D01*
X107591263Y-93085719D01*
X106591263Y-93085719D01*
X106576339Y-93087189D01*
X106548762Y-93098612D01*
X106527656Y-93119718D01*
X106516233Y-93147295D01*
X106516233Y-93177143D01*
X106527656Y-93204720D01*
X106548762Y-93225826D01*
X106576339Y-93237249D01*
X106591263Y-93238719D01*
X107303197Y-93238719D01*
X106553308Y-93667226D01*
X106550159Y-93669461D01*
X106548762Y-93670040D01*
X106547337Y-93671464D01*
X106541080Y-93675907D01*
X106534849Y-93683952D01*
X106527656Y-93691146D01*
X106525789Y-93695651D01*
X106522804Y-93699507D01*
X106520127Y-93709322D01*
X106516233Y-93718723D01*
X106516233Y-93723599D01*
X106514950Y-93728304D01*
X106403652Y-93728304D01*
X106403652Y-92447933D01*
X106514763Y-92447933D01*
X106514763Y-92686028D01*
X106516233Y-92700952D01*
X106527656Y-92728529D01*
X106548762Y-92749635D01*
X106576339Y-92761058D01*
X106591263Y-92762528D01*
X107591263Y-92762528D01*
X107606187Y-92761058D01*
X107633764Y-92749635D01*
X107654870Y-92728529D01*
X107666293Y-92700952D01*
X107667763Y-92686028D01*
X107667763Y-92447933D01*
X107667018Y-92440378D01*
X107667162Y-92438364D01*
X107666559Y-92435714D01*
X107666293Y-92433009D01*
X107665520Y-92431143D01*
X107663837Y-92423741D01*
X107616218Y-92280885D01*
X107610104Y-92267191D01*
X107608302Y-92265114D01*
X107607251Y-92262575D01*
X107597738Y-92250982D01*
X107502498Y-92155744D01*
X107496633Y-92150931D01*
X107495308Y-92149403D01*
X107493003Y-92147952D01*
X107490906Y-92146231D01*
X107489043Y-92145459D01*
X107482617Y-92141414D01*
X107387379Y-92093795D01*
X107386284Y-92093376D01*
X107385843Y-92093049D01*
X107379588Y-92090814D01*
X107373373Y-92088436D01*
X107372823Y-92088396D01*
X107371721Y-92088003D01*
X107181245Y-92040384D01*
X107178656Y-92040001D01*
X107177615Y-92039570D01*
X107171991Y-92039016D01*
X107166410Y-92038191D01*
X107165296Y-92038356D01*
X107162691Y-92038100D01*
X107019834Y-92038100D01*
X107017228Y-92038356D01*
X107016115Y-92038191D01*
X107010533Y-92039016D01*
X107004910Y-92039570D01*
X107003868Y-92040001D01*
X107001280Y-92040384D01*
X106810804Y-92088003D01*
X106809701Y-92088396D01*
X106809152Y-92088436D01*
X106802936Y-92090814D01*
X106796682Y-92093049D01*
X106796240Y-92093376D01*
X106795146Y-92093795D01*
X106699908Y-92141414D01*
X106693481Y-92145459D01*
X106691619Y-92146231D01*
X106689520Y-92147952D01*
X106687217Y-92149403D01*
X106685892Y-92150929D01*
X106680026Y-92155744D01*
X106584788Y-92250982D01*
X106575275Y-92262575D01*
X106574222Y-92265115D01*
X106572422Y-92267192D01*
X106566308Y-92280885D01*
X106518689Y-92423742D01*
X106517006Y-92431141D01*
X106516233Y-92433009D01*
X106515966Y-92435715D01*
X106515364Y-92438365D01*
X106515507Y-92440378D01*
X106514763Y-92447933D01*
X106403652Y-92447933D01*
X106403652Y-91926989D01*
X107778874Y-91926989D01*
X107778874Y-94968877D01*
G37*
D12*
X83925116Y-102153051D02*
X84048363Y-101693086D01*
X84176445Y-102318992D02*
X83296792Y-101738198D01*
X83296792Y-101738198D02*
X84348991Y-101675041D01*
X84435264Y-101353066D02*
X83469338Y-101094247D01*
X83469338Y-101094247D02*
X84245558Y-100957142D01*
X84245558Y-100957142D02*
X83641884Y-100450296D01*
X83641884Y-100450296D02*
X84607810Y-100709115D01*
X84225096Y-100113579D02*
X84311369Y-99791604D01*
X84854304Y-99789186D02*
X84731057Y-100249151D01*
X84731057Y-100249151D02*
X83765132Y-99990332D01*
X83765132Y-99990332D02*
X83888379Y-99530367D01*
X85297994Y-98133313D02*
X85150098Y-98685271D01*
X85224046Y-98409292D02*
X84258120Y-98150473D01*
X84258120Y-98150473D02*
X84371460Y-98279440D01*
X84371460Y-98279440D02*
X84438804Y-98396082D01*
X84438804Y-98396082D02*
X84460151Y-98500400D01*
X85544489Y-97213384D02*
X85396592Y-97765341D01*
X85470540Y-97489362D02*
X84504615Y-97230543D01*
X84504615Y-97230543D02*
X84617955Y-97359510D01*
X84617955Y-97359510D02*
X84685298Y-97476153D01*
X84685298Y-97476153D02*
X84706645Y-97580470D01*
X84828360Y-95838324D02*
X85848419Y-96999028D01*
X85040297Y-95599320D02*
X85006626Y-95540999D01*
X85006626Y-95540999D02*
X84985279Y-95436681D01*
X84985279Y-95436681D02*
X85046902Y-95206699D01*
X85046902Y-95206699D02*
X85117548Y-95127030D01*
X85117548Y-95127030D02*
X85175869Y-95093359D01*
X85175869Y-95093359D02*
X85280187Y-95072012D01*
X85280187Y-95072012D02*
X85372180Y-95096661D01*
X85372180Y-95096661D02*
X85497844Y-95179632D01*
X85497844Y-95179632D02*
X85901905Y-95879486D01*
X85901905Y-95879486D02*
X86062127Y-95281532D01*
X85256422Y-94424759D02*
X85281072Y-94332766D01*
X85281072Y-94332766D02*
X85351718Y-94253098D01*
X85351718Y-94253098D02*
X85410039Y-94219426D01*
X85410039Y-94219426D02*
X85514356Y-94198079D01*
X85514356Y-94198079D02*
X85710667Y-94201381D01*
X85710667Y-94201381D02*
X85940649Y-94263005D01*
X85940649Y-94263005D02*
X86112311Y-94358300D01*
X86112311Y-94358300D02*
X86191979Y-94428946D01*
X86191979Y-94428946D02*
X86225651Y-94487267D01*
X86225651Y-94487267D02*
X86246998Y-94591585D01*
X86246998Y-94591585D02*
X86222348Y-94683578D01*
X86222348Y-94683578D02*
X86151702Y-94763246D01*
X86151702Y-94763246D02*
X86093381Y-94796918D01*
X86093381Y-94796918D02*
X85989063Y-94818265D01*
X85989063Y-94818265D02*
X85792753Y-94814962D01*
X85792753Y-94814962D02*
X85562770Y-94753339D01*
X85562770Y-94753339D02*
X85391109Y-94658043D01*
X85391109Y-94658043D02*
X85311441Y-94587398D01*
X85311441Y-94587398D02*
X85277769Y-94529076D01*
X85277769Y-94529076D02*
X85256422Y-94424759D01*
X85533286Y-93759461D02*
X85499614Y-93701140D01*
X85499614Y-93701140D02*
X85478267Y-93596822D01*
X85478267Y-93596822D02*
X85539891Y-93366840D01*
X85539891Y-93366840D02*
X85610537Y-93287172D01*
X85610537Y-93287172D02*
X85668858Y-93253500D01*
X85668858Y-93253500D02*
X85773176Y-93232153D01*
X85773176Y-93232153D02*
X85865168Y-93256802D01*
X85865168Y-93256802D02*
X85990833Y-93339773D01*
X85990833Y-93339773D02*
X86394894Y-94039627D01*
X86394894Y-94039627D02*
X86555115Y-93441673D01*
X85823359Y-92308921D02*
X85700112Y-92768886D01*
X85700112Y-92768886D02*
X86147752Y-92938129D01*
X86147752Y-92938129D02*
X86114080Y-92879808D01*
X86114080Y-92879808D02*
X86092733Y-92775491D01*
X86092733Y-92775491D02*
X86154357Y-92545508D01*
X86154357Y-92545508D02*
X86225003Y-92465840D01*
X86225003Y-92465840D02*
X86283324Y-92432168D01*
X86283324Y-92432168D02*
X86387642Y-92410821D01*
X86387642Y-92410821D02*
X86617624Y-92472445D01*
X86617624Y-92472445D02*
X86697292Y-92543091D01*
X86697292Y-92543091D02*
X86730964Y-92601412D01*
X86730964Y-92601412D02*
X86752311Y-92705730D01*
X86752311Y-92705730D02*
X86690687Y-92935712D01*
X86690687Y-92935712D02*
X86620041Y-93015380D01*
X86620041Y-93015380D02*
X86561720Y-93049052D01*
X96785333Y-96549580D02*
X96737714Y-96597200D01*
X96737714Y-96597200D02*
X96594857Y-96644819D01*
X96594857Y-96644819D02*
X96499619Y-96644819D01*
X96499619Y-96644819D02*
X96356762Y-96597200D01*
X96356762Y-96597200D02*
X96261524Y-96501961D01*
X96261524Y-96501961D02*
X96213905Y-96406723D01*
X96213905Y-96406723D02*
X96166286Y-96216247D01*
X96166286Y-96216247D02*
X96166286Y-96073390D01*
X96166286Y-96073390D02*
X96213905Y-95882914D01*
X96213905Y-95882914D02*
X96261524Y-95787676D01*
X96261524Y-95787676D02*
X96356762Y-95692438D01*
X96356762Y-95692438D02*
X96499619Y-95644819D01*
X96499619Y-95644819D02*
X96594857Y-95644819D01*
X96594857Y-95644819D02*
X96737714Y-95692438D01*
X96737714Y-95692438D02*
X96785333Y-95740057D01*
X97166286Y-95740057D02*
X97213905Y-95692438D01*
X97213905Y-95692438D02*
X97309143Y-95644819D01*
X97309143Y-95644819D02*
X97547238Y-95644819D01*
X97547238Y-95644819D02*
X97642476Y-95692438D01*
X97642476Y-95692438D02*
X97690095Y-95740057D01*
X97690095Y-95740057D02*
X97737714Y-95835295D01*
X97737714Y-95835295D02*
X97737714Y-95930533D01*
X97737714Y-95930533D02*
X97690095Y-96073390D01*
X97690095Y-96073390D02*
X97118667Y-96644819D01*
X97118667Y-96644819D02*
X97737714Y-96644819D01*
X96785333Y-95025580D02*
X96737714Y-95073200D01*
X96737714Y-95073200D02*
X96594857Y-95120819D01*
X96594857Y-95120819D02*
X96499619Y-95120819D01*
X96499619Y-95120819D02*
X96356762Y-95073200D01*
X96356762Y-95073200D02*
X96261524Y-94977961D01*
X96261524Y-94977961D02*
X96213905Y-94882723D01*
X96213905Y-94882723D02*
X96166286Y-94692247D01*
X96166286Y-94692247D02*
X96166286Y-94549390D01*
X96166286Y-94549390D02*
X96213905Y-94358914D01*
X96213905Y-94358914D02*
X96261524Y-94263676D01*
X96261524Y-94263676D02*
X96356762Y-94168438D01*
X96356762Y-94168438D02*
X96499619Y-94120819D01*
X96499619Y-94120819D02*
X96594857Y-94120819D01*
X96594857Y-94120819D02*
X96737714Y-94168438D01*
X96737714Y-94168438D02*
X96785333Y-94216057D01*
X97737714Y-95120819D02*
X97166286Y-95120819D01*
X97452000Y-95120819D02*
X97452000Y-94120819D01*
X97452000Y-94120819D02*
X97356762Y-94263676D01*
X97356762Y-94263676D02*
X97261524Y-94358914D01*
X97261524Y-94358914D02*
X97166286Y-94406533D01*
D13*
%TO.C,J3*%
X92832171Y-106637491D02*
X94953491Y-104516171D01*
X93751410Y-107556730D02*
X92832171Y-106637491D01*
X94953491Y-104516171D02*
X95872730Y-105435410D01*
X111994765Y-110243736D02*
X98559736Y-123678765D01*
X86680342Y-111799371D01*
X100115371Y-98364342D01*
X111994765Y-110243736D01*
%TO.C,C2*%
X99892267Y-95680000D02*
X99599733Y-95680000D01*
X99892267Y-96700000D02*
X99599733Y-96700000D01*
D14*
%TO.C,G\u002A\u002A\u002A*%
G36*
X100454269Y-117066846D02*
G01*
X100454269Y-117198730D01*
X100122115Y-117203615D01*
X99789961Y-117208500D01*
X99789961Y-117526000D01*
X99789961Y-117843500D01*
X100073269Y-117848384D01*
X100356577Y-117853269D01*
X100359338Y-117969114D01*
X100359705Y-118030490D01*
X100357431Y-118072731D01*
X100352523Y-118095737D01*
X100350815Y-118098556D01*
X100344097Y-118102659D01*
X100330210Y-118105886D01*
X100307172Y-118108330D01*
X100273001Y-118110085D01*
X100225714Y-118111243D01*
X100163328Y-118111899D01*
X100083862Y-118112145D01*
X100062156Y-118112154D01*
X99784781Y-118112154D01*
X99787371Y-118397904D01*
X99789961Y-118683654D01*
X100122115Y-118688538D01*
X100454269Y-118693423D01*
X100457016Y-118819658D01*
X100457687Y-118875888D01*
X100456729Y-118915070D01*
X100453965Y-118939642D01*
X100449218Y-118952039D01*
X100447246Y-118953835D01*
X100435189Y-118955457D01*
X100405587Y-118956975D01*
X100360435Y-118958352D01*
X100301727Y-118959555D01*
X100231458Y-118960549D01*
X100151620Y-118961299D01*
X100064209Y-118961770D01*
X99982597Y-118961927D01*
X99871935Y-118961854D01*
X99779442Y-118961530D01*
X99703748Y-118960920D01*
X99643485Y-118959988D01*
X99597283Y-118958697D01*
X99563773Y-118957012D01*
X99541587Y-118954895D01*
X99529355Y-118952311D01*
X99525810Y-118949865D01*
X99525192Y-118938599D01*
X99524646Y-118909109D01*
X99524175Y-118862705D01*
X99523781Y-118800702D01*
X99523469Y-118724413D01*
X99523239Y-118635150D01*
X99523096Y-118534226D01*
X99523041Y-118422954D01*
X99523078Y-118302648D01*
X99523210Y-118174620D01*
X99523439Y-118040182D01*
X99523675Y-117936307D01*
X99526192Y-116934961D01*
X99990230Y-116934961D01*
X100454269Y-116934961D01*
X100454269Y-117066846D01*
G37*
G36*
X97248760Y-116931145D02*
G01*
X97282697Y-116932437D01*
X97308514Y-116934790D01*
X97329065Y-116938375D01*
X97347203Y-116943364D01*
X97365102Y-116949672D01*
X97423084Y-116980723D01*
X97476253Y-117026880D01*
X97520012Y-117083714D01*
X97537359Y-117115669D01*
X97562577Y-117169423D01*
X97565270Y-118052234D01*
X97565697Y-118215069D01*
X97565922Y-118359174D01*
X97565935Y-118485361D01*
X97565731Y-118594438D01*
X97565300Y-118687214D01*
X97564635Y-118764499D01*
X97563729Y-118827102D01*
X97562574Y-118875832D01*
X97561162Y-118911497D01*
X97559486Y-118934909D01*
X97557537Y-118946875D01*
X97556747Y-118948561D01*
X97545911Y-118954831D01*
X97523926Y-118958980D01*
X97488083Y-118961297D01*
X97435672Y-118962072D01*
X97430541Y-118962077D01*
X97380151Y-118961676D01*
X97346052Y-118960198D01*
X97325007Y-118957229D01*
X97313781Y-118952356D01*
X97309622Y-118946624D01*
X97308289Y-118933648D01*
X97307060Y-118903378D01*
X97305971Y-118858057D01*
X97305055Y-118799929D01*
X97304348Y-118731237D01*
X97303882Y-118654225D01*
X97303694Y-118571138D01*
X97303692Y-118560739D01*
X97303692Y-118190307D01*
X97083998Y-118190307D01*
X96864303Y-118190307D01*
X96861748Y-118573750D01*
X96859192Y-118957192D01*
X96729750Y-118959918D01*
X96600307Y-118962644D01*
X96600307Y-118073727D01*
X96600317Y-117921733D01*
X96600362Y-117788023D01*
X96600470Y-117671342D01*
X96600652Y-117578811D01*
X96864077Y-117578811D01*
X96864260Y-117657819D01*
X96864782Y-117730555D01*
X96865598Y-117794727D01*
X96866664Y-117848042D01*
X96867938Y-117888206D01*
X96869374Y-117912928D01*
X96870589Y-117920025D01*
X96881859Y-117921930D01*
X96909752Y-117923615D01*
X96951355Y-117924994D01*
X97003754Y-117925981D01*
X97064035Y-117926488D01*
X97090397Y-117926538D01*
X97303692Y-117926538D01*
X97303692Y-117586129D01*
X97303660Y-117495600D01*
X97303488Y-117422592D01*
X97303060Y-117365087D01*
X97302261Y-117321067D01*
X97300976Y-117288516D01*
X97299088Y-117265414D01*
X97296483Y-117249746D01*
X97293046Y-117239492D01*
X97288660Y-117232636D01*
X97283210Y-117227160D01*
X97283155Y-117227110D01*
X97273828Y-117220309D01*
X97261044Y-117215263D01*
X97241812Y-117211639D01*
X97213137Y-117209100D01*
X97172027Y-117207311D01*
X97115488Y-117205938D01*
X97089843Y-117205464D01*
X97027529Y-117204493D01*
X96981629Y-117204281D01*
X96949024Y-117205107D01*
X96926597Y-117207249D01*
X96911228Y-117210986D01*
X96899800Y-117216596D01*
X96890572Y-117223269D01*
X96864077Y-117244110D01*
X96864077Y-117578811D01*
X96600652Y-117578811D01*
X96600668Y-117570436D01*
X96600981Y-117484048D01*
X96601436Y-117410925D01*
X96602060Y-117349812D01*
X96602879Y-117299453D01*
X96603919Y-117258595D01*
X96604491Y-117244110D01*
X96605207Y-117225982D01*
X96606770Y-117200359D01*
X96608633Y-117180472D01*
X96610824Y-117165066D01*
X96613368Y-117152886D01*
X96616293Y-117142678D01*
X96619624Y-117133186D01*
X96620172Y-117131718D01*
X96654103Y-117067389D01*
X96702985Y-117011378D01*
X96762571Y-116968356D01*
X96774059Y-116962375D01*
X96829884Y-116934961D01*
X97069694Y-116931916D01*
X97145112Y-116931056D01*
X97203850Y-116930741D01*
X97248760Y-116931145D01*
G37*
G36*
X98167927Y-116961596D02*
G01*
X98175704Y-116980299D01*
X98189164Y-117013945D01*
X98207005Y-117059228D01*
X98227927Y-117112843D01*
X98250629Y-117171485D01*
X98255481Y-117184077D01*
X98288183Y-117268183D01*
X98321645Y-117352704D01*
X98355039Y-117435683D01*
X98387541Y-117515163D01*
X98418325Y-117589185D01*
X98446564Y-117655794D01*
X98471435Y-117713031D01*
X98492110Y-117758940D01*
X98507765Y-117791564D01*
X98517574Y-117808945D01*
X98520070Y-117811310D01*
X98526399Y-117802568D01*
X98539044Y-117777625D01*
X98557169Y-117738464D01*
X98579939Y-117687066D01*
X98606517Y-117625414D01*
X98636068Y-117555489D01*
X98667756Y-117479274D01*
X98700745Y-117398750D01*
X98734200Y-117315900D01*
X98767286Y-117232705D01*
X98799165Y-117151148D01*
X98807196Y-117130346D01*
X98882410Y-116934961D01*
X99057763Y-116934961D01*
X99233115Y-116934961D01*
X99238000Y-118076366D01*
X99242884Y-119217771D01*
X99270294Y-119241347D01*
X99297705Y-119264923D01*
X99862976Y-119264923D01*
X99966615Y-119265023D01*
X100064641Y-119265311D01*
X100155270Y-119265769D01*
X100236721Y-119266378D01*
X100307210Y-119267121D01*
X100364954Y-119267979D01*
X100408172Y-119268934D01*
X100435080Y-119269968D01*
X100443701Y-119270853D01*
X100450196Y-119276163D01*
X100454623Y-119288295D01*
X100457347Y-119310357D01*
X100458735Y-119345455D01*
X100459151Y-119396698D01*
X100459154Y-119402161D01*
X100458570Y-119449630D01*
X100456974Y-119489647D01*
X100454600Y-119518369D01*
X100451682Y-119531952D01*
X100451229Y-119532436D01*
X100440310Y-119533327D01*
X100411543Y-119534216D01*
X100366620Y-119535087D01*
X100307232Y-119535921D01*
X100235068Y-119536701D01*
X100151822Y-119537407D01*
X100059183Y-119538023D01*
X99958843Y-119538530D01*
X99852492Y-119538911D01*
X99838210Y-119538950D01*
X99714419Y-119539267D01*
X99608601Y-119539473D01*
X99519190Y-119539525D01*
X99444621Y-119539377D01*
X99383328Y-119538983D01*
X99333746Y-119538298D01*
X99294309Y-119537278D01*
X99263451Y-119535877D01*
X99239608Y-119534050D01*
X99221214Y-119531751D01*
X99206703Y-119528935D01*
X99194509Y-119525558D01*
X99183068Y-119521573D01*
X99178609Y-119519897D01*
X99109160Y-119483551D01*
X99051879Y-119432551D01*
X99008203Y-119368570D01*
X98979567Y-119293281D01*
X98977752Y-119285902D01*
X98975397Y-119272161D01*
X98973323Y-119251456D01*
X98971516Y-119222678D01*
X98969960Y-119184717D01*
X98968638Y-119136463D01*
X98967535Y-119076807D01*
X98966635Y-119004639D01*
X98965922Y-118918849D01*
X98965381Y-118818327D01*
X98964996Y-118701965D01*
X98964751Y-118568651D01*
X98964629Y-118417277D01*
X98964614Y-118362897D01*
X98964504Y-118198574D01*
X98964229Y-118053196D01*
X98963783Y-117926170D01*
X98963159Y-117816905D01*
X98962348Y-117724807D01*
X98961343Y-117649284D01*
X98960137Y-117589744D01*
X98958723Y-117545593D01*
X98957094Y-117516240D01*
X98955241Y-117501091D01*
X98953877Y-117498592D01*
X98947967Y-117508034D01*
X98935263Y-117533656D01*
X98916584Y-117573641D01*
X98892747Y-117626173D01*
X98864569Y-117689436D01*
X98832868Y-117761615D01*
X98798461Y-117840892D01*
X98769936Y-117907271D01*
X98596578Y-118312423D01*
X98529931Y-118315345D01*
X98494973Y-118315521D01*
X98467609Y-118313166D01*
X98453852Y-118308836D01*
X98448165Y-118298147D01*
X98435660Y-118271328D01*
X98417155Y-118230234D01*
X98393467Y-118176720D01*
X98365413Y-118112641D01*
X98333811Y-118039853D01*
X98299479Y-117960210D01*
X98272153Y-117896449D01*
X98236377Y-117813293D01*
X98202687Y-117735997D01*
X98171894Y-117666353D01*
X98144812Y-117606152D01*
X98122254Y-117557187D01*
X98105031Y-117521248D01*
X98093957Y-117500127D01*
X98090115Y-117495092D01*
X98088326Y-117505139D01*
X98086662Y-117534571D01*
X98085125Y-117583238D01*
X98083716Y-117650987D01*
X98082438Y-117737666D01*
X98081292Y-117843124D01*
X98080279Y-117967208D01*
X98079403Y-118109766D01*
X98078664Y-118270647D01*
X98078064Y-118449698D01*
X98077859Y-118528516D01*
X98075372Y-119560342D01*
X98118017Y-119597880D01*
X98163001Y-119648622D01*
X98190449Y-119706846D01*
X98200925Y-119773988D01*
X98200305Y-119806722D01*
X98192819Y-119863983D01*
X98176651Y-119910473D01*
X98148521Y-119954198D01*
X98131523Y-119974608D01*
X98082607Y-120016199D01*
X98023826Y-120043484D01*
X97959486Y-120055607D01*
X97893890Y-120051715D01*
X97836115Y-120033245D01*
X97785579Y-120001138D01*
X97739549Y-119956503D01*
X97704602Y-119906035D01*
X97698155Y-119892813D01*
X97687752Y-119856509D01*
X97682094Y-119808692D01*
X97681430Y-119787577D01*
X97681780Y-119782913D01*
X97842124Y-119782913D01*
X97846288Y-119817673D01*
X97868939Y-119851466D01*
X97874215Y-119856938D01*
X97910966Y-119883288D01*
X97949991Y-119890383D01*
X97990348Y-119879552D01*
X98021295Y-119855769D01*
X98039553Y-119821685D01*
X98044041Y-119782712D01*
X98033681Y-119744264D01*
X98021142Y-119725158D01*
X97987816Y-119698773D01*
X97949452Y-119688674D01*
X97910865Y-119694333D01*
X97876868Y-119715222D01*
X97855819Y-119743295D01*
X97842124Y-119782913D01*
X97681780Y-119782913D01*
X97685831Y-119728977D01*
X97701585Y-119680198D01*
X97731266Y-119635558D01*
X97766872Y-119598911D01*
X97811621Y-119557662D01*
X97814099Y-118246312D01*
X97816577Y-116934961D01*
X97985144Y-116932288D01*
X98153711Y-116929615D01*
X98167927Y-116961596D01*
G37*
G36*
X100057225Y-115133294D02*
G01*
X100059600Y-115134088D01*
X100121834Y-115164879D01*
X100173664Y-115209549D01*
X100213197Y-115264850D01*
X100238539Y-115327538D01*
X100247797Y-115394364D01*
X100242535Y-115447755D01*
X100221809Y-115505268D01*
X100186548Y-115559763D01*
X100141409Y-115604563D01*
X100125088Y-115616115D01*
X100079214Y-115645423D01*
X100078684Y-115832871D01*
X100078154Y-116020319D01*
X100324827Y-116023484D01*
X100401799Y-116024582D01*
X100462121Y-116025821D01*
X100508683Y-116027443D01*
X100544372Y-116029686D01*
X100572078Y-116032791D01*
X100594688Y-116036999D01*
X100615092Y-116042548D01*
X100635000Y-116049258D01*
X100734731Y-116094901D01*
X100826182Y-116156955D01*
X100906839Y-116233163D01*
X100974189Y-116321268D01*
X101011197Y-116387016D01*
X101032163Y-116432329D01*
X101048789Y-116474872D01*
X101061557Y-116517765D01*
X101070948Y-116564129D01*
X101077444Y-116617084D01*
X101081526Y-116679749D01*
X101083676Y-116755244D01*
X101084375Y-116846691D01*
X101084384Y-116861280D01*
X101084384Y-117096154D01*
X101263234Y-117096154D01*
X101442085Y-117096154D01*
X101472773Y-117052615D01*
X101522562Y-116996430D01*
X101579523Y-116957574D01*
X101641827Y-116936538D01*
X101707647Y-116933816D01*
X101775155Y-116949899D01*
X101804983Y-116963091D01*
X101865692Y-117003880D01*
X101910966Y-117056420D01*
X101940076Y-117119622D01*
X101951582Y-117181171D01*
X101949392Y-117248077D01*
X101930488Y-117307877D01*
X101893621Y-117364077D01*
X101881497Y-117377926D01*
X101828652Y-117423086D01*
X101768876Y-117452930D01*
X101705635Y-117466610D01*
X101642394Y-117463277D01*
X101594849Y-117448119D01*
X101563309Y-117429430D01*
X101528731Y-117402192D01*
X101495666Y-117370834D01*
X101468661Y-117339784D01*
X101452269Y-117313468D01*
X101450130Y-117307276D01*
X101441188Y-117288835D01*
X101424742Y-117285819D01*
X101422860Y-117286142D01*
X101406231Y-117287526D01*
X101373904Y-117288791D01*
X101329721Y-117289838D01*
X101277524Y-117290566D01*
X101243134Y-117290812D01*
X101084384Y-117291538D01*
X101084384Y-117711615D01*
X101084384Y-118131692D01*
X101262893Y-118131692D01*
X101441403Y-118131692D01*
X101460162Y-118096857D01*
X101499005Y-118044196D01*
X101550084Y-118003879D01*
X101609564Y-117977227D01*
X101673613Y-117965557D01*
X101738398Y-117970189D01*
X101784995Y-117985080D01*
X101839591Y-118013964D01*
X101880109Y-118047847D01*
X101912006Y-118091787D01*
X101923707Y-118113577D01*
X101949007Y-118181763D01*
X101955051Y-118246685D01*
X101941808Y-118308523D01*
X101909250Y-118367457D01*
X101876074Y-118405954D01*
X101817093Y-118453870D01*
X101754984Y-118483051D01*
X101691297Y-118493430D01*
X101627579Y-118484942D01*
X101565380Y-118457519D01*
X101517138Y-118421349D01*
X101490408Y-118393629D01*
X101467236Y-118363668D01*
X101460082Y-118351992D01*
X101441403Y-118317307D01*
X101262893Y-118317307D01*
X101084384Y-118317307D01*
X101084384Y-118742269D01*
X101084384Y-119167230D01*
X101262893Y-119167230D01*
X101441403Y-119167230D01*
X101460082Y-119132545D01*
X101489565Y-119091677D01*
X101530998Y-119051964D01*
X101577465Y-119019639D01*
X101595930Y-119010165D01*
X101656133Y-118992730D01*
X101717222Y-118992649D01*
X101776538Y-119008064D01*
X101831420Y-119037116D01*
X101879209Y-119077948D01*
X101917244Y-119128698D01*
X101942864Y-119187510D01*
X101953410Y-119252523D01*
X101953536Y-119260038D01*
X101944581Y-119329707D01*
X101917703Y-119392016D01*
X101873331Y-119446313D01*
X101811891Y-119491949D01*
X101794824Y-119501451D01*
X101759348Y-119515757D01*
X101718853Y-119522053D01*
X101690077Y-119522741D01*
X101619122Y-119513126D01*
X101555880Y-119485864D01*
X101501765Y-119441803D01*
X101459776Y-119384596D01*
X101441633Y-119352846D01*
X101263867Y-119352846D01*
X101086100Y-119352846D01*
X101081792Y-119648365D01*
X101080325Y-119739878D01*
X101078572Y-119814617D01*
X101076093Y-119875344D01*
X101072447Y-119924825D01*
X101067193Y-119965821D01*
X101059892Y-120001097D01*
X101050104Y-120033415D01*
X101037388Y-120065540D01*
X101021304Y-120100235D01*
X101004368Y-120134384D01*
X100978591Y-120181260D01*
X100949977Y-120222885D01*
X100913880Y-120265471D01*
X100879424Y-120301451D01*
X100824951Y-120353589D01*
X100775717Y-120393436D01*
X100725979Y-120424863D01*
X100669992Y-120451738D01*
X100636168Y-120465328D01*
X100615092Y-120473038D01*
X100595163Y-120479046D01*
X100573475Y-120483634D01*
X100547118Y-120487086D01*
X100513187Y-120489685D01*
X100468774Y-120491714D01*
X100410970Y-120493455D01*
X100336869Y-120495193D01*
X100327269Y-120495403D01*
X100083038Y-120500730D01*
X100080386Y-120682313D01*
X100077734Y-120863895D01*
X100126147Y-120893990D01*
X100180790Y-120938394D01*
X100219777Y-120992303D01*
X100242710Y-121053022D01*
X100249194Y-121117857D01*
X100238833Y-121184112D01*
X100211232Y-121249093D01*
X100184169Y-121288980D01*
X100136183Y-121334289D01*
X100076842Y-121364265D01*
X100007787Y-121378164D01*
X99985346Y-121379088D01*
X99934712Y-121376442D01*
X99893955Y-121365828D01*
X99855753Y-121344422D01*
X99819027Y-121314939D01*
X99774928Y-121264867D01*
X99745413Y-121207213D01*
X99730214Y-121145218D01*
X99729638Y-121113634D01*
X99890729Y-121113634D01*
X99896868Y-121151462D01*
X99916495Y-121183150D01*
X99947169Y-121203094D01*
X99985687Y-121210020D01*
X100025055Y-121203624D01*
X100052050Y-121189038D01*
X100075060Y-121159615D01*
X100084741Y-121122194D01*
X100081344Y-121082827D01*
X100065123Y-121047561D01*
X100045326Y-121027880D01*
X100021990Y-121018341D01*
X99991560Y-121013701D01*
X99987305Y-121013615D01*
X99948687Y-121022078D01*
X99918487Y-121044518D01*
X99898552Y-121076511D01*
X99890729Y-121113634D01*
X99729638Y-121113634D01*
X99729063Y-121082122D01*
X99741694Y-121021169D01*
X99767838Y-120965597D01*
X99807229Y-120918651D01*
X99854406Y-120886133D01*
X99892538Y-120866679D01*
X99892538Y-120681149D01*
X99892538Y-120495619D01*
X99509096Y-120498175D01*
X99125654Y-120500730D01*
X99122998Y-120683178D01*
X99122138Y-120747010D01*
X99121863Y-120794013D01*
X99122437Y-120826896D01*
X99124127Y-120848364D01*
X99127197Y-120861125D01*
X99131913Y-120867887D01*
X99138538Y-120871357D01*
X99141517Y-120872345D01*
X99166401Y-120886096D01*
X99197088Y-120911173D01*
X99228541Y-120942647D01*
X99255726Y-120975587D01*
X99270408Y-120998522D01*
X99285581Y-121042830D01*
X99291953Y-121096936D01*
X99289548Y-121153207D01*
X99278394Y-121204011D01*
X99269640Y-121224791D01*
X99235126Y-121279828D01*
X99194756Y-121320496D01*
X99143759Y-121351783D01*
X99078601Y-121373541D01*
X99012396Y-121377299D01*
X98948179Y-121364161D01*
X98888983Y-121335234D01*
X98837842Y-121291625D01*
X98797789Y-121234440D01*
X98792399Y-121223654D01*
X98773053Y-121162350D01*
X98769866Y-121102320D01*
X98931329Y-121102320D01*
X98934809Y-121142311D01*
X98939245Y-121154879D01*
X98956387Y-121184352D01*
X98980387Y-121201163D01*
X99016150Y-121208084D01*
X99034420Y-121208703D01*
X99065326Y-121206824D01*
X99085941Y-121198154D01*
X99105247Y-121178942D01*
X99127018Y-121140076D01*
X99130843Y-121099304D01*
X99116816Y-121060636D01*
X99101982Y-121042171D01*
X99067680Y-121019059D01*
X99031204Y-121012330D01*
X98995943Y-121019639D01*
X98965284Y-121038638D01*
X98942617Y-121066980D01*
X98931329Y-121102320D01*
X98769866Y-121102320D01*
X98769641Y-121098083D01*
X98780956Y-121034745D01*
X98805791Y-120976229D01*
X98842939Y-120926427D01*
X98891195Y-120889233D01*
X98897022Y-120886133D01*
X98935154Y-120866679D01*
X98935154Y-120681263D01*
X98935154Y-120495846D01*
X98544384Y-120495846D01*
X98153615Y-120495846D01*
X98153615Y-120685161D01*
X98153615Y-120874475D01*
X98181808Y-120886153D01*
X98224809Y-120913285D01*
X98263426Y-120954651D01*
X98294295Y-121004976D01*
X98314051Y-121058983D01*
X98319597Y-121102207D01*
X98310740Y-121175574D01*
X98284732Y-121241524D01*
X98242905Y-121297772D01*
X98186589Y-121342031D01*
X98176659Y-121347666D01*
X98109244Y-121374535D01*
X98043010Y-121382032D01*
X97979093Y-121370326D01*
X97918633Y-121339581D01*
X97875631Y-121303521D01*
X97828941Y-121245047D01*
X97801218Y-121182195D01*
X97792570Y-121115400D01*
X97792753Y-121114179D01*
X97961516Y-121114179D01*
X97969506Y-121153239D01*
X97972019Y-121158481D01*
X97991802Y-121187260D01*
X98017349Y-121202878D01*
X98054452Y-121208498D01*
X98064001Y-121208703D01*
X98096718Y-121205532D01*
X98121433Y-121192592D01*
X98134828Y-121180443D01*
X98157137Y-121146400D01*
X98163175Y-121109199D01*
X98154749Y-121073092D01*
X98133667Y-121042332D01*
X98101737Y-121021171D01*
X98063999Y-121013832D01*
X98023618Y-121022032D01*
X97991275Y-121044324D01*
X97969673Y-121076456D01*
X97961516Y-121114179D01*
X97792753Y-121114179D01*
X97803101Y-121045098D01*
X97808441Y-121027911D01*
X97825760Y-120992572D01*
X97852420Y-120955281D01*
X97883920Y-120920957D01*
X97915760Y-120894523D01*
X97942707Y-120881076D01*
X97968000Y-120874728D01*
X97968000Y-120685287D01*
X97968000Y-120495846D01*
X97567461Y-120495846D01*
X97166923Y-120495846D01*
X97166923Y-120681330D01*
X97166923Y-120866814D01*
X97198673Y-120880297D01*
X97233974Y-120902127D01*
X97270946Y-120935864D01*
X97303836Y-120975342D01*
X97326890Y-121014395D01*
X97329313Y-121020278D01*
X97339780Y-121067168D01*
X97341161Y-121122806D01*
X97333980Y-121178931D01*
X97318762Y-121227279D01*
X97315781Y-121233423D01*
X97279101Y-121285886D01*
X97230114Y-121328869D01*
X97172971Y-121360348D01*
X97111822Y-121378299D01*
X97050815Y-121380695D01*
X97023627Y-121375938D01*
X96961618Y-121351057D01*
X96908787Y-121311993D01*
X96866641Y-121261912D01*
X96836682Y-121203980D01*
X96820418Y-121141362D01*
X96819646Y-121094959D01*
X96983307Y-121094959D01*
X96983898Y-121120366D01*
X96984315Y-121123603D01*
X96997256Y-121166663D01*
X97022641Y-121194678D01*
X97060689Y-121207846D01*
X97079385Y-121209000D01*
X97123485Y-121203171D01*
X97150588Y-121189038D01*
X97174038Y-121159512D01*
X97183706Y-121122773D01*
X97180086Y-121084586D01*
X97163674Y-121050715D01*
X97136724Y-121027808D01*
X97092817Y-121013403D01*
X97053278Y-121018018D01*
X97017756Y-121041714D01*
X97010551Y-121049373D01*
X96991155Y-121074227D01*
X96983307Y-121094959D01*
X96819646Y-121094959D01*
X96819351Y-121077225D01*
X96834986Y-121014733D01*
X96843291Y-120996521D01*
X96864007Y-120965085D01*
X96892830Y-120932498D01*
X96924266Y-120904112D01*
X96952826Y-120885280D01*
X96960689Y-120882073D01*
X96967793Y-120879102D01*
X96973044Y-120873577D01*
X96976723Y-120862845D01*
X96979108Y-120844253D01*
X96980480Y-120815148D01*
X96981117Y-120772877D01*
X96981299Y-120714788D01*
X96981307Y-120686367D01*
X96981307Y-120497206D01*
X96705327Y-120494012D01*
X96624471Y-120493026D01*
X96560460Y-120492005D01*
X96510603Y-120490722D01*
X96472208Y-120488949D01*
X96442582Y-120486460D01*
X96419034Y-120483028D01*
X96398872Y-120478426D01*
X96379403Y-120472427D01*
X96357936Y-120464805D01*
X96357692Y-120464716D01*
X96278453Y-120431145D01*
X96208089Y-120390226D01*
X96139990Y-120337791D01*
X96102516Y-120303870D01*
X96032324Y-120227839D01*
X95978144Y-120146233D01*
X95936477Y-120053573D01*
X95928859Y-120031807D01*
X95921481Y-120009281D01*
X95915606Y-119988926D01*
X95911031Y-119968161D01*
X95907553Y-119944407D01*
X95904969Y-119915084D01*
X95903076Y-119877611D01*
X95901671Y-119829407D01*
X95900550Y-119767893D01*
X95899510Y-119690489D01*
X95899056Y-119653250D01*
X95895432Y-119352846D01*
X95717092Y-119352846D01*
X95538752Y-119352846D01*
X95506377Y-119402809D01*
X95461272Y-119456466D01*
X95407612Y-119494384D01*
X95348149Y-119516758D01*
X95285638Y-119523782D01*
X95222829Y-119515650D01*
X95162476Y-119492559D01*
X95107331Y-119454701D01*
X95060148Y-119402273D01*
X95039940Y-119369810D01*
X95030027Y-119343854D01*
X95024533Y-119308291D01*
X95022750Y-119258396D01*
X95022745Y-119255154D01*
X95022749Y-119255044D01*
X95183769Y-119255044D01*
X95188282Y-119297331D01*
X95203497Y-119326883D01*
X95230418Y-119347870D01*
X95269073Y-119359164D01*
X95309110Y-119353156D01*
X95345217Y-119330898D01*
X95352288Y-119323723D01*
X95374317Y-119287188D01*
X95379889Y-119248737D01*
X95370752Y-119212471D01*
X95348652Y-119182492D01*
X95315338Y-119162900D01*
X95281461Y-119157461D01*
X95238943Y-119166018D01*
X95206699Y-119189732D01*
X95187667Y-119225670D01*
X95183769Y-119255044D01*
X95022749Y-119255044D01*
X95024562Y-119202668D01*
X95031623Y-119163148D01*
X95046350Y-119130227D01*
X95071163Y-119097537D01*
X95090537Y-119076783D01*
X95146884Y-119031345D01*
X95210935Y-119003622D01*
X95267808Y-118993726D01*
X95335597Y-118997605D01*
X95398535Y-119020079D01*
X95455582Y-119060580D01*
X95505698Y-119118540D01*
X95511180Y-119126615D01*
X95538058Y-119167230D01*
X95717490Y-119167230D01*
X95896923Y-119167230D01*
X95896923Y-118742269D01*
X95896923Y-118317307D01*
X95716536Y-118317307D01*
X95653073Y-118317383D01*
X95606353Y-118317823D01*
X95573578Y-118318949D01*
X95551952Y-118321080D01*
X95538679Y-118324536D01*
X95530962Y-118329639D01*
X95526004Y-118336708D01*
X95524622Y-118339288D01*
X95484854Y-118396332D01*
X95432894Y-118442387D01*
X95372689Y-118474959D01*
X95308182Y-118491550D01*
X95281461Y-118493154D01*
X95225206Y-118485300D01*
X95167076Y-118463983D01*
X95114281Y-118432567D01*
X95076525Y-118397521D01*
X95041558Y-118340715D01*
X95022580Y-118277367D01*
X95020306Y-118232109D01*
X95182167Y-118232109D01*
X95190930Y-118268635D01*
X95212395Y-118299471D01*
X95244744Y-118320344D01*
X95281461Y-118327077D01*
X95314771Y-118322958D01*
X95340986Y-118307499D01*
X95350597Y-118298520D01*
X95373987Y-118263591D01*
X95380743Y-118226090D01*
X95372608Y-118190085D01*
X95367569Y-118182879D01*
X96091809Y-118182879D01*
X96091848Y-118341128D01*
X96091977Y-118498724D01*
X96092197Y-118654407D01*
X96092506Y-118806918D01*
X96092905Y-118954997D01*
X96093393Y-119097386D01*
X96093970Y-119232824D01*
X96094636Y-119360053D01*
X96095389Y-119477813D01*
X96096231Y-119584845D01*
X96097160Y-119679889D01*
X96098177Y-119761687D01*
X96099280Y-119828978D01*
X96100470Y-119880504D01*
X96101747Y-119915004D01*
X96103103Y-119931192D01*
X96130906Y-120018596D01*
X96175110Y-120098308D01*
X96233503Y-120167971D01*
X96303873Y-120225231D01*
X96384007Y-120267729D01*
X96435253Y-120285001D01*
X96443564Y-120286678D01*
X96456036Y-120288223D01*
X96473440Y-120289641D01*
X96496549Y-120290937D01*
X96526136Y-120292118D01*
X96562974Y-120293188D01*
X96607836Y-120294154D01*
X96661494Y-120295021D01*
X96724721Y-120295795D01*
X96798291Y-120296481D01*
X96882975Y-120297084D01*
X96979547Y-120297611D01*
X97088780Y-120298067D01*
X97211446Y-120298458D01*
X97348318Y-120298788D01*
X97500169Y-120299064D01*
X97667771Y-120299292D01*
X97851899Y-120299476D01*
X98053323Y-120299623D01*
X98272818Y-120299738D01*
X98486438Y-120299818D01*
X98720662Y-120299883D01*
X98936145Y-120299917D01*
X99133682Y-120299915D01*
X99314071Y-120299870D01*
X99478108Y-120299777D01*
X99626590Y-120299630D01*
X99760314Y-120299423D01*
X99880075Y-120299150D01*
X99986671Y-120298807D01*
X100080898Y-120298385D01*
X100163554Y-120297881D01*
X100235434Y-120297288D01*
X100297336Y-120296600D01*
X100350055Y-120295812D01*
X100394389Y-120294918D01*
X100431134Y-120293911D01*
X100461088Y-120292787D01*
X100485045Y-120291539D01*
X100503804Y-120290162D01*
X100518161Y-120288649D01*
X100528912Y-120286995D01*
X100536855Y-120285195D01*
X100537977Y-120284876D01*
X100626218Y-120249578D01*
X100704832Y-120199373D01*
X100771842Y-120136373D01*
X100825271Y-120062688D01*
X100863143Y-119980431D01*
X100879028Y-119920528D01*
X100880489Y-119902789D01*
X100881838Y-119865676D01*
X100883073Y-119809350D01*
X100884195Y-119733974D01*
X100885202Y-119639712D01*
X100886092Y-119526725D01*
X100886866Y-119395178D01*
X100887452Y-119261324D01*
X101594340Y-119261324D01*
X101596301Y-119277851D01*
X101611584Y-119313728D01*
X101639361Y-119343755D01*
X101660769Y-119356164D01*
X101685709Y-119359416D01*
X101717523Y-119355978D01*
X101745705Y-119347446D01*
X101755092Y-119341819D01*
X101780920Y-119310237D01*
X101792712Y-119273473D01*
X101791627Y-119235763D01*
X101778823Y-119201342D01*
X101755458Y-119174445D01*
X101722689Y-119159309D01*
X101704689Y-119157461D01*
X101658351Y-119165269D01*
X101622933Y-119186937D01*
X101600806Y-119219833D01*
X101594340Y-119261324D01*
X100887452Y-119261324D01*
X100887522Y-119245232D01*
X100888059Y-119077051D01*
X100888476Y-118890797D01*
X100888773Y-118686634D01*
X100888947Y-118464723D01*
X100888998Y-118251819D01*
X101593314Y-118251819D01*
X101598554Y-118271862D01*
X101613836Y-118291307D01*
X101619723Y-118297302D01*
X101656301Y-118321644D01*
X101696758Y-118327941D01*
X101737115Y-118316037D01*
X101756645Y-118302682D01*
X101784740Y-118268900D01*
X101793941Y-118230322D01*
X101787708Y-118195009D01*
X101766836Y-118159506D01*
X101732888Y-118138184D01*
X101690965Y-118131692D01*
X101648106Y-118139548D01*
X101617226Y-118162712D01*
X101598974Y-118200573D01*
X101595090Y-118221913D01*
X101593314Y-118251819D01*
X100888998Y-118251819D01*
X100889000Y-118244757D01*
X100889011Y-118032378D01*
X100889027Y-117838632D01*
X100889019Y-117662612D01*
X100888957Y-117503414D01*
X100888814Y-117360131D01*
X100888561Y-117231858D01*
X100888508Y-117216478D01*
X101594540Y-117216478D01*
X101606615Y-117254224D01*
X101626160Y-117279004D01*
X101658383Y-117295714D01*
X101698066Y-117301470D01*
X101736545Y-117295785D01*
X101756001Y-117286300D01*
X101779764Y-117258663D01*
X101791610Y-117221067D01*
X101790061Y-117180074D01*
X101784191Y-117161275D01*
X101761053Y-117128033D01*
X101728101Y-117108303D01*
X101690101Y-117102591D01*
X101651823Y-117111404D01*
X101618033Y-117135251D01*
X101611414Y-117142894D01*
X101595882Y-117176983D01*
X101594540Y-117216478D01*
X100888508Y-117216478D01*
X100888169Y-117117689D01*
X100887609Y-117016717D01*
X100886854Y-116928038D01*
X100885874Y-116850746D01*
X100884641Y-116783934D01*
X100883125Y-116726698D01*
X100881300Y-116678130D01*
X100879136Y-116637326D01*
X100876604Y-116603380D01*
X100873675Y-116575386D01*
X100870322Y-116552439D01*
X100866516Y-116533631D01*
X100862227Y-116518059D01*
X100857428Y-116504815D01*
X100852090Y-116492994D01*
X100846183Y-116481691D01*
X100839681Y-116470000D01*
X100832553Y-116457014D01*
X100832546Y-116457000D01*
X100788539Y-116392287D01*
X100729957Y-116332406D01*
X100661761Y-116281964D01*
X100618475Y-116258232D01*
X100542192Y-116221807D01*
X98515077Y-116218925D01*
X98279694Y-116218599D01*
X98063050Y-116218321D01*
X97864345Y-116218096D01*
X97682778Y-116217929D01*
X97517550Y-116217825D01*
X97367861Y-116217790D01*
X97232910Y-116217828D01*
X97111898Y-116217945D01*
X97004026Y-116218146D01*
X96908492Y-116218436D01*
X96824497Y-116218819D01*
X96751241Y-116219302D01*
X96687925Y-116219889D01*
X96633748Y-116220585D01*
X96587910Y-116221396D01*
X96549611Y-116222327D01*
X96518052Y-116223382D01*
X96492433Y-116224567D01*
X96471953Y-116225887D01*
X96455812Y-116227348D01*
X96443212Y-116228953D01*
X96433351Y-116230709D01*
X96426622Y-116232298D01*
X96346721Y-116263224D01*
X96273593Y-116310478D01*
X96209741Y-116371320D01*
X96157669Y-116443011D01*
X96119882Y-116522813D01*
X96102279Y-116587087D01*
X96100925Y-116604016D01*
X96099666Y-116639181D01*
X96098502Y-116691324D01*
X96097432Y-116759185D01*
X96096456Y-116841505D01*
X96095575Y-116937024D01*
X96094786Y-117044484D01*
X96094091Y-117162624D01*
X96093489Y-117290185D01*
X96092979Y-117425909D01*
X96092562Y-117568535D01*
X96092236Y-117716804D01*
X96092003Y-117869457D01*
X96091860Y-118025235D01*
X96091809Y-118182879D01*
X95367569Y-118182879D01*
X95351323Y-118159644D01*
X95318631Y-118138835D01*
X95279156Y-118131692D01*
X95246501Y-118134919D01*
X95222717Y-118147238D01*
X95210020Y-118159092D01*
X95187924Y-118194170D01*
X95182167Y-118232109D01*
X95020306Y-118232109D01*
X95019262Y-118211327D01*
X95031279Y-118146445D01*
X95058303Y-118086570D01*
X95100006Y-118035553D01*
X95107866Y-118028600D01*
X95167300Y-117989768D01*
X95232106Y-117967582D01*
X95298832Y-117962531D01*
X95364023Y-117975102D01*
X95394738Y-117988034D01*
X95432316Y-118011669D01*
X95468770Y-118042334D01*
X95499065Y-118075102D01*
X95518166Y-118105047D01*
X95520465Y-118111074D01*
X95523474Y-118118247D01*
X95529077Y-118123529D01*
X95539958Y-118127209D01*
X95558802Y-118129576D01*
X95588294Y-118130918D01*
X95631120Y-118131526D01*
X95689963Y-118131687D01*
X95711966Y-118131692D01*
X95896923Y-118131692D01*
X95896923Y-117711615D01*
X95896923Y-117291538D01*
X95717120Y-117291538D01*
X95537318Y-117291538D01*
X95512158Y-117334470D01*
X95468065Y-117392139D01*
X95414031Y-117434049D01*
X95352629Y-117459437D01*
X95286431Y-117467536D01*
X95218012Y-117457583D01*
X95165931Y-117437384D01*
X95104248Y-117397260D01*
X95059114Y-117346763D01*
X95030474Y-117285803D01*
X95018275Y-117214292D01*
X95017819Y-117195851D01*
X95182440Y-117195851D01*
X95187122Y-117235038D01*
X95206789Y-117270367D01*
X95210020Y-117273907D01*
X95244123Y-117296725D01*
X95283391Y-117303022D01*
X95322623Y-117292840D01*
X95350597Y-117272751D01*
X95374052Y-117236895D01*
X95379904Y-117196680D01*
X95368018Y-117156497D01*
X95354759Y-117137046D01*
X95320977Y-117108952D01*
X95282399Y-117099751D01*
X95247085Y-117105983D01*
X95213544Y-117126239D01*
X95191622Y-117157890D01*
X95182440Y-117195851D01*
X95017819Y-117195851D01*
X95017787Y-117194548D01*
X95027122Y-117130781D01*
X95052953Y-117071040D01*
X95092361Y-117018252D01*
X95142428Y-116975344D01*
X95200235Y-116945245D01*
X95262863Y-116930881D01*
X95281461Y-116930077D01*
X95334648Y-116938257D01*
X95390713Y-116960482D01*
X95443877Y-116993281D01*
X95488365Y-117033182D01*
X95515326Y-117070615D01*
X95528994Y-117096154D01*
X95712958Y-117096154D01*
X95896923Y-117096154D01*
X95897092Y-116854365D01*
X95897579Y-116762520D01*
X95899224Y-116687090D01*
X95902520Y-116624963D01*
X95907957Y-116573027D01*
X95916028Y-116528171D01*
X95927224Y-116487282D01*
X95942036Y-116447249D01*
X95960956Y-116404959D01*
X95971509Y-116383212D01*
X95997433Y-116334034D01*
X96023285Y-116293878D01*
X96054129Y-116255789D01*
X96095028Y-116212809D01*
X96096941Y-116210893D01*
X96138611Y-116170875D01*
X96174511Y-116141170D01*
X96211281Y-116117000D01*
X96255558Y-116093586D01*
X96268813Y-116087179D01*
X96313106Y-116067124D01*
X96356390Y-116049389D01*
X96392262Y-116036517D01*
X96406806Y-116032363D01*
X96431495Y-116028991D01*
X96473471Y-116026153D01*
X96530492Y-116023925D01*
X96600312Y-116022386D01*
X96680687Y-116021614D01*
X96716980Y-116021538D01*
X96981307Y-116021538D01*
X96981307Y-115832919D01*
X96981307Y-115644299D01*
X96938753Y-115614304D01*
X96883472Y-115564880D01*
X96844419Y-115507575D01*
X96821954Y-115445036D01*
X96818039Y-115398822D01*
X96980495Y-115398822D01*
X96988095Y-115435072D01*
X97008275Y-115465873D01*
X97039332Y-115486930D01*
X97076074Y-115494000D01*
X97107004Y-115490033D01*
X97133050Y-115480326D01*
X97135497Y-115478753D01*
X97161560Y-115452076D01*
X97178505Y-115418356D01*
X97182868Y-115385144D01*
X97181675Y-115378159D01*
X97163552Y-115339545D01*
X97133980Y-115312769D01*
X97097482Y-115299174D01*
X97058581Y-115300103D01*
X97021800Y-115316897D01*
X97009864Y-115327171D01*
X96987183Y-115361423D01*
X96980495Y-115398822D01*
X96818039Y-115398822D01*
X96816437Y-115379911D01*
X96828226Y-115314847D01*
X96857682Y-115252491D01*
X96884760Y-115216595D01*
X96938588Y-115168579D01*
X96998699Y-115137829D01*
X97062430Y-115124559D01*
X97127123Y-115128981D01*
X97190116Y-115151311D01*
X97244093Y-115187693D01*
X97291943Y-115239463D01*
X97322441Y-115298800D01*
X97336454Y-115367638D01*
X97337637Y-115396307D01*
X97336618Y-115438263D01*
X97331944Y-115469101D01*
X97321695Y-115497165D01*
X97308575Y-115522531D01*
X97287018Y-115554144D01*
X97258800Y-115585783D01*
X97228376Y-115613392D01*
X97200206Y-115632916D01*
X97179134Y-115640296D01*
X97174707Y-115645037D01*
X97171406Y-115660366D01*
X97169108Y-115688240D01*
X97167687Y-115730616D01*
X97167016Y-115789452D01*
X97166923Y-115831038D01*
X97166923Y-116021538D01*
X97567461Y-116021538D01*
X97968000Y-116021538D01*
X97968000Y-115832223D01*
X97968000Y-115642909D01*
X97937394Y-115630231D01*
X97884574Y-115598134D01*
X97841333Y-115549365D01*
X97823669Y-115519592D01*
X97804176Y-115465736D01*
X97796099Y-115405090D01*
X97797145Y-115386841D01*
X97959336Y-115386841D01*
X97963554Y-115421605D01*
X97986270Y-115455420D01*
X97991446Y-115460784D01*
X98028434Y-115487329D01*
X98066418Y-115494487D01*
X98104587Y-115482210D01*
X98123226Y-115468988D01*
X98150524Y-115434931D01*
X98160512Y-115395496D01*
X98152291Y-115354782D01*
X98149494Y-115348938D01*
X98126968Y-115318242D01*
X98096536Y-115302426D01*
X98060807Y-115298615D01*
X98019499Y-115304071D01*
X97990442Y-115322093D01*
X97972985Y-115347266D01*
X97959336Y-115386841D01*
X97797145Y-115386841D01*
X97799565Y-115344621D01*
X97814702Y-115291296D01*
X97819305Y-115281791D01*
X97862122Y-115217946D01*
X97913237Y-115170096D01*
X97970422Y-115138649D01*
X98031444Y-115124012D01*
X98094073Y-115126592D01*
X98156079Y-115146797D01*
X98215229Y-115185035D01*
X98237520Y-115205400D01*
X98282936Y-115261726D01*
X98309649Y-115321973D01*
X98318391Y-115388079D01*
X98317112Y-115415614D01*
X98311159Y-115453611D01*
X98301524Y-115489246D01*
X98295262Y-115504627D01*
X98272655Y-115539759D01*
X98241333Y-115576507D01*
X98207468Y-115608297D01*
X98180480Y-115626940D01*
X98153615Y-115641040D01*
X98153615Y-115831289D01*
X98153615Y-116021538D01*
X98544384Y-116021538D01*
X98935154Y-116021538D01*
X98935154Y-115833260D01*
X98935154Y-115644981D01*
X98899931Y-115626012D01*
X98850686Y-115588983D01*
X98810987Y-115538102D01*
X98783256Y-115477709D01*
X98769913Y-115412144D01*
X98769275Y-115396307D01*
X98930713Y-115396307D01*
X98939062Y-115436171D01*
X98961234Y-115467022D01*
X98992918Y-115487119D01*
X99029804Y-115494723D01*
X99067580Y-115488093D01*
X99101936Y-115465489D01*
X99101982Y-115465443D01*
X99124981Y-115430823D01*
X99131649Y-115393276D01*
X99123723Y-115357046D01*
X99102937Y-115326376D01*
X99071027Y-115305508D01*
X99033751Y-115298615D01*
X98990648Y-115306937D01*
X98956965Y-115329797D01*
X98936038Y-115364033D01*
X98930713Y-115396307D01*
X98769275Y-115396307D01*
X98769077Y-115391390D01*
X98778487Y-115325789D01*
X98805292Y-115263282D01*
X98847350Y-115207365D01*
X98902523Y-115161540D01*
X98913993Y-115154450D01*
X98941957Y-115139853D01*
X98968373Y-115131720D01*
X99000948Y-115128325D01*
X99032846Y-115127847D01*
X99086332Y-115130681D01*
X99124554Y-115139244D01*
X99137733Y-115145126D01*
X99198150Y-115187556D01*
X99244908Y-115240728D01*
X99276705Y-115301777D01*
X99292241Y-115367837D01*
X99290215Y-115436041D01*
X99283403Y-115466061D01*
X99258371Y-115522263D01*
X99218852Y-115575383D01*
X99169654Y-115619249D01*
X99158203Y-115626921D01*
X99120340Y-115650823D01*
X99122997Y-115833738D01*
X99125654Y-116016654D01*
X99509096Y-116019209D01*
X99892538Y-116021765D01*
X99892538Y-115832720D01*
X99892477Y-115767581D01*
X99892091Y-115719277D01*
X99891078Y-115685104D01*
X99889137Y-115662360D01*
X99885967Y-115648339D01*
X99881263Y-115640339D01*
X99874726Y-115635656D01*
X99870293Y-115633539D01*
X99820558Y-115600690D01*
X99779115Y-115553094D01*
X99748438Y-115494659D01*
X99731001Y-115429290D01*
X99728822Y-115410202D01*
X99729586Y-115396307D01*
X99892538Y-115396307D01*
X99900858Y-115436622D01*
X99922961Y-115467900D01*
X99954560Y-115488141D01*
X99991369Y-115495346D01*
X100029103Y-115487516D01*
X100054147Y-115471697D01*
X100074035Y-115446893D01*
X100084124Y-115412163D01*
X100085217Y-115403778D01*
X100086993Y-115373873D01*
X100081753Y-115353830D01*
X100066471Y-115334384D01*
X100060584Y-115328389D01*
X100025439Y-115304729D01*
X99987635Y-115297505D01*
X99951310Y-115305047D01*
X99920601Y-115325682D01*
X99899646Y-115357737D01*
X99892538Y-115396307D01*
X99729586Y-115396307D01*
X99732362Y-115345853D01*
X99751801Y-115285674D01*
X99784549Y-115231827D01*
X99828015Y-115186476D01*
X99879607Y-115151784D01*
X99936733Y-115129915D01*
X99996803Y-115123030D01*
X100057225Y-115133294D01*
G37*
D13*
%TO.C,J2*%
X101970000Y-89238000D02*
X101970000Y-91458000D01*
X106080000Y-89238000D02*
X101970000Y-89238000D01*
X106080000Y-89238000D02*
X106080000Y-91458000D01*
X106080000Y-91458000D02*
X101970000Y-91458000D01*
X107080000Y-89238000D02*
X108190000Y-89238000D01*
X108190000Y-89238000D02*
X108190000Y-90348000D01*
%TO.C,C1*%
X99892267Y-94156000D02*
X99599733Y-94156000D01*
X99892267Y-95176000D02*
X99599733Y-95176000D01*
%TO.C,J1*%
X90924000Y-85512000D02*
X90924000Y-93332000D01*
X90924000Y-91732000D02*
X91844000Y-91732000D01*
X90924000Y-93332000D02*
X91844000Y-93332000D01*
X91684000Y-87772000D02*
X92684000Y-87772000D01*
X91684000Y-89372000D02*
X91684000Y-87772000D01*
X91844000Y-91732000D02*
X92124000Y-91732000D01*
X91844000Y-93332000D02*
X91844000Y-91732000D01*
X92684000Y-87772000D02*
X92684000Y-89372000D01*
X92684000Y-89372000D02*
X91684000Y-89372000D01*
X93484000Y-89872000D02*
X93484000Y-85512000D01*
X98484000Y-85512000D02*
X98484000Y-89872000D01*
X98484000Y-89872000D02*
X93484000Y-89872000D01*
X99284000Y-87772000D02*
X99284000Y-85512000D01*
X99284000Y-87772000D02*
X99284000Y-89372000D01*
X99284000Y-89372000D02*
X100284000Y-89372000D01*
X99784000Y-87772000D02*
X99784000Y-85512000D01*
X99844000Y-91732000D02*
X99844000Y-92947000D01*
X99844000Y-91732000D02*
X100124000Y-91732000D01*
X100124000Y-91732000D02*
X100124000Y-93332000D01*
X100124000Y-93332000D02*
X101044000Y-93332000D01*
X100284000Y-87772000D02*
X99284000Y-87772000D01*
X100284000Y-89372000D02*
X100284000Y-87772000D01*
X101044000Y-85512000D02*
X90924000Y-85512000D01*
X101044000Y-91732000D02*
X100124000Y-91732000D01*
X101044000Y-93332000D02*
X101044000Y-85512000D01*
%TD*%
%LPC*%
D15*
%TO.C,H1*%
X91000000Y-100000000D03*
%TD*%
D16*
%TO.C,J3*%
X97216233Y-112435767D03*
X100751767Y-108900233D03*
%TD*%
D17*
%TO.C,C2*%
X100608500Y-96190000D03*
X98883500Y-96190000D03*
%TD*%
D18*
%TO.C,J2*%
X107080000Y-90348000D03*
D19*
X105080000Y-90348000D03*
X103080000Y-90348000D03*
%TD*%
D17*
%TO.C,C1*%
X100608500Y-94666000D03*
X98883500Y-94666000D03*
%TD*%
D15*
%TO.C,H2*%
X109000000Y-100000000D03*
%TD*%
D20*
%TO.C,J1*%
X98984000Y-91872000D03*
D21*
X96984000Y-91872000D03*
X94984000Y-91872000D03*
X92984000Y-91872000D03*
%TD*%
%LPD*%
M02*
