M48
; DRILL file {KiCad 9.0.6} date 2025-11-20T15:49:29+0100
; FORMAT={-:-/ absolute / inch / decimal}
; #@! TF.CreationDate,2025-11-20T15:49:29+01:00
; #@! TF.GenerationSoftware,Kicad,Pcbnew,9.0.6
; #@! TF.FileFunction,Plated,1,2,PTH
FMAT,2
INCH
; #@! TA.AperFunction,Plated,PTH,ViaDrill
T1C0.0157
; #@! TA.AperFunction,Plated,PTH,ComponentDrill
T2C0.0295
; #@! TA.AperFunction,Plated,PTH,ComponentDrill
T3C0.0315
; #@! TA.AperFunction,Plated,PTH,ComponentDrill
T4C0.0748
; #@! TA.AperFunction,Plated,PTH,ComponentDrill
T5C0.1693
%
G90
G05
T1
X3.287Y-3.937
X3.2969Y-3.8241
X3.2969Y-4.0499
X3.3262Y-3.7147
X3.3262Y-4.1593
X3.372Y-4.272
X3.3741Y-3.612
X3.427Y-4.372
X3.4391Y-3.5192
X3.497Y-4.477
X3.5039Y-3.4646
X3.587Y-3.587
X3.592Y-4.582
X3.6614Y-3.4646
X3.682Y-4.682
X3.797Y-4.792
X3.817Y-3.757
X3.8189Y-3.4646
X3.897Y-3.857
X3.952Y-4.802
X3.9764Y-3.457
X4.0476Y-4.697
X4.0945Y-3.457
X4.177Y-4.577
X4.2126Y-3.4646
X4.262Y-4.4999
X4.3548Y-4.4349
X4.3701Y-3.4646
X4.4349Y-3.5192
X4.4349Y-4.3548
X4.4999Y-3.612
X4.4999Y-4.262
X4.5478Y-3.7147
X4.5478Y-4.1593
X4.5771Y-3.8241
X4.5771Y-4.0499
X4.587Y-3.937
T2
X3.6608Y-3.617
X3.7395Y-3.617
X3.8183Y-3.617
X3.897Y-3.617
T3
X4.0583Y-3.557
X4.137Y-3.557
X4.2157Y-3.557
T4
X3.8274Y-4.4266
X3.9666Y-4.2874
T5
G00X3.5453Y-3.937
M15
G01X3.6201Y-3.937
M16
G05
G00X4.2539Y-3.937
M15
G01X4.3287Y-3.937
M16
G05
M30
