%TF.GenerationSoftware,KiCad,Pcbnew,9.0.6*%
%TF.CreationDate,2025-11-20T15:59:52+01:00*%
%TF.ProjectId,N57__ldruckanzeige,4e35375f-d66c-4647-9275-636b616e7a65,rev?*%
%TF.SameCoordinates,Original*%
%TF.FileFunction,Legend,Top*%
%TF.FilePolarity,Positive*%
%FSLAX46Y46*%
G04 Gerber Fmt 4.6, Leading zero omitted, Abs format (unit mm)*
G04 Created by KiCad (PCBNEW 9.0.6) date 2025-11-20 15:59:52*
%MOMM*%
%LPD*%
G01*
G04 APERTURE LIST*
G04 Aperture macros list*
%AMRoundRect*
0 Rectangle with rounded corners*
0 $1 Rounding radius*
0 $2 $3 $4 $5 $6 $7 $8 $9 X,Y pos of 4 corners*
0 Add a 4 corners polygon primitive as box body*
4,1,4,$2,$3,$4,$5,$6,$7,$8,$9,$2,$3,0*
0 Add four circle primitives for the rounded corners*
1,1,$1+$1,$2,$3*
1,1,$1+$1,$4,$5*
1,1,$1+$1,$6,$7*
1,1,$1+$1,$8,$9*
0 Add four rect primitives between the rounded corners*
20,1,$1+$1,$2,$3,$4,$5,0*
20,1,$1+$1,$4,$5,$6,$7,0*
20,1,$1+$1,$6,$7,$8,$9,0*
20,1,$1+$1,$8,$9,$2,$3,0*%
%AMOutline5P*
0 Free polygon, 5 corners , with rotation*
0 The origin of the aperture is its center*
0 number of corners: always 5*
0 $1 to $10 corner X, Y*
0 $11 Rotation angle, in degrees counterclockwise*
0 create outline with 5 corners*
4,1,5,$1,$2,$3,$4,$5,$6,$7,$8,$9,$10,$1,$2,$11*%
%AMOutline6P*
0 Free polygon, 6 corners , with rotation*
0 The origin of the aperture is its center*
0 number of corners: always 6*
0 $1 to $12 corner X, Y*
0 $13 Rotation angle, in degrees counterclockwise*
0 create outline with 6 corners*
4,1,6,$1,$2,$3,$4,$5,$6,$7,$8,$9,$10,$11,$12,$1,$2,$13*%
%AMOutline7P*
0 Free polygon, 7 corners , with rotation*
0 The origin of the aperture is its center*
0 number of corners: always 7*
0 $1 to $14 corner X, Y*
0 $15 Rotation angle, in degrees counterclockwise*
0 create outline with 7 corners*
4,1,7,$1,$2,$3,$4,$5,$6,$7,$8,$9,$10,$11,$12,$13,$14,$1,$2,$15*%
%AMOutline8P*
0 Free polygon, 8 corners , with rotation*
0 The origin of the aperture is its center*
0 number of corners: always 8*
0 $1 to $16 corner X, Y*
0 $17 Rotation angle, in degrees counterclockwise*
0 create outline with 8 corners*
4,1,8,$1,$2,$3,$4,$5,$6,$7,$8,$9,$10,$11,$12,$13,$14,$15,$16,$1,$2,$17*%
G04 Aperture macros list end*
%ADD10C,0.153000*%
%ADD11C,0.150000*%
%ADD12C,0.120000*%
%ADD13C,0.250000*%
%ADD14C,0.000000*%
%ADD15RoundRect,0.225000X-0.225000X-0.375000X0.225000X-0.375000X0.225000X0.375000X-0.225000X0.375000X0*%
%ADD16RoundRect,0.200000X0.275000X-0.200000X0.275000X0.200000X-0.275000X0.200000X-0.275000X-0.200000X0*%
%ADD17RoundRect,0.225000X-0.250000X0.225000X-0.250000X-0.225000X0.250000X-0.225000X0.250000X0.225000X0*%
%ADD18RoundRect,0.218750X0.256250X-0.218750X0.256250X0.218750X-0.256250X0.218750X-0.256250X-0.218750X0*%
%ADD19RoundRect,0.200000X-0.275000X0.200000X-0.275000X-0.200000X0.275000X-0.200000X0.275000X0.200000X0*%
%ADD20C,5.700000*%
%ADD21R,0.625000X0.250000*%
%ADD22R,0.700000X0.450000*%
%ADD23R,0.575000X0.450000*%
%ADD24RoundRect,0.250000X0.375000X1.075000X-0.375000X1.075000X-0.375000X-1.075000X0.375000X-1.075000X0*%
%ADD25RoundRect,0.225000X0.250000X-0.225000X0.250000X0.225000X-0.250000X0.225000X-0.250000X-0.225000X0*%
%ADD26RoundRect,0.200000X0.200000X0.275000X-0.200000X0.275000X-0.200000X-0.275000X0.200000X-0.275000X0*%
%ADD27RoundRect,0.250000X-0.350000X-0.625000X0.350000X-0.625000X0.350000X0.625000X-0.350000X0.625000X0*%
%ADD28O,1.200000X1.750000*%
%ADD29RoundRect,0.218750X0.218750X0.256250X-0.218750X0.256250X-0.218750X-0.256250X0.218750X-0.256250X0*%
%ADD30C,0.650000*%
%ADD31RoundRect,0.150000X-0.150000X-0.425000X0.150000X-0.425000X0.150000X0.425000X-0.150000X0.425000X0*%
%ADD32RoundRect,0.075000X-0.075000X-0.500000X0.075000X-0.500000X0.075000X0.500000X-0.075000X0.500000X0*%
%ADD33O,1.000000X2.100000*%
%ADD34O,1.000000X1.800000*%
%ADD35RoundRect,0.250000X-0.475000X0.250000X-0.475000X-0.250000X0.475000X-0.250000X0.475000X0.250000X0*%
%ADD36R,3.400000X0.980000*%
%ADD37RoundRect,0.150000X-0.512500X-0.150000X0.512500X-0.150000X0.512500X0.150000X-0.512500X0.150000X0*%
%ADD38RoundRect,0.218750X-0.256250X0.218750X-0.256250X-0.218750X0.256250X-0.218750X0.256250X0.218750X0*%
%ADD39RoundRect,0.200000X-0.200000X-0.275000X0.200000X-0.275000X0.200000X0.275000X-0.200000X0.275000X0*%
%ADD40RoundRect,0.250000X0.250000X0.475000X-0.250000X0.475000X-0.250000X-0.475000X0.250000X-0.475000X0*%
%ADD41Outline7P,-0.375000X0.078750X-0.341250X0.112500X0.375000X0.112500X0.375000X-0.078750X0.341250X-0.112500X-0.341250X-0.112500X-0.375000X-0.078750X90.000000*%
%ADD42Outline7P,-0.200000X0.247500X-0.160000X0.287500X0.160000X0.287500X0.200000X0.247500X0.200000X-0.247500X0.160000X-0.287500X-0.200000X-0.287500X90.000000*%
%ADD43R,0.250000X0.600000*%
%ADD44R,0.249999X0.599999*%
%ADD45Outline7P,-0.350000X0.078750X-0.316250X0.112500X0.316250X0.112500X0.350000X0.078750X0.350000X-0.112500X-0.316250X-0.112500X-0.350000X-0.078750X90.000000*%
%ADD46Outline7P,-0.175000X0.287500X0.140000X0.287500X0.175000X0.252500X0.175000X-0.252500X0.140000X-0.287500X-0.140000X-0.287500X-0.175000X-0.252500X90.000000*%
%ADD47Outline7P,-0.175000X0.252500X-0.140000X0.287500X0.175000X0.287500X0.175000X-0.252500X0.140000X-0.287500X-0.140000X-0.287500X-0.175000X-0.252500X90.000000*%
%ADD48Outline7P,-0.350000X0.078750X-0.316250X0.112500X0.316250X0.112500X0.350000X0.078750X0.350000X-0.078750X0.316250X-0.112500X-0.350000X-0.112500X90.000000*%
%ADD49Outline7P,-0.200000X0.247500X-0.160000X0.287500X0.160000X0.287500X0.200000X0.247500X0.200000X-0.287500X-0.160000X-0.287500X-0.200000X-0.247500X90.000000*%
%ADD50Outline7P,-0.375000X0.112500X0.341250X0.112500X0.375000X0.078750X0.375000X-0.078750X0.341250X-0.112500X-0.341250X-0.112500X-0.375000X-0.078750X90.000000*%
%ADD51R,1.300000X0.350000*%
%ADD52RoundRect,0.225000X-0.225000X-0.250000X0.225000X-0.250000X0.225000X0.250000X-0.225000X0.250000X0*%
%ADD53R,1.050000X0.650000*%
%ADD54RoundRect,0.250000X-0.650000X1.000000X-0.650000X-1.000000X0.650000X-1.000000X0.650000X1.000000X0*%
%ADD55RoundRect,0.250000X-0.350000X-0.550000X0.350000X-0.550000X0.350000X0.550000X-0.350000X0.550000X0*%
%ADD56RoundRect,0.250000X-1.100000X0.325000X-1.100000X-0.325000X1.100000X-0.325000X1.100000X0.325000X0*%
%ADD57R,0.800000X0.400000*%
%ADD58R,0.400000X0.800000*%
%ADD59Outline5P,-0.600000X0.204000X-0.204000X0.600000X0.600000X0.600000X0.600000X-0.600000X-0.600000X-0.600000X0.000000*%
%ADD60R,1.200000X1.200000*%
%ADD61R,0.800000X0.800000*%
%ADD62RoundRect,0.150000X-0.150000X0.512500X-0.150000X-0.512500X0.150000X-0.512500X0.150000X0.512500X0*%
%ADD63RoundRect,0.250000X0.475000X-0.250000X0.475000X0.250000X-0.475000X0.250000X-0.475000X-0.250000X0*%
G04 APERTURE END LIST*
D10*
X134133228Y-120879663D02*
X134228466Y-120879663D01*
X134228466Y-120879663D02*
X134323704Y-120927282D01*
X134323704Y-120927282D02*
X134371323Y-120974901D01*
X134371323Y-120974901D02*
X134418942Y-121070139D01*
X134418942Y-121070139D02*
X134466561Y-121260615D01*
X134466561Y-121260615D02*
X134466561Y-121498710D01*
X134466561Y-121498710D02*
X134418942Y-121689186D01*
X134418942Y-121689186D02*
X134371323Y-121784424D01*
X134371323Y-121784424D02*
X134323704Y-121832044D01*
X134323704Y-121832044D02*
X134228466Y-121879663D01*
X134228466Y-121879663D02*
X134133228Y-121879663D01*
X134133228Y-121879663D02*
X134037990Y-121832044D01*
X134037990Y-121832044D02*
X133990371Y-121784424D01*
X133990371Y-121784424D02*
X133942752Y-121689186D01*
X133942752Y-121689186D02*
X133895133Y-121498710D01*
X133895133Y-121498710D02*
X133895133Y-121260615D01*
X133895133Y-121260615D02*
X133942752Y-121070139D01*
X133942752Y-121070139D02*
X133990371Y-120974901D01*
X133990371Y-120974901D02*
X134037990Y-120927282D01*
X134037990Y-120927282D02*
X134133228Y-120879663D01*
X134942752Y-121832044D02*
X134942752Y-121879663D01*
X134942752Y-121879663D02*
X134895133Y-121974901D01*
X134895133Y-121974901D02*
X134847514Y-122022520D01*
X135847513Y-120879663D02*
X135371323Y-120879663D01*
X135371323Y-120879663D02*
X135323704Y-121355853D01*
X135323704Y-121355853D02*
X135371323Y-121308234D01*
X135371323Y-121308234D02*
X135466561Y-121260615D01*
X135466561Y-121260615D02*
X135704656Y-121260615D01*
X135704656Y-121260615D02*
X135799894Y-121308234D01*
X135799894Y-121308234D02*
X135847513Y-121355853D01*
X135847513Y-121355853D02*
X135895132Y-121451091D01*
X135895132Y-121451091D02*
X135895132Y-121689186D01*
X135895132Y-121689186D02*
X135847513Y-121784424D01*
X135847513Y-121784424D02*
X135799894Y-121832044D01*
X135799894Y-121832044D02*
X135704656Y-121879663D01*
X135704656Y-121879663D02*
X135466561Y-121879663D01*
X135466561Y-121879663D02*
X135371323Y-121832044D01*
X135371323Y-121832044D02*
X135323704Y-121784424D01*
X136276085Y-121593948D02*
X136752275Y-121593948D01*
X136180847Y-121879663D02*
X136514180Y-120879663D01*
X136514180Y-120879663D02*
X136847513Y-121879663D01*
X149775143Y-92026682D02*
X149946571Y-92083825D01*
X149946571Y-92083825D02*
X150003714Y-92140968D01*
X150003714Y-92140968D02*
X150060857Y-92255253D01*
X150060857Y-92255253D02*
X150060857Y-92426682D01*
X150060857Y-92426682D02*
X150003714Y-92540968D01*
X150003714Y-92540968D02*
X149946571Y-92598111D01*
X149946571Y-92598111D02*
X149832286Y-92655253D01*
X149832286Y-92655253D02*
X149375143Y-92655253D01*
X149375143Y-92655253D02*
X149375143Y-91455253D01*
X149375143Y-91455253D02*
X149775143Y-91455253D01*
X149775143Y-91455253D02*
X149889429Y-91512396D01*
X149889429Y-91512396D02*
X149946571Y-91569539D01*
X149946571Y-91569539D02*
X150003714Y-91683825D01*
X150003714Y-91683825D02*
X150003714Y-91798111D01*
X150003714Y-91798111D02*
X149946571Y-91912396D01*
X149946571Y-91912396D02*
X149889429Y-91969539D01*
X149889429Y-91969539D02*
X149775143Y-92026682D01*
X149775143Y-92026682D02*
X149375143Y-92026682D01*
X150575143Y-92655253D02*
X150575143Y-91455253D01*
X150575143Y-91455253D02*
X150975143Y-92312396D01*
X150975143Y-92312396D02*
X151375143Y-91455253D01*
X151375143Y-91455253D02*
X151375143Y-92655253D01*
X151832286Y-91455253D02*
X152118000Y-92655253D01*
X152118000Y-92655253D02*
X152346572Y-91798111D01*
X152346572Y-91798111D02*
X152575143Y-92655253D01*
X152575143Y-92655253D02*
X152860858Y-91455253D01*
X154232287Y-92655253D02*
X154232287Y-91455253D01*
X154232287Y-91455253D02*
X154918001Y-92655253D01*
X154918001Y-92655253D02*
X154918001Y-91455253D01*
X156060858Y-91455253D02*
X155489430Y-91455253D01*
X155489430Y-91455253D02*
X155432287Y-92026682D01*
X155432287Y-92026682D02*
X155489430Y-91969539D01*
X155489430Y-91969539D02*
X155603716Y-91912396D01*
X155603716Y-91912396D02*
X155889430Y-91912396D01*
X155889430Y-91912396D02*
X156003716Y-91969539D01*
X156003716Y-91969539D02*
X156060858Y-92026682D01*
X156060858Y-92026682D02*
X156118001Y-92140968D01*
X156118001Y-92140968D02*
X156118001Y-92426682D01*
X156118001Y-92426682D02*
X156060858Y-92540968D01*
X156060858Y-92540968D02*
X156003716Y-92598111D01*
X156003716Y-92598111D02*
X155889430Y-92655253D01*
X155889430Y-92655253D02*
X155603716Y-92655253D01*
X155603716Y-92655253D02*
X155489430Y-92598111D01*
X155489430Y-92598111D02*
X155432287Y-92540968D01*
X156518001Y-91455253D02*
X157318001Y-91455253D01*
X157318001Y-91455253D02*
X156803715Y-92655253D01*
X158689430Y-92026682D02*
X159089430Y-92026682D01*
X159260858Y-92655253D02*
X158689430Y-92655253D01*
X158689430Y-92655253D02*
X158689430Y-91455253D01*
X158689430Y-91455253D02*
X159260858Y-91455253D01*
X159775144Y-91855253D02*
X159775144Y-92655253D01*
X159775144Y-91969539D02*
X159832287Y-91912396D01*
X159832287Y-91912396D02*
X159946572Y-91855253D01*
X159946572Y-91855253D02*
X160118001Y-91855253D01*
X160118001Y-91855253D02*
X160232287Y-91912396D01*
X160232287Y-91912396D02*
X160289430Y-92026682D01*
X160289430Y-92026682D02*
X160289430Y-92655253D01*
X161375144Y-91855253D02*
X161375144Y-92826682D01*
X161375144Y-92826682D02*
X161318001Y-92940968D01*
X161318001Y-92940968D02*
X161260858Y-92998111D01*
X161260858Y-92998111D02*
X161146572Y-93055253D01*
X161146572Y-93055253D02*
X160975144Y-93055253D01*
X160975144Y-93055253D02*
X160860858Y-92998111D01*
X161375144Y-92598111D02*
X161260858Y-92655253D01*
X161260858Y-92655253D02*
X161032286Y-92655253D01*
X161032286Y-92655253D02*
X160918001Y-92598111D01*
X160918001Y-92598111D02*
X160860858Y-92540968D01*
X160860858Y-92540968D02*
X160803715Y-92426682D01*
X160803715Y-92426682D02*
X160803715Y-92083825D01*
X160803715Y-92083825D02*
X160860858Y-91969539D01*
X160860858Y-91969539D02*
X160918001Y-91912396D01*
X160918001Y-91912396D02*
X161032286Y-91855253D01*
X161032286Y-91855253D02*
X161260858Y-91855253D01*
X161260858Y-91855253D02*
X161375144Y-91912396D01*
X161946572Y-92655253D02*
X161946572Y-91855253D01*
X161946572Y-91455253D02*
X161889429Y-91512396D01*
X161889429Y-91512396D02*
X161946572Y-91569539D01*
X161946572Y-91569539D02*
X162003715Y-91512396D01*
X162003715Y-91512396D02*
X161946572Y-91455253D01*
X161946572Y-91455253D02*
X161946572Y-91569539D01*
X162518001Y-91855253D02*
X162518001Y-92655253D01*
X162518001Y-91969539D02*
X162575144Y-91912396D01*
X162575144Y-91912396D02*
X162689429Y-91855253D01*
X162689429Y-91855253D02*
X162860858Y-91855253D01*
X162860858Y-91855253D02*
X162975144Y-91912396D01*
X162975144Y-91912396D02*
X163032287Y-92026682D01*
X163032287Y-92026682D02*
X163032287Y-92655253D01*
X164060858Y-92598111D02*
X163946572Y-92655253D01*
X163946572Y-92655253D02*
X163718001Y-92655253D01*
X163718001Y-92655253D02*
X163603715Y-92598111D01*
X163603715Y-92598111D02*
X163546572Y-92483825D01*
X163546572Y-92483825D02*
X163546572Y-92026682D01*
X163546572Y-92026682D02*
X163603715Y-91912396D01*
X163603715Y-91912396D02*
X163718001Y-91855253D01*
X163718001Y-91855253D02*
X163946572Y-91855253D01*
X163946572Y-91855253D02*
X164060858Y-91912396D01*
X164060858Y-91912396D02*
X164118001Y-92026682D01*
X164118001Y-92026682D02*
X164118001Y-92140968D01*
X164118001Y-92140968D02*
X163546572Y-92255253D01*
X147775142Y-93387186D02*
X148003714Y-93387186D01*
X148003714Y-93387186D02*
X148117999Y-93444329D01*
X148117999Y-93444329D02*
X148232285Y-93558615D01*
X148232285Y-93558615D02*
X148289428Y-93787186D01*
X148289428Y-93787186D02*
X148289428Y-94187186D01*
X148289428Y-94187186D02*
X148232285Y-94415758D01*
X148232285Y-94415758D02*
X148117999Y-94530044D01*
X148117999Y-94530044D02*
X148003714Y-94587186D01*
X148003714Y-94587186D02*
X147775142Y-94587186D01*
X147775142Y-94587186D02*
X147660857Y-94530044D01*
X147660857Y-94530044D02*
X147546571Y-94415758D01*
X147546571Y-94415758D02*
X147489428Y-94187186D01*
X147489428Y-94187186D02*
X147489428Y-93787186D01*
X147489428Y-93787186D02*
X147546571Y-93558615D01*
X147546571Y-93558615D02*
X147660857Y-93444329D01*
X147660857Y-93444329D02*
X147775142Y-93387186D01*
X148803714Y-94587186D02*
X148803714Y-93787186D01*
X148803714Y-93387186D02*
X148746571Y-93444329D01*
X148746571Y-93444329D02*
X148803714Y-93501472D01*
X148803714Y-93501472D02*
X148860857Y-93444329D01*
X148860857Y-93444329D02*
X148803714Y-93387186D01*
X148803714Y-93387186D02*
X148803714Y-93501472D01*
X149546571Y-94587186D02*
X149432286Y-94530044D01*
X149432286Y-94530044D02*
X149375143Y-94415758D01*
X149375143Y-94415758D02*
X149375143Y-93387186D01*
X150003714Y-93787186D02*
X150003714Y-94987186D01*
X150003714Y-93844329D02*
X150118000Y-93787186D01*
X150118000Y-93787186D02*
X150346571Y-93787186D01*
X150346571Y-93787186D02*
X150460857Y-93844329D01*
X150460857Y-93844329D02*
X150518000Y-93901472D01*
X150518000Y-93901472D02*
X150575142Y-94015758D01*
X150575142Y-94015758D02*
X150575142Y-94358615D01*
X150575142Y-94358615D02*
X150518000Y-94472901D01*
X150518000Y-94472901D02*
X150460857Y-94530044D01*
X150460857Y-94530044D02*
X150346571Y-94587186D01*
X150346571Y-94587186D02*
X150118000Y-94587186D01*
X150118000Y-94587186D02*
X150003714Y-94530044D01*
X151089428Y-94587186D02*
X151089428Y-93787186D01*
X151089428Y-94015758D02*
X151146571Y-93901472D01*
X151146571Y-93901472D02*
X151203714Y-93844329D01*
X151203714Y-93844329D02*
X151317999Y-93787186D01*
X151317999Y-93787186D02*
X151432285Y-93787186D01*
X152289428Y-94530044D02*
X152175142Y-94587186D01*
X152175142Y-94587186D02*
X151946571Y-94587186D01*
X151946571Y-94587186D02*
X151832285Y-94530044D01*
X151832285Y-94530044D02*
X151775142Y-94415758D01*
X151775142Y-94415758D02*
X151775142Y-93958615D01*
X151775142Y-93958615D02*
X151832285Y-93844329D01*
X151832285Y-93844329D02*
X151946571Y-93787186D01*
X151946571Y-93787186D02*
X152175142Y-93787186D01*
X152175142Y-93787186D02*
X152289428Y-93844329D01*
X152289428Y-93844329D02*
X152346571Y-93958615D01*
X152346571Y-93958615D02*
X152346571Y-94072901D01*
X152346571Y-94072901D02*
X151775142Y-94187186D01*
X152803713Y-94530044D02*
X152917999Y-94587186D01*
X152917999Y-94587186D02*
X153146570Y-94587186D01*
X153146570Y-94587186D02*
X153260856Y-94530044D01*
X153260856Y-94530044D02*
X153317999Y-94415758D01*
X153317999Y-94415758D02*
X153317999Y-94358615D01*
X153317999Y-94358615D02*
X153260856Y-94244329D01*
X153260856Y-94244329D02*
X153146570Y-94187186D01*
X153146570Y-94187186D02*
X152975142Y-94187186D01*
X152975142Y-94187186D02*
X152860856Y-94130044D01*
X152860856Y-94130044D02*
X152803713Y-94015758D01*
X152803713Y-94015758D02*
X152803713Y-93958615D01*
X152803713Y-93958615D02*
X152860856Y-93844329D01*
X152860856Y-93844329D02*
X152975142Y-93787186D01*
X152975142Y-93787186D02*
X153146570Y-93787186D01*
X153146570Y-93787186D02*
X153260856Y-93844329D01*
X153775142Y-94530044D02*
X153889428Y-94587186D01*
X153889428Y-94587186D02*
X154117999Y-94587186D01*
X154117999Y-94587186D02*
X154232285Y-94530044D01*
X154232285Y-94530044D02*
X154289428Y-94415758D01*
X154289428Y-94415758D02*
X154289428Y-94358615D01*
X154289428Y-94358615D02*
X154232285Y-94244329D01*
X154232285Y-94244329D02*
X154117999Y-94187186D01*
X154117999Y-94187186D02*
X153946571Y-94187186D01*
X153946571Y-94187186D02*
X153832285Y-94130044D01*
X153832285Y-94130044D02*
X153775142Y-94015758D01*
X153775142Y-94015758D02*
X153775142Y-93958615D01*
X153775142Y-93958615D02*
X153832285Y-93844329D01*
X153832285Y-93844329D02*
X153946571Y-93787186D01*
X153946571Y-93787186D02*
X154117999Y-93787186D01*
X154117999Y-93787186D02*
X154232285Y-93844329D01*
X155318000Y-93787186D02*
X155318000Y-94587186D01*
X154803714Y-93787186D02*
X154803714Y-94415758D01*
X154803714Y-94415758D02*
X154860857Y-94530044D01*
X154860857Y-94530044D02*
X154975142Y-94587186D01*
X154975142Y-94587186D02*
X155146571Y-94587186D01*
X155146571Y-94587186D02*
X155260857Y-94530044D01*
X155260857Y-94530044D02*
X155318000Y-94472901D01*
X155889428Y-94587186D02*
X155889428Y-93787186D01*
X155889428Y-94015758D02*
X155946571Y-93901472D01*
X155946571Y-93901472D02*
X156003714Y-93844329D01*
X156003714Y-93844329D02*
X156117999Y-93787186D01*
X156117999Y-93787186D02*
X156232285Y-93787186D01*
X157089428Y-94530044D02*
X156975142Y-94587186D01*
X156975142Y-94587186D02*
X156746571Y-94587186D01*
X156746571Y-94587186D02*
X156632285Y-94530044D01*
X156632285Y-94530044D02*
X156575142Y-94415758D01*
X156575142Y-94415758D02*
X156575142Y-93958615D01*
X156575142Y-93958615D02*
X156632285Y-93844329D01*
X156632285Y-93844329D02*
X156746571Y-93787186D01*
X156746571Y-93787186D02*
X156975142Y-93787186D01*
X156975142Y-93787186D02*
X157089428Y-93844329D01*
X157089428Y-93844329D02*
X157146571Y-93958615D01*
X157146571Y-93958615D02*
X157146571Y-94072901D01*
X157146571Y-94072901D02*
X156575142Y-94187186D01*
X158746570Y-94587186D02*
X158632285Y-94530044D01*
X158632285Y-94530044D02*
X158575142Y-94472901D01*
X158575142Y-94472901D02*
X158517999Y-94358615D01*
X158517999Y-94358615D02*
X158517999Y-94015758D01*
X158517999Y-94015758D02*
X158575142Y-93901472D01*
X158575142Y-93901472D02*
X158632285Y-93844329D01*
X158632285Y-93844329D02*
X158746570Y-93787186D01*
X158746570Y-93787186D02*
X158917999Y-93787186D01*
X158917999Y-93787186D02*
X159032285Y-93844329D01*
X159032285Y-93844329D02*
X159089428Y-93901472D01*
X159089428Y-93901472D02*
X159146570Y-94015758D01*
X159146570Y-94015758D02*
X159146570Y-94358615D01*
X159146570Y-94358615D02*
X159089428Y-94472901D01*
X159089428Y-94472901D02*
X159032285Y-94530044D01*
X159032285Y-94530044D02*
X158917999Y-94587186D01*
X158917999Y-94587186D02*
X158746570Y-94587186D01*
X159546570Y-93787186D02*
X159832284Y-94587186D01*
X159832284Y-94587186D02*
X160117999Y-93787186D01*
X161032285Y-94530044D02*
X160917999Y-94587186D01*
X160917999Y-94587186D02*
X160689428Y-94587186D01*
X160689428Y-94587186D02*
X160575142Y-94530044D01*
X160575142Y-94530044D02*
X160517999Y-94415758D01*
X160517999Y-94415758D02*
X160517999Y-93958615D01*
X160517999Y-93958615D02*
X160575142Y-93844329D01*
X160575142Y-93844329D02*
X160689428Y-93787186D01*
X160689428Y-93787186D02*
X160917999Y-93787186D01*
X160917999Y-93787186D02*
X161032285Y-93844329D01*
X161032285Y-93844329D02*
X161089428Y-93958615D01*
X161089428Y-93958615D02*
X161089428Y-94072901D01*
X161089428Y-94072901D02*
X160517999Y-94187186D01*
X161603713Y-94587186D02*
X161603713Y-93787186D01*
X161603713Y-94015758D02*
X161660856Y-93901472D01*
X161660856Y-93901472D02*
X161717999Y-93844329D01*
X161717999Y-93844329D02*
X161832284Y-93787186D01*
X161832284Y-93787186D02*
X161946570Y-93787186D01*
X163146570Y-93387186D02*
X163432284Y-94587186D01*
X163432284Y-94587186D02*
X163660856Y-93730044D01*
X163660856Y-93730044D02*
X163889427Y-94587186D01*
X163889427Y-94587186D02*
X164175142Y-93387186D01*
X164632285Y-94587186D02*
X164632285Y-93787186D01*
X164632285Y-93387186D02*
X164575142Y-93444329D01*
X164575142Y-93444329D02*
X164632285Y-93501472D01*
X164632285Y-93501472D02*
X164689428Y-93444329D01*
X164689428Y-93444329D02*
X164632285Y-93387186D01*
X164632285Y-93387186D02*
X164632285Y-93501472D01*
X165032285Y-93787186D02*
X165489428Y-93787186D01*
X165203714Y-94587186D02*
X165203714Y-93558615D01*
X165203714Y-93558615D02*
X165260857Y-93444329D01*
X165260857Y-93444329D02*
X165375142Y-93387186D01*
X165375142Y-93387186D02*
X165489428Y-93387186D01*
X165889428Y-94587186D02*
X165889428Y-93787186D01*
X165889428Y-93387186D02*
X165832285Y-93444329D01*
X165832285Y-93444329D02*
X165889428Y-93501472D01*
X165889428Y-93501472D02*
X165946571Y-93444329D01*
X165946571Y-93444329D02*
X165889428Y-93387186D01*
X165889428Y-93387186D02*
X165889428Y-93501472D01*
G36*
X137822474Y-99670621D02*
G01*
X137858069Y-99706215D01*
X137901585Y-99793244D01*
X137901585Y-99928555D01*
X137858069Y-100015586D01*
X137818483Y-100055171D01*
X137731454Y-100098686D01*
X137368871Y-100098686D01*
X137368871Y-99623115D01*
X137679957Y-99623115D01*
X137822474Y-99670621D01*
G37*
G36*
X137761342Y-99095201D02*
G01*
X137800925Y-99134785D01*
X137844442Y-99221818D01*
X137844442Y-99299985D01*
X137800926Y-99387015D01*
X137761342Y-99426599D01*
X137674311Y-99470115D01*
X137368871Y-99470115D01*
X137368871Y-99051686D01*
X137674311Y-99051686D01*
X137761342Y-99095201D01*
G37*
G36*
X138904198Y-99495201D02*
G01*
X138943784Y-99534787D01*
X138987299Y-99621816D01*
X138987299Y-99928556D01*
X138943784Y-100015585D01*
X138904198Y-100055171D01*
X138817169Y-100098686D01*
X138681858Y-100098686D01*
X138594828Y-100055171D01*
X138555243Y-100015585D01*
X138511728Y-99928555D01*
X138511728Y-99621818D01*
X138555243Y-99534787D01*
X138594828Y-99495201D01*
X138681857Y-99451686D01*
X138817168Y-99451686D01*
X138904198Y-99495201D01*
G37*
G36*
X139989912Y-99495201D02*
G01*
X140029498Y-99534787D01*
X140073013Y-99621816D01*
X140073013Y-99928556D01*
X140029498Y-100015585D01*
X139989912Y-100055171D01*
X139902883Y-100098686D01*
X139767572Y-100098686D01*
X139680542Y-100055171D01*
X139640957Y-100015585D01*
X139597442Y-99928555D01*
X139597442Y-99621818D01*
X139640957Y-99534787D01*
X139680542Y-99495201D01*
X139767571Y-99451686D01*
X139902882Y-99451686D01*
X139989912Y-99495201D01*
G37*
G36*
X141157876Y-100385019D02*
G01*
X137082538Y-100385019D01*
X137082538Y-98975186D01*
X137215871Y-98975186D01*
X137215871Y-100175186D01*
X137217341Y-100190110D01*
X137228764Y-100217687D01*
X137249870Y-100238793D01*
X137277447Y-100250216D01*
X137292371Y-100251686D01*
X137749514Y-100251686D01*
X137764438Y-100250216D01*
X137766978Y-100249163D01*
X137769720Y-100248969D01*
X137783726Y-100243610D01*
X137898010Y-100186468D01*
X137904434Y-100182423D01*
X137906300Y-100181651D01*
X137908401Y-100179926D01*
X137910701Y-100178479D01*
X137912022Y-100176954D01*
X137917893Y-100172138D01*
X137975035Y-100114995D01*
X137979850Y-100109128D01*
X137981377Y-100107804D01*
X137982825Y-100105502D01*
X137984549Y-100103403D01*
X137985321Y-100101538D01*
X137989366Y-100095113D01*
X138046509Y-99980827D01*
X138051868Y-99966821D01*
X138052062Y-99964079D01*
X138053115Y-99961539D01*
X138054585Y-99946615D01*
X138054585Y-99775186D01*
X138053115Y-99760262D01*
X138052062Y-99757721D01*
X138051868Y-99754980D01*
X138046509Y-99740974D01*
X137989366Y-99626689D01*
X137985322Y-99620266D01*
X137984549Y-99618399D01*
X137982822Y-99616294D01*
X137981376Y-99613998D01*
X137979852Y-99612676D01*
X137975035Y-99606807D01*
X137971986Y-99603758D01*
X138358728Y-99603758D01*
X138358728Y-99946615D01*
X138360198Y-99961539D01*
X138361250Y-99964079D01*
X138361445Y-99966821D01*
X138366804Y-99980827D01*
X138423947Y-100095113D01*
X138427991Y-100101537D01*
X138428764Y-100103402D01*
X138430489Y-100105504D01*
X138431937Y-100107804D01*
X138433460Y-100109125D01*
X138438277Y-100114995D01*
X138495420Y-100172137D01*
X138501286Y-100176952D01*
X138502611Y-100178479D01*
X138504912Y-100179927D01*
X138507012Y-100181651D01*
X138508876Y-100182423D01*
X138515302Y-100186468D01*
X138629587Y-100243610D01*
X138643593Y-100248969D01*
X138646334Y-100249163D01*
X138648875Y-100250216D01*
X138663799Y-100251686D01*
X138835228Y-100251686D01*
X138850152Y-100250216D01*
X138852692Y-100249163D01*
X138855433Y-100248969D01*
X138869439Y-100243610D01*
X138983725Y-100186468D01*
X138990149Y-100182423D01*
X138992015Y-100181651D01*
X138994116Y-100179926D01*
X138996416Y-100178479D01*
X138997737Y-100176954D01*
X139003608Y-100172138D01*
X139060750Y-100114995D01*
X139065567Y-100109125D01*
X139067092Y-100107803D01*
X139068537Y-100105506D01*
X139070264Y-100103403D01*
X139071037Y-100101535D01*
X139075081Y-100095112D01*
X139132223Y-99980827D01*
X139137582Y-99966821D01*
X139137776Y-99964079D01*
X139138829Y-99961539D01*
X139140299Y-99946615D01*
X139140299Y-99603758D01*
X139444442Y-99603758D01*
X139444442Y-99946615D01*
X139445912Y-99961539D01*
X139446964Y-99964079D01*
X139447159Y-99966821D01*
X139452518Y-99980827D01*
X139509661Y-100095113D01*
X139513705Y-100101537D01*
X139514478Y-100103402D01*
X139516203Y-100105504D01*
X139517651Y-100107804D01*
X139519174Y-100109125D01*
X139523991Y-100114995D01*
X139581134Y-100172137D01*
X139587000Y-100176952D01*
X139588325Y-100178479D01*
X139590626Y-100179927D01*
X139592726Y-100181651D01*
X139594590Y-100182423D01*
X139601016Y-100186468D01*
X139715301Y-100243610D01*
X139729307Y-100248969D01*
X139732048Y-100249163D01*
X139734589Y-100250216D01*
X139749513Y-100251686D01*
X139920942Y-100251686D01*
X139935866Y-100250216D01*
X139938406Y-100249163D01*
X139941147Y-100248969D01*
X139955153Y-100243610D01*
X140069439Y-100186468D01*
X140075863Y-100182423D01*
X140077729Y-100181651D01*
X140079830Y-100179926D01*
X140082130Y-100178479D01*
X140083451Y-100176954D01*
X140089322Y-100172138D01*
X140146464Y-100114995D01*
X140151281Y-100109125D01*
X140152806Y-100107803D01*
X140154251Y-100105506D01*
X140155978Y-100103403D01*
X140156751Y-100101535D01*
X140160795Y-100095112D01*
X140217937Y-99980827D01*
X140223296Y-99966821D01*
X140223490Y-99964079D01*
X140224543Y-99961539D01*
X140226013Y-99946615D01*
X140226013Y-99603758D01*
X140224543Y-99588834D01*
X140223490Y-99586293D01*
X140223296Y-99583552D01*
X140217937Y-99569546D01*
X140160795Y-99455261D01*
X140156751Y-99448837D01*
X140155978Y-99446970D01*
X140154251Y-99444866D01*
X140152806Y-99442570D01*
X140151281Y-99441247D01*
X140146464Y-99435378D01*
X140089322Y-99378235D01*
X140083452Y-99373418D01*
X140082131Y-99371895D01*
X140079831Y-99370447D01*
X140077729Y-99368722D01*
X140075864Y-99367949D01*
X140069440Y-99363905D01*
X140062154Y-99360262D01*
X140417340Y-99360262D01*
X140417340Y-99390110D01*
X140428763Y-99417687D01*
X140449869Y-99438793D01*
X140477446Y-99450216D01*
X140492370Y-99451686D01*
X140587299Y-99451686D01*
X140587299Y-100003758D01*
X140588769Y-100018682D01*
X140589821Y-100021222D01*
X140590016Y-100023964D01*
X140595375Y-100037970D01*
X140652518Y-100152256D01*
X140654089Y-100154752D01*
X140654482Y-100155929D01*
X140655753Y-100157394D01*
X140660508Y-100164947D01*
X140667751Y-100171229D01*
X140674039Y-100178479D01*
X140681592Y-100183234D01*
X140683057Y-100184504D01*
X140684232Y-100184895D01*
X140686730Y-100186468D01*
X140801015Y-100243610D01*
X140815021Y-100248969D01*
X140817762Y-100249163D01*
X140820303Y-100250216D01*
X140835227Y-100251686D01*
X140949513Y-100251686D01*
X140964437Y-100250216D01*
X140992014Y-100238793D01*
X141013120Y-100217687D01*
X141024543Y-100190110D01*
X141024543Y-100160262D01*
X141013120Y-100132685D01*
X140992014Y-100111579D01*
X140964437Y-100100156D01*
X140949513Y-100098686D01*
X140853286Y-100098686D01*
X140777962Y-100061024D01*
X140740299Y-99985698D01*
X140740299Y-99451686D01*
X140949513Y-99451686D01*
X140964437Y-99450216D01*
X140992014Y-99438793D01*
X141013120Y-99417687D01*
X141024543Y-99390110D01*
X141024543Y-99360262D01*
X141013120Y-99332685D01*
X140992014Y-99311579D01*
X140964437Y-99300156D01*
X140949513Y-99298686D01*
X140740299Y-99298686D01*
X140740299Y-98975186D01*
X140738829Y-98960262D01*
X140727406Y-98932685D01*
X140706300Y-98911579D01*
X140678723Y-98900156D01*
X140648875Y-98900156D01*
X140621298Y-98911579D01*
X140600192Y-98932685D01*
X140588769Y-98960262D01*
X140587299Y-98975186D01*
X140587299Y-99298686D01*
X140492370Y-99298686D01*
X140477446Y-99300156D01*
X140449869Y-99311579D01*
X140428763Y-99332685D01*
X140417340Y-99360262D01*
X140062154Y-99360262D01*
X139955154Y-99306762D01*
X139941148Y-99301403D01*
X139938406Y-99301208D01*
X139935866Y-99300156D01*
X139920942Y-99298686D01*
X139749513Y-99298686D01*
X139734589Y-99300156D01*
X139732048Y-99301208D01*
X139729307Y-99301403D01*
X139715301Y-99306762D01*
X139601016Y-99363905D01*
X139594593Y-99367948D01*
X139592726Y-99368722D01*
X139590621Y-99370448D01*
X139588325Y-99371895D01*
X139587003Y-99373418D01*
X139581134Y-99378236D01*
X139523991Y-99435378D01*
X139519174Y-99441247D01*
X139517651Y-99442569D01*
X139516203Y-99444868D01*
X139514478Y-99446971D01*
X139513705Y-99448835D01*
X139509661Y-99455260D01*
X139452518Y-99569546D01*
X139447159Y-99583552D01*
X139446964Y-99586293D01*
X139445912Y-99588834D01*
X139444442Y-99603758D01*
X139140299Y-99603758D01*
X139138829Y-99588834D01*
X139137776Y-99586293D01*
X139137582Y-99583552D01*
X139132223Y-99569546D01*
X139075081Y-99455261D01*
X139071037Y-99448837D01*
X139070264Y-99446970D01*
X139068537Y-99444866D01*
X139067092Y-99442570D01*
X139065567Y-99441247D01*
X139060750Y-99435378D01*
X139003608Y-99378235D01*
X138997738Y-99373418D01*
X138996417Y-99371895D01*
X138994117Y-99370447D01*
X138992015Y-99368722D01*
X138990150Y-99367949D01*
X138983726Y-99363905D01*
X138869440Y-99306762D01*
X138855434Y-99301403D01*
X138852692Y-99301208D01*
X138850152Y-99300156D01*
X138835228Y-99298686D01*
X138663799Y-99298686D01*
X138648875Y-99300156D01*
X138646334Y-99301208D01*
X138643593Y-99301403D01*
X138629587Y-99306762D01*
X138515302Y-99363905D01*
X138508879Y-99367948D01*
X138507012Y-99368722D01*
X138504907Y-99370448D01*
X138502611Y-99371895D01*
X138501289Y-99373418D01*
X138495420Y-99378236D01*
X138438277Y-99435378D01*
X138433460Y-99441247D01*
X138431937Y-99442569D01*
X138430489Y-99444868D01*
X138428764Y-99446971D01*
X138427991Y-99448835D01*
X138423947Y-99455260D01*
X138366804Y-99569546D01*
X138361445Y-99583552D01*
X138361250Y-99586293D01*
X138360198Y-99588834D01*
X138358728Y-99603758D01*
X137971986Y-99603758D01*
X137917893Y-99549664D01*
X137906300Y-99540151D01*
X137903760Y-99539099D01*
X137901684Y-99537298D01*
X137887990Y-99531184D01*
X137876846Y-99527469D01*
X137917893Y-99486422D01*
X137922709Y-99480552D01*
X137924233Y-99479232D01*
X137925678Y-99476936D01*
X137927407Y-99474830D01*
X137928181Y-99472961D01*
X137932223Y-99466541D01*
X137989366Y-99352256D01*
X137994725Y-99338250D01*
X137994919Y-99335508D01*
X137995972Y-99332968D01*
X137997442Y-99318044D01*
X137997442Y-99203758D01*
X137995972Y-99188834D01*
X137994919Y-99186293D01*
X137994725Y-99183552D01*
X137989366Y-99169546D01*
X137932223Y-99055260D01*
X137928180Y-99048837D01*
X137927407Y-99046971D01*
X137925682Y-99044869D01*
X137924234Y-99042569D01*
X137922707Y-99041245D01*
X137917893Y-99035379D01*
X137860751Y-98978236D01*
X137854881Y-98973418D01*
X137853560Y-98971895D01*
X137851263Y-98970448D01*
X137849159Y-98968722D01*
X137847291Y-98967948D01*
X137840869Y-98963905D01*
X137726583Y-98906762D01*
X137712577Y-98901403D01*
X137709835Y-98901208D01*
X137707295Y-98900156D01*
X137692371Y-98898686D01*
X137292371Y-98898686D01*
X137277447Y-98900156D01*
X137249870Y-98911579D01*
X137228764Y-98932685D01*
X137217341Y-98960262D01*
X137215871Y-98975186D01*
X137082538Y-98975186D01*
X137082538Y-98765353D01*
X141157876Y-98765353D01*
X141157876Y-100385019D01*
G37*
X134489758Y-107817723D02*
X134442139Y-107912962D01*
X134442139Y-107912962D02*
X134442139Y-108103438D01*
X134442139Y-108103438D02*
X134489758Y-108198676D01*
X134489758Y-108198676D02*
X134584996Y-108293914D01*
X134584996Y-108293914D02*
X134680234Y-108341533D01*
X134680234Y-108341533D02*
X134870710Y-108341533D01*
X134870710Y-108341533D02*
X134965948Y-108293914D01*
X134965948Y-108293914D02*
X135061186Y-108198676D01*
X135061186Y-108198676D02*
X135108805Y-108103438D01*
X135108805Y-108103438D02*
X135108805Y-107912962D01*
X135108805Y-107912962D02*
X135061186Y-107817723D01*
X134108805Y-108008200D02*
X134156424Y-108246295D01*
X134156424Y-108246295D02*
X134299282Y-108484390D01*
X134299282Y-108484390D02*
X134537377Y-108627247D01*
X134537377Y-108627247D02*
X134775472Y-108674866D01*
X134775472Y-108674866D02*
X135013567Y-108627247D01*
X135013567Y-108627247D02*
X135251663Y-108484390D01*
X135251663Y-108484390D02*
X135394520Y-108246295D01*
X135394520Y-108246295D02*
X135442139Y-108008200D01*
X135442139Y-108008200D02*
X135394520Y-107770104D01*
X135394520Y-107770104D02*
X135251663Y-107532009D01*
X135251663Y-107532009D02*
X135013567Y-107389152D01*
X135013567Y-107389152D02*
X134775472Y-107341533D01*
X134775472Y-107341533D02*
X134537377Y-107389152D01*
X134537377Y-107389152D02*
X134299282Y-107532009D01*
X134299282Y-107532009D02*
X134156424Y-107770104D01*
X134156424Y-107770104D02*
X134108805Y-108008200D01*
X134965948Y-106198675D02*
X134965948Y-105722485D01*
X135251663Y-106293913D02*
X134251663Y-105960580D01*
X134251663Y-105960580D02*
X135251663Y-105627247D01*
X135251663Y-105293913D02*
X134251663Y-105293913D01*
X134251663Y-105293913D02*
X134965948Y-104960580D01*
X134965948Y-104960580D02*
X134251663Y-104627247D01*
X134251663Y-104627247D02*
X135251663Y-104627247D01*
X134727853Y-104151056D02*
X134727853Y-103817723D01*
X135251663Y-103674866D02*
X135251663Y-104151056D01*
X135251663Y-104151056D02*
X134251663Y-104151056D01*
X134251663Y-104151056D02*
X134251663Y-103674866D01*
X135251663Y-101960580D02*
X135251663Y-102532008D01*
X135251663Y-102246294D02*
X134251663Y-102246294D01*
X134251663Y-102246294D02*
X134394520Y-102341532D01*
X134394520Y-102341532D02*
X134489758Y-102436770D01*
X134489758Y-102436770D02*
X134537377Y-102532008D01*
X135251663Y-101008199D02*
X135251663Y-101579627D01*
X135251663Y-101293913D02*
X134251663Y-101293913D01*
X134251663Y-101293913D02*
X134394520Y-101389151D01*
X134394520Y-101389151D02*
X134489758Y-101484389D01*
X134489758Y-101484389D02*
X134537377Y-101579627D01*
X134204044Y-99865342D02*
X135489758Y-100722484D01*
X134346901Y-99579627D02*
X134299282Y-99532008D01*
X134299282Y-99532008D02*
X134251663Y-99436770D01*
X134251663Y-99436770D02*
X134251663Y-99198675D01*
X134251663Y-99198675D02*
X134299282Y-99103437D01*
X134299282Y-99103437D02*
X134346901Y-99055818D01*
X134346901Y-99055818D02*
X134442139Y-99008199D01*
X134442139Y-99008199D02*
X134537377Y-99008199D01*
X134537377Y-99008199D02*
X134680234Y-99055818D01*
X134680234Y-99055818D02*
X135251663Y-99627246D01*
X135251663Y-99627246D02*
X135251663Y-99008199D01*
X134251663Y-98389151D02*
X134251663Y-98293913D01*
X134251663Y-98293913D02*
X134299282Y-98198675D01*
X134299282Y-98198675D02*
X134346901Y-98151056D01*
X134346901Y-98151056D02*
X134442139Y-98103437D01*
X134442139Y-98103437D02*
X134632615Y-98055818D01*
X134632615Y-98055818D02*
X134870710Y-98055818D01*
X134870710Y-98055818D02*
X135061186Y-98103437D01*
X135061186Y-98103437D02*
X135156424Y-98151056D01*
X135156424Y-98151056D02*
X135204044Y-98198675D01*
X135204044Y-98198675D02*
X135251663Y-98293913D01*
X135251663Y-98293913D02*
X135251663Y-98389151D01*
X135251663Y-98389151D02*
X135204044Y-98484389D01*
X135204044Y-98484389D02*
X135156424Y-98532008D01*
X135156424Y-98532008D02*
X135061186Y-98579627D01*
X135061186Y-98579627D02*
X134870710Y-98627246D01*
X134870710Y-98627246D02*
X134632615Y-98627246D01*
X134632615Y-98627246D02*
X134442139Y-98579627D01*
X134442139Y-98579627D02*
X134346901Y-98532008D01*
X134346901Y-98532008D02*
X134299282Y-98484389D01*
X134299282Y-98484389D02*
X134251663Y-98389151D01*
X134346901Y-97674865D02*
X134299282Y-97627246D01*
X134299282Y-97627246D02*
X134251663Y-97532008D01*
X134251663Y-97532008D02*
X134251663Y-97293913D01*
X134251663Y-97293913D02*
X134299282Y-97198675D01*
X134299282Y-97198675D02*
X134346901Y-97151056D01*
X134346901Y-97151056D02*
X134442139Y-97103437D01*
X134442139Y-97103437D02*
X134537377Y-97103437D01*
X134537377Y-97103437D02*
X134680234Y-97151056D01*
X134680234Y-97151056D02*
X135251663Y-97722484D01*
X135251663Y-97722484D02*
X135251663Y-97103437D01*
X134251663Y-96198675D02*
X134251663Y-96674865D01*
X134251663Y-96674865D02*
X134727853Y-96722484D01*
X134727853Y-96722484D02*
X134680234Y-96674865D01*
X134680234Y-96674865D02*
X134632615Y-96579627D01*
X134632615Y-96579627D02*
X134632615Y-96341532D01*
X134632615Y-96341532D02*
X134680234Y-96246294D01*
X134680234Y-96246294D02*
X134727853Y-96198675D01*
X134727853Y-96198675D02*
X134823091Y-96151056D01*
X134823091Y-96151056D02*
X135061186Y-96151056D01*
X135061186Y-96151056D02*
X135156424Y-96198675D01*
X135156424Y-96198675D02*
X135204044Y-96246294D01*
X135204044Y-96246294D02*
X135251663Y-96341532D01*
X135251663Y-96341532D02*
X135251663Y-96579627D01*
X135251663Y-96579627D02*
X135204044Y-96674865D01*
X135204044Y-96674865D02*
X135156424Y-96722484D01*
G36*
X149560494Y-99489349D02*
G01*
X149598157Y-99564675D01*
X149598157Y-99598186D01*
X149179728Y-99681871D01*
X149179728Y-99564675D01*
X149217391Y-99489349D01*
X149292717Y-99451686D01*
X149485168Y-99451686D01*
X149560494Y-99489349D01*
G37*
G36*
X151560494Y-99489349D02*
G01*
X151598157Y-99564675D01*
X151598157Y-99598186D01*
X151179728Y-99681871D01*
X151179728Y-99564675D01*
X151217391Y-99489349D01*
X151292717Y-99451686D01*
X151485168Y-99451686D01*
X151560494Y-99489349D01*
G37*
G36*
X148486483Y-99095201D02*
G01*
X148526069Y-99134786D01*
X148569585Y-99221818D01*
X148569585Y-99357126D01*
X148526069Y-99444157D01*
X148486483Y-99483742D01*
X148399454Y-99527258D01*
X148036871Y-99527258D01*
X148036871Y-99051686D01*
X148399454Y-99051686D01*
X148486483Y-99095201D01*
G37*
G36*
X152683019Y-100385019D02*
G01*
X147750538Y-100385019D01*
X147750538Y-98975186D01*
X147883871Y-98975186D01*
X147883871Y-100175186D01*
X147885341Y-100190110D01*
X147896764Y-100217687D01*
X147917870Y-100238793D01*
X147945447Y-100250216D01*
X147975295Y-100250216D01*
X148002872Y-100238793D01*
X148023978Y-100217687D01*
X148035401Y-100190110D01*
X148036871Y-100175186D01*
X148036871Y-99680258D01*
X148206255Y-99680258D01*
X148583414Y-100219056D01*
X148593176Y-100230439D01*
X148618349Y-100246480D01*
X148647743Y-100251668D01*
X148676886Y-100245211D01*
X148701338Y-100228095D01*
X148717379Y-100202922D01*
X148722567Y-100173528D01*
X148716110Y-100144385D01*
X148708756Y-100131316D01*
X148393015Y-99680258D01*
X148417514Y-99680258D01*
X148432438Y-99678788D01*
X148434978Y-99677735D01*
X148437720Y-99677541D01*
X148451726Y-99672182D01*
X148566011Y-99615038D01*
X148572432Y-99610995D01*
X148574300Y-99610222D01*
X148576403Y-99608495D01*
X148578702Y-99607049D01*
X148580023Y-99605525D01*
X148585893Y-99600709D01*
X148639986Y-99546615D01*
X149026728Y-99546615D01*
X149026728Y-100003758D01*
X149028198Y-100018682D01*
X149029250Y-100021222D01*
X149029445Y-100023964D01*
X149034804Y-100037970D01*
X149091947Y-100152256D01*
X149093518Y-100154752D01*
X149093911Y-100155929D01*
X149095182Y-100157394D01*
X149099937Y-100164947D01*
X149107183Y-100171232D01*
X149113469Y-100178479D01*
X149121019Y-100183231D01*
X149122486Y-100184504D01*
X149123663Y-100184896D01*
X149126160Y-100186468D01*
X149240445Y-100243610D01*
X149254451Y-100248969D01*
X149257192Y-100249163D01*
X149259733Y-100250216D01*
X149274657Y-100251686D01*
X149503228Y-100251686D01*
X149518152Y-100250216D01*
X149520692Y-100249163D01*
X149523433Y-100248969D01*
X149537439Y-100243610D01*
X149651725Y-100186468D01*
X149664416Y-100178479D01*
X149683974Y-100155929D01*
X149693413Y-100127613D01*
X149691297Y-100097839D01*
X149677949Y-100071142D01*
X149655399Y-100051584D01*
X149627083Y-100042145D01*
X149597308Y-100044261D01*
X149583302Y-100049620D01*
X149485169Y-100098686D01*
X149292716Y-100098686D01*
X149217391Y-100061024D01*
X149179728Y-99985698D01*
X149179728Y-99837900D01*
X149689659Y-99735916D01*
X149704005Y-99731547D01*
X149710232Y-99727376D01*
X149717158Y-99724508D01*
X149722513Y-99719152D01*
X149728807Y-99714938D01*
X149732964Y-99708701D01*
X149738264Y-99703402D01*
X149741162Y-99696404D01*
X149745364Y-99690102D01*
X149746818Y-99682751D01*
X149749687Y-99675825D01*
X149751157Y-99660901D01*
X149751157Y-99546615D01*
X150055299Y-99546615D01*
X150055299Y-99603758D01*
X150056769Y-99618682D01*
X150057821Y-99621222D01*
X150058016Y-99623964D01*
X150063375Y-99637970D01*
X150120518Y-99752256D01*
X150122089Y-99754752D01*
X150122482Y-99755929D01*
X150123753Y-99757394D01*
X150128508Y-99764947D01*
X150135754Y-99771232D01*
X150142040Y-99778479D01*
X150149590Y-99783231D01*
X150151057Y-99784504D01*
X150152234Y-99784896D01*
X150154731Y-99786468D01*
X150269016Y-99843610D01*
X150283022Y-99848969D01*
X150285763Y-99849163D01*
X150288304Y-99850216D01*
X150303228Y-99851686D01*
X150456596Y-99851686D01*
X150531922Y-99889349D01*
X150569585Y-99964675D01*
X150569585Y-99985698D01*
X150531922Y-100061023D01*
X150456597Y-100098686D01*
X150264144Y-100098686D01*
X150166010Y-100049620D01*
X150152004Y-100044261D01*
X150122230Y-100042145D01*
X150093914Y-100051584D01*
X150071364Y-100071142D01*
X150058016Y-100097839D01*
X150055900Y-100127613D01*
X150065339Y-100155929D01*
X150084897Y-100178479D01*
X150097588Y-100186468D01*
X150211873Y-100243610D01*
X150225879Y-100248969D01*
X150228620Y-100249163D01*
X150231161Y-100250216D01*
X150246085Y-100251686D01*
X150474656Y-100251686D01*
X150489580Y-100250216D01*
X150492120Y-100249163D01*
X150494861Y-100248969D01*
X150508867Y-100243610D01*
X150623153Y-100186468D01*
X150625649Y-100184896D01*
X150626827Y-100184504D01*
X150628293Y-100183231D01*
X150635844Y-100178479D01*
X150642127Y-100171234D01*
X150649377Y-100164947D01*
X150654132Y-100157392D01*
X150655402Y-100155929D01*
X150655793Y-100154753D01*
X150657366Y-100152256D01*
X150714509Y-100037970D01*
X150719868Y-100023964D01*
X150720062Y-100021222D01*
X150721115Y-100018682D01*
X150722585Y-100003758D01*
X150722585Y-99946615D01*
X150721115Y-99931691D01*
X150720062Y-99929150D01*
X150719868Y-99926409D01*
X150714509Y-99912403D01*
X150657366Y-99798117D01*
X150655793Y-99795619D01*
X150655402Y-99794444D01*
X150654132Y-99792979D01*
X150649377Y-99785426D01*
X150642127Y-99779138D01*
X150635845Y-99771895D01*
X150628292Y-99767140D01*
X150626827Y-99765869D01*
X150625650Y-99765476D01*
X150623154Y-99763905D01*
X150508868Y-99706762D01*
X150494862Y-99701403D01*
X150492120Y-99701208D01*
X150489580Y-99700156D01*
X150474656Y-99698686D01*
X150321287Y-99698686D01*
X150245962Y-99661024D01*
X150208299Y-99585698D01*
X150208299Y-99564675D01*
X150217329Y-99546615D01*
X151026728Y-99546615D01*
X151026728Y-100003758D01*
X151028198Y-100018682D01*
X151029250Y-100021222D01*
X151029445Y-100023964D01*
X151034804Y-100037970D01*
X151091947Y-100152256D01*
X151093518Y-100154752D01*
X151093911Y-100155929D01*
X151095182Y-100157394D01*
X151099937Y-100164947D01*
X151107183Y-100171232D01*
X151113469Y-100178479D01*
X151121019Y-100183231D01*
X151122486Y-100184504D01*
X151123663Y-100184896D01*
X151126160Y-100186468D01*
X151240445Y-100243610D01*
X151254451Y-100248969D01*
X151257192Y-100249163D01*
X151259733Y-100250216D01*
X151274657Y-100251686D01*
X151503228Y-100251686D01*
X151518152Y-100250216D01*
X151520692Y-100249163D01*
X151523433Y-100248969D01*
X151537439Y-100243610D01*
X151651725Y-100186468D01*
X151664416Y-100178479D01*
X151683974Y-100155929D01*
X151693413Y-100127613D01*
X151691297Y-100097839D01*
X151677949Y-100071142D01*
X151655399Y-100051584D01*
X151627083Y-100042145D01*
X151597308Y-100044261D01*
X151583302Y-100049620D01*
X151485169Y-100098686D01*
X151292716Y-100098686D01*
X151217391Y-100061024D01*
X151179728Y-99985698D01*
X151179728Y-99837900D01*
X151689659Y-99735916D01*
X151704005Y-99731547D01*
X151710232Y-99727376D01*
X151717158Y-99724508D01*
X151722513Y-99719152D01*
X151728807Y-99714938D01*
X151732964Y-99708701D01*
X151738264Y-99703402D01*
X151741162Y-99696404D01*
X151745364Y-99690102D01*
X151746818Y-99682751D01*
X151749687Y-99675825D01*
X151751157Y-99660901D01*
X151751157Y-99546615D01*
X151749687Y-99531691D01*
X151748634Y-99529150D01*
X151748440Y-99526409D01*
X151743081Y-99512403D01*
X151685938Y-99398117D01*
X151684365Y-99395619D01*
X151683974Y-99394444D01*
X151682704Y-99392979D01*
X151677949Y-99385426D01*
X151670699Y-99379138D01*
X151664417Y-99371895D01*
X151656864Y-99367140D01*
X151655399Y-99365869D01*
X151654222Y-99365476D01*
X151651726Y-99363905D01*
X151644440Y-99360262D01*
X151942483Y-99360262D01*
X151942483Y-99390110D01*
X151953906Y-99417687D01*
X151975012Y-99438793D01*
X152002589Y-99450216D01*
X152017513Y-99451686D01*
X152112442Y-99451686D01*
X152112442Y-100003758D01*
X152113912Y-100018682D01*
X152114964Y-100021222D01*
X152115159Y-100023964D01*
X152120518Y-100037970D01*
X152177661Y-100152256D01*
X152179232Y-100154752D01*
X152179625Y-100155929D01*
X152180896Y-100157394D01*
X152185651Y-100164947D01*
X152192894Y-100171229D01*
X152199182Y-100178479D01*
X152206735Y-100183234D01*
X152208200Y-100184504D01*
X152209375Y-100184895D01*
X152211873Y-100186468D01*
X152326158Y-100243610D01*
X152340164Y-100248969D01*
X152342905Y-100249163D01*
X152345446Y-100250216D01*
X152360370Y-100251686D01*
X152474656Y-100251686D01*
X152489580Y-100250216D01*
X152517157Y-100238793D01*
X152538263Y-100217687D01*
X152549686Y-100190110D01*
X152549686Y-100160262D01*
X152538263Y-100132685D01*
X152517157Y-100111579D01*
X152489580Y-100100156D01*
X152474656Y-100098686D01*
X152378429Y-100098686D01*
X152303105Y-100061024D01*
X152265442Y-99985698D01*
X152265442Y-99451686D01*
X152474656Y-99451686D01*
X152489580Y-99450216D01*
X152517157Y-99438793D01*
X152538263Y-99417687D01*
X152549686Y-99390110D01*
X152549686Y-99360262D01*
X152538263Y-99332685D01*
X152517157Y-99311579D01*
X152489580Y-99300156D01*
X152474656Y-99298686D01*
X152265442Y-99298686D01*
X152265442Y-98975186D01*
X152263972Y-98960262D01*
X152252549Y-98932685D01*
X152231443Y-98911579D01*
X152203866Y-98900156D01*
X152174018Y-98900156D01*
X152146441Y-98911579D01*
X152125335Y-98932685D01*
X152113912Y-98960262D01*
X152112442Y-98975186D01*
X152112442Y-99298686D01*
X152017513Y-99298686D01*
X152002589Y-99300156D01*
X151975012Y-99311579D01*
X151953906Y-99332685D01*
X151942483Y-99360262D01*
X151644440Y-99360262D01*
X151537440Y-99306762D01*
X151523434Y-99301403D01*
X151520692Y-99301208D01*
X151518152Y-99300156D01*
X151503228Y-99298686D01*
X151274657Y-99298686D01*
X151259733Y-99300156D01*
X151257192Y-99301208D01*
X151254451Y-99301403D01*
X151240445Y-99306762D01*
X151126159Y-99363905D01*
X151123661Y-99365477D01*
X151122486Y-99365869D01*
X151121021Y-99367138D01*
X151113468Y-99371894D01*
X151107180Y-99379143D01*
X151099937Y-99385426D01*
X151095182Y-99392978D01*
X151093911Y-99394444D01*
X151093518Y-99395620D01*
X151091947Y-99398117D01*
X151034804Y-99512403D01*
X151029445Y-99526409D01*
X151029250Y-99529150D01*
X151028198Y-99531691D01*
X151026728Y-99546615D01*
X150217329Y-99546615D01*
X150245962Y-99489349D01*
X150321288Y-99451686D01*
X150456596Y-99451686D01*
X150554730Y-99500753D01*
X150568736Y-99506112D01*
X150598510Y-99508228D01*
X150626827Y-99498789D01*
X150649377Y-99479232D01*
X150662725Y-99452535D01*
X150664841Y-99422761D01*
X150655402Y-99394444D01*
X150635845Y-99371895D01*
X150623154Y-99363905D01*
X150508868Y-99306762D01*
X150494862Y-99301403D01*
X150492120Y-99301208D01*
X150489580Y-99300156D01*
X150474656Y-99298686D01*
X150303228Y-99298686D01*
X150288304Y-99300156D01*
X150285763Y-99301208D01*
X150283022Y-99301403D01*
X150269016Y-99306762D01*
X150154730Y-99363905D01*
X150152232Y-99365477D01*
X150151057Y-99365869D01*
X150149592Y-99367138D01*
X150142039Y-99371894D01*
X150135751Y-99379143D01*
X150128508Y-99385426D01*
X150123753Y-99392978D01*
X150122482Y-99394444D01*
X150122089Y-99395620D01*
X150120518Y-99398117D01*
X150063375Y-99512403D01*
X150058016Y-99526409D01*
X150057821Y-99529150D01*
X150056769Y-99531691D01*
X150055299Y-99546615D01*
X149751157Y-99546615D01*
X149749687Y-99531691D01*
X149748634Y-99529150D01*
X149748440Y-99526409D01*
X149743081Y-99512403D01*
X149685938Y-99398117D01*
X149684365Y-99395619D01*
X149683974Y-99394444D01*
X149682704Y-99392979D01*
X149677949Y-99385426D01*
X149670699Y-99379138D01*
X149664417Y-99371895D01*
X149656864Y-99367140D01*
X149655399Y-99365869D01*
X149654222Y-99365476D01*
X149651726Y-99363905D01*
X149537440Y-99306762D01*
X149523434Y-99301403D01*
X149520692Y-99301208D01*
X149518152Y-99300156D01*
X149503228Y-99298686D01*
X149274657Y-99298686D01*
X149259733Y-99300156D01*
X149257192Y-99301208D01*
X149254451Y-99301403D01*
X149240445Y-99306762D01*
X149126159Y-99363905D01*
X149123661Y-99365477D01*
X149122486Y-99365869D01*
X149121021Y-99367138D01*
X149113468Y-99371894D01*
X149107180Y-99379143D01*
X149099937Y-99385426D01*
X149095182Y-99392978D01*
X149093911Y-99394444D01*
X149093518Y-99395620D01*
X149091947Y-99398117D01*
X149034804Y-99512403D01*
X149029445Y-99526409D01*
X149029250Y-99529150D01*
X149028198Y-99531691D01*
X149026728Y-99546615D01*
X148639986Y-99546615D01*
X148643035Y-99543566D01*
X148647850Y-99537699D01*
X148649377Y-99536375D01*
X148650825Y-99534073D01*
X148652549Y-99531974D01*
X148653321Y-99530109D01*
X148657366Y-99523684D01*
X148714509Y-99409398D01*
X148719868Y-99395392D01*
X148720062Y-99392650D01*
X148721115Y-99390110D01*
X148722585Y-99375186D01*
X148722585Y-99203758D01*
X148721115Y-99188834D01*
X148720062Y-99186293D01*
X148719868Y-99183552D01*
X148714509Y-99169546D01*
X148657366Y-99055260D01*
X148653321Y-99048834D01*
X148652549Y-99046970D01*
X148650825Y-99044870D01*
X148649377Y-99042569D01*
X148647850Y-99041244D01*
X148643035Y-99035378D01*
X148585893Y-98978235D01*
X148580023Y-98973418D01*
X148578702Y-98971895D01*
X148576403Y-98970448D01*
X148574300Y-98968722D01*
X148572432Y-98967948D01*
X148566011Y-98963906D01*
X148451726Y-98906762D01*
X148437720Y-98901403D01*
X148434978Y-98901208D01*
X148432438Y-98900156D01*
X148417514Y-98898686D01*
X147960371Y-98898686D01*
X147945447Y-98900156D01*
X147917870Y-98911579D01*
X147896764Y-98932685D01*
X147885341Y-98960262D01*
X147883871Y-98975186D01*
X147750538Y-98975186D01*
X147750538Y-98765353D01*
X152683019Y-98765353D01*
X152683019Y-100385019D01*
G37*
G36*
X156433952Y-113087274D02*
G01*
X154535879Y-113087274D01*
X154535879Y-112383237D01*
X154646990Y-112383237D01*
X154648103Y-112386925D01*
X154648103Y-112390777D01*
X154652382Y-112401109D01*
X154655613Y-112411814D01*
X154658051Y-112414794D01*
X154659526Y-112418354D01*
X154667435Y-112426263D01*
X154674514Y-112434915D01*
X154677907Y-112436735D01*
X154680632Y-112439460D01*
X154690961Y-112443738D01*
X154700817Y-112449026D01*
X154704651Y-112449409D01*
X154708209Y-112450883D01*
X154719387Y-112450883D01*
X154730517Y-112451996D01*
X154734206Y-112450883D01*
X154738057Y-112450883D01*
X154748389Y-112446603D01*
X154759094Y-112443373D01*
X154762074Y-112440934D01*
X154765634Y-112439460D01*
X154777227Y-112429947D01*
X154816066Y-112391106D01*
X154884050Y-112357115D01*
X155086025Y-112357115D01*
X155154007Y-112391106D01*
X155184069Y-112421167D01*
X155218061Y-112489151D01*
X155218061Y-112691126D01*
X155184068Y-112759110D01*
X155154008Y-112789171D01*
X155086025Y-112823163D01*
X154884050Y-112823163D01*
X154816066Y-112789171D01*
X154777227Y-112750331D01*
X154765635Y-112740817D01*
X154738058Y-112729394D01*
X154708210Y-112729394D01*
X154680632Y-112740816D01*
X154659526Y-112761922D01*
X154648103Y-112789499D01*
X154648103Y-112819347D01*
X154659525Y-112846925D01*
X154669039Y-112858517D01*
X154716658Y-112906137D01*
X154722524Y-112910952D01*
X154723849Y-112912479D01*
X154726150Y-112913927D01*
X154728250Y-112915651D01*
X154730115Y-112916423D01*
X154736540Y-112920468D01*
X154831778Y-112968087D01*
X154845784Y-112973446D01*
X154848525Y-112973640D01*
X154851066Y-112974693D01*
X154865990Y-112976163D01*
X155104085Y-112976163D01*
X155119009Y-112974693D01*
X155121549Y-112973640D01*
X155124291Y-112973446D01*
X155138297Y-112968087D01*
X155233535Y-112920468D01*
X155239959Y-112916423D01*
X155241825Y-112915651D01*
X155243924Y-112913927D01*
X155246226Y-112912479D01*
X155247550Y-112910952D01*
X155253417Y-112906137D01*
X155301036Y-112858517D01*
X155305848Y-112852652D01*
X155307377Y-112851327D01*
X155308827Y-112849022D01*
X155310549Y-112846925D01*
X155311320Y-112845062D01*
X155315366Y-112838636D01*
X155362985Y-112743398D01*
X155368344Y-112729392D01*
X155368538Y-112726650D01*
X155369591Y-112724110D01*
X155371061Y-112709186D01*
X155371061Y-112471091D01*
X155369591Y-112456167D01*
X155368538Y-112453626D01*
X155368344Y-112450885D01*
X155362985Y-112436879D01*
X155315366Y-112341641D01*
X155311321Y-112335216D01*
X155310549Y-112333351D01*
X155308825Y-112331251D01*
X155307377Y-112328950D01*
X155305850Y-112327625D01*
X155301035Y-112321759D01*
X155253417Y-112274140D01*
X155247550Y-112269325D01*
X155246226Y-112267799D01*
X155243922Y-112266348D01*
X155241824Y-112264627D01*
X155239961Y-112263855D01*
X155233535Y-112259810D01*
X155138297Y-112212191D01*
X155124291Y-112206832D01*
X155121549Y-112206637D01*
X155119009Y-112205585D01*
X155104085Y-112204115D01*
X154865990Y-112204115D01*
X154851066Y-112205585D01*
X154848525Y-112206637D01*
X154845784Y-112206832D01*
X154831778Y-112212191D01*
X154815570Y-112220295D01*
X154839983Y-111976163D01*
X155246942Y-111976163D01*
X155261866Y-111974693D01*
X155289443Y-111963270D01*
X155310549Y-111942164D01*
X155321972Y-111914587D01*
X155321972Y-111909231D01*
X155504377Y-111909231D01*
X155507702Y-111923854D01*
X155841035Y-112923854D01*
X155847149Y-112937547D01*
X155850729Y-112941675D01*
X155853175Y-112946566D01*
X155860422Y-112952851D01*
X155866706Y-112960097D01*
X155871593Y-112962540D01*
X155875724Y-112966123D01*
X155884828Y-112969157D01*
X155893403Y-112973445D01*
X155898852Y-112973832D01*
X155904041Y-112975562D01*
X155913611Y-112974881D01*
X155923177Y-112975562D01*
X155928362Y-112973833D01*
X155933815Y-112973446D01*
X155942394Y-112969156D01*
X155951494Y-112966123D01*
X155955623Y-112962541D01*
X155960512Y-112960097D01*
X155966799Y-112952848D01*
X155974043Y-112946565D01*
X155976486Y-112941679D01*
X155980069Y-112937548D01*
X155986183Y-112923854D01*
X156319516Y-111923855D01*
X156322841Y-111909232D01*
X156320725Y-111879458D01*
X156307376Y-111852761D01*
X156284827Y-111833203D01*
X156256510Y-111823764D01*
X156226736Y-111825881D01*
X156200039Y-111839229D01*
X156180482Y-111861779D01*
X156174368Y-111875472D01*
X155913609Y-112657749D01*
X155652850Y-111875472D01*
X155646736Y-111861778D01*
X155627179Y-111839229D01*
X155600482Y-111825880D01*
X155570708Y-111823764D01*
X155542391Y-111833203D01*
X155519842Y-111852760D01*
X155506493Y-111879457D01*
X155504377Y-111909231D01*
X155321972Y-111909231D01*
X155321972Y-111884739D01*
X155310549Y-111857162D01*
X155289443Y-111836056D01*
X155261866Y-111824633D01*
X155246942Y-111823163D01*
X154770752Y-111823163D01*
X154765233Y-111823706D01*
X154763368Y-111823520D01*
X154761545Y-111824069D01*
X154755828Y-111824633D01*
X154745495Y-111828912D01*
X154734791Y-111832143D01*
X154731810Y-111834581D01*
X154728251Y-111836056D01*
X154720341Y-111843965D01*
X154711690Y-111851044D01*
X154709869Y-111854437D01*
X154707145Y-111857162D01*
X154702866Y-111867491D01*
X154697579Y-111877347D01*
X154696449Y-111882982D01*
X154695722Y-111884739D01*
X154695722Y-111886612D01*
X154694632Y-111892051D01*
X154647013Y-112368241D01*
X154646990Y-112383237D01*
X154535879Y-112383237D01*
X154535879Y-111712052D01*
X156433952Y-111712052D01*
X156433952Y-113087274D01*
G37*
D11*
X166062819Y-120499094D02*
X165062819Y-120499094D01*
X165062819Y-120499094D02*
X165062819Y-120260999D01*
X165062819Y-120260999D02*
X165110438Y-120118142D01*
X165110438Y-120118142D02*
X165205676Y-120022904D01*
X165205676Y-120022904D02*
X165300914Y-119975285D01*
X165300914Y-119975285D02*
X165491390Y-119927666D01*
X165491390Y-119927666D02*
X165634247Y-119927666D01*
X165634247Y-119927666D02*
X165824723Y-119975285D01*
X165824723Y-119975285D02*
X165919961Y-120022904D01*
X165919961Y-120022904D02*
X166015200Y-120118142D01*
X166015200Y-120118142D02*
X166062819Y-120260999D01*
X166062819Y-120260999D02*
X166062819Y-120499094D01*
X165062819Y-119070523D02*
X165062819Y-119260999D01*
X165062819Y-119260999D02*
X165110438Y-119356237D01*
X165110438Y-119356237D02*
X165158057Y-119403856D01*
X165158057Y-119403856D02*
X165300914Y-119499094D01*
X165300914Y-119499094D02*
X165491390Y-119546713D01*
X165491390Y-119546713D02*
X165872342Y-119546713D01*
X165872342Y-119546713D02*
X165967580Y-119499094D01*
X165967580Y-119499094D02*
X166015200Y-119451475D01*
X166015200Y-119451475D02*
X166062819Y-119356237D01*
X166062819Y-119356237D02*
X166062819Y-119165761D01*
X166062819Y-119165761D02*
X166015200Y-119070523D01*
X166015200Y-119070523D02*
X165967580Y-119022904D01*
X165967580Y-119022904D02*
X165872342Y-118975285D01*
X165872342Y-118975285D02*
X165634247Y-118975285D01*
X165634247Y-118975285D02*
X165539009Y-119022904D01*
X165539009Y-119022904D02*
X165491390Y-119070523D01*
X165491390Y-119070523D02*
X165443771Y-119165761D01*
X165443771Y-119165761D02*
X165443771Y-119356237D01*
X165443771Y-119356237D02*
X165491390Y-119451475D01*
X165491390Y-119451475D02*
X165539009Y-119499094D01*
X165539009Y-119499094D02*
X165634247Y-119546713D01*
X139486819Y-117260666D02*
X139010628Y-117593999D01*
X139486819Y-117832094D02*
X138486819Y-117832094D01*
X138486819Y-117832094D02*
X138486819Y-117451142D01*
X138486819Y-117451142D02*
X138534438Y-117355904D01*
X138534438Y-117355904D02*
X138582057Y-117308285D01*
X138582057Y-117308285D02*
X138677295Y-117260666D01*
X138677295Y-117260666D02*
X138820152Y-117260666D01*
X138820152Y-117260666D02*
X138915390Y-117308285D01*
X138915390Y-117308285D02*
X138963009Y-117355904D01*
X138963009Y-117355904D02*
X139010628Y-117451142D01*
X139010628Y-117451142D02*
X139010628Y-117832094D01*
X138486819Y-116927332D02*
X138486819Y-116308285D01*
X138486819Y-116308285D02*
X138867771Y-116641618D01*
X138867771Y-116641618D02*
X138867771Y-116498761D01*
X138867771Y-116498761D02*
X138915390Y-116403523D01*
X138915390Y-116403523D02*
X138963009Y-116355904D01*
X138963009Y-116355904D02*
X139058247Y-116308285D01*
X139058247Y-116308285D02*
X139296342Y-116308285D01*
X139296342Y-116308285D02*
X139391580Y-116355904D01*
X139391580Y-116355904D02*
X139439200Y-116403523D01*
X139439200Y-116403523D02*
X139486819Y-116498761D01*
X139486819Y-116498761D02*
X139486819Y-116784475D01*
X139486819Y-116784475D02*
X139439200Y-116879713D01*
X139439200Y-116879713D02*
X139391580Y-116927332D01*
X140948580Y-109386666D02*
X140996200Y-109434285D01*
X140996200Y-109434285D02*
X141043819Y-109577142D01*
X141043819Y-109577142D02*
X141043819Y-109672380D01*
X141043819Y-109672380D02*
X140996200Y-109815237D01*
X140996200Y-109815237D02*
X140900961Y-109910475D01*
X140900961Y-109910475D02*
X140805723Y-109958094D01*
X140805723Y-109958094D02*
X140615247Y-110005713D01*
X140615247Y-110005713D02*
X140472390Y-110005713D01*
X140472390Y-110005713D02*
X140281914Y-109958094D01*
X140281914Y-109958094D02*
X140186676Y-109910475D01*
X140186676Y-109910475D02*
X140091438Y-109815237D01*
X140091438Y-109815237D02*
X140043819Y-109672380D01*
X140043819Y-109672380D02*
X140043819Y-109577142D01*
X140043819Y-109577142D02*
X140091438Y-109434285D01*
X140091438Y-109434285D02*
X140139057Y-109386666D01*
X140043819Y-109053332D02*
X140043819Y-108386666D01*
X140043819Y-108386666D02*
X141043819Y-108815237D01*
X156504819Y-121070666D02*
X156028628Y-121403999D01*
X156504819Y-121642094D02*
X155504819Y-121642094D01*
X155504819Y-121642094D02*
X155504819Y-121261142D01*
X155504819Y-121261142D02*
X155552438Y-121165904D01*
X155552438Y-121165904D02*
X155600057Y-121118285D01*
X155600057Y-121118285D02*
X155695295Y-121070666D01*
X155695295Y-121070666D02*
X155838152Y-121070666D01*
X155838152Y-121070666D02*
X155933390Y-121118285D01*
X155933390Y-121118285D02*
X155981009Y-121165904D01*
X155981009Y-121165904D02*
X156028628Y-121261142D01*
X156028628Y-121261142D02*
X156028628Y-121642094D01*
X156504819Y-120594475D02*
X156504819Y-120403999D01*
X156504819Y-120403999D02*
X156457200Y-120308761D01*
X156457200Y-120308761D02*
X156409580Y-120261142D01*
X156409580Y-120261142D02*
X156266723Y-120165904D01*
X156266723Y-120165904D02*
X156076247Y-120118285D01*
X156076247Y-120118285D02*
X155695295Y-120118285D01*
X155695295Y-120118285D02*
X155600057Y-120165904D01*
X155600057Y-120165904D02*
X155552438Y-120213523D01*
X155552438Y-120213523D02*
X155504819Y-120308761D01*
X155504819Y-120308761D02*
X155504819Y-120499237D01*
X155504819Y-120499237D02*
X155552438Y-120594475D01*
X155552438Y-120594475D02*
X155600057Y-120642094D01*
X155600057Y-120642094D02*
X155695295Y-120689713D01*
X155695295Y-120689713D02*
X155933390Y-120689713D01*
X155933390Y-120689713D02*
X156028628Y-120642094D01*
X156028628Y-120642094D02*
X156076247Y-120594475D01*
X156076247Y-120594475D02*
X156123866Y-120499237D01*
X156123866Y-120499237D02*
X156123866Y-120308761D01*
X156123866Y-120308761D02*
X156076247Y-120213523D01*
X156076247Y-120213523D02*
X156028628Y-120165904D01*
X156028628Y-120165904D02*
X155933390Y-120118285D01*
X180192819Y-123197857D02*
X179716628Y-123531190D01*
X180192819Y-123769285D02*
X179192819Y-123769285D01*
X179192819Y-123769285D02*
X179192819Y-123388333D01*
X179192819Y-123388333D02*
X179240438Y-123293095D01*
X179240438Y-123293095D02*
X179288057Y-123245476D01*
X179288057Y-123245476D02*
X179383295Y-123197857D01*
X179383295Y-123197857D02*
X179526152Y-123197857D01*
X179526152Y-123197857D02*
X179621390Y-123245476D01*
X179621390Y-123245476D02*
X179669009Y-123293095D01*
X179669009Y-123293095D02*
X179716628Y-123388333D01*
X179716628Y-123388333D02*
X179716628Y-123769285D01*
X180192819Y-122245476D02*
X180192819Y-122816904D01*
X180192819Y-122531190D02*
X179192819Y-122531190D01*
X179192819Y-122531190D02*
X179335676Y-122626428D01*
X179335676Y-122626428D02*
X179430914Y-122721666D01*
X179430914Y-122721666D02*
X179478533Y-122816904D01*
X180192819Y-121293095D02*
X180192819Y-121864523D01*
X180192819Y-121578809D02*
X179192819Y-121578809D01*
X179192819Y-121578809D02*
X179335676Y-121674047D01*
X179335676Y-121674047D02*
X179430914Y-121769285D01*
X179430914Y-121769285D02*
X179478533Y-121864523D01*
X169164095Y-118199819D02*
X169164095Y-119009342D01*
X169164095Y-119009342D02*
X169211714Y-119104580D01*
X169211714Y-119104580D02*
X169259333Y-119152200D01*
X169259333Y-119152200D02*
X169354571Y-119199819D01*
X169354571Y-119199819D02*
X169545047Y-119199819D01*
X169545047Y-119199819D02*
X169640285Y-119152200D01*
X169640285Y-119152200D02*
X169687904Y-119104580D01*
X169687904Y-119104580D02*
X169735523Y-119009342D01*
X169735523Y-119009342D02*
X169735523Y-118199819D01*
X170640285Y-118533152D02*
X170640285Y-119199819D01*
X170402190Y-118152200D02*
X170164095Y-118866485D01*
X170164095Y-118866485D02*
X170783142Y-118866485D01*
X135556666Y-119565009D02*
X135223333Y-119565009D01*
X135223333Y-120088819D02*
X135223333Y-119088819D01*
X135223333Y-119088819D02*
X135699523Y-119088819D01*
X136604285Y-120088819D02*
X136032857Y-120088819D01*
X136318571Y-120088819D02*
X136318571Y-119088819D01*
X136318571Y-119088819D02*
X136223333Y-119231676D01*
X136223333Y-119231676D02*
X136128095Y-119326914D01*
X136128095Y-119326914D02*
X136032857Y-119374533D01*
X178667580Y-101988857D02*
X178715200Y-102036476D01*
X178715200Y-102036476D02*
X178762819Y-102179333D01*
X178762819Y-102179333D02*
X178762819Y-102274571D01*
X178762819Y-102274571D02*
X178715200Y-102417428D01*
X178715200Y-102417428D02*
X178619961Y-102512666D01*
X178619961Y-102512666D02*
X178524723Y-102560285D01*
X178524723Y-102560285D02*
X178334247Y-102607904D01*
X178334247Y-102607904D02*
X178191390Y-102607904D01*
X178191390Y-102607904D02*
X178000914Y-102560285D01*
X178000914Y-102560285D02*
X177905676Y-102512666D01*
X177905676Y-102512666D02*
X177810438Y-102417428D01*
X177810438Y-102417428D02*
X177762819Y-102274571D01*
X177762819Y-102274571D02*
X177762819Y-102179333D01*
X177762819Y-102179333D02*
X177810438Y-102036476D01*
X177810438Y-102036476D02*
X177858057Y-101988857D01*
X178762819Y-101036476D02*
X178762819Y-101607904D01*
X178762819Y-101322190D02*
X177762819Y-101322190D01*
X177762819Y-101322190D02*
X177905676Y-101417428D01*
X177905676Y-101417428D02*
X178000914Y-101512666D01*
X178000914Y-101512666D02*
X178048533Y-101607904D01*
X178096152Y-100179333D02*
X178762819Y-100179333D01*
X177715200Y-100417428D02*
X178429485Y-100655523D01*
X178429485Y-100655523D02*
X178429485Y-100036476D01*
X156156819Y-98940857D02*
X155680628Y-99274190D01*
X156156819Y-99512285D02*
X155156819Y-99512285D01*
X155156819Y-99512285D02*
X155156819Y-99131333D01*
X155156819Y-99131333D02*
X155204438Y-99036095D01*
X155204438Y-99036095D02*
X155252057Y-98988476D01*
X155252057Y-98988476D02*
X155347295Y-98940857D01*
X155347295Y-98940857D02*
X155490152Y-98940857D01*
X155490152Y-98940857D02*
X155585390Y-98988476D01*
X155585390Y-98988476D02*
X155633009Y-99036095D01*
X155633009Y-99036095D02*
X155680628Y-99131333D01*
X155680628Y-99131333D02*
X155680628Y-99512285D01*
X156156819Y-97988476D02*
X156156819Y-98559904D01*
X156156819Y-98274190D02*
X155156819Y-98274190D01*
X155156819Y-98274190D02*
X155299676Y-98369428D01*
X155299676Y-98369428D02*
X155394914Y-98464666D01*
X155394914Y-98464666D02*
X155442533Y-98559904D01*
X155156819Y-97083714D02*
X155156819Y-97559904D01*
X155156819Y-97559904D02*
X155633009Y-97607523D01*
X155633009Y-97607523D02*
X155585390Y-97559904D01*
X155585390Y-97559904D02*
X155537771Y-97464666D01*
X155537771Y-97464666D02*
X155537771Y-97226571D01*
X155537771Y-97226571D02*
X155585390Y-97131333D01*
X155585390Y-97131333D02*
X155633009Y-97083714D01*
X155633009Y-97083714D02*
X155728247Y-97036095D01*
X155728247Y-97036095D02*
X155966342Y-97036095D01*
X155966342Y-97036095D02*
X156061580Y-97083714D01*
X156061580Y-97083714D02*
X156109200Y-97131333D01*
X156109200Y-97131333D02*
X156156819Y-97226571D01*
X156156819Y-97226571D02*
X156156819Y-97464666D01*
X156156819Y-97464666D02*
X156109200Y-97559904D01*
X156109200Y-97559904D02*
X156061580Y-97607523D01*
X164869905Y-116786819D02*
X164869905Y-115786819D01*
X164869905Y-115786819D02*
X165108000Y-115786819D01*
X165108000Y-115786819D02*
X165250857Y-115834438D01*
X165250857Y-115834438D02*
X165346095Y-115929676D01*
X165346095Y-115929676D02*
X165393714Y-116024914D01*
X165393714Y-116024914D02*
X165441333Y-116215390D01*
X165441333Y-116215390D02*
X165441333Y-116358247D01*
X165441333Y-116358247D02*
X165393714Y-116548723D01*
X165393714Y-116548723D02*
X165346095Y-116643961D01*
X165346095Y-116643961D02*
X165250857Y-116739200D01*
X165250857Y-116739200D02*
X165108000Y-116786819D01*
X165108000Y-116786819D02*
X164869905Y-116786819D01*
X165822286Y-115882057D02*
X165869905Y-115834438D01*
X165869905Y-115834438D02*
X165965143Y-115786819D01*
X165965143Y-115786819D02*
X166203238Y-115786819D01*
X166203238Y-115786819D02*
X166298476Y-115834438D01*
X166298476Y-115834438D02*
X166346095Y-115882057D01*
X166346095Y-115882057D02*
X166393714Y-115977295D01*
X166393714Y-115977295D02*
X166393714Y-116072533D01*
X166393714Y-116072533D02*
X166346095Y-116215390D01*
X166346095Y-116215390D02*
X165774667Y-116786819D01*
X165774667Y-116786819D02*
X166393714Y-116786819D01*
X164584142Y-125295819D02*
X164250809Y-124819628D01*
X164012714Y-125295819D02*
X164012714Y-124295819D01*
X164012714Y-124295819D02*
X164393666Y-124295819D01*
X164393666Y-124295819D02*
X164488904Y-124343438D01*
X164488904Y-124343438D02*
X164536523Y-124391057D01*
X164536523Y-124391057D02*
X164584142Y-124486295D01*
X164584142Y-124486295D02*
X164584142Y-124629152D01*
X164584142Y-124629152D02*
X164536523Y-124724390D01*
X164536523Y-124724390D02*
X164488904Y-124772009D01*
X164488904Y-124772009D02*
X164393666Y-124819628D01*
X164393666Y-124819628D02*
X164012714Y-124819628D01*
X165536523Y-125295819D02*
X164965095Y-125295819D01*
X165250809Y-125295819D02*
X165250809Y-124295819D01*
X165250809Y-124295819D02*
X165155571Y-124438676D01*
X165155571Y-124438676D02*
X165060333Y-124533914D01*
X165060333Y-124533914D02*
X164965095Y-124581533D01*
X166155571Y-124295819D02*
X166250809Y-124295819D01*
X166250809Y-124295819D02*
X166346047Y-124343438D01*
X166346047Y-124343438D02*
X166393666Y-124391057D01*
X166393666Y-124391057D02*
X166441285Y-124486295D01*
X166441285Y-124486295D02*
X166488904Y-124676771D01*
X166488904Y-124676771D02*
X166488904Y-124914866D01*
X166488904Y-124914866D02*
X166441285Y-125105342D01*
X166441285Y-125105342D02*
X166393666Y-125200580D01*
X166393666Y-125200580D02*
X166346047Y-125248200D01*
X166346047Y-125248200D02*
X166250809Y-125295819D01*
X166250809Y-125295819D02*
X166155571Y-125295819D01*
X166155571Y-125295819D02*
X166060333Y-125248200D01*
X166060333Y-125248200D02*
X166012714Y-125200580D01*
X166012714Y-125200580D02*
X165965095Y-125105342D01*
X165965095Y-125105342D02*
X165917476Y-124914866D01*
X165917476Y-124914866D02*
X165917476Y-124676771D01*
X165917476Y-124676771D02*
X165965095Y-124486295D01*
X165965095Y-124486295D02*
X166012714Y-124391057D01*
X166012714Y-124391057D02*
X166060333Y-124343438D01*
X166060333Y-124343438D02*
X166155571Y-124295819D01*
X149457580Y-124880666D02*
X149505200Y-124928285D01*
X149505200Y-124928285D02*
X149552819Y-125071142D01*
X149552819Y-125071142D02*
X149552819Y-125166380D01*
X149552819Y-125166380D02*
X149505200Y-125309237D01*
X149505200Y-125309237D02*
X149409961Y-125404475D01*
X149409961Y-125404475D02*
X149314723Y-125452094D01*
X149314723Y-125452094D02*
X149124247Y-125499713D01*
X149124247Y-125499713D02*
X148981390Y-125499713D01*
X148981390Y-125499713D02*
X148790914Y-125452094D01*
X148790914Y-125452094D02*
X148695676Y-125404475D01*
X148695676Y-125404475D02*
X148600438Y-125309237D01*
X148600438Y-125309237D02*
X148552819Y-125166380D01*
X148552819Y-125166380D02*
X148552819Y-125071142D01*
X148552819Y-125071142D02*
X148600438Y-124928285D01*
X148600438Y-124928285D02*
X148648057Y-124880666D01*
X148648057Y-124499713D02*
X148600438Y-124452094D01*
X148600438Y-124452094D02*
X148552819Y-124356856D01*
X148552819Y-124356856D02*
X148552819Y-124118761D01*
X148552819Y-124118761D02*
X148600438Y-124023523D01*
X148600438Y-124023523D02*
X148648057Y-123975904D01*
X148648057Y-123975904D02*
X148743295Y-123928285D01*
X148743295Y-123928285D02*
X148838533Y-123928285D01*
X148838533Y-123928285D02*
X148981390Y-123975904D01*
X148981390Y-123975904D02*
X149552819Y-124547332D01*
X149552819Y-124547332D02*
X149552819Y-123928285D01*
X160615333Y-116024819D02*
X160282000Y-115548628D01*
X160043905Y-116024819D02*
X160043905Y-115024819D01*
X160043905Y-115024819D02*
X160424857Y-115024819D01*
X160424857Y-115024819D02*
X160520095Y-115072438D01*
X160520095Y-115072438D02*
X160567714Y-115120057D01*
X160567714Y-115120057D02*
X160615333Y-115215295D01*
X160615333Y-115215295D02*
X160615333Y-115358152D01*
X160615333Y-115358152D02*
X160567714Y-115453390D01*
X160567714Y-115453390D02*
X160520095Y-115501009D01*
X160520095Y-115501009D02*
X160424857Y-115548628D01*
X160424857Y-115548628D02*
X160043905Y-115548628D01*
X160948667Y-115024819D02*
X161615333Y-115024819D01*
X161615333Y-115024819D02*
X161186762Y-116024819D01*
X159109580Y-99448857D02*
X159157200Y-99496476D01*
X159157200Y-99496476D02*
X159204819Y-99639333D01*
X159204819Y-99639333D02*
X159204819Y-99734571D01*
X159204819Y-99734571D02*
X159157200Y-99877428D01*
X159157200Y-99877428D02*
X159061961Y-99972666D01*
X159061961Y-99972666D02*
X158966723Y-100020285D01*
X158966723Y-100020285D02*
X158776247Y-100067904D01*
X158776247Y-100067904D02*
X158633390Y-100067904D01*
X158633390Y-100067904D02*
X158442914Y-100020285D01*
X158442914Y-100020285D02*
X158347676Y-99972666D01*
X158347676Y-99972666D02*
X158252438Y-99877428D01*
X158252438Y-99877428D02*
X158204819Y-99734571D01*
X158204819Y-99734571D02*
X158204819Y-99639333D01*
X158204819Y-99639333D02*
X158252438Y-99496476D01*
X158252438Y-99496476D02*
X158300057Y-99448857D01*
X159204819Y-98496476D02*
X159204819Y-99067904D01*
X159204819Y-98782190D02*
X158204819Y-98782190D01*
X158204819Y-98782190D02*
X158347676Y-98877428D01*
X158347676Y-98877428D02*
X158442914Y-98972666D01*
X158442914Y-98972666D02*
X158490533Y-99067904D01*
X159204819Y-97544095D02*
X159204819Y-98115523D01*
X159204819Y-97829809D02*
X158204819Y-97829809D01*
X158204819Y-97829809D02*
X158347676Y-97925047D01*
X158347676Y-97925047D02*
X158442914Y-98020285D01*
X158442914Y-98020285D02*
X158490533Y-98115523D01*
X139646819Y-111164666D02*
X139170628Y-111497999D01*
X139646819Y-111736094D02*
X138646819Y-111736094D01*
X138646819Y-111736094D02*
X138646819Y-111355142D01*
X138646819Y-111355142D02*
X138694438Y-111259904D01*
X138694438Y-111259904D02*
X138742057Y-111212285D01*
X138742057Y-111212285D02*
X138837295Y-111164666D01*
X138837295Y-111164666D02*
X138980152Y-111164666D01*
X138980152Y-111164666D02*
X139075390Y-111212285D01*
X139075390Y-111212285D02*
X139123009Y-111259904D01*
X139123009Y-111259904D02*
X139170628Y-111355142D01*
X139170628Y-111355142D02*
X139170628Y-111736094D01*
X138980152Y-110307523D02*
X139646819Y-110307523D01*
X138599200Y-110545618D02*
X139313485Y-110783713D01*
X139313485Y-110783713D02*
X139313485Y-110164666D01*
X159490580Y-117769373D02*
X159538200Y-117816992D01*
X159538200Y-117816992D02*
X159585819Y-117959849D01*
X159585819Y-117959849D02*
X159585819Y-118055087D01*
X159585819Y-118055087D02*
X159538200Y-118197944D01*
X159538200Y-118197944D02*
X159442961Y-118293182D01*
X159442961Y-118293182D02*
X159347723Y-118340801D01*
X159347723Y-118340801D02*
X159157247Y-118388420D01*
X159157247Y-118388420D02*
X159014390Y-118388420D01*
X159014390Y-118388420D02*
X158823914Y-118340801D01*
X158823914Y-118340801D02*
X158728676Y-118293182D01*
X158728676Y-118293182D02*
X158633438Y-118197944D01*
X158633438Y-118197944D02*
X158585819Y-118055087D01*
X158585819Y-118055087D02*
X158585819Y-117959849D01*
X158585819Y-117959849D02*
X158633438Y-117816992D01*
X158633438Y-117816992D02*
X158681057Y-117769373D01*
X159014390Y-117197944D02*
X158966771Y-117293182D01*
X158966771Y-117293182D02*
X158919152Y-117340801D01*
X158919152Y-117340801D02*
X158823914Y-117388420D01*
X158823914Y-117388420D02*
X158776295Y-117388420D01*
X158776295Y-117388420D02*
X158681057Y-117340801D01*
X158681057Y-117340801D02*
X158633438Y-117293182D01*
X158633438Y-117293182D02*
X158585819Y-117197944D01*
X158585819Y-117197944D02*
X158585819Y-117007468D01*
X158585819Y-117007468D02*
X158633438Y-116912230D01*
X158633438Y-116912230D02*
X158681057Y-116864611D01*
X158681057Y-116864611D02*
X158776295Y-116816992D01*
X158776295Y-116816992D02*
X158823914Y-116816992D01*
X158823914Y-116816992D02*
X158919152Y-116864611D01*
X158919152Y-116864611D02*
X158966771Y-116912230D01*
X158966771Y-116912230D02*
X159014390Y-117007468D01*
X159014390Y-117007468D02*
X159014390Y-117197944D01*
X159014390Y-117197944D02*
X159062009Y-117293182D01*
X159062009Y-117293182D02*
X159109628Y-117340801D01*
X159109628Y-117340801D02*
X159204866Y-117388420D01*
X159204866Y-117388420D02*
X159395342Y-117388420D01*
X159395342Y-117388420D02*
X159490580Y-117340801D01*
X159490580Y-117340801D02*
X159538200Y-117293182D01*
X159538200Y-117293182D02*
X159585819Y-117197944D01*
X159585819Y-117197944D02*
X159585819Y-117007468D01*
X159585819Y-117007468D02*
X159538200Y-116912230D01*
X159538200Y-116912230D02*
X159490580Y-116864611D01*
X159490580Y-116864611D02*
X159395342Y-116816992D01*
X159395342Y-116816992D02*
X159204866Y-116816992D01*
X159204866Y-116816992D02*
X159109628Y-116864611D01*
X159109628Y-116864611D02*
X159062009Y-116912230D01*
X159062009Y-116912230D02*
X159014390Y-117007468D01*
X151584819Y-121007094D02*
X150584819Y-121007094D01*
X150584819Y-121007094D02*
X150584819Y-120768999D01*
X150584819Y-120768999D02*
X150632438Y-120626142D01*
X150632438Y-120626142D02*
X150727676Y-120530904D01*
X150727676Y-120530904D02*
X150822914Y-120483285D01*
X150822914Y-120483285D02*
X151013390Y-120435666D01*
X151013390Y-120435666D02*
X151156247Y-120435666D01*
X151156247Y-120435666D02*
X151346723Y-120483285D01*
X151346723Y-120483285D02*
X151441961Y-120530904D01*
X151441961Y-120530904D02*
X151537200Y-120626142D01*
X151537200Y-120626142D02*
X151584819Y-120768999D01*
X151584819Y-120768999D02*
X151584819Y-121007094D01*
X151584819Y-119483285D02*
X151584819Y-120054713D01*
X151584819Y-119768999D02*
X150584819Y-119768999D01*
X150584819Y-119768999D02*
X150727676Y-119864237D01*
X150727676Y-119864237D02*
X150822914Y-119959475D01*
X150822914Y-119959475D02*
X150870533Y-120054713D01*
X154632819Y-98940857D02*
X154156628Y-99274190D01*
X154632819Y-99512285D02*
X153632819Y-99512285D01*
X153632819Y-99512285D02*
X153632819Y-99131333D01*
X153632819Y-99131333D02*
X153680438Y-99036095D01*
X153680438Y-99036095D02*
X153728057Y-98988476D01*
X153728057Y-98988476D02*
X153823295Y-98940857D01*
X153823295Y-98940857D02*
X153966152Y-98940857D01*
X153966152Y-98940857D02*
X154061390Y-98988476D01*
X154061390Y-98988476D02*
X154109009Y-99036095D01*
X154109009Y-99036095D02*
X154156628Y-99131333D01*
X154156628Y-99131333D02*
X154156628Y-99512285D01*
X154632819Y-97988476D02*
X154632819Y-98559904D01*
X154632819Y-98274190D02*
X153632819Y-98274190D01*
X153632819Y-98274190D02*
X153775676Y-98369428D01*
X153775676Y-98369428D02*
X153870914Y-98464666D01*
X153870914Y-98464666D02*
X153918533Y-98559904D01*
X153632819Y-97131333D02*
X153632819Y-97321809D01*
X153632819Y-97321809D02*
X153680438Y-97417047D01*
X153680438Y-97417047D02*
X153728057Y-97464666D01*
X153728057Y-97464666D02*
X153870914Y-97559904D01*
X153870914Y-97559904D02*
X154061390Y-97607523D01*
X154061390Y-97607523D02*
X154442342Y-97607523D01*
X154442342Y-97607523D02*
X154537580Y-97559904D01*
X154537580Y-97559904D02*
X154585200Y-97512285D01*
X154585200Y-97512285D02*
X154632819Y-97417047D01*
X154632819Y-97417047D02*
X154632819Y-97226571D01*
X154632819Y-97226571D02*
X154585200Y-97131333D01*
X154585200Y-97131333D02*
X154537580Y-97083714D01*
X154537580Y-97083714D02*
X154442342Y-97036095D01*
X154442342Y-97036095D02*
X154204247Y-97036095D01*
X154204247Y-97036095D02*
X154109009Y-97083714D01*
X154109009Y-97083714D02*
X154061390Y-97131333D01*
X154061390Y-97131333D02*
X154013771Y-97226571D01*
X154013771Y-97226571D02*
X154013771Y-97417047D01*
X154013771Y-97417047D02*
X154061390Y-97512285D01*
X154061390Y-97512285D02*
X154109009Y-97559904D01*
X154109009Y-97559904D02*
X154204247Y-97607523D01*
X145999580Y-116244666D02*
X146047200Y-116292285D01*
X146047200Y-116292285D02*
X146094819Y-116435142D01*
X146094819Y-116435142D02*
X146094819Y-116530380D01*
X146094819Y-116530380D02*
X146047200Y-116673237D01*
X146047200Y-116673237D02*
X145951961Y-116768475D01*
X145951961Y-116768475D02*
X145856723Y-116816094D01*
X145856723Y-116816094D02*
X145666247Y-116863713D01*
X145666247Y-116863713D02*
X145523390Y-116863713D01*
X145523390Y-116863713D02*
X145332914Y-116816094D01*
X145332914Y-116816094D02*
X145237676Y-116768475D01*
X145237676Y-116768475D02*
X145142438Y-116673237D01*
X145142438Y-116673237D02*
X145094819Y-116530380D01*
X145094819Y-116530380D02*
X145094819Y-116435142D01*
X145094819Y-116435142D02*
X145142438Y-116292285D01*
X145142438Y-116292285D02*
X145190057Y-116244666D01*
X146094819Y-115292285D02*
X146094819Y-115863713D01*
X146094819Y-115577999D02*
X145094819Y-115577999D01*
X145094819Y-115577999D02*
X145237676Y-115673237D01*
X145237676Y-115673237D02*
X145332914Y-115768475D01*
X145332914Y-115768475D02*
X145380533Y-115863713D01*
X157585580Y-99448857D02*
X157633200Y-99496476D01*
X157633200Y-99496476D02*
X157680819Y-99639333D01*
X157680819Y-99639333D02*
X157680819Y-99734571D01*
X157680819Y-99734571D02*
X157633200Y-99877428D01*
X157633200Y-99877428D02*
X157537961Y-99972666D01*
X157537961Y-99972666D02*
X157442723Y-100020285D01*
X157442723Y-100020285D02*
X157252247Y-100067904D01*
X157252247Y-100067904D02*
X157109390Y-100067904D01*
X157109390Y-100067904D02*
X156918914Y-100020285D01*
X156918914Y-100020285D02*
X156823676Y-99972666D01*
X156823676Y-99972666D02*
X156728438Y-99877428D01*
X156728438Y-99877428D02*
X156680819Y-99734571D01*
X156680819Y-99734571D02*
X156680819Y-99639333D01*
X156680819Y-99639333D02*
X156728438Y-99496476D01*
X156728438Y-99496476D02*
X156776057Y-99448857D01*
X157680819Y-98496476D02*
X157680819Y-99067904D01*
X157680819Y-98782190D02*
X156680819Y-98782190D01*
X156680819Y-98782190D02*
X156823676Y-98877428D01*
X156823676Y-98877428D02*
X156918914Y-98972666D01*
X156918914Y-98972666D02*
X156966533Y-99067904D01*
X156680819Y-97877428D02*
X156680819Y-97782190D01*
X156680819Y-97782190D02*
X156728438Y-97686952D01*
X156728438Y-97686952D02*
X156776057Y-97639333D01*
X156776057Y-97639333D02*
X156871295Y-97591714D01*
X156871295Y-97591714D02*
X157061771Y-97544095D01*
X157061771Y-97544095D02*
X157299866Y-97544095D01*
X157299866Y-97544095D02*
X157490342Y-97591714D01*
X157490342Y-97591714D02*
X157585580Y-97639333D01*
X157585580Y-97639333D02*
X157633200Y-97686952D01*
X157633200Y-97686952D02*
X157680819Y-97782190D01*
X157680819Y-97782190D02*
X157680819Y-97877428D01*
X157680819Y-97877428D02*
X157633200Y-97972666D01*
X157633200Y-97972666D02*
X157585580Y-98020285D01*
X157585580Y-98020285D02*
X157490342Y-98067904D01*
X157490342Y-98067904D02*
X157299866Y-98115523D01*
X157299866Y-98115523D02*
X157061771Y-98115523D01*
X157061771Y-98115523D02*
X156871295Y-98067904D01*
X156871295Y-98067904D02*
X156776057Y-98020285D01*
X156776057Y-98020285D02*
X156728438Y-97972666D01*
X156728438Y-97972666D02*
X156680819Y-97877428D01*
D12*
%TO.C,D6*%
X159946000Y-119015000D02*
X159946000Y-121015000D01*
X159946000Y-119015000D02*
X163956000Y-119015000D01*
X159946000Y-121015000D02*
X163956000Y-121015000D01*
%TO.C,R3*%
X139939500Y-115553258D02*
X139939500Y-115078742D01*
X140984500Y-115553258D02*
X140984500Y-115078742D01*
%TO.C,C7*%
X141476000Y-109079420D02*
X141476000Y-109360580D01*
X142496000Y-109079420D02*
X142496000Y-109360580D01*
%TO.C,D4*%
X154967000Y-106134000D02*
X154967000Y-108419000D01*
X154967000Y-108419000D02*
X156437000Y-108419000D01*
X156437000Y-108419000D02*
X156437000Y-106134000D01*
%TO.C,R8*%
X158227500Y-109744742D02*
X158227500Y-110219258D01*
X159272500Y-109744742D02*
X159272500Y-110219258D01*
%TO.C,R9*%
X156957500Y-121141258D02*
X156957500Y-120666742D01*
X158002500Y-121141258D02*
X158002500Y-120666742D01*
%TO.C,R11*%
X177785500Y-122317742D02*
X177785500Y-122792258D01*
X178830500Y-122317742D02*
X178830500Y-122792258D01*
%TO.C,U4*%
X169426000Y-114845000D02*
X170426000Y-114845000D01*
X169426000Y-117565000D02*
X170426000Y-117565000D01*
X170816000Y-117795000D02*
X170816000Y-117515000D01*
X171096000Y-117515000D01*
X170816000Y-117795000D01*
G36*
X170816000Y-117795000D02*
G01*
X170816000Y-117515000D01*
X171096000Y-117515000D01*
X170816000Y-117795000D01*
G37*
%TO.C,F1*%
X140302064Y-119290000D02*
X139097936Y-119290000D01*
X140302064Y-122010000D02*
X139097936Y-122010000D01*
%TO.C,C14*%
X176020000Y-101486580D02*
X176020000Y-101205420D01*
X177040000Y-101486580D02*
X177040000Y-101205420D01*
%TO.C,R5*%
X155177258Y-113523500D02*
X154702742Y-113523500D01*
X155177258Y-114568500D02*
X154702742Y-114568500D01*
%TO.C,J1*%
X137640000Y-123000000D02*
X137640000Y-130820000D01*
X137640000Y-124600000D02*
X138560000Y-124600000D01*
X137640000Y-130820000D02*
X147760000Y-130820000D01*
X138400000Y-126960000D02*
X138400000Y-128560000D01*
X138400000Y-128560000D02*
X139400000Y-128560000D01*
X138560000Y-123000000D02*
X137640000Y-123000000D01*
X138560000Y-124600000D02*
X138560000Y-123000000D01*
X138840000Y-124600000D02*
X138560000Y-124600000D01*
X138840000Y-124600000D02*
X138840000Y-123385000D01*
X138900000Y-128560000D02*
X138900000Y-130820000D01*
X139400000Y-126960000D02*
X138400000Y-126960000D01*
X139400000Y-128560000D02*
X139400000Y-126960000D01*
X139400000Y-128560000D02*
X139400000Y-130820000D01*
X140200000Y-126460000D02*
X145200000Y-126460000D01*
X140200000Y-130820000D02*
X140200000Y-126460000D01*
X145200000Y-126460000D02*
X145200000Y-130820000D01*
X146000000Y-126960000D02*
X147000000Y-126960000D01*
X146000000Y-128560000D02*
X146000000Y-126960000D01*
X146840000Y-123000000D02*
X146840000Y-124600000D01*
X146840000Y-124600000D02*
X146560000Y-124600000D01*
X147000000Y-126960000D02*
X147000000Y-128560000D01*
X147000000Y-128560000D02*
X146000000Y-128560000D01*
X147760000Y-123000000D02*
X146840000Y-123000000D01*
X147760000Y-124600000D02*
X146840000Y-124600000D01*
X147760000Y-130820000D02*
X147760000Y-123000000D01*
%TO.C,D3*%
X157188000Y-113257000D02*
X159473000Y-113257000D01*
X159473000Y-111787000D02*
X157188000Y-111787000D01*
X159473000Y-113257000D02*
X159473000Y-111787000D01*
%TO.C,J3*%
X167415000Y-122455000D02*
X167415000Y-120755000D01*
X176755000Y-122455000D02*
X176755000Y-120755000D01*
%TO.C,R15*%
X155179500Y-101583258D02*
X155179500Y-101108742D01*
X156224500Y-101583258D02*
X156224500Y-101108742D01*
%TO.C,D2*%
X159946000Y-116602000D02*
X159946000Y-118602000D01*
X159946000Y-116602000D02*
X163956000Y-116602000D01*
X159946000Y-118602000D02*
X163956000Y-118602000D01*
%TO.C,R10*%
X165339500Y-122317742D02*
X165339500Y-122792258D01*
X166384500Y-122317742D02*
X166384500Y-122792258D01*
%TO.C,C2*%
X148363000Y-120769748D02*
X148363000Y-121292252D01*
X149833000Y-120769748D02*
X149833000Y-121292252D01*
%TO.C,R2*%
X143747258Y-117841500D02*
X143272742Y-117841500D01*
X143747258Y-118886500D02*
X143272742Y-118886500D01*
%TO.C,L1*%
X142880000Y-112136000D02*
X142880000Y-107828000D01*
X147188000Y-107828000D02*
X147188000Y-112136000D01*
%TO.C,R12*%
X158225258Y-113523500D02*
X157750742Y-113523500D01*
X158225258Y-114568500D02*
X157750742Y-114568500D01*
%TO.C,C12*%
X158494000Y-120763420D02*
X158494000Y-121044580D01*
X159514000Y-120763420D02*
X159514000Y-121044580D01*
%TO.C,Q1*%
X145140000Y-119090000D02*
X146960000Y-119090000D01*
X145140000Y-119140000D02*
X145140000Y-119090000D01*
X145140000Y-121040000D02*
X145140000Y-120260000D01*
X145140000Y-122210000D02*
X145140000Y-122160000D01*
X146960000Y-119090000D02*
X146960000Y-120090000D01*
X146960000Y-121210000D02*
X146960000Y-122210000D01*
X146960000Y-122210000D02*
X145140000Y-122210000D01*
X144840000Y-120600000D02*
X144360000Y-120600000D01*
X144600000Y-120270000D01*
X144840000Y-120600000D01*
G36*
X144840000Y-120600000D02*
G01*
X144360000Y-120600000D01*
X144600000Y-120270000D01*
X144840000Y-120600000D01*
G37*
%TO.C,D5*%
X156491000Y-105449000D02*
X156491000Y-107734000D01*
X157961000Y-105449000D02*
X156491000Y-105449000D01*
X157961000Y-107734000D02*
X157961000Y-105449000D01*
%TO.C,R7*%
X157750742Y-115047500D02*
X158225258Y-115047500D01*
X157750742Y-116092500D02*
X158225258Y-116092500D01*
%TO.C,C9*%
X152661252Y-110009000D02*
X152138748Y-110009000D01*
X152661252Y-111479000D02*
X152138748Y-111479000D01*
%TO.C,C4*%
X141476000Y-112127420D02*
X141476000Y-112408580D01*
X142496000Y-112127420D02*
X142496000Y-112408580D01*
%TO.C,R14*%
X158227500Y-106696742D02*
X158227500Y-107171258D01*
X159272500Y-106696742D02*
X159272500Y-107171258D01*
%TO.C,C15*%
X142238000Y-103518580D02*
X142238000Y-103237420D01*
X143258000Y-103518580D02*
X143258000Y-103237420D01*
D11*
%TO.C,U1*%
X141676999Y-114395001D02*
X141676999Y-114294999D01*
X141676999Y-116895001D02*
X141676999Y-116794999D01*
X141777001Y-114294999D02*
X141676999Y-114294999D01*
X141777001Y-116895001D02*
X141676999Y-116895001D01*
X144327001Y-114244999D02*
X144226999Y-114244999D01*
X144327001Y-114345001D02*
X144327001Y-114244999D01*
X144327001Y-116845001D02*
X144226999Y-116845001D01*
X144327001Y-116845001D02*
X144327001Y-116744999D01*
D13*
X142389001Y-117319999D02*
G75*
G02*
X142138999Y-117319999I-125001J0D01*
G01*
X142138999Y-117319999D02*
G75*
G02*
X142389001Y-117319999I125001J0D01*
G01*
D12*
%TO.C,J2*%
X150975000Y-123000000D02*
X150975000Y-130820000D01*
X150975000Y-124600000D02*
X151895000Y-124600000D01*
X150975000Y-130820000D02*
X163095000Y-130820000D01*
X151735000Y-126960000D02*
X151735000Y-128560000D01*
X151735000Y-128560000D02*
X152735000Y-128560000D01*
X151895000Y-123000000D02*
X150975000Y-123000000D01*
X151895000Y-124600000D02*
X151895000Y-123000000D01*
X152175000Y-124600000D02*
X151895000Y-124600000D01*
X152175000Y-124600000D02*
X152175000Y-123385000D01*
X152235000Y-128560000D02*
X152235000Y-130820000D01*
X152735000Y-126960000D02*
X151735000Y-126960000D01*
X152735000Y-128560000D02*
X152735000Y-126960000D01*
X152735000Y-128560000D02*
X152735000Y-130820000D01*
X153535000Y-126460000D02*
X160535000Y-126460000D01*
X153535000Y-130820000D02*
X153535000Y-126460000D01*
X160535000Y-126460000D02*
X160535000Y-130820000D01*
X161335000Y-126960000D02*
X162335000Y-126960000D01*
X161335000Y-128560000D02*
X161335000Y-126960000D01*
X162175000Y-123000000D02*
X162175000Y-124600000D01*
X162175000Y-124600000D02*
X161895000Y-124600000D01*
X162335000Y-126960000D02*
X162335000Y-128560000D01*
X162335000Y-128560000D02*
X161335000Y-128560000D01*
X163095000Y-123000000D02*
X162175000Y-123000000D01*
X163095000Y-124600000D02*
X162175000Y-124600000D01*
X163095000Y-130820000D02*
X163095000Y-123000000D01*
%TO.C,C11*%
X158240000Y-101486580D02*
X158240000Y-101205420D01*
X159260000Y-101486580D02*
X159260000Y-101205420D01*
%TO.C,C5*%
X144131420Y-112520000D02*
X144412580Y-112520000D01*
X144131420Y-113540000D02*
X144412580Y-113540000D01*
%TO.C,R4*%
X139939500Y-112030742D02*
X139939500Y-112505258D01*
X140984500Y-112030742D02*
X140984500Y-112505258D01*
%TO.C,R6*%
X156703500Y-109744742D02*
X156703500Y-110219258D01*
X157748500Y-109744742D02*
X157748500Y-110219258D01*
%TO.C,C8*%
X156970000Y-117715420D02*
X156970000Y-117996580D01*
X157990000Y-117715420D02*
X157990000Y-117996580D01*
%TO.C,SW1*%
X148041000Y-103328000D02*
X148041000Y-103428000D01*
X148041000Y-105128000D02*
X152441000Y-105128000D01*
X152441000Y-101628000D02*
X148041000Y-101628000D01*
X152441000Y-103328000D02*
X152441000Y-103428000D01*
%TO.C,D1*%
X148464000Y-112314000D02*
X148464000Y-117824000D01*
X151764000Y-112314000D02*
X148464000Y-112314000D01*
X151764000Y-112314000D02*
X151764000Y-117824000D01*
%TO.C,R13*%
X158225258Y-104125500D02*
X157750742Y-104125500D01*
X158225258Y-105170500D02*
X157750742Y-105170500D01*
%TO.C,FB1*%
X151290000Y-107652000D02*
X153510000Y-107652000D01*
X153510000Y-109772000D02*
X151290000Y-109772000D01*
%TO.C,R16*%
X153655500Y-101583258D02*
X153655500Y-101108742D01*
X154700500Y-101583258D02*
X154700500Y-101108742D01*
%TO.C,SW2*%
X136865000Y-103328000D02*
X136865000Y-103428000D01*
X136865000Y-105128000D02*
X141265000Y-105128000D01*
X141265000Y-101628000D02*
X136865000Y-101628000D01*
X141265000Y-103328000D02*
X141265000Y-103428000D01*
%TO.C,C6*%
X147738000Y-109270748D02*
X147738000Y-110693252D01*
X150458000Y-109270748D02*
X150458000Y-110693252D01*
%TO.C,U3*%
X159840000Y-98880000D02*
X175440000Y-98880000D01*
X159840000Y-114480000D02*
X159840000Y-98880000D01*
X175440000Y-98880000D02*
X175440000Y-114480000D01*
X175440000Y-114480000D02*
X159840000Y-114480000D01*
X159665000Y-100730000D02*
X159329000Y-100970000D01*
X159329000Y-100490000D01*
X159665000Y-100730000D01*
G36*
X159665000Y-100730000D02*
G01*
X159329000Y-100970000D01*
X159329000Y-100490000D01*
X159665000Y-100730000D01*
G37*
D14*
%TO.C,G\u002A\u002A\u002A*%
G36*
X143964269Y-91996846D02*
G01*
X143964269Y-92128730D01*
X143632115Y-92133615D01*
X143299961Y-92138500D01*
X143299961Y-92456000D01*
X143299961Y-92773500D01*
X143583269Y-92778384D01*
X143866577Y-92783269D01*
X143869338Y-92899114D01*
X143869705Y-92960490D01*
X143867431Y-93002731D01*
X143862523Y-93025737D01*
X143860815Y-93028556D01*
X143854097Y-93032659D01*
X143840210Y-93035886D01*
X143817172Y-93038330D01*
X143783001Y-93040085D01*
X143735714Y-93041243D01*
X143673328Y-93041899D01*
X143593862Y-93042145D01*
X143572156Y-93042154D01*
X143294781Y-93042154D01*
X143297371Y-93327904D01*
X143299961Y-93613654D01*
X143632115Y-93618538D01*
X143964269Y-93623423D01*
X143967016Y-93749658D01*
X143967687Y-93805888D01*
X143966729Y-93845070D01*
X143963965Y-93869642D01*
X143959218Y-93882039D01*
X143957246Y-93883835D01*
X143945189Y-93885457D01*
X143915587Y-93886975D01*
X143870435Y-93888352D01*
X143811727Y-93889555D01*
X143741458Y-93890549D01*
X143661620Y-93891299D01*
X143574209Y-93891770D01*
X143492597Y-93891927D01*
X143381935Y-93891854D01*
X143289442Y-93891530D01*
X143213748Y-93890920D01*
X143153485Y-93889988D01*
X143107283Y-93888697D01*
X143073773Y-93887012D01*
X143051587Y-93884895D01*
X143039355Y-93882311D01*
X143035810Y-93879865D01*
X143035192Y-93868599D01*
X143034646Y-93839109D01*
X143034175Y-93792705D01*
X143033781Y-93730702D01*
X143033469Y-93654413D01*
X143033239Y-93565150D01*
X143033096Y-93464226D01*
X143033041Y-93352954D01*
X143033078Y-93232648D01*
X143033210Y-93104620D01*
X143033439Y-92970182D01*
X143033675Y-92866307D01*
X143036192Y-91864961D01*
X143500230Y-91864961D01*
X143964269Y-91864961D01*
X143964269Y-91996846D01*
G37*
G36*
X140758760Y-91861145D02*
G01*
X140792697Y-91862437D01*
X140818514Y-91864790D01*
X140839065Y-91868375D01*
X140857203Y-91873364D01*
X140875102Y-91879672D01*
X140933084Y-91910723D01*
X140986253Y-91956880D01*
X141030012Y-92013714D01*
X141047359Y-92045669D01*
X141072577Y-92099423D01*
X141075270Y-92982234D01*
X141075697Y-93145069D01*
X141075922Y-93289174D01*
X141075935Y-93415361D01*
X141075731Y-93524438D01*
X141075300Y-93617214D01*
X141074635Y-93694499D01*
X141073729Y-93757102D01*
X141072574Y-93805832D01*
X141071162Y-93841497D01*
X141069486Y-93864909D01*
X141067537Y-93876875D01*
X141066747Y-93878561D01*
X141055911Y-93884831D01*
X141033926Y-93888980D01*
X140998083Y-93891297D01*
X140945672Y-93892072D01*
X140940541Y-93892077D01*
X140890151Y-93891676D01*
X140856052Y-93890198D01*
X140835007Y-93887229D01*
X140823781Y-93882356D01*
X140819622Y-93876624D01*
X140818289Y-93863648D01*
X140817060Y-93833378D01*
X140815971Y-93788057D01*
X140815055Y-93729929D01*
X140814348Y-93661237D01*
X140813882Y-93584225D01*
X140813694Y-93501138D01*
X140813692Y-93490739D01*
X140813692Y-93120307D01*
X140593998Y-93120307D01*
X140374303Y-93120307D01*
X140371748Y-93503750D01*
X140369192Y-93887192D01*
X140239750Y-93889918D01*
X140110307Y-93892644D01*
X140110307Y-93003727D01*
X140110317Y-92851733D01*
X140110362Y-92718023D01*
X140110470Y-92601342D01*
X140110652Y-92508811D01*
X140374077Y-92508811D01*
X140374260Y-92587819D01*
X140374782Y-92660555D01*
X140375598Y-92724727D01*
X140376664Y-92778042D01*
X140377938Y-92818206D01*
X140379374Y-92842928D01*
X140380589Y-92850025D01*
X140391859Y-92851930D01*
X140419752Y-92853615D01*
X140461355Y-92854994D01*
X140513754Y-92855981D01*
X140574035Y-92856488D01*
X140600397Y-92856538D01*
X140813692Y-92856538D01*
X140813692Y-92516129D01*
X140813660Y-92425600D01*
X140813488Y-92352592D01*
X140813060Y-92295087D01*
X140812261Y-92251067D01*
X140810976Y-92218516D01*
X140809088Y-92195414D01*
X140806483Y-92179746D01*
X140803046Y-92169492D01*
X140798660Y-92162636D01*
X140793210Y-92157160D01*
X140793155Y-92157110D01*
X140783828Y-92150309D01*
X140771044Y-92145263D01*
X140751812Y-92141639D01*
X140723137Y-92139100D01*
X140682027Y-92137311D01*
X140625488Y-92135938D01*
X140599843Y-92135464D01*
X140537529Y-92134493D01*
X140491629Y-92134281D01*
X140459024Y-92135107D01*
X140436597Y-92137249D01*
X140421228Y-92140986D01*
X140409800Y-92146596D01*
X140400572Y-92153269D01*
X140374077Y-92174110D01*
X140374077Y-92508811D01*
X140110652Y-92508811D01*
X140110668Y-92500436D01*
X140110981Y-92414048D01*
X140111436Y-92340925D01*
X140112060Y-92279812D01*
X140112879Y-92229453D01*
X140113919Y-92188595D01*
X140114491Y-92174110D01*
X140115207Y-92155982D01*
X140116770Y-92130359D01*
X140118633Y-92110472D01*
X140120824Y-92095066D01*
X140123368Y-92082886D01*
X140126293Y-92072678D01*
X140129624Y-92063186D01*
X140130172Y-92061718D01*
X140164103Y-91997389D01*
X140212985Y-91941378D01*
X140272571Y-91898356D01*
X140284059Y-91892375D01*
X140339884Y-91864961D01*
X140579694Y-91861916D01*
X140655112Y-91861056D01*
X140713850Y-91860741D01*
X140758760Y-91861145D01*
G37*
G36*
X141677927Y-91891596D02*
G01*
X141685704Y-91910299D01*
X141699164Y-91943945D01*
X141717005Y-91989228D01*
X141737927Y-92042843D01*
X141760629Y-92101485D01*
X141765481Y-92114077D01*
X141798183Y-92198183D01*
X141831645Y-92282704D01*
X141865039Y-92365683D01*
X141897541Y-92445163D01*
X141928325Y-92519185D01*
X141956564Y-92585794D01*
X141981435Y-92643031D01*
X142002110Y-92688940D01*
X142017765Y-92721564D01*
X142027574Y-92738945D01*
X142030070Y-92741310D01*
X142036399Y-92732568D01*
X142049044Y-92707625D01*
X142067169Y-92668464D01*
X142089939Y-92617066D01*
X142116517Y-92555414D01*
X142146068Y-92485489D01*
X142177756Y-92409274D01*
X142210745Y-92328750D01*
X142244200Y-92245900D01*
X142277286Y-92162705D01*
X142309165Y-92081148D01*
X142317196Y-92060346D01*
X142392410Y-91864961D01*
X142567763Y-91864961D01*
X142743115Y-91864961D01*
X142748000Y-93006366D01*
X142752884Y-94147771D01*
X142780294Y-94171347D01*
X142807705Y-94194923D01*
X143372976Y-94194923D01*
X143476615Y-94195023D01*
X143574641Y-94195311D01*
X143665270Y-94195769D01*
X143746721Y-94196378D01*
X143817210Y-94197121D01*
X143874954Y-94197979D01*
X143918172Y-94198934D01*
X143945080Y-94199968D01*
X143953701Y-94200853D01*
X143960196Y-94206163D01*
X143964623Y-94218295D01*
X143967347Y-94240357D01*
X143968735Y-94275455D01*
X143969151Y-94326698D01*
X143969154Y-94332161D01*
X143968570Y-94379630D01*
X143966974Y-94419647D01*
X143964600Y-94448369D01*
X143961682Y-94461952D01*
X143961229Y-94462436D01*
X143950310Y-94463327D01*
X143921543Y-94464216D01*
X143876620Y-94465087D01*
X143817232Y-94465921D01*
X143745068Y-94466701D01*
X143661822Y-94467407D01*
X143569183Y-94468023D01*
X143468843Y-94468530D01*
X143362492Y-94468911D01*
X143348210Y-94468950D01*
X143224419Y-94469267D01*
X143118601Y-94469473D01*
X143029190Y-94469525D01*
X142954621Y-94469377D01*
X142893328Y-94468983D01*
X142843746Y-94468298D01*
X142804309Y-94467278D01*
X142773451Y-94465877D01*
X142749608Y-94464050D01*
X142731214Y-94461751D01*
X142716703Y-94458935D01*
X142704509Y-94455558D01*
X142693068Y-94451573D01*
X142688609Y-94449897D01*
X142619160Y-94413551D01*
X142561879Y-94362551D01*
X142518203Y-94298570D01*
X142489567Y-94223281D01*
X142487752Y-94215902D01*
X142485397Y-94202161D01*
X142483323Y-94181456D01*
X142481516Y-94152678D01*
X142479960Y-94114717D01*
X142478638Y-94066463D01*
X142477535Y-94006807D01*
X142476635Y-93934639D01*
X142475922Y-93848849D01*
X142475381Y-93748327D01*
X142474996Y-93631965D01*
X142474751Y-93498651D01*
X142474629Y-93347277D01*
X142474614Y-93292897D01*
X142474504Y-93128574D01*
X142474229Y-92983196D01*
X142473783Y-92856170D01*
X142473159Y-92746905D01*
X142472348Y-92654807D01*
X142471343Y-92579284D01*
X142470137Y-92519744D01*
X142468723Y-92475593D01*
X142467094Y-92446240D01*
X142465241Y-92431091D01*
X142463877Y-92428592D01*
X142457967Y-92438034D01*
X142445263Y-92463656D01*
X142426584Y-92503641D01*
X142402747Y-92556173D01*
X142374569Y-92619436D01*
X142342868Y-92691615D01*
X142308461Y-92770892D01*
X142279936Y-92837271D01*
X142106578Y-93242423D01*
X142039931Y-93245345D01*
X142004973Y-93245521D01*
X141977609Y-93243166D01*
X141963852Y-93238836D01*
X141958165Y-93228147D01*
X141945660Y-93201328D01*
X141927155Y-93160234D01*
X141903467Y-93106720D01*
X141875413Y-93042641D01*
X141843811Y-92969853D01*
X141809479Y-92890210D01*
X141782153Y-92826449D01*
X141746377Y-92743293D01*
X141712687Y-92665997D01*
X141681894Y-92596353D01*
X141654812Y-92536152D01*
X141632254Y-92487187D01*
X141615031Y-92451248D01*
X141603957Y-92430127D01*
X141600115Y-92425092D01*
X141598326Y-92435139D01*
X141596662Y-92464571D01*
X141595125Y-92513238D01*
X141593716Y-92580987D01*
X141592438Y-92667666D01*
X141591292Y-92773124D01*
X141590279Y-92897208D01*
X141589403Y-93039766D01*
X141588664Y-93200647D01*
X141588064Y-93379698D01*
X141587859Y-93458516D01*
X141585372Y-94490342D01*
X141628017Y-94527880D01*
X141673001Y-94578622D01*
X141700449Y-94636846D01*
X141710925Y-94703988D01*
X141710305Y-94736722D01*
X141702819Y-94793983D01*
X141686651Y-94840473D01*
X141658521Y-94884198D01*
X141641523Y-94904608D01*
X141592607Y-94946199D01*
X141533826Y-94973484D01*
X141469486Y-94985607D01*
X141403890Y-94981715D01*
X141346115Y-94963245D01*
X141295579Y-94931138D01*
X141249549Y-94886503D01*
X141214602Y-94836035D01*
X141208155Y-94822813D01*
X141197752Y-94786509D01*
X141192094Y-94738692D01*
X141191430Y-94717577D01*
X141191780Y-94712913D01*
X141352124Y-94712913D01*
X141356288Y-94747673D01*
X141378939Y-94781466D01*
X141384215Y-94786938D01*
X141420966Y-94813288D01*
X141459991Y-94820383D01*
X141500348Y-94809552D01*
X141531295Y-94785769D01*
X141549553Y-94751685D01*
X141554041Y-94712712D01*
X141543681Y-94674264D01*
X141531142Y-94655158D01*
X141497816Y-94628773D01*
X141459452Y-94618674D01*
X141420865Y-94624333D01*
X141386868Y-94645222D01*
X141365819Y-94673295D01*
X141352124Y-94712913D01*
X141191780Y-94712913D01*
X141195831Y-94658977D01*
X141211585Y-94610198D01*
X141241266Y-94565558D01*
X141276872Y-94528911D01*
X141321621Y-94487662D01*
X141324099Y-93176312D01*
X141326577Y-91864961D01*
X141495144Y-91862288D01*
X141663711Y-91859615D01*
X141677927Y-91891596D01*
G37*
G36*
X143567225Y-90063294D02*
G01*
X143569600Y-90064088D01*
X143631834Y-90094879D01*
X143683664Y-90139549D01*
X143723197Y-90194850D01*
X143748539Y-90257538D01*
X143757797Y-90324364D01*
X143752535Y-90377755D01*
X143731809Y-90435268D01*
X143696548Y-90489763D01*
X143651409Y-90534563D01*
X143635088Y-90546115D01*
X143589214Y-90575423D01*
X143588684Y-90762871D01*
X143588154Y-90950319D01*
X143834827Y-90953484D01*
X143911799Y-90954582D01*
X143972121Y-90955821D01*
X144018683Y-90957443D01*
X144054372Y-90959686D01*
X144082078Y-90962791D01*
X144104688Y-90966999D01*
X144125092Y-90972548D01*
X144145000Y-90979258D01*
X144244731Y-91024901D01*
X144336182Y-91086955D01*
X144416839Y-91163163D01*
X144484189Y-91251268D01*
X144521197Y-91317016D01*
X144542163Y-91362329D01*
X144558789Y-91404872D01*
X144571557Y-91447765D01*
X144580948Y-91494129D01*
X144587444Y-91547084D01*
X144591526Y-91609749D01*
X144593676Y-91685244D01*
X144594375Y-91776691D01*
X144594384Y-91791280D01*
X144594384Y-92026154D01*
X144773234Y-92026154D01*
X144952085Y-92026154D01*
X144982773Y-91982615D01*
X145032562Y-91926430D01*
X145089523Y-91887574D01*
X145151827Y-91866538D01*
X145217647Y-91863816D01*
X145285155Y-91879899D01*
X145314983Y-91893091D01*
X145375692Y-91933880D01*
X145420966Y-91986420D01*
X145450076Y-92049622D01*
X145461582Y-92111171D01*
X145459392Y-92178077D01*
X145440488Y-92237877D01*
X145403621Y-92294077D01*
X145391497Y-92307926D01*
X145338652Y-92353086D01*
X145278876Y-92382930D01*
X145215635Y-92396610D01*
X145152394Y-92393277D01*
X145104849Y-92378119D01*
X145073309Y-92359430D01*
X145038731Y-92332192D01*
X145005666Y-92300834D01*
X144978661Y-92269784D01*
X144962269Y-92243468D01*
X144960130Y-92237276D01*
X144951188Y-92218835D01*
X144934742Y-92215819D01*
X144932860Y-92216142D01*
X144916231Y-92217526D01*
X144883904Y-92218791D01*
X144839721Y-92219838D01*
X144787524Y-92220566D01*
X144753134Y-92220812D01*
X144594384Y-92221538D01*
X144594384Y-92641615D01*
X144594384Y-93061692D01*
X144772893Y-93061692D01*
X144951403Y-93061692D01*
X144970162Y-93026857D01*
X145009005Y-92974196D01*
X145060084Y-92933879D01*
X145119564Y-92907227D01*
X145183613Y-92895557D01*
X145248398Y-92900189D01*
X145294995Y-92915080D01*
X145349591Y-92943964D01*
X145390109Y-92977847D01*
X145422006Y-93021787D01*
X145433707Y-93043577D01*
X145459007Y-93111763D01*
X145465051Y-93176685D01*
X145451808Y-93238523D01*
X145419250Y-93297457D01*
X145386074Y-93335954D01*
X145327093Y-93383870D01*
X145264984Y-93413051D01*
X145201297Y-93423430D01*
X145137579Y-93414942D01*
X145075380Y-93387519D01*
X145027138Y-93351349D01*
X145000408Y-93323629D01*
X144977236Y-93293668D01*
X144970082Y-93281992D01*
X144951403Y-93247307D01*
X144772893Y-93247307D01*
X144594384Y-93247307D01*
X144594384Y-93672269D01*
X144594384Y-94097230D01*
X144772893Y-94097230D01*
X144951403Y-94097230D01*
X144970082Y-94062545D01*
X144999565Y-94021677D01*
X145040998Y-93981964D01*
X145087465Y-93949639D01*
X145105930Y-93940165D01*
X145166133Y-93922730D01*
X145227222Y-93922649D01*
X145286538Y-93938064D01*
X145341420Y-93967116D01*
X145389209Y-94007948D01*
X145427244Y-94058698D01*
X145452864Y-94117510D01*
X145463410Y-94182523D01*
X145463536Y-94190038D01*
X145454581Y-94259707D01*
X145427703Y-94322016D01*
X145383331Y-94376313D01*
X145321891Y-94421949D01*
X145304824Y-94431451D01*
X145269348Y-94445757D01*
X145228853Y-94452053D01*
X145200077Y-94452741D01*
X145129122Y-94443126D01*
X145065880Y-94415864D01*
X145011765Y-94371803D01*
X144969776Y-94314596D01*
X144951633Y-94282846D01*
X144773867Y-94282846D01*
X144596100Y-94282846D01*
X144591792Y-94578365D01*
X144590325Y-94669878D01*
X144588572Y-94744617D01*
X144586093Y-94805344D01*
X144582447Y-94854825D01*
X144577193Y-94895821D01*
X144569892Y-94931097D01*
X144560104Y-94963415D01*
X144547388Y-94995540D01*
X144531304Y-95030235D01*
X144514368Y-95064384D01*
X144488591Y-95111260D01*
X144459977Y-95152885D01*
X144423880Y-95195471D01*
X144389424Y-95231451D01*
X144334951Y-95283589D01*
X144285717Y-95323436D01*
X144235979Y-95354863D01*
X144179992Y-95381738D01*
X144146168Y-95395328D01*
X144125092Y-95403038D01*
X144105163Y-95409046D01*
X144083475Y-95413634D01*
X144057118Y-95417086D01*
X144023187Y-95419685D01*
X143978774Y-95421714D01*
X143920970Y-95423455D01*
X143846869Y-95425193D01*
X143837269Y-95425403D01*
X143593038Y-95430730D01*
X143590386Y-95612313D01*
X143587734Y-95793895D01*
X143636147Y-95823990D01*
X143690790Y-95868394D01*
X143729777Y-95922303D01*
X143752710Y-95983022D01*
X143759194Y-96047857D01*
X143748833Y-96114112D01*
X143721232Y-96179093D01*
X143694169Y-96218980D01*
X143646183Y-96264289D01*
X143586842Y-96294265D01*
X143517787Y-96308164D01*
X143495346Y-96309088D01*
X143444712Y-96306442D01*
X143403955Y-96295828D01*
X143365753Y-96274422D01*
X143329027Y-96244939D01*
X143284928Y-96194867D01*
X143255413Y-96137213D01*
X143240214Y-96075218D01*
X143239638Y-96043634D01*
X143400729Y-96043634D01*
X143406868Y-96081462D01*
X143426495Y-96113150D01*
X143457169Y-96133094D01*
X143495687Y-96140020D01*
X143535055Y-96133624D01*
X143562050Y-96119038D01*
X143585060Y-96089615D01*
X143594741Y-96052194D01*
X143591344Y-96012827D01*
X143575123Y-95977561D01*
X143555326Y-95957880D01*
X143531990Y-95948341D01*
X143501560Y-95943701D01*
X143497305Y-95943615D01*
X143458687Y-95952078D01*
X143428487Y-95974518D01*
X143408552Y-96006511D01*
X143400729Y-96043634D01*
X143239638Y-96043634D01*
X143239063Y-96012122D01*
X143251694Y-95951169D01*
X143277838Y-95895597D01*
X143317229Y-95848651D01*
X143364406Y-95816133D01*
X143402538Y-95796679D01*
X143402538Y-95611149D01*
X143402538Y-95425619D01*
X143019096Y-95428175D01*
X142635654Y-95430730D01*
X142632998Y-95613178D01*
X142632138Y-95677010D01*
X142631863Y-95724013D01*
X142632437Y-95756896D01*
X142634127Y-95778364D01*
X142637197Y-95791125D01*
X142641913Y-95797887D01*
X142648538Y-95801357D01*
X142651517Y-95802345D01*
X142676401Y-95816096D01*
X142707088Y-95841173D01*
X142738541Y-95872647D01*
X142765726Y-95905587D01*
X142780408Y-95928522D01*
X142795581Y-95972830D01*
X142801953Y-96026936D01*
X142799548Y-96083207D01*
X142788394Y-96134011D01*
X142779640Y-96154791D01*
X142745126Y-96209828D01*
X142704756Y-96250496D01*
X142653759Y-96281783D01*
X142588601Y-96303541D01*
X142522396Y-96307299D01*
X142458179Y-96294161D01*
X142398983Y-96265234D01*
X142347842Y-96221625D01*
X142307789Y-96164440D01*
X142302399Y-96153654D01*
X142283053Y-96092350D01*
X142279866Y-96032320D01*
X142441329Y-96032320D01*
X142444809Y-96072311D01*
X142449245Y-96084879D01*
X142466387Y-96114352D01*
X142490387Y-96131163D01*
X142526150Y-96138084D01*
X142544420Y-96138703D01*
X142575326Y-96136824D01*
X142595941Y-96128154D01*
X142615247Y-96108942D01*
X142637018Y-96070076D01*
X142640843Y-96029304D01*
X142626816Y-95990636D01*
X142611982Y-95972171D01*
X142577680Y-95949059D01*
X142541204Y-95942330D01*
X142505943Y-95949639D01*
X142475284Y-95968638D01*
X142452617Y-95996980D01*
X142441329Y-96032320D01*
X142279866Y-96032320D01*
X142279641Y-96028083D01*
X142290956Y-95964745D01*
X142315791Y-95906229D01*
X142352939Y-95856427D01*
X142401195Y-95819233D01*
X142407022Y-95816133D01*
X142445154Y-95796679D01*
X142445154Y-95611263D01*
X142445154Y-95425846D01*
X142054384Y-95425846D01*
X141663615Y-95425846D01*
X141663615Y-95615161D01*
X141663615Y-95804475D01*
X141691808Y-95816153D01*
X141734809Y-95843285D01*
X141773426Y-95884651D01*
X141804295Y-95934976D01*
X141824051Y-95988983D01*
X141829597Y-96032207D01*
X141820740Y-96105574D01*
X141794732Y-96171524D01*
X141752905Y-96227772D01*
X141696589Y-96272031D01*
X141686659Y-96277666D01*
X141619244Y-96304535D01*
X141553010Y-96312032D01*
X141489093Y-96300326D01*
X141428633Y-96269581D01*
X141385631Y-96233521D01*
X141338941Y-96175047D01*
X141311218Y-96112195D01*
X141302570Y-96045400D01*
X141302753Y-96044179D01*
X141471516Y-96044179D01*
X141479506Y-96083239D01*
X141482019Y-96088481D01*
X141501802Y-96117260D01*
X141527349Y-96132878D01*
X141564452Y-96138498D01*
X141574001Y-96138703D01*
X141606718Y-96135532D01*
X141631433Y-96122592D01*
X141644828Y-96110443D01*
X141667137Y-96076400D01*
X141673175Y-96039199D01*
X141664749Y-96003092D01*
X141643667Y-95972332D01*
X141611737Y-95951171D01*
X141573999Y-95943832D01*
X141533618Y-95952032D01*
X141501275Y-95974324D01*
X141479673Y-96006456D01*
X141471516Y-96044179D01*
X141302753Y-96044179D01*
X141313101Y-95975098D01*
X141318441Y-95957911D01*
X141335760Y-95922572D01*
X141362420Y-95885281D01*
X141393920Y-95850957D01*
X141425760Y-95824523D01*
X141452707Y-95811076D01*
X141478000Y-95804728D01*
X141478000Y-95615287D01*
X141478000Y-95425846D01*
X141077461Y-95425846D01*
X140676923Y-95425846D01*
X140676923Y-95611330D01*
X140676923Y-95796814D01*
X140708673Y-95810297D01*
X140743974Y-95832127D01*
X140780946Y-95865864D01*
X140813836Y-95905342D01*
X140836890Y-95944395D01*
X140839313Y-95950278D01*
X140849780Y-95997168D01*
X140851161Y-96052806D01*
X140843980Y-96108931D01*
X140828762Y-96157279D01*
X140825781Y-96163423D01*
X140789101Y-96215886D01*
X140740114Y-96258869D01*
X140682971Y-96290348D01*
X140621822Y-96308299D01*
X140560815Y-96310695D01*
X140533627Y-96305938D01*
X140471618Y-96281057D01*
X140418787Y-96241993D01*
X140376641Y-96191912D01*
X140346682Y-96133980D01*
X140330418Y-96071362D01*
X140329646Y-96024959D01*
X140493307Y-96024959D01*
X140493898Y-96050366D01*
X140494315Y-96053603D01*
X140507256Y-96096663D01*
X140532641Y-96124678D01*
X140570689Y-96137846D01*
X140589385Y-96139000D01*
X140633485Y-96133171D01*
X140660588Y-96119038D01*
X140684038Y-96089512D01*
X140693706Y-96052773D01*
X140690086Y-96014586D01*
X140673674Y-95980715D01*
X140646724Y-95957808D01*
X140602817Y-95943403D01*
X140563278Y-95948018D01*
X140527756Y-95971714D01*
X140520551Y-95979373D01*
X140501155Y-96004227D01*
X140493307Y-96024959D01*
X140329646Y-96024959D01*
X140329351Y-96007225D01*
X140344986Y-95944733D01*
X140353291Y-95926521D01*
X140374007Y-95895085D01*
X140402830Y-95862498D01*
X140434266Y-95834112D01*
X140462826Y-95815280D01*
X140470689Y-95812073D01*
X140477793Y-95809102D01*
X140483044Y-95803577D01*
X140486723Y-95792845D01*
X140489108Y-95774253D01*
X140490480Y-95745148D01*
X140491117Y-95702877D01*
X140491299Y-95644788D01*
X140491307Y-95616367D01*
X140491307Y-95427206D01*
X140215327Y-95424012D01*
X140134471Y-95423026D01*
X140070460Y-95422005D01*
X140020603Y-95420722D01*
X139982208Y-95418949D01*
X139952582Y-95416460D01*
X139929034Y-95413028D01*
X139908872Y-95408426D01*
X139889403Y-95402427D01*
X139867936Y-95394805D01*
X139867692Y-95394716D01*
X139788453Y-95361145D01*
X139718089Y-95320226D01*
X139649990Y-95267791D01*
X139612516Y-95233870D01*
X139542324Y-95157839D01*
X139488144Y-95076233D01*
X139446477Y-94983573D01*
X139438859Y-94961807D01*
X139431481Y-94939281D01*
X139425606Y-94918926D01*
X139421031Y-94898161D01*
X139417553Y-94874407D01*
X139414969Y-94845084D01*
X139413076Y-94807611D01*
X139411671Y-94759407D01*
X139410550Y-94697893D01*
X139409510Y-94620489D01*
X139409056Y-94583250D01*
X139405432Y-94282846D01*
X139227092Y-94282846D01*
X139048752Y-94282846D01*
X139016377Y-94332809D01*
X138971272Y-94386466D01*
X138917612Y-94424384D01*
X138858149Y-94446758D01*
X138795638Y-94453782D01*
X138732829Y-94445650D01*
X138672476Y-94422559D01*
X138617331Y-94384701D01*
X138570148Y-94332273D01*
X138549940Y-94299810D01*
X138540027Y-94273854D01*
X138534533Y-94238291D01*
X138532750Y-94188396D01*
X138532745Y-94185154D01*
X138532749Y-94185044D01*
X138693769Y-94185044D01*
X138698282Y-94227331D01*
X138713497Y-94256883D01*
X138740418Y-94277870D01*
X138779073Y-94289164D01*
X138819110Y-94283156D01*
X138855217Y-94260898D01*
X138862288Y-94253723D01*
X138884317Y-94217188D01*
X138889889Y-94178737D01*
X138880752Y-94142471D01*
X138858652Y-94112492D01*
X138825338Y-94092900D01*
X138791461Y-94087461D01*
X138748943Y-94096018D01*
X138716699Y-94119732D01*
X138697667Y-94155670D01*
X138693769Y-94185044D01*
X138532749Y-94185044D01*
X138534562Y-94132668D01*
X138541623Y-94093148D01*
X138556350Y-94060227D01*
X138581163Y-94027537D01*
X138600537Y-94006783D01*
X138656884Y-93961345D01*
X138720935Y-93933622D01*
X138777808Y-93923726D01*
X138845597Y-93927605D01*
X138908535Y-93950079D01*
X138965582Y-93990580D01*
X139015698Y-94048540D01*
X139021180Y-94056615D01*
X139048058Y-94097230D01*
X139227490Y-94097230D01*
X139406923Y-94097230D01*
X139406923Y-93672269D01*
X139406923Y-93247307D01*
X139226536Y-93247307D01*
X139163073Y-93247383D01*
X139116353Y-93247823D01*
X139083578Y-93248949D01*
X139061952Y-93251080D01*
X139048679Y-93254536D01*
X139040962Y-93259639D01*
X139036004Y-93266708D01*
X139034622Y-93269288D01*
X138994854Y-93326332D01*
X138942894Y-93372387D01*
X138882689Y-93404959D01*
X138818182Y-93421550D01*
X138791461Y-93423154D01*
X138735206Y-93415300D01*
X138677076Y-93393983D01*
X138624281Y-93362567D01*
X138586525Y-93327521D01*
X138551558Y-93270715D01*
X138532580Y-93207367D01*
X138530306Y-93162109D01*
X138692167Y-93162109D01*
X138700930Y-93198635D01*
X138722395Y-93229471D01*
X138754744Y-93250344D01*
X138791461Y-93257077D01*
X138824771Y-93252958D01*
X138850986Y-93237499D01*
X138860597Y-93228520D01*
X138883987Y-93193591D01*
X138890743Y-93156090D01*
X138882608Y-93120085D01*
X138877569Y-93112879D01*
X139601809Y-93112879D01*
X139601848Y-93271128D01*
X139601977Y-93428724D01*
X139602197Y-93584407D01*
X139602506Y-93736918D01*
X139602905Y-93884997D01*
X139603393Y-94027386D01*
X139603970Y-94162824D01*
X139604636Y-94290053D01*
X139605389Y-94407813D01*
X139606231Y-94514845D01*
X139607160Y-94609889D01*
X139608177Y-94691687D01*
X139609280Y-94758978D01*
X139610470Y-94810504D01*
X139611747Y-94845004D01*
X139613103Y-94861192D01*
X139640906Y-94948596D01*
X139685110Y-95028308D01*
X139743503Y-95097971D01*
X139813873Y-95155231D01*
X139894007Y-95197729D01*
X139945253Y-95215001D01*
X139953564Y-95216678D01*
X139966036Y-95218223D01*
X139983440Y-95219641D01*
X140006549Y-95220937D01*
X140036136Y-95222118D01*
X140072974Y-95223188D01*
X140117836Y-95224154D01*
X140171494Y-95225021D01*
X140234721Y-95225795D01*
X140308291Y-95226481D01*
X140392975Y-95227084D01*
X140489547Y-95227611D01*
X140598780Y-95228067D01*
X140721446Y-95228458D01*
X140858318Y-95228788D01*
X141010169Y-95229064D01*
X141177771Y-95229292D01*
X141361899Y-95229476D01*
X141563323Y-95229623D01*
X141782818Y-95229738D01*
X141996438Y-95229818D01*
X142230662Y-95229883D01*
X142446145Y-95229917D01*
X142643682Y-95229915D01*
X142824071Y-95229870D01*
X142988108Y-95229777D01*
X143136590Y-95229630D01*
X143270314Y-95229423D01*
X143390075Y-95229150D01*
X143496671Y-95228807D01*
X143590898Y-95228385D01*
X143673554Y-95227881D01*
X143745434Y-95227288D01*
X143807336Y-95226600D01*
X143860055Y-95225812D01*
X143904389Y-95224918D01*
X143941134Y-95223911D01*
X143971088Y-95222787D01*
X143995045Y-95221539D01*
X144013804Y-95220162D01*
X144028161Y-95218649D01*
X144038912Y-95216995D01*
X144046855Y-95215195D01*
X144047977Y-95214876D01*
X144136218Y-95179578D01*
X144214832Y-95129373D01*
X144281842Y-95066373D01*
X144335271Y-94992688D01*
X144373143Y-94910431D01*
X144389028Y-94850528D01*
X144390489Y-94832789D01*
X144391838Y-94795676D01*
X144393073Y-94739350D01*
X144394195Y-94663974D01*
X144395202Y-94569712D01*
X144396092Y-94456725D01*
X144396866Y-94325178D01*
X144397452Y-94191324D01*
X145104340Y-94191324D01*
X145106301Y-94207851D01*
X145121584Y-94243728D01*
X145149361Y-94273755D01*
X145170769Y-94286164D01*
X145195709Y-94289416D01*
X145227523Y-94285978D01*
X145255705Y-94277446D01*
X145265092Y-94271819D01*
X145290920Y-94240237D01*
X145302712Y-94203473D01*
X145301627Y-94165763D01*
X145288823Y-94131342D01*
X145265458Y-94104445D01*
X145232689Y-94089309D01*
X145214689Y-94087461D01*
X145168351Y-94095269D01*
X145132933Y-94116937D01*
X145110806Y-94149833D01*
X145104340Y-94191324D01*
X144397452Y-94191324D01*
X144397522Y-94175232D01*
X144398059Y-94007051D01*
X144398476Y-93820797D01*
X144398773Y-93616634D01*
X144398947Y-93394723D01*
X144398998Y-93181819D01*
X145103314Y-93181819D01*
X145108554Y-93201862D01*
X145123836Y-93221307D01*
X145129723Y-93227302D01*
X145166301Y-93251644D01*
X145206758Y-93257941D01*
X145247115Y-93246037D01*
X145266645Y-93232682D01*
X145294740Y-93198900D01*
X145303941Y-93160322D01*
X145297708Y-93125009D01*
X145276836Y-93089506D01*
X145242888Y-93068184D01*
X145200965Y-93061692D01*
X145158106Y-93069548D01*
X145127226Y-93092712D01*
X145108974Y-93130573D01*
X145105090Y-93151913D01*
X145103314Y-93181819D01*
X144398998Y-93181819D01*
X144399000Y-93174757D01*
X144399011Y-92962378D01*
X144399027Y-92768632D01*
X144399019Y-92592612D01*
X144398957Y-92433414D01*
X144398814Y-92290131D01*
X144398561Y-92161858D01*
X144398508Y-92146478D01*
X145104540Y-92146478D01*
X145116615Y-92184224D01*
X145136160Y-92209004D01*
X145168383Y-92225714D01*
X145208066Y-92231470D01*
X145246545Y-92225785D01*
X145266001Y-92216300D01*
X145289764Y-92188663D01*
X145301610Y-92151067D01*
X145300061Y-92110074D01*
X145294191Y-92091275D01*
X145271053Y-92058033D01*
X145238101Y-92038303D01*
X145200101Y-92032591D01*
X145161823Y-92041404D01*
X145128033Y-92065251D01*
X145121414Y-92072894D01*
X145105882Y-92106983D01*
X145104540Y-92146478D01*
X144398508Y-92146478D01*
X144398169Y-92047689D01*
X144397609Y-91946717D01*
X144396854Y-91858038D01*
X144395874Y-91780746D01*
X144394641Y-91713934D01*
X144393125Y-91656698D01*
X144391300Y-91608130D01*
X144389136Y-91567326D01*
X144386604Y-91533380D01*
X144383675Y-91505386D01*
X144380322Y-91482439D01*
X144376516Y-91463631D01*
X144372227Y-91448059D01*
X144367428Y-91434815D01*
X144362090Y-91422994D01*
X144356183Y-91411691D01*
X144349681Y-91400000D01*
X144342553Y-91387014D01*
X144342546Y-91387000D01*
X144298539Y-91322287D01*
X144239957Y-91262406D01*
X144171761Y-91211964D01*
X144128475Y-91188232D01*
X144052192Y-91151807D01*
X142025077Y-91148925D01*
X141789694Y-91148599D01*
X141573050Y-91148321D01*
X141374345Y-91148096D01*
X141192778Y-91147929D01*
X141027550Y-91147825D01*
X140877861Y-91147790D01*
X140742910Y-91147828D01*
X140621898Y-91147945D01*
X140514026Y-91148146D01*
X140418492Y-91148436D01*
X140334497Y-91148819D01*
X140261241Y-91149302D01*
X140197925Y-91149889D01*
X140143748Y-91150585D01*
X140097910Y-91151396D01*
X140059611Y-91152327D01*
X140028052Y-91153382D01*
X140002433Y-91154567D01*
X139981953Y-91155887D01*
X139965812Y-91157348D01*
X139953212Y-91158953D01*
X139943351Y-91160709D01*
X139936622Y-91162298D01*
X139856721Y-91193224D01*
X139783593Y-91240478D01*
X139719741Y-91301320D01*
X139667669Y-91373011D01*
X139629882Y-91452813D01*
X139612279Y-91517087D01*
X139610925Y-91534016D01*
X139609666Y-91569181D01*
X139608502Y-91621324D01*
X139607432Y-91689185D01*
X139606456Y-91771505D01*
X139605575Y-91867024D01*
X139604786Y-91974484D01*
X139604091Y-92092624D01*
X139603489Y-92220185D01*
X139602979Y-92355909D01*
X139602562Y-92498535D01*
X139602236Y-92646804D01*
X139602003Y-92799457D01*
X139601860Y-92955235D01*
X139601809Y-93112879D01*
X138877569Y-93112879D01*
X138861323Y-93089644D01*
X138828631Y-93068835D01*
X138789156Y-93061692D01*
X138756501Y-93064919D01*
X138732717Y-93077238D01*
X138720020Y-93089092D01*
X138697924Y-93124170D01*
X138692167Y-93162109D01*
X138530306Y-93162109D01*
X138529262Y-93141327D01*
X138541279Y-93076445D01*
X138568303Y-93016570D01*
X138610006Y-92965553D01*
X138617866Y-92958600D01*
X138677300Y-92919768D01*
X138742106Y-92897582D01*
X138808832Y-92892531D01*
X138874023Y-92905102D01*
X138904738Y-92918034D01*
X138942316Y-92941669D01*
X138978770Y-92972334D01*
X139009065Y-93005102D01*
X139028166Y-93035047D01*
X139030465Y-93041074D01*
X139033474Y-93048247D01*
X139039077Y-93053529D01*
X139049958Y-93057209D01*
X139068802Y-93059576D01*
X139098294Y-93060918D01*
X139141120Y-93061526D01*
X139199963Y-93061687D01*
X139221966Y-93061692D01*
X139406923Y-93061692D01*
X139406923Y-92641615D01*
X139406923Y-92221538D01*
X139227120Y-92221538D01*
X139047318Y-92221538D01*
X139022158Y-92264470D01*
X138978065Y-92322139D01*
X138924031Y-92364049D01*
X138862629Y-92389437D01*
X138796431Y-92397536D01*
X138728012Y-92387583D01*
X138675931Y-92367384D01*
X138614248Y-92327260D01*
X138569114Y-92276763D01*
X138540474Y-92215803D01*
X138528275Y-92144292D01*
X138527819Y-92125851D01*
X138692440Y-92125851D01*
X138697122Y-92165038D01*
X138716789Y-92200367D01*
X138720020Y-92203907D01*
X138754123Y-92226725D01*
X138793391Y-92233022D01*
X138832623Y-92222840D01*
X138860597Y-92202751D01*
X138884052Y-92166895D01*
X138889904Y-92126680D01*
X138878018Y-92086497D01*
X138864759Y-92067046D01*
X138830977Y-92038952D01*
X138792399Y-92029751D01*
X138757085Y-92035983D01*
X138723544Y-92056239D01*
X138701622Y-92087890D01*
X138692440Y-92125851D01*
X138527819Y-92125851D01*
X138527787Y-92124548D01*
X138537122Y-92060781D01*
X138562953Y-92001040D01*
X138602361Y-91948252D01*
X138652428Y-91905344D01*
X138710235Y-91875245D01*
X138772863Y-91860881D01*
X138791461Y-91860077D01*
X138844648Y-91868257D01*
X138900713Y-91890482D01*
X138953877Y-91923281D01*
X138998365Y-91963182D01*
X139025326Y-92000615D01*
X139038994Y-92026154D01*
X139222958Y-92026154D01*
X139406923Y-92026154D01*
X139407092Y-91784365D01*
X139407579Y-91692520D01*
X139409224Y-91617090D01*
X139412520Y-91554963D01*
X139417957Y-91503027D01*
X139426028Y-91458171D01*
X139437224Y-91417282D01*
X139452036Y-91377249D01*
X139470956Y-91334959D01*
X139481509Y-91313212D01*
X139507433Y-91264034D01*
X139533285Y-91223878D01*
X139564129Y-91185789D01*
X139605028Y-91142809D01*
X139606941Y-91140893D01*
X139648611Y-91100875D01*
X139684511Y-91071170D01*
X139721281Y-91047000D01*
X139765558Y-91023586D01*
X139778813Y-91017179D01*
X139823106Y-90997124D01*
X139866390Y-90979389D01*
X139902262Y-90966517D01*
X139916806Y-90962363D01*
X139941495Y-90958991D01*
X139983471Y-90956153D01*
X140040492Y-90953925D01*
X140110312Y-90952386D01*
X140190687Y-90951614D01*
X140226980Y-90951538D01*
X140491307Y-90951538D01*
X140491307Y-90762919D01*
X140491307Y-90574299D01*
X140448753Y-90544304D01*
X140393472Y-90494880D01*
X140354419Y-90437575D01*
X140331954Y-90375036D01*
X140328039Y-90328822D01*
X140490495Y-90328822D01*
X140498095Y-90365072D01*
X140518275Y-90395873D01*
X140549332Y-90416930D01*
X140586074Y-90424000D01*
X140617004Y-90420033D01*
X140643050Y-90410326D01*
X140645497Y-90408753D01*
X140671560Y-90382076D01*
X140688505Y-90348356D01*
X140692868Y-90315144D01*
X140691675Y-90308159D01*
X140673552Y-90269545D01*
X140643980Y-90242769D01*
X140607482Y-90229174D01*
X140568581Y-90230103D01*
X140531800Y-90246897D01*
X140519864Y-90257171D01*
X140497183Y-90291423D01*
X140490495Y-90328822D01*
X140328039Y-90328822D01*
X140326437Y-90309911D01*
X140338226Y-90244847D01*
X140367682Y-90182491D01*
X140394760Y-90146595D01*
X140448588Y-90098579D01*
X140508699Y-90067829D01*
X140572430Y-90054559D01*
X140637123Y-90058981D01*
X140700116Y-90081311D01*
X140754093Y-90117693D01*
X140801943Y-90169463D01*
X140832441Y-90228800D01*
X140846454Y-90297638D01*
X140847637Y-90326307D01*
X140846618Y-90368263D01*
X140841944Y-90399101D01*
X140831695Y-90427165D01*
X140818575Y-90452531D01*
X140797018Y-90484144D01*
X140768800Y-90515783D01*
X140738376Y-90543392D01*
X140710206Y-90562916D01*
X140689134Y-90570296D01*
X140684707Y-90575037D01*
X140681406Y-90590366D01*
X140679108Y-90618240D01*
X140677687Y-90660616D01*
X140677016Y-90719452D01*
X140676923Y-90761038D01*
X140676923Y-90951538D01*
X141077461Y-90951538D01*
X141478000Y-90951538D01*
X141478000Y-90762223D01*
X141478000Y-90572909D01*
X141447394Y-90560231D01*
X141394574Y-90528134D01*
X141351333Y-90479365D01*
X141333669Y-90449592D01*
X141314176Y-90395736D01*
X141306099Y-90335090D01*
X141307145Y-90316841D01*
X141469336Y-90316841D01*
X141473554Y-90351605D01*
X141496270Y-90385420D01*
X141501446Y-90390784D01*
X141538434Y-90417329D01*
X141576418Y-90424487D01*
X141614587Y-90412210D01*
X141633226Y-90398988D01*
X141660524Y-90364931D01*
X141670512Y-90325496D01*
X141662291Y-90284782D01*
X141659494Y-90278938D01*
X141636968Y-90248242D01*
X141606536Y-90232426D01*
X141570807Y-90228615D01*
X141529499Y-90234071D01*
X141500442Y-90252093D01*
X141482985Y-90277266D01*
X141469336Y-90316841D01*
X141307145Y-90316841D01*
X141309565Y-90274621D01*
X141324702Y-90221296D01*
X141329305Y-90211791D01*
X141372122Y-90147946D01*
X141423237Y-90100096D01*
X141480422Y-90068649D01*
X141541444Y-90054012D01*
X141604073Y-90056592D01*
X141666079Y-90076797D01*
X141725229Y-90115035D01*
X141747520Y-90135400D01*
X141792936Y-90191726D01*
X141819649Y-90251973D01*
X141828391Y-90318079D01*
X141827112Y-90345614D01*
X141821159Y-90383611D01*
X141811524Y-90419246D01*
X141805262Y-90434627D01*
X141782655Y-90469759D01*
X141751333Y-90506507D01*
X141717468Y-90538297D01*
X141690480Y-90556940D01*
X141663615Y-90571040D01*
X141663615Y-90761289D01*
X141663615Y-90951538D01*
X142054384Y-90951538D01*
X142445154Y-90951538D01*
X142445154Y-90763260D01*
X142445154Y-90574981D01*
X142409931Y-90556012D01*
X142360686Y-90518983D01*
X142320987Y-90468102D01*
X142293256Y-90407709D01*
X142279913Y-90342144D01*
X142279275Y-90326307D01*
X142440713Y-90326307D01*
X142449062Y-90366171D01*
X142471234Y-90397022D01*
X142502918Y-90417119D01*
X142539804Y-90424723D01*
X142577580Y-90418093D01*
X142611936Y-90395489D01*
X142611982Y-90395443D01*
X142634981Y-90360823D01*
X142641649Y-90323276D01*
X142633723Y-90287046D01*
X142612937Y-90256376D01*
X142581027Y-90235508D01*
X142543751Y-90228615D01*
X142500648Y-90236937D01*
X142466965Y-90259797D01*
X142446038Y-90294033D01*
X142440713Y-90326307D01*
X142279275Y-90326307D01*
X142279077Y-90321390D01*
X142288487Y-90255789D01*
X142315292Y-90193282D01*
X142357350Y-90137365D01*
X142412523Y-90091540D01*
X142423993Y-90084450D01*
X142451957Y-90069853D01*
X142478373Y-90061720D01*
X142510948Y-90058325D01*
X142542846Y-90057847D01*
X142596332Y-90060681D01*
X142634554Y-90069244D01*
X142647733Y-90075126D01*
X142708150Y-90117556D01*
X142754908Y-90170728D01*
X142786705Y-90231777D01*
X142802241Y-90297837D01*
X142800215Y-90366041D01*
X142793403Y-90396061D01*
X142768371Y-90452263D01*
X142728852Y-90505383D01*
X142679654Y-90549249D01*
X142668203Y-90556921D01*
X142630340Y-90580823D01*
X142632997Y-90763738D01*
X142635654Y-90946654D01*
X143019096Y-90949209D01*
X143402538Y-90951765D01*
X143402538Y-90762720D01*
X143402477Y-90697581D01*
X143402091Y-90649277D01*
X143401078Y-90615104D01*
X143399137Y-90592360D01*
X143395967Y-90578339D01*
X143391263Y-90570339D01*
X143384726Y-90565656D01*
X143380293Y-90563539D01*
X143330558Y-90530690D01*
X143289115Y-90483094D01*
X143258438Y-90424659D01*
X143241001Y-90359290D01*
X143238822Y-90340202D01*
X143239586Y-90326307D01*
X143402538Y-90326307D01*
X143410858Y-90366622D01*
X143432961Y-90397900D01*
X143464560Y-90418141D01*
X143501369Y-90425346D01*
X143539103Y-90417516D01*
X143564147Y-90401697D01*
X143584035Y-90376893D01*
X143594124Y-90342163D01*
X143595217Y-90333778D01*
X143596993Y-90303873D01*
X143591753Y-90283830D01*
X143576471Y-90264384D01*
X143570584Y-90258389D01*
X143535439Y-90234729D01*
X143497635Y-90227505D01*
X143461310Y-90235047D01*
X143430601Y-90255682D01*
X143409646Y-90287737D01*
X143402538Y-90326307D01*
X143239586Y-90326307D01*
X143242362Y-90275853D01*
X143261801Y-90215674D01*
X143294549Y-90161827D01*
X143338015Y-90116476D01*
X143389607Y-90081784D01*
X143446733Y-90059915D01*
X143506803Y-90053030D01*
X143567225Y-90063294D01*
G37*
D12*
%TO.C,C3*%
X145032000Y-115683420D02*
X145032000Y-115964580D01*
X146052000Y-115683420D02*
X146052000Y-115964580D01*
%TO.C,U2*%
X153380000Y-116438000D02*
X153430000Y-116438000D01*
X153380000Y-118258000D02*
X153380000Y-116438000D01*
X153430000Y-118258000D02*
X153380000Y-118258000D01*
X155330000Y-118258000D02*
X154550000Y-118258000D01*
X156450000Y-116438000D02*
X156500000Y-116438000D01*
X156500000Y-116438000D02*
X156500000Y-118258000D01*
X156500000Y-118258000D02*
X156450000Y-118258000D01*
X156780000Y-116138000D02*
X156450000Y-115898000D01*
X156780000Y-115658000D01*
X156780000Y-116138000D01*
G36*
X156780000Y-116138000D02*
G01*
X156450000Y-115898000D01*
X156780000Y-115658000D01*
X156780000Y-116138000D01*
G37*
%TO.C,C1*%
X146585000Y-116339252D02*
X146585000Y-115816748D01*
X148055000Y-116339252D02*
X148055000Y-115816748D01*
%TO.C,R1*%
X142352500Y-120887258D02*
X142352500Y-120412742D01*
X143397500Y-120887258D02*
X143397500Y-120412742D01*
%TO.C,C13*%
X153668000Y-104534580D02*
X153668000Y-104253420D01*
X154688000Y-104534580D02*
X154688000Y-104253420D01*
%TO.C,C10*%
X156716000Y-101205420D02*
X156716000Y-101486580D01*
X157736000Y-101205420D02*
X157736000Y-101486580D01*
%TD*%
%LPC*%
D15*
%TO.C,D6*%
X160656000Y-120015000D03*
X163956000Y-120015000D03*
%TD*%
D16*
%TO.C,R3*%
X140462000Y-116141000D03*
X140462000Y-114491000D03*
%TD*%
D17*
%TO.C,C7*%
X141986000Y-108445000D03*
X141986000Y-109995000D03*
%TD*%
D18*
%TO.C,D4*%
X155702000Y-107721500D03*
X155702000Y-106146500D03*
%TD*%
D19*
%TO.C,R8*%
X158750000Y-109157000D03*
X158750000Y-110807000D03*
%TD*%
D16*
%TO.C,R9*%
X157480000Y-121729000D03*
X157480000Y-120079000D03*
%TD*%
D20*
%TO.C,H1*%
X135580000Y-114300000D03*
%TD*%
D19*
%TO.C,R11*%
X178308000Y-121730000D03*
X178308000Y-123380000D03*
%TD*%
D21*
%TO.C,U4*%
X170313500Y-117205000D03*
X170313500Y-116705000D03*
D22*
X170276000Y-116205000D03*
D21*
X170313500Y-115705000D03*
X170313500Y-115205000D03*
X169538500Y-115205000D03*
X169538500Y-115705000D03*
D23*
X169513500Y-116205000D03*
D21*
X169538500Y-116705000D03*
X169538500Y-117205000D03*
%TD*%
D24*
%TO.C,F1*%
X141100000Y-120650000D03*
X138300000Y-120650000D03*
%TD*%
D25*
%TO.C,C14*%
X176530000Y-102121000D03*
X176530000Y-100571000D03*
%TD*%
D26*
%TO.C,R5*%
X155765000Y-114046000D03*
X154115000Y-114046000D03*
%TD*%
D27*
%TO.C,J1*%
X139700000Y-124460000D03*
D28*
X141700000Y-124460000D03*
X143700000Y-124460000D03*
X145700000Y-124460000D03*
%TD*%
D29*
%TO.C,D3*%
X158775500Y-112522000D03*
X157200500Y-112522000D03*
%TD*%
D30*
%TO.C,J3*%
X169195000Y-119950000D03*
X174975000Y-119950000D03*
D31*
X168885000Y-118875000D03*
X169685000Y-118875000D03*
D32*
X170835000Y-118875000D03*
X171835000Y-118875000D03*
X172335000Y-118875000D03*
X173335000Y-118875000D03*
D31*
X174485000Y-118875000D03*
X175285000Y-118875000D03*
X175285000Y-118875000D03*
X174485000Y-118875000D03*
D32*
X173835000Y-118875000D03*
X172835000Y-118875000D03*
X171335000Y-118875000D03*
X170335000Y-118875000D03*
D31*
X169685000Y-118875000D03*
X168885000Y-118875000D03*
D33*
X167765000Y-119450000D03*
D34*
X167765000Y-123630000D03*
D33*
X176405000Y-119450000D03*
D34*
X176405000Y-123630000D03*
%TD*%
D16*
%TO.C,R15*%
X155702000Y-102171000D03*
X155702000Y-100521000D03*
%TD*%
D15*
%TO.C,D2*%
X160656000Y-117602000D03*
X163956000Y-117602000D03*
%TD*%
D20*
%TO.C,H2*%
X178980000Y-114300000D03*
%TD*%
D19*
%TO.C,R10*%
X165862000Y-121730000D03*
X165862000Y-123380000D03*
%TD*%
D35*
%TO.C,C2*%
X149098000Y-120081000D03*
X149098000Y-121981000D03*
%TD*%
D26*
%TO.C,R2*%
X144335000Y-118364000D03*
X142685000Y-118364000D03*
%TD*%
D36*
%TO.C,L1*%
X145034000Y-111167000D03*
X145034000Y-108797000D03*
%TD*%
D26*
%TO.C,R12*%
X158813000Y-114046000D03*
X157163000Y-114046000D03*
%TD*%
D17*
%TO.C,C12*%
X159004000Y-120129000D03*
X159004000Y-121679000D03*
%TD*%
D37*
%TO.C,Q1*%
X144912500Y-119700000D03*
X144912500Y-121600000D03*
X147187500Y-120650000D03*
%TD*%
D38*
%TO.C,D5*%
X157226000Y-106146500D03*
X157226000Y-107721500D03*
%TD*%
D39*
%TO.C,R7*%
X157163000Y-115570000D03*
X158813000Y-115570000D03*
%TD*%
D40*
%TO.C,C9*%
X153350000Y-110744000D03*
X151450000Y-110744000D03*
%TD*%
D17*
%TO.C,C4*%
X141986000Y-111493000D03*
X141986000Y-113043000D03*
%TD*%
D19*
%TO.C,R14*%
X158750000Y-106109000D03*
X158750000Y-107759000D03*
%TD*%
D25*
%TO.C,C15*%
X142748000Y-104153000D03*
X142748000Y-102603000D03*
%TD*%
D41*
%TO.C,U1*%
X142264000Y-116395000D03*
D42*
X142089500Y-116220000D03*
D43*
X142752000Y-116470000D03*
D44*
X143252000Y-116470001D03*
D45*
X143740000Y-116420000D03*
D46*
X143915000Y-116245000D03*
D47*
X143915000Y-114895000D03*
D48*
X143740000Y-114720000D03*
D43*
X143252000Y-114670000D03*
D44*
X142752000Y-114669999D03*
D49*
X142089500Y-114920000D03*
D50*
X142264000Y-114745000D03*
D51*
X142452000Y-115570000D03*
%TD*%
D27*
%TO.C,J2*%
X153035000Y-124460000D03*
D28*
X155035000Y-124460000D03*
X157035000Y-124460000D03*
X159035000Y-124460000D03*
X161035000Y-124460000D03*
%TD*%
D25*
%TO.C,C11*%
X158750000Y-102121000D03*
X158750000Y-100571000D03*
%TD*%
D52*
%TO.C,C5*%
X143497000Y-113030000D03*
X145047000Y-113030000D03*
%TD*%
D19*
%TO.C,R4*%
X140462000Y-111443000D03*
X140462000Y-113093000D03*
%TD*%
%TO.C,R6*%
X157226000Y-109157000D03*
X157226000Y-110807000D03*
%TD*%
D17*
%TO.C,C8*%
X157480000Y-117081000D03*
X157480000Y-118631000D03*
%TD*%
D53*
%TO.C,SW1*%
X152316000Y-104453000D03*
X148166000Y-104453000D03*
X152316000Y-102303000D03*
X148191000Y-102303000D03*
%TD*%
D54*
%TO.C,D1*%
X150114000Y-113824000D03*
X150114000Y-117824000D03*
%TD*%
D26*
%TO.C,R13*%
X158813000Y-104648000D03*
X157163000Y-104648000D03*
%TD*%
D55*
%TO.C,FB1*%
X151600000Y-108712000D03*
X153200000Y-108712000D03*
%TD*%
D16*
%TO.C,R16*%
X154178000Y-102171000D03*
X154178000Y-100521000D03*
%TD*%
D53*
%TO.C,SW2*%
X141140000Y-104453000D03*
X136990000Y-104453000D03*
X141140000Y-102303000D03*
X137015000Y-102303000D03*
%TD*%
D56*
%TO.C,C6*%
X149098000Y-108507000D03*
X149098000Y-111457000D03*
%TD*%
D57*
%TO.C,U3*%
X160640000Y-100730000D03*
X160640000Y-101580000D03*
X160640000Y-102430000D03*
X160640000Y-103280000D03*
X160640000Y-104130000D03*
X160640000Y-104980000D03*
X160640000Y-105830000D03*
X160640000Y-106680000D03*
X160640000Y-107530000D03*
X160640000Y-108380000D03*
X160640000Y-109230000D03*
X160640000Y-110080000D03*
X160640000Y-110930000D03*
X160640000Y-111780000D03*
X160640000Y-112630000D03*
D58*
X161690000Y-113680000D03*
X162540000Y-113680000D03*
X163390000Y-113680000D03*
X164240000Y-113680000D03*
X165090000Y-113680000D03*
X165940000Y-113680000D03*
X166790000Y-113680000D03*
X167640000Y-113680000D03*
X168490000Y-113680000D03*
X169340000Y-113680000D03*
X170190000Y-113680000D03*
X171040000Y-113680000D03*
X171890000Y-113680000D03*
X172740000Y-113680000D03*
X173590000Y-113680000D03*
D57*
X174640000Y-112630000D03*
X174640000Y-111780000D03*
X174640000Y-110930000D03*
X174640000Y-110080000D03*
X174640000Y-109230000D03*
X174640000Y-108380000D03*
X174640000Y-107530000D03*
X174640000Y-106680000D03*
X174640000Y-105830000D03*
X174640000Y-104980000D03*
X174640000Y-104130000D03*
X174640000Y-103280000D03*
X174640000Y-102430000D03*
X174640000Y-101580000D03*
X174640000Y-100730000D03*
D58*
X173590000Y-99680000D03*
X172740000Y-99680000D03*
X171890000Y-99680000D03*
X171040000Y-99680000D03*
X170190000Y-99680000D03*
X169340000Y-99680000D03*
X168490000Y-99680000D03*
X167640000Y-99680000D03*
X166790000Y-99680000D03*
X165940000Y-99680000D03*
X165090000Y-99680000D03*
X164240000Y-99680000D03*
X163390000Y-99680000D03*
X162540000Y-99680000D03*
X161690000Y-99680000D03*
D59*
X165990000Y-105030000D03*
D60*
X165990000Y-106680000D03*
X165990000Y-108330000D03*
X167640000Y-105030000D03*
X167640000Y-106680000D03*
X167640000Y-108330000D03*
X169290000Y-105030000D03*
X169290000Y-106680000D03*
X169290000Y-108330000D03*
D61*
X160640000Y-99680000D03*
X160640000Y-113680000D03*
X174640000Y-113680000D03*
X174640000Y-99680000D03*
%TD*%
D17*
%TO.C,C3*%
X145542000Y-115049000D03*
X145542000Y-116599000D03*
%TD*%
D62*
%TO.C,U2*%
X155890000Y-116210500D03*
X154940000Y-116210500D03*
X153990000Y-116210500D03*
X153990000Y-118485500D03*
X155890000Y-118485500D03*
%TD*%
D63*
%TO.C,C1*%
X147320000Y-117028000D03*
X147320000Y-115128000D03*
%TD*%
D16*
%TO.C,R1*%
X142875000Y-121475000D03*
X142875000Y-119825000D03*
%TD*%
D25*
%TO.C,C13*%
X154178000Y-105169000D03*
X154178000Y-103619000D03*
%TD*%
D17*
%TO.C,C10*%
X157226000Y-100571000D03*
X157226000Y-102121000D03*
%TD*%
%LPD*%
M02*
