%TF.GenerationSoftware,KiCad,Pcbnew,9.0.6*%
%TF.CreationDate,2025-11-20T15:59:52+01:00*%
%TF.ProjectId,N57__ldruckanzeige,4e35375f-d66c-4647-9275-636b616e7a65,rev?*%
%TF.SameCoordinates,Original*%
%TF.FileFunction,Soldermask,Top*%
%TF.FilePolarity,Negative*%
%FSLAX46Y46*%
G04 Gerber Fmt 4.6, Leading zero omitted, Abs format (unit mm)*
G04 Created by KiCad (PCBNEW 9.0.6) date 2025-11-20 15:59:52*
%MOMM*%
%LPD*%
G01*
G04 APERTURE LIST*
G04 Aperture macros list*
%AMRoundRect*
0 Rectangle with rounded corners*
0 $1 Rounding radius*
0 $2 $3 $4 $5 $6 $7 $8 $9 X,Y pos of 4 corners*
0 Add a 4 corners polygon primitive as box body*
4,1,4,$2,$3,$4,$5,$6,$7,$8,$9,$2,$3,0*
0 Add four circle primitives for the rounded corners*
1,1,$1+$1,$2,$3*
1,1,$1+$1,$4,$5*
1,1,$1+$1,$6,$7*
1,1,$1+$1,$8,$9*
0 Add four rect primitives between the rounded corners*
20,1,$1+$1,$2,$3,$4,$5,0*
20,1,$1+$1,$4,$5,$6,$7,0*
20,1,$1+$1,$6,$7,$8,$9,0*
20,1,$1+$1,$8,$9,$2,$3,0*%
%AMOutline5P*
0 Free polygon, 5 corners , with rotation*
0 The origin of the aperture is its center*
0 number of corners: always 5*
0 $1 to $10 corner X, Y*
0 $11 Rotation angle, in degrees counterclockwise*
0 create outline with 5 corners*
4,1,5,$1,$2,$3,$4,$5,$6,$7,$8,$9,$10,$1,$2,$11*%
%AMOutline6P*
0 Free polygon, 6 corners , with rotation*
0 The origin of the aperture is its center*
0 number of corners: always 6*
0 $1 to $12 corner X, Y*
0 $13 Rotation angle, in degrees counterclockwise*
0 create outline with 6 corners*
4,1,6,$1,$2,$3,$4,$5,$6,$7,$8,$9,$10,$11,$12,$1,$2,$13*%
%AMOutline7P*
0 Free polygon, 7 corners , with rotation*
0 The origin of the aperture is its center*
0 number of corners: always 7*
0 $1 to $14 corner X, Y*
0 $15 Rotation angle, in degrees counterclockwise*
0 create outline with 7 corners*
4,1,7,$1,$2,$3,$4,$5,$6,$7,$8,$9,$10,$11,$12,$13,$14,$1,$2,$15*%
%AMOutline8P*
0 Free polygon, 8 corners , with rotation*
0 The origin of the aperture is its center*
0 number of corners: always 8*
0 $1 to $16 corner X, Y*
0 $17 Rotation angle, in degrees counterclockwise*
0 create outline with 8 corners*
4,1,8,$1,$2,$3,$4,$5,$6,$7,$8,$9,$10,$11,$12,$13,$14,$15,$16,$1,$2,$17*%
G04 Aperture macros list end*
%ADD10RoundRect,0.225000X-0.225000X-0.375000X0.225000X-0.375000X0.225000X0.375000X-0.225000X0.375000X0*%
%ADD11RoundRect,0.200000X0.275000X-0.200000X0.275000X0.200000X-0.275000X0.200000X-0.275000X-0.200000X0*%
%ADD12RoundRect,0.225000X-0.250000X0.225000X-0.250000X-0.225000X0.250000X-0.225000X0.250000X0.225000X0*%
%ADD13RoundRect,0.218750X0.256250X-0.218750X0.256250X0.218750X-0.256250X0.218750X-0.256250X-0.218750X0*%
%ADD14RoundRect,0.200000X-0.275000X0.200000X-0.275000X-0.200000X0.275000X-0.200000X0.275000X0.200000X0*%
%ADD15C,5.700000*%
%ADD16R,0.625000X0.250000*%
%ADD17R,0.700000X0.450000*%
%ADD18R,0.575000X0.450000*%
%ADD19RoundRect,0.250000X0.375000X1.075000X-0.375000X1.075000X-0.375000X-1.075000X0.375000X-1.075000X0*%
%ADD20RoundRect,0.225000X0.250000X-0.225000X0.250000X0.225000X-0.250000X0.225000X-0.250000X-0.225000X0*%
%ADD21RoundRect,0.200000X0.200000X0.275000X-0.200000X0.275000X-0.200000X-0.275000X0.200000X-0.275000X0*%
%ADD22RoundRect,0.250000X-0.350000X-0.625000X0.350000X-0.625000X0.350000X0.625000X-0.350000X0.625000X0*%
%ADD23O,1.200000X1.750000*%
%ADD24RoundRect,0.218750X0.218750X0.256250X-0.218750X0.256250X-0.218750X-0.256250X0.218750X-0.256250X0*%
%ADD25RoundRect,0.150000X-0.150000X-0.425000X0.150000X-0.425000X0.150000X0.425000X-0.150000X0.425000X0*%
%ADD26RoundRect,0.075000X-0.075000X-0.500000X0.075000X-0.500000X0.075000X0.500000X-0.075000X0.500000X0*%
%ADD27O,1.000000X2.100000*%
%ADD28O,1.000000X1.800000*%
%ADD29RoundRect,0.250000X-0.475000X0.250000X-0.475000X-0.250000X0.475000X-0.250000X0.475000X0.250000X0*%
%ADD30R,3.400000X0.980000*%
%ADD31RoundRect,0.150000X-0.512500X-0.150000X0.512500X-0.150000X0.512500X0.150000X-0.512500X0.150000X0*%
%ADD32RoundRect,0.218750X-0.256250X0.218750X-0.256250X-0.218750X0.256250X-0.218750X0.256250X0.218750X0*%
%ADD33RoundRect,0.200000X-0.200000X-0.275000X0.200000X-0.275000X0.200000X0.275000X-0.200000X0.275000X0*%
%ADD34RoundRect,0.250000X0.250000X0.475000X-0.250000X0.475000X-0.250000X-0.475000X0.250000X-0.475000X0*%
%ADD35Outline7P,-0.375000X0.078750X-0.341250X0.112500X0.375000X0.112500X0.375000X-0.078750X0.341250X-0.112500X-0.341250X-0.112500X-0.375000X-0.078750X90.000000*%
%ADD36Outline7P,-0.200000X0.247500X-0.160000X0.287500X0.160000X0.287500X0.200000X0.247500X0.200000X-0.247500X0.160000X-0.287500X-0.200000X-0.287500X90.000000*%
%ADD37R,0.250000X0.600000*%
%ADD38R,0.249999X0.599999*%
%ADD39Outline7P,-0.350000X0.078750X-0.316250X0.112500X0.316250X0.112500X0.350000X0.078750X0.350000X-0.112500X-0.316250X-0.112500X-0.350000X-0.078750X90.000000*%
%ADD40Outline7P,-0.175000X0.287500X0.140000X0.287500X0.175000X0.252500X0.175000X-0.252500X0.140000X-0.287500X-0.140000X-0.287500X-0.175000X-0.252500X90.000000*%
%ADD41Outline7P,-0.175000X0.252500X-0.140000X0.287500X0.175000X0.287500X0.175000X-0.252500X0.140000X-0.287500X-0.140000X-0.287500X-0.175000X-0.252500X90.000000*%
%ADD42Outline7P,-0.350000X0.078750X-0.316250X0.112500X0.316250X0.112500X0.350000X0.078750X0.350000X-0.078750X0.316250X-0.112500X-0.350000X-0.112500X90.000000*%
%ADD43Outline7P,-0.200000X0.247500X-0.160000X0.287500X0.160000X0.287500X0.200000X0.247500X0.200000X-0.287500X-0.160000X-0.287500X-0.200000X-0.247500X90.000000*%
%ADD44Outline7P,-0.375000X0.112500X0.341250X0.112500X0.375000X0.078750X0.375000X-0.078750X0.341250X-0.112500X-0.341250X-0.112500X-0.375000X-0.078750X90.000000*%
%ADD45R,1.300000X0.350000*%
%ADD46RoundRect,0.225000X-0.225000X-0.250000X0.225000X-0.250000X0.225000X0.250000X-0.225000X0.250000X0*%
%ADD47R,1.050000X0.650000*%
%ADD48RoundRect,0.250000X-0.650000X1.000000X-0.650000X-1.000000X0.650000X-1.000000X0.650000X1.000000X0*%
%ADD49RoundRect,0.250000X-0.350000X-0.550000X0.350000X-0.550000X0.350000X0.550000X-0.350000X0.550000X0*%
%ADD50RoundRect,0.250000X-1.100000X0.325000X-1.100000X-0.325000X1.100000X-0.325000X1.100000X0.325000X0*%
%ADD51R,0.800000X0.400000*%
%ADD52R,0.400000X0.800000*%
%ADD53Outline5P,-0.600000X0.204000X-0.204000X0.600000X0.600000X0.600000X0.600000X-0.600000X-0.600000X-0.600000X0.000000*%
%ADD54R,1.200000X1.200000*%
%ADD55R,0.800000X0.800000*%
%ADD56RoundRect,0.150000X-0.150000X0.512500X-0.150000X-0.512500X0.150000X-0.512500X0.150000X0.512500X0*%
%ADD57RoundRect,0.250000X0.475000X-0.250000X0.475000X0.250000X-0.475000X0.250000X-0.475000X-0.250000X0*%
G04 APERTURE END LIST*
D10*
%TO.C,D6*%
X160656000Y-120015000D03*
X163956000Y-120015000D03*
%TD*%
D11*
%TO.C,R3*%
X140462000Y-116141000D03*
X140462000Y-114491000D03*
%TD*%
D12*
%TO.C,C7*%
X141986000Y-108445000D03*
X141986000Y-109995000D03*
%TD*%
D13*
%TO.C,D4*%
X155702000Y-107721500D03*
X155702000Y-106146500D03*
%TD*%
D14*
%TO.C,R8*%
X158750000Y-109157000D03*
X158750000Y-110807000D03*
%TD*%
D11*
%TO.C,R9*%
X157480000Y-121729000D03*
X157480000Y-120079000D03*
%TD*%
D15*
%TO.C,H1*%
X135580000Y-114300000D03*
%TD*%
D14*
%TO.C,R11*%
X178308000Y-121730000D03*
X178308000Y-123380000D03*
%TD*%
D16*
%TO.C,U4*%
X170313500Y-117205000D03*
X170313500Y-116705000D03*
D17*
X170276000Y-116205000D03*
D16*
X170313500Y-115705000D03*
X170313500Y-115205000D03*
X169538500Y-115205000D03*
X169538500Y-115705000D03*
D18*
X169513500Y-116205000D03*
D16*
X169538500Y-116705000D03*
X169538500Y-117205000D03*
%TD*%
D19*
%TO.C,F1*%
X141100000Y-120650000D03*
X138300000Y-120650000D03*
%TD*%
D20*
%TO.C,C14*%
X176530000Y-102121000D03*
X176530000Y-100571000D03*
%TD*%
D21*
%TO.C,R5*%
X155765000Y-114046000D03*
X154115000Y-114046000D03*
%TD*%
D22*
%TO.C,J1*%
X139700000Y-124460000D03*
D23*
X141700000Y-124460000D03*
X143700000Y-124460000D03*
X145700000Y-124460000D03*
%TD*%
D24*
%TO.C,D3*%
X158775500Y-112522000D03*
X157200500Y-112522000D03*
%TD*%
D25*
%TO.C,J3*%
X168885000Y-118875000D03*
X169685000Y-118875000D03*
D26*
X170835000Y-118875000D03*
X171835000Y-118875000D03*
X172335000Y-118875000D03*
X173335000Y-118875000D03*
D25*
X174485000Y-118875000D03*
X175285000Y-118875000D03*
X175285000Y-118875000D03*
X174485000Y-118875000D03*
D26*
X173835000Y-118875000D03*
X172835000Y-118875000D03*
X171335000Y-118875000D03*
X170335000Y-118875000D03*
D25*
X169685000Y-118875000D03*
X168885000Y-118875000D03*
D27*
X167765000Y-119450000D03*
D28*
X167765000Y-123630000D03*
D27*
X176405000Y-119450000D03*
D28*
X176405000Y-123630000D03*
%TD*%
D11*
%TO.C,R15*%
X155702000Y-102171000D03*
X155702000Y-100521000D03*
%TD*%
D10*
%TO.C,D2*%
X160656000Y-117602000D03*
X163956000Y-117602000D03*
%TD*%
D15*
%TO.C,H2*%
X178980000Y-114300000D03*
%TD*%
D14*
%TO.C,R10*%
X165862000Y-121730000D03*
X165862000Y-123380000D03*
%TD*%
D29*
%TO.C,C2*%
X149098000Y-120081000D03*
X149098000Y-121981000D03*
%TD*%
D21*
%TO.C,R2*%
X144335000Y-118364000D03*
X142685000Y-118364000D03*
%TD*%
D30*
%TO.C,L1*%
X145034000Y-111167000D03*
X145034000Y-108797000D03*
%TD*%
D21*
%TO.C,R12*%
X158813000Y-114046000D03*
X157163000Y-114046000D03*
%TD*%
D12*
%TO.C,C12*%
X159004000Y-120129000D03*
X159004000Y-121679000D03*
%TD*%
D31*
%TO.C,Q1*%
X144912500Y-119700000D03*
X144912500Y-121600000D03*
X147187500Y-120650000D03*
%TD*%
D32*
%TO.C,D5*%
X157226000Y-106146500D03*
X157226000Y-107721500D03*
%TD*%
D33*
%TO.C,R7*%
X157163000Y-115570000D03*
X158813000Y-115570000D03*
%TD*%
D34*
%TO.C,C9*%
X153350000Y-110744000D03*
X151450000Y-110744000D03*
%TD*%
D12*
%TO.C,C4*%
X141986000Y-111493000D03*
X141986000Y-113043000D03*
%TD*%
D14*
%TO.C,R14*%
X158750000Y-106109000D03*
X158750000Y-107759000D03*
%TD*%
D20*
%TO.C,C15*%
X142748000Y-104153000D03*
X142748000Y-102603000D03*
%TD*%
D35*
%TO.C,U1*%
X142264000Y-116395000D03*
D36*
X142089500Y-116220000D03*
D37*
X142752000Y-116470000D03*
D38*
X143252000Y-116470001D03*
D39*
X143740000Y-116420000D03*
D40*
X143915000Y-116245000D03*
D41*
X143915000Y-114895000D03*
D42*
X143740000Y-114720000D03*
D37*
X143252000Y-114670000D03*
D38*
X142752000Y-114669999D03*
D43*
X142089500Y-114920000D03*
D44*
X142264000Y-114745000D03*
D45*
X142452000Y-115570000D03*
%TD*%
D22*
%TO.C,J2*%
X153035000Y-124460000D03*
D23*
X155035000Y-124460000D03*
X157035000Y-124460000D03*
X159035000Y-124460000D03*
X161035000Y-124460000D03*
%TD*%
D20*
%TO.C,C11*%
X158750000Y-102121000D03*
X158750000Y-100571000D03*
%TD*%
D46*
%TO.C,C5*%
X143497000Y-113030000D03*
X145047000Y-113030000D03*
%TD*%
D14*
%TO.C,R4*%
X140462000Y-111443000D03*
X140462000Y-113093000D03*
%TD*%
%TO.C,R6*%
X157226000Y-109157000D03*
X157226000Y-110807000D03*
%TD*%
D12*
%TO.C,C8*%
X157480000Y-117081000D03*
X157480000Y-118631000D03*
%TD*%
D47*
%TO.C,SW1*%
X152316000Y-104453000D03*
X148166000Y-104453000D03*
X152316000Y-102303000D03*
X148191000Y-102303000D03*
%TD*%
D48*
%TO.C,D1*%
X150114000Y-113824000D03*
X150114000Y-117824000D03*
%TD*%
D21*
%TO.C,R13*%
X158813000Y-104648000D03*
X157163000Y-104648000D03*
%TD*%
D49*
%TO.C,FB1*%
X151600000Y-108712000D03*
X153200000Y-108712000D03*
%TD*%
D11*
%TO.C,R16*%
X154178000Y-102171000D03*
X154178000Y-100521000D03*
%TD*%
D47*
%TO.C,SW2*%
X141140000Y-104453000D03*
X136990000Y-104453000D03*
X141140000Y-102303000D03*
X137015000Y-102303000D03*
%TD*%
D50*
%TO.C,C6*%
X149098000Y-108507000D03*
X149098000Y-111457000D03*
%TD*%
D51*
%TO.C,U3*%
X160640000Y-100730000D03*
X160640000Y-101580000D03*
X160640000Y-102430000D03*
X160640000Y-103280000D03*
X160640000Y-104130000D03*
X160640000Y-104980000D03*
X160640000Y-105830000D03*
X160640000Y-106680000D03*
X160640000Y-107530000D03*
X160640000Y-108380000D03*
X160640000Y-109230000D03*
X160640000Y-110080000D03*
X160640000Y-110930000D03*
X160640000Y-111780000D03*
X160640000Y-112630000D03*
D52*
X161690000Y-113680000D03*
X162540000Y-113680000D03*
X163390000Y-113680000D03*
X164240000Y-113680000D03*
X165090000Y-113680000D03*
X165940000Y-113680000D03*
X166790000Y-113680000D03*
X167640000Y-113680000D03*
X168490000Y-113680000D03*
X169340000Y-113680000D03*
X170190000Y-113680000D03*
X171040000Y-113680000D03*
X171890000Y-113680000D03*
X172740000Y-113680000D03*
X173590000Y-113680000D03*
D51*
X174640000Y-112630000D03*
X174640000Y-111780000D03*
X174640000Y-110930000D03*
X174640000Y-110080000D03*
X174640000Y-109230000D03*
X174640000Y-108380000D03*
X174640000Y-107530000D03*
X174640000Y-106680000D03*
X174640000Y-105830000D03*
X174640000Y-104980000D03*
X174640000Y-104130000D03*
X174640000Y-103280000D03*
X174640000Y-102430000D03*
X174640000Y-101580000D03*
X174640000Y-100730000D03*
D52*
X173590000Y-99680000D03*
X172740000Y-99680000D03*
X171890000Y-99680000D03*
X171040000Y-99680000D03*
X170190000Y-99680000D03*
X169340000Y-99680000D03*
X168490000Y-99680000D03*
X167640000Y-99680000D03*
X166790000Y-99680000D03*
X165940000Y-99680000D03*
X165090000Y-99680000D03*
X164240000Y-99680000D03*
X163390000Y-99680000D03*
X162540000Y-99680000D03*
X161690000Y-99680000D03*
D53*
X165990000Y-105030000D03*
D54*
X165990000Y-106680000D03*
X165990000Y-108330000D03*
X167640000Y-105030000D03*
X167640000Y-106680000D03*
X167640000Y-108330000D03*
X169290000Y-105030000D03*
X169290000Y-106680000D03*
X169290000Y-108330000D03*
D55*
X160640000Y-99680000D03*
X160640000Y-113680000D03*
X174640000Y-113680000D03*
X174640000Y-99680000D03*
%TD*%
D12*
%TO.C,C3*%
X145542000Y-115049000D03*
X145542000Y-116599000D03*
%TD*%
D56*
%TO.C,U2*%
X155890000Y-116210500D03*
X154940000Y-116210500D03*
X153990000Y-116210500D03*
X153990000Y-118485500D03*
X155890000Y-118485500D03*
%TD*%
D57*
%TO.C,C1*%
X147320000Y-117028000D03*
X147320000Y-115128000D03*
%TD*%
D11*
%TO.C,R1*%
X142875000Y-121475000D03*
X142875000Y-119825000D03*
%TD*%
D20*
%TO.C,C13*%
X154178000Y-105169000D03*
X154178000Y-103619000D03*
%TD*%
D12*
%TO.C,C10*%
X157226000Y-100571000D03*
X157226000Y-102121000D03*
%TD*%
M02*
