%TF.GenerationSoftware,KiCad,Pcbnew,9.0.6*%
%TF.CreationDate,2025-11-20T15:59:52+01:00*%
%TF.ProjectId,N57__ldruckanzeige,4e35375f-d66c-4647-9275-636b616e7a65,rev?*%
%TF.SameCoordinates,Original*%
%TF.FileFunction,Copper,L2,Bot*%
%TF.FilePolarity,Positive*%
%FSLAX46Y46*%
G04 Gerber Fmt 4.6, Leading zero omitted, Abs format (unit mm)*
G04 Created by KiCad (PCBNEW 9.0.6) date 2025-11-20 15:59:52*
%MOMM*%
%LPD*%
G01*
G04 APERTURE LIST*
G04 Aperture macros list*
%AMRoundRect*
0 Rectangle with rounded corners*
0 $1 Rounding radius*
0 $2 $3 $4 $5 $6 $7 $8 $9 X,Y pos of 4 corners*
0 Add a 4 corners polygon primitive as box body*
4,1,4,$2,$3,$4,$5,$6,$7,$8,$9,$2,$3,0*
0 Add four circle primitives for the rounded corners*
1,1,$1+$1,$2,$3*
1,1,$1+$1,$4,$5*
1,1,$1+$1,$6,$7*
1,1,$1+$1,$8,$9*
0 Add four rect primitives between the rounded corners*
20,1,$1+$1,$2,$3,$4,$5,0*
20,1,$1+$1,$4,$5,$6,$7,0*
20,1,$1+$1,$6,$7,$8,$9,0*
20,1,$1+$1,$8,$9,$2,$3,0*%
G04 Aperture macros list end*
%TA.AperFunction,ComponentPad*%
%ADD10C,5.700000*%
%TD*%
%TA.AperFunction,ComponentPad*%
%ADD11RoundRect,0.250000X-0.350000X-0.625000X0.350000X-0.625000X0.350000X0.625000X-0.350000X0.625000X0*%
%TD*%
%TA.AperFunction,ComponentPad*%
%ADD12O,1.200000X1.750000*%
%TD*%
%TA.AperFunction,HeatsinkPad*%
%ADD13O,1.000000X2.100000*%
%TD*%
%TA.AperFunction,HeatsinkPad*%
%ADD14O,1.000000X1.800000*%
%TD*%
%TA.AperFunction,ViaPad*%
%ADD15C,0.600000*%
%TD*%
%TA.AperFunction,ViaPad*%
%ADD16C,0.800000*%
%TD*%
%TA.AperFunction,Conductor*%
%ADD17C,0.600000*%
%TD*%
%TA.AperFunction,Conductor*%
%ADD18C,0.800000*%
%TD*%
%TA.AperFunction,Conductor*%
%ADD19C,0.250000*%
%TD*%
%TA.AperFunction,Conductor*%
%ADD20C,0.400000*%
%TD*%
%TA.AperFunction,Conductor*%
%ADD21C,0.200000*%
%TD*%
G04 APERTURE END LIST*
D10*
%TO.P,H1,1,1*%
%TO.N,GND*%
X135580000Y-114300000D03*
%TD*%
D11*
%TO.P,J1,1,Pin_1*%
%TO.N,/UBAT*%
X139700000Y-124460000D03*
D12*
%TO.P,J1,2,Pin_2*%
X141700000Y-124460000D03*
%TO.P,J1,3,Pin_3*%
%TO.N,GND*%
X143700000Y-124460000D03*
%TO.P,J1,4,Pin_4*%
X145700000Y-124460000D03*
%TD*%
D13*
%TO.P,J3,S1,SHIELD*%
%TO.N,GND*%
X167765000Y-119450000D03*
D14*
X167765000Y-123630000D03*
D13*
X176405000Y-119450000D03*
D14*
X176405000Y-123630000D03*
%TD*%
D10*
%TO.P,H2,1,1*%
%TO.N,GND*%
X178980000Y-114300000D03*
%TD*%
D11*
%TO.P,J2,1,Pin_1*%
%TO.N,+3.3V*%
X153035000Y-124460000D03*
D12*
%TO.P,J2,2,Pin_2*%
%TO.N,PRES_SENSE*%
X155035000Y-124460000D03*
%TO.P,J2,3,Pin_3*%
%TO.N,TEMP_DQ*%
X157035000Y-124460000D03*
%TO.P,J2,4,Pin_4*%
%TO.N,unconnected-(J2-Pin_4-Pad4)*%
X159035000Y-124460000D03*
%TO.P,J2,5,Pin_5*%
%TO.N,GND*%
X161035000Y-124460000D03*
%TD*%
D15*
%TO.N,GND*%
X133350000Y-108712000D03*
X167005000Y-103505000D03*
X133350000Y-100711000D03*
D16*
X150749000Y-121285000D03*
D15*
X141478000Y-117094000D03*
D16*
X152654000Y-112014000D03*
D15*
X169545000Y-103505000D03*
X146304000Y-98044000D03*
X134874000Y-106934000D03*
X145415000Y-105410000D03*
X133350000Y-124206000D03*
D16*
X141605000Y-106934000D03*
D15*
X173355000Y-98044000D03*
X164465000Y-104775000D03*
X164465000Y-108585000D03*
X146685000Y-105410000D03*
X172085000Y-98044000D03*
D16*
X147828000Y-113030000D03*
D15*
X141224000Y-98044000D03*
D16*
X147066000Y-113538000D03*
D15*
X133350000Y-122936000D03*
X176530000Y-103505000D03*
X154432000Y-112014000D03*
X170815000Y-98044000D03*
X133350000Y-104648000D03*
X148844000Y-125603000D03*
X169545000Y-109855000D03*
X133350000Y-98044000D03*
D16*
X139065000Y-106934000D03*
D15*
X133350000Y-120396000D03*
X170815000Y-106045000D03*
X170815000Y-107315000D03*
X135890000Y-98044000D03*
X150749000Y-125603000D03*
X148590000Y-110236000D03*
X158115000Y-98044000D03*
X176530000Y-111252000D03*
D16*
X151765000Y-106934000D03*
D15*
X168275000Y-103505000D03*
X173355000Y-100965000D03*
D16*
X146685000Y-106934000D03*
X151130000Y-112014000D03*
D15*
X164465000Y-106045000D03*
X167005000Y-109855000D03*
X164465000Y-98044000D03*
X167005000Y-98044000D03*
X180280000Y-124300000D03*
X155448000Y-98044000D03*
D16*
X146304000Y-114046000D03*
D15*
X133350000Y-125603000D03*
X142494000Y-98044000D03*
X170815000Y-104775000D03*
X176530000Y-109982000D03*
X154813000Y-115062000D03*
X176530000Y-104902000D03*
X148971000Y-98044000D03*
X145034000Y-98044000D03*
D16*
X144145000Y-106934000D03*
X159221000Y-118618000D03*
X152654000Y-115824000D03*
X152654000Y-113284000D03*
D15*
X133350000Y-121666000D03*
X169545000Y-98044000D03*
D16*
X140208000Y-108585000D03*
D15*
X168275000Y-109855000D03*
X140970000Y-117602000D03*
X172466000Y-116459000D03*
X137160000Y-98044000D03*
X149860000Y-110236000D03*
X159385000Y-98044000D03*
X156718000Y-98044000D03*
X160655000Y-98044000D03*
X137414000Y-106934000D03*
D16*
X154051000Y-120904000D03*
D15*
X133350000Y-107442000D03*
X150749000Y-123444000D03*
X161925000Y-98044000D03*
X168275000Y-98044000D03*
D16*
X140208000Y-109855000D03*
D15*
X138430000Y-98044000D03*
X143764000Y-98044000D03*
X144145000Y-105410000D03*
X133350000Y-119126000D03*
X170815000Y-108585000D03*
D16*
X152019000Y-120142000D03*
D15*
X164280000Y-123500000D03*
D16*
X147828000Y-114046000D03*
D15*
X136144000Y-106934000D03*
X139827000Y-98044000D03*
X176530000Y-106172000D03*
X133350000Y-109982000D03*
X163195000Y-98044000D03*
X161925000Y-112395000D03*
X164465000Y-107315000D03*
X133350000Y-102108000D03*
X147574000Y-98044000D03*
D16*
X152654000Y-118237000D03*
D15*
X152908000Y-98044000D03*
X154178000Y-98044000D03*
X133350000Y-117856000D03*
X150368000Y-98044000D03*
X134620000Y-98044000D03*
D16*
X152654000Y-114554000D03*
D15*
X140462000Y-118110000D03*
X133350000Y-99441000D03*
X174625000Y-114935000D03*
X165735000Y-98044000D03*
X173482000Y-117094000D03*
X176022000Y-98044000D03*
X160655000Y-114935000D03*
D16*
X154813000Y-117602000D03*
X152781000Y-122047000D03*
D15*
X176530000Y-108712000D03*
X161925000Y-100965000D03*
X133350000Y-103378000D03*
X165735000Y-103505000D03*
X173355000Y-112395000D03*
X174625000Y-98044000D03*
X176530000Y-107442000D03*
X151638000Y-98044000D03*
D16*
X154305000Y-106934000D03*
D15*
X165735000Y-109855000D03*
D16*
X149225000Y-106934000D03*
X146304000Y-113030000D03*
D15*
%TO.N,/+5V_RAW*%
X140462000Y-116713000D03*
X142875000Y-108966000D03*
%TO.N,+3.3V*%
X156210000Y-109220000D03*
X155829000Y-105029000D03*
X155829000Y-103505000D03*
X155829000Y-104267000D03*
X155829000Y-121666000D03*
X155829000Y-120904000D03*
X155829000Y-120142000D03*
%TO.N,/ESP32/PRES_ADC*%
X159766000Y-106934000D03*
X158750000Y-119507000D03*
%TO.N,/ESP32/EN*%
X152205000Y-101328000D03*
X175768000Y-100330000D03*
%TO.N,VBUS*%
X171196000Y-115443000D03*
X168526849Y-117829853D03*
%TO.N,PRES_SENSE*%
X156790000Y-115824000D03*
X156845000Y-121285000D03*
%TO.N,TEMP_DQ*%
X157988000Y-111506000D03*
%TO.N,/PGOOD*%
X153797000Y-117094000D03*
X143384869Y-117194929D03*
%TO.N,/ESP32/pgm*%
X153416000Y-100330000D03*
X159639000Y-103280000D03*
%TD*%
D17*
%TO.N,/+5V_RAW*%
X142875000Y-108966000D02*
X142621000Y-108966000D01*
X142621000Y-108966000D02*
X140462000Y-111125000D01*
X140462000Y-111125000D02*
X140462000Y-116713000D01*
D18*
%TO.N,+3.3V*%
X155829000Y-109347000D02*
X155829000Y-120904000D01*
X155829000Y-120904000D02*
X155829000Y-121666000D01*
X155829000Y-103886000D02*
X155829000Y-109347000D01*
D19*
%TO.N,/ESP32/PRES_ADC*%
X159766000Y-110998000D02*
X159766000Y-106934000D01*
X158750000Y-119507000D02*
X158496000Y-119253000D01*
X158496000Y-119253000D02*
X158496000Y-112268000D01*
X158496000Y-112268000D02*
X159766000Y-110998000D01*
%TO.N,/ESP32/EN*%
X153089500Y-99704000D02*
X175142000Y-99704000D01*
X152205000Y-100588500D02*
X153089500Y-99704000D01*
X152205000Y-101328000D02*
X152205000Y-100588500D01*
X175142000Y-99704000D02*
X175768000Y-100330000D01*
D20*
%TO.N,VBUS*%
X170942000Y-115443000D02*
X168555147Y-117829853D01*
X168555147Y-117829853D02*
X168526849Y-117829853D01*
X171196000Y-115443000D02*
X170942000Y-115443000D01*
D19*
%TO.N,PRES_SENSE*%
X156845000Y-121285000D02*
X156845000Y-115879000D01*
X156845000Y-121285000D02*
X156845000Y-122301000D01*
X156845000Y-122301000D02*
X155035000Y-124111000D01*
X156845000Y-115879000D02*
X156790000Y-115824000D01*
%TO.N,TEMP_DQ*%
X157988000Y-123507000D02*
X157988000Y-111506000D01*
X157226000Y-124269000D02*
X157988000Y-123507000D01*
D21*
%TO.N,/PGOOD*%
X143485798Y-117094000D02*
X153797000Y-117094000D01*
X143384869Y-117194929D02*
X143485798Y-117094000D01*
D19*
%TO.N,/ESP32/pgm*%
X159639000Y-103280000D02*
X156689000Y-100330000D01*
X156689000Y-100330000D02*
X153416000Y-100330000D01*
%TD*%
%TA.AperFunction,Conductor*%
%TO.N,GND*%
G36*
X151257000Y-125984000D02*
G01*
X150368000Y-125984000D01*
X150368000Y-123063000D01*
X151257000Y-123063000D01*
X151257000Y-125984000D01*
G37*
%TD.AperFunction*%
%TD*%
%TA.AperFunction,Conductor*%
%TO.N,GND*%
G36*
X180484418Y-89000816D02*
G01*
X180684561Y-89015130D01*
X180702063Y-89017647D01*
X180893797Y-89059355D01*
X180910755Y-89064334D01*
X181094609Y-89132909D01*
X181110701Y-89140259D01*
X181282904Y-89234288D01*
X181297784Y-89243849D01*
X181454867Y-89361441D01*
X181468237Y-89373027D01*
X181606972Y-89511762D01*
X181618558Y-89525132D01*
X181736146Y-89682210D01*
X181745711Y-89697095D01*
X181839740Y-89869298D01*
X181847090Y-89885390D01*
X181915662Y-90069236D01*
X181920646Y-90086212D01*
X181962351Y-90277931D01*
X181964869Y-90295442D01*
X181979184Y-90495580D01*
X181979500Y-90504427D01*
X181979500Y-124995572D01*
X181979184Y-125004419D01*
X181964869Y-125204557D01*
X181962351Y-125222068D01*
X181920646Y-125413787D01*
X181915662Y-125430763D01*
X181847090Y-125614609D01*
X181839740Y-125630701D01*
X181745711Y-125802904D01*
X181736146Y-125817789D01*
X181618558Y-125974867D01*
X181606972Y-125988237D01*
X181468237Y-126126972D01*
X181454867Y-126138558D01*
X181297789Y-126256146D01*
X181282904Y-126265711D01*
X181110701Y-126359740D01*
X181094609Y-126367090D01*
X180910763Y-126435662D01*
X180893787Y-126440646D01*
X180702068Y-126482351D01*
X180684557Y-126484869D01*
X180503779Y-126497799D01*
X180484417Y-126499184D01*
X180475572Y-126499500D01*
X179904500Y-126499500D01*
X179837461Y-126479815D01*
X179791706Y-126427011D01*
X179780500Y-126375500D01*
X179780500Y-125934110D01*
X179780500Y-125934108D01*
X179746392Y-125806814D01*
X179680500Y-125692686D01*
X179587314Y-125599500D01*
X179530250Y-125566554D01*
X179473187Y-125533608D01*
X179409539Y-125516554D01*
X179345892Y-125499500D01*
X164945892Y-125499500D01*
X164814108Y-125499500D01*
X164686812Y-125533608D01*
X164572686Y-125599500D01*
X164572683Y-125599502D01*
X164479502Y-125692683D01*
X164479500Y-125692686D01*
X164413608Y-125806812D01*
X164379500Y-125934108D01*
X164379500Y-126375500D01*
X164359815Y-126442539D01*
X164307011Y-126488294D01*
X164255500Y-126499500D01*
X151000000Y-126499500D01*
X150932961Y-126479815D01*
X150887206Y-126427011D01*
X150876000Y-126375500D01*
X150876000Y-125984000D01*
X151257000Y-125984000D01*
X151257000Y-123780730D01*
X152234500Y-123780730D01*
X152234500Y-125139269D01*
X152237353Y-125169699D01*
X152237353Y-125169701D01*
X152282206Y-125297880D01*
X152282207Y-125297882D01*
X152362850Y-125407150D01*
X152472118Y-125487793D01*
X152505575Y-125499500D01*
X152600299Y-125532646D01*
X152630730Y-125535500D01*
X152630734Y-125535500D01*
X153439270Y-125535500D01*
X153469699Y-125532646D01*
X153469701Y-125532646D01*
X153533790Y-125510219D01*
X153597882Y-125487793D01*
X153707150Y-125407150D01*
X153787793Y-125297882D01*
X153820449Y-125204557D01*
X153832646Y-125169701D01*
X153832646Y-125169699D01*
X153835500Y-125139269D01*
X153835500Y-124106153D01*
X154234500Y-124106153D01*
X154234500Y-124813846D01*
X154265261Y-124968489D01*
X154265264Y-124968501D01*
X154325602Y-125114172D01*
X154325609Y-125114185D01*
X154413210Y-125245288D01*
X154413213Y-125245292D01*
X154524707Y-125356786D01*
X154524711Y-125356789D01*
X154655814Y-125444390D01*
X154655827Y-125444397D01*
X154801498Y-125504735D01*
X154801503Y-125504737D01*
X154941810Y-125532646D01*
X154956153Y-125535499D01*
X154956156Y-125535500D01*
X154956158Y-125535500D01*
X155113844Y-125535500D01*
X155113845Y-125535499D01*
X155268497Y-125504737D01*
X155414179Y-125444394D01*
X155545289Y-125356789D01*
X155656789Y-125245289D01*
X155744394Y-125114179D01*
X155804737Y-124968497D01*
X155835500Y-124813842D01*
X155835500Y-124600577D01*
X155835545Y-124599664D01*
X155835500Y-124599360D01*
X155835500Y-124106158D01*
X155835500Y-124106153D01*
X156234500Y-124106153D01*
X156234500Y-124813846D01*
X156265261Y-124968489D01*
X156265264Y-124968501D01*
X156325602Y-125114172D01*
X156325609Y-125114185D01*
X156413210Y-125245288D01*
X156413213Y-125245292D01*
X156524707Y-125356786D01*
X156524711Y-125356789D01*
X156655814Y-125444390D01*
X156655827Y-125444397D01*
X156801498Y-125504735D01*
X156801503Y-125504737D01*
X156941810Y-125532646D01*
X156956153Y-125535499D01*
X156956156Y-125535500D01*
X156956158Y-125535500D01*
X157113844Y-125535500D01*
X157113845Y-125535499D01*
X157268497Y-125504737D01*
X157414179Y-125444394D01*
X157545289Y-125356789D01*
X157656789Y-125245289D01*
X157744394Y-125114179D01*
X157804737Y-124968497D01*
X157835500Y-124813842D01*
X157835500Y-124733177D01*
X157835638Y-124727333D01*
X157836131Y-124716873D01*
X157840791Y-124695601D01*
X157843313Y-124564644D01*
X157843395Y-124562915D01*
X157843763Y-124561848D01*
X157845578Y-124544881D01*
X157878538Y-124376918D01*
X157883079Y-124360127D01*
X157957705Y-124145347D01*
X157963742Y-124130965D01*
X157999410Y-124059040D01*
X158046829Y-124007725D01*
X158114463Y-123990193D01*
X158180839Y-124012011D01*
X158224883Y-124066250D01*
X158234500Y-124114130D01*
X158234500Y-124813846D01*
X158265261Y-124968489D01*
X158265264Y-124968501D01*
X158325602Y-125114172D01*
X158325609Y-125114185D01*
X158413210Y-125245288D01*
X158413213Y-125245292D01*
X158524707Y-125356786D01*
X158524711Y-125356789D01*
X158655814Y-125444390D01*
X158655827Y-125444397D01*
X158801498Y-125504735D01*
X158801503Y-125504737D01*
X158941810Y-125532646D01*
X158956153Y-125535499D01*
X158956156Y-125535500D01*
X158956158Y-125535500D01*
X159113844Y-125535500D01*
X159113845Y-125535499D01*
X159268497Y-125504737D01*
X159414179Y-125444394D01*
X159545289Y-125356789D01*
X159656789Y-125245289D01*
X159744394Y-125114179D01*
X159804737Y-124968497D01*
X159835500Y-124813842D01*
X159835500Y-124106158D01*
X159835500Y-124106155D01*
X159835499Y-124106153D01*
X159830778Y-124082419D01*
X159804737Y-123951503D01*
X159758963Y-123840994D01*
X159744397Y-123805827D01*
X159744390Y-123805814D01*
X159656789Y-123674711D01*
X159656786Y-123674707D01*
X159545292Y-123563213D01*
X159545288Y-123563210D01*
X159414185Y-123475609D01*
X159414172Y-123475602D01*
X159268501Y-123415264D01*
X159268489Y-123415261D01*
X159113845Y-123384500D01*
X159113842Y-123384500D01*
X158956158Y-123384500D01*
X158956155Y-123384500D01*
X158801510Y-123415261D01*
X158801498Y-123415264D01*
X158655827Y-123475602D01*
X158655814Y-123475609D01*
X158524711Y-123563210D01*
X158520001Y-123567076D01*
X158519146Y-123566034D01*
X158505753Y-123573348D01*
X158489019Y-123587850D01*
X158475681Y-123589768D01*
X158463859Y-123596224D01*
X158441777Y-123594644D01*
X158419861Y-123597797D01*
X158407605Y-123592201D01*
X158394167Y-123591240D01*
X158376442Y-123577970D01*
X158356303Y-123568775D01*
X158349018Y-123557441D01*
X158338234Y-123549368D01*
X158330496Y-123528624D01*
X158318526Y-123509999D01*
X158315373Y-123488076D01*
X158313817Y-123483904D01*
X158313501Y-123475065D01*
X158313501Y-123467172D01*
X158313501Y-123464147D01*
X158313500Y-123464143D01*
X158313500Y-120047688D01*
X158333185Y-119980649D01*
X158385989Y-119934894D01*
X158455147Y-119924950D01*
X158499498Y-119940300D01*
X158529723Y-119957751D01*
X158556811Y-119973391D01*
X158556813Y-119973391D01*
X158556814Y-119973392D01*
X158684108Y-120007500D01*
X158684110Y-120007500D01*
X158815890Y-120007500D01*
X158815892Y-120007500D01*
X158943186Y-119973392D01*
X159057314Y-119907500D01*
X159091107Y-119873707D01*
X168615500Y-119873707D01*
X168615500Y-120026293D01*
X168654992Y-120173678D01*
X168654993Y-120173681D01*
X168731282Y-120305817D01*
X168731284Y-120305819D01*
X168731285Y-120305821D01*
X168839179Y-120413715D01*
X168839180Y-120413716D01*
X168839182Y-120413717D01*
X168971318Y-120490006D01*
X168971319Y-120490006D01*
X168971322Y-120490008D01*
X169118707Y-120529500D01*
X169118710Y-120529500D01*
X169271290Y-120529500D01*
X169271293Y-120529500D01*
X169418678Y-120490008D01*
X169550821Y-120413715D01*
X169658715Y-120305821D01*
X169735008Y-120173678D01*
X169774500Y-120026293D01*
X169774500Y-119873707D01*
X174395500Y-119873707D01*
X174395500Y-120026293D01*
X174434992Y-120173678D01*
X174434993Y-120173681D01*
X174511282Y-120305817D01*
X174511284Y-120305819D01*
X174511285Y-120305821D01*
X174619179Y-120413715D01*
X174619180Y-120413716D01*
X174619182Y-120413717D01*
X174751318Y-120490006D01*
X174751319Y-120490006D01*
X174751322Y-120490008D01*
X174898707Y-120529500D01*
X174898710Y-120529500D01*
X175051290Y-120529500D01*
X175051293Y-120529500D01*
X175198678Y-120490008D01*
X175330821Y-120413715D01*
X175438715Y-120305821D01*
X175515008Y-120173678D01*
X175554500Y-120026293D01*
X175554500Y-119873707D01*
X175515008Y-119726322D01*
X175499918Y-119700186D01*
X175438717Y-119594182D01*
X175438712Y-119594176D01*
X175330823Y-119486287D01*
X175330817Y-119486282D01*
X175198681Y-119409993D01*
X175198682Y-119409993D01*
X175186595Y-119406754D01*
X175051293Y-119370500D01*
X174898707Y-119370500D01*
X174763404Y-119406754D01*
X174751318Y-119409993D01*
X174619182Y-119486282D01*
X174619176Y-119486287D01*
X174511287Y-119594176D01*
X174511282Y-119594182D01*
X174434993Y-119726318D01*
X174434992Y-119726322D01*
X174395500Y-119873707D01*
X169774500Y-119873707D01*
X169735008Y-119726322D01*
X169719918Y-119700186D01*
X169658717Y-119594182D01*
X169658712Y-119594176D01*
X169550823Y-119486287D01*
X169550817Y-119486282D01*
X169418681Y-119409993D01*
X169418682Y-119409993D01*
X169406595Y-119406754D01*
X169271293Y-119370500D01*
X169118707Y-119370500D01*
X168983404Y-119406754D01*
X168971318Y-119409993D01*
X168839182Y-119486282D01*
X168839176Y-119486287D01*
X168731287Y-119594176D01*
X168731282Y-119594182D01*
X168654993Y-119726318D01*
X168654992Y-119726322D01*
X168615500Y-119873707D01*
X159091107Y-119873707D01*
X159150500Y-119814314D01*
X159216392Y-119700186D01*
X159250500Y-119572892D01*
X159250500Y-119441108D01*
X159216392Y-119313814D01*
X159150500Y-119199686D01*
X159057314Y-119106500D01*
X159015010Y-119082076D01*
X158996451Y-119067713D01*
X158950317Y-119044725D01*
X158943186Y-119040608D01*
X158943184Y-119040607D01*
X158943180Y-119040605D01*
X158940464Y-119039480D01*
X158932618Y-119035905D01*
X158903475Y-119021384D01*
X158893916Y-119017011D01*
X158841142Y-118971223D01*
X158821500Y-118904250D01*
X158821500Y-117763961D01*
X168026349Y-117763961D01*
X168026349Y-117895745D01*
X168036707Y-117934402D01*
X168060457Y-118023040D01*
X168093403Y-118080103D01*
X168126349Y-118137167D01*
X168219535Y-118230353D01*
X168333663Y-118296245D01*
X168460957Y-118330353D01*
X168460959Y-118330353D01*
X168592739Y-118330353D01*
X168592741Y-118330353D01*
X168720035Y-118296245D01*
X168834163Y-118230353D01*
X168927349Y-118137167D01*
X168993241Y-118023039D01*
X169008391Y-117966493D01*
X169040483Y-117910908D01*
X170983098Y-115968293D01*
X171044419Y-115934810D01*
X171102867Y-115936200D01*
X171130108Y-115943500D01*
X171130111Y-115943500D01*
X171261890Y-115943500D01*
X171261892Y-115943500D01*
X171389186Y-115909392D01*
X171503314Y-115843500D01*
X171596500Y-115750314D01*
X171662392Y-115636186D01*
X171696500Y-115508892D01*
X171696500Y-115377108D01*
X171662392Y-115249814D01*
X171596500Y-115135686D01*
X171503314Y-115042500D01*
X171446250Y-115009554D01*
X171389187Y-114976608D01*
X171325539Y-114959554D01*
X171261892Y-114942500D01*
X171130108Y-114942500D01*
X171002814Y-114976608D01*
X171002813Y-114976608D01*
X171002811Y-114976609D01*
X171002810Y-114976609D01*
X170902317Y-115034629D01*
X170872412Y-115047016D01*
X170787413Y-115069792D01*
X170787412Y-115069792D01*
X170696087Y-115122520D01*
X170696084Y-115122522D01*
X168523105Y-117295501D01*
X168467518Y-117327595D01*
X168460957Y-117329353D01*
X168333663Y-117363461D01*
X168333661Y-117363461D01*
X168333661Y-117363462D01*
X168219535Y-117429353D01*
X168219532Y-117429355D01*
X168126351Y-117522536D01*
X168126349Y-117522539D01*
X168060457Y-117636665D01*
X168056493Y-117651461D01*
X168026349Y-117763961D01*
X158821500Y-117763961D01*
X158821500Y-112454189D01*
X158841185Y-112387150D01*
X158857819Y-112366508D01*
X159438720Y-111785607D01*
X160026465Y-111197862D01*
X160069318Y-111123639D01*
X160091500Y-111040853D01*
X160091500Y-110955147D01*
X160091500Y-107564269D01*
X160092038Y-107552735D01*
X160092937Y-107543111D01*
X160096800Y-107527900D01*
X160099917Y-107468394D01*
X160100153Y-107465872D01*
X160100477Y-107465056D01*
X160101682Y-107454860D01*
X160104323Y-107440580D01*
X160111678Y-107415719D01*
X160134928Y-107359548D01*
X160141180Y-107346621D01*
X160146747Y-107336631D01*
X160147070Y-107336035D01*
X160148857Y-107332745D01*
X160149073Y-107332337D01*
X160150773Y-107329055D01*
X160199730Y-107232417D01*
X160207335Y-107215566D01*
X160208115Y-107213607D01*
X160214202Y-107196047D01*
X160253608Y-107063245D01*
X160256009Y-107054442D01*
X160256260Y-107053434D01*
X160256316Y-107051226D01*
X160260503Y-107022270D01*
X160266500Y-106999892D01*
X160266500Y-106868108D01*
X160232392Y-106740814D01*
X160166500Y-106626686D01*
X160073314Y-106533500D01*
X160016250Y-106500554D01*
X159959187Y-106467608D01*
X159895539Y-106450554D01*
X159831892Y-106433500D01*
X159700108Y-106433500D01*
X159572812Y-106467608D01*
X159458686Y-106533500D01*
X159458683Y-106533502D01*
X159365502Y-106626683D01*
X159365500Y-106626686D01*
X159299608Y-106740812D01*
X159265500Y-106868108D01*
X159265500Y-106999892D01*
X159273977Y-107031531D01*
X159277591Y-107051338D01*
X159278919Y-107064682D01*
X159278920Y-107064687D01*
X159278921Y-107064690D01*
X159322100Y-107206536D01*
X159328274Y-107223963D01*
X159329058Y-107225895D01*
X159332052Y-107232417D01*
X159336763Y-107242676D01*
X159379065Y-107324870D01*
X159381148Y-107329116D01*
X159416485Y-107404732D01*
X159425268Y-107430666D01*
X159428610Y-107445904D01*
X159431259Y-107464923D01*
X159435210Y-107529747D01*
X159435211Y-107529750D01*
X159436886Y-107536537D01*
X159440500Y-107566253D01*
X159440500Y-110811810D01*
X159420815Y-110878849D01*
X159404181Y-110899491D01*
X158700181Y-111603491D01*
X158638858Y-111636976D01*
X158569166Y-111631992D01*
X158513233Y-111590120D01*
X158488816Y-111524656D01*
X158488500Y-111515810D01*
X158488500Y-111440110D01*
X158488500Y-111440108D01*
X158454392Y-111312814D01*
X158388500Y-111198686D01*
X158295314Y-111105500D01*
X158192159Y-111045943D01*
X158181187Y-111039608D01*
X158117539Y-111022554D01*
X158053892Y-111005500D01*
X157922108Y-111005500D01*
X157794812Y-111039608D01*
X157680686Y-111105500D01*
X157680683Y-111105502D01*
X157587502Y-111198683D01*
X157587500Y-111198686D01*
X157521608Y-111312812D01*
X157487500Y-111440108D01*
X157487500Y-111571892D01*
X157495977Y-111603531D01*
X157499591Y-111623338D01*
X157500919Y-111636682D01*
X157500920Y-111636687D01*
X157500921Y-111636690D01*
X157544100Y-111778536D01*
X157550274Y-111795963D01*
X157551058Y-111797895D01*
X157554052Y-111804417D01*
X157558763Y-111814676D01*
X157601065Y-111896870D01*
X157603148Y-111901116D01*
X157638485Y-111976732D01*
X157647268Y-112002666D01*
X157650610Y-112017904D01*
X157653259Y-112036923D01*
X157657210Y-112101747D01*
X157657211Y-112101750D01*
X157658886Y-112108537D01*
X157662500Y-112138253D01*
X157662500Y-123313327D01*
X157656866Y-123332511D01*
X157656152Y-123352493D01*
X157647224Y-123365350D01*
X157642815Y-123380366D01*
X157627706Y-123393457D01*
X157616301Y-123409883D01*
X157592358Y-123424086D01*
X157590011Y-123426121D01*
X157585946Y-123427891D01*
X157550140Y-123442720D01*
X157531508Y-123448762D01*
X157481201Y-123460781D01*
X157467826Y-123463210D01*
X157436253Y-123467172D01*
X157373363Y-123458699D01*
X157334785Y-123442720D01*
X157268497Y-123415263D01*
X157268493Y-123415262D01*
X157268488Y-123415260D01*
X157113845Y-123384500D01*
X157113842Y-123384500D01*
X156956158Y-123384500D01*
X156956155Y-123384500D01*
X156801510Y-123415261D01*
X156801498Y-123415264D01*
X156655827Y-123475602D01*
X156655814Y-123475609D01*
X156524711Y-123563210D01*
X156524707Y-123563213D01*
X156413213Y-123674707D01*
X156413210Y-123674711D01*
X156325609Y-123805814D01*
X156325602Y-123805827D01*
X156265264Y-123951498D01*
X156265261Y-123951510D01*
X156234500Y-124106153D01*
X155835500Y-124106153D01*
X155835500Y-124100064D01*
X155835501Y-124100064D01*
X155836479Y-124096729D01*
X155836926Y-124083560D01*
X155836762Y-124082419D01*
X155836981Y-124081939D01*
X155837103Y-124078325D01*
X155848264Y-124012006D01*
X155852694Y-123994024D01*
X155853948Y-123990193D01*
X155917608Y-123795686D01*
X155923185Y-123781623D01*
X155958093Y-123707194D01*
X155963453Y-123697025D01*
X155999153Y-123636312D01*
X156009282Y-123621622D01*
X156080546Y-123532727D01*
X156080770Y-123532321D01*
X156081197Y-123531755D01*
X156083466Y-123528377D01*
X156083651Y-123528501D01*
X156101506Y-123504818D01*
X157034652Y-122571673D01*
X157034657Y-122571669D01*
X157044860Y-122561465D01*
X157044862Y-122561465D01*
X157105465Y-122500862D01*
X157148318Y-122426638D01*
X157170501Y-122343852D01*
X157170501Y-122258147D01*
X157170501Y-122250552D01*
X157170500Y-122250534D01*
X157170500Y-121718676D01*
X157190185Y-121651637D01*
X157206819Y-121630995D01*
X157245500Y-121592314D01*
X157311392Y-121478186D01*
X157345500Y-121350892D01*
X157345500Y-121219108D01*
X157311392Y-121091814D01*
X157245500Y-120977686D01*
X157206819Y-120939005D01*
X157173334Y-120877682D01*
X157170500Y-120851324D01*
X157170500Y-116452006D01*
X157170836Y-116442886D01*
X157171582Y-116432763D01*
X157175787Y-116415351D01*
X157179366Y-116327213D01*
X157179517Y-116325173D01*
X157179729Y-116324606D01*
X157180587Y-116315672D01*
X157187102Y-116272798D01*
X157191071Y-116255315D01*
X157194567Y-116243831D01*
X157217068Y-116169934D01*
X157217932Y-116167213D01*
X157247164Y-116078830D01*
X157249576Y-116071019D01*
X157249835Y-116070117D01*
X157251959Y-116062115D01*
X157255988Y-116045591D01*
X157280999Y-115943045D01*
X157281905Y-115939167D01*
X157282006Y-115938715D01*
X157282010Y-115938347D01*
X157282040Y-115936180D01*
X157286255Y-115905733D01*
X157290500Y-115889892D01*
X157290500Y-115758108D01*
X157256392Y-115630814D01*
X157190500Y-115516686D01*
X157097314Y-115423500D01*
X157040250Y-115390554D01*
X156983187Y-115357608D01*
X156919539Y-115340554D01*
X156855892Y-115323500D01*
X156724108Y-115323500D01*
X156596814Y-115357608D01*
X156596812Y-115357608D01*
X156588963Y-115359712D01*
X156588305Y-115357258D01*
X156531456Y-115363357D01*
X156468983Y-115332068D01*
X156433345Y-115271971D01*
X156429500Y-115241332D01*
X156429500Y-109742790D01*
X156449185Y-109675751D01*
X156491500Y-109635403D01*
X156517314Y-109620500D01*
X156610500Y-109527314D01*
X156676392Y-109413186D01*
X156710500Y-109285892D01*
X156710500Y-109154108D01*
X156676392Y-109026814D01*
X156610500Y-108912686D01*
X156517314Y-108819500D01*
X156517311Y-108819498D01*
X156517307Y-108819495D01*
X156491497Y-108804593D01*
X156443283Y-108754025D01*
X156429500Y-108697208D01*
X156429500Y-103806945D01*
X156429500Y-103806943D01*
X156388577Y-103654216D01*
X156349951Y-103587313D01*
X156346112Y-103580663D01*
X156329500Y-103518664D01*
X156329500Y-103439110D01*
X156329500Y-103439108D01*
X156295392Y-103311814D01*
X156229500Y-103197686D01*
X156136314Y-103104500D01*
X156067025Y-103064496D01*
X156022187Y-103038608D01*
X155958539Y-103021554D01*
X155894892Y-103004500D01*
X155763108Y-103004500D01*
X155635812Y-103038608D01*
X155521686Y-103104500D01*
X155521683Y-103104502D01*
X155428502Y-103197683D01*
X155428500Y-103197686D01*
X155362608Y-103311812D01*
X155328500Y-103439108D01*
X155328500Y-103518664D01*
X155311888Y-103580663D01*
X155269423Y-103654215D01*
X155269423Y-103654216D01*
X155228500Y-103806943D01*
X155228500Y-121745056D01*
X155269423Y-121897783D01*
X155269426Y-121897790D01*
X155348475Y-122034709D01*
X155348479Y-122034714D01*
X155348480Y-122034716D01*
X155460284Y-122146520D01*
X155460286Y-122146521D01*
X155460290Y-122146524D01*
X155479170Y-122157424D01*
X155597216Y-122225577D01*
X155749943Y-122266500D01*
X155749945Y-122266500D01*
X155908055Y-122266500D01*
X155908057Y-122266500D01*
X156060784Y-122225577D01*
X156189880Y-122151043D01*
X156257779Y-122134571D01*
X156323806Y-122157424D01*
X156366997Y-122212345D01*
X156373638Y-122281898D01*
X156341622Y-122344001D01*
X156339560Y-122346112D01*
X155638949Y-123046723D01*
X155629488Y-123055258D01*
X155620539Y-123062533D01*
X155610419Y-123068025D01*
X155460846Y-123192356D01*
X155460284Y-123192814D01*
X155460035Y-123192917D01*
X155450712Y-123199862D01*
X155357775Y-123261645D01*
X155349328Y-123266787D01*
X155244810Y-123324829D01*
X155234872Y-123329779D01*
X155154435Y-123365445D01*
X155141979Y-123370185D01*
X155131270Y-123373613D01*
X155115701Y-123378596D01*
X155077899Y-123384500D01*
X154956155Y-123384500D01*
X154801510Y-123415261D01*
X154801498Y-123415264D01*
X154655827Y-123475602D01*
X154655814Y-123475609D01*
X154524711Y-123563210D01*
X154524707Y-123563213D01*
X154413213Y-123674707D01*
X154413210Y-123674711D01*
X154325609Y-123805814D01*
X154325602Y-123805827D01*
X154265264Y-123951498D01*
X154265261Y-123951510D01*
X154234500Y-124106153D01*
X153835500Y-124106153D01*
X153835500Y-123780730D01*
X153832646Y-123750300D01*
X153832646Y-123750298D01*
X153787793Y-123622119D01*
X153787792Y-123622117D01*
X153707150Y-123512850D01*
X153597882Y-123432207D01*
X153597880Y-123432206D01*
X153469700Y-123387353D01*
X153439270Y-123384500D01*
X153439266Y-123384500D01*
X152630734Y-123384500D01*
X152630730Y-123384500D01*
X152600300Y-123387353D01*
X152600298Y-123387353D01*
X152472119Y-123432206D01*
X152472117Y-123432207D01*
X152362850Y-123512850D01*
X152282207Y-123622117D01*
X152282206Y-123622119D01*
X152237353Y-123750298D01*
X152237353Y-123750300D01*
X152234500Y-123780730D01*
X151257000Y-123780730D01*
X151257000Y-123063000D01*
X150876000Y-123063000D01*
X150876000Y-122733362D01*
X150895685Y-122666323D01*
X150912319Y-122645681D01*
X152207110Y-121350890D01*
X153670000Y-119888000D01*
X153670000Y-117718500D01*
X153689685Y-117651461D01*
X153742489Y-117605706D01*
X153794000Y-117594500D01*
X153862890Y-117594500D01*
X153862892Y-117594500D01*
X153990186Y-117560392D01*
X154104314Y-117494500D01*
X154197500Y-117401314D01*
X154263392Y-117287186D01*
X154297500Y-117159892D01*
X154297500Y-117028108D01*
X154263392Y-116900814D01*
X154197500Y-116786686D01*
X154104314Y-116693500D01*
X154035254Y-116653628D01*
X153990187Y-116627608D01*
X153901209Y-116603767D01*
X153862892Y-116593500D01*
X153794000Y-116593500D01*
X153726961Y-116573815D01*
X153681206Y-116521011D01*
X153670000Y-116469500D01*
X153670000Y-106172000D01*
X132704500Y-106172000D01*
X132637461Y-106152315D01*
X132591706Y-106099511D01*
X132580500Y-106048000D01*
X132580500Y-101262108D01*
X151704500Y-101262108D01*
X151704500Y-101267487D01*
X151704500Y-101393891D01*
X151738608Y-101521187D01*
X151771554Y-101578250D01*
X151804500Y-101635314D01*
X151897686Y-101728500D01*
X152011814Y-101794392D01*
X152139108Y-101828500D01*
X152139110Y-101828500D01*
X152270890Y-101828500D01*
X152270892Y-101828500D01*
X152398186Y-101794392D01*
X152512314Y-101728500D01*
X152605500Y-101635314D01*
X152671392Y-101521186D01*
X152705500Y-101393892D01*
X152705500Y-101262108D01*
X152697019Y-101230458D01*
X152693404Y-101210639D01*
X152692224Y-101198779D01*
X152692078Y-101197306D01*
X152648901Y-101055467D01*
X152642736Y-101038064D01*
X152641947Y-101036119D01*
X152634239Y-101019326D01*
X152591936Y-100937131D01*
X152589860Y-100932902D01*
X152588233Y-100929421D01*
X152554510Y-100857260D01*
X152545726Y-100831319D01*
X152545546Y-100830500D01*
X152542386Y-100816085D01*
X152539739Y-100797072D01*
X152539698Y-100796392D01*
X152538369Y-100774589D01*
X152553939Y-100706478D01*
X152574454Y-100679371D01*
X152755194Y-100498632D01*
X152816514Y-100465149D01*
X152886206Y-100470133D01*
X152942139Y-100512005D01*
X152950259Y-100524314D01*
X153015500Y-100637314D01*
X153108686Y-100730500D01*
X153222814Y-100796392D01*
X153350108Y-100830500D01*
X153350110Y-100830500D01*
X153481891Y-100830500D01*
X153481892Y-100830500D01*
X153513538Y-100822019D01*
X153533354Y-100818404D01*
X153546692Y-100817078D01*
X153688529Y-100773902D01*
X153705949Y-100767731D01*
X153707896Y-100766941D01*
X153724673Y-100759239D01*
X153806901Y-100716917D01*
X153811033Y-100714888D01*
X153886752Y-100679503D01*
X153912674Y-100670726D01*
X153927915Y-100667384D01*
X153946924Y-100664739D01*
X154011739Y-100660789D01*
X154011744Y-100660788D01*
X154011750Y-100660788D01*
X154011753Y-100660787D01*
X154011755Y-100660787D01*
X154018538Y-100659113D01*
X154048251Y-100655500D01*
X156502811Y-100655500D01*
X156569850Y-100675185D01*
X156590492Y-100691819D01*
X158963169Y-103064496D01*
X158970947Y-103073034D01*
X158977115Y-103080474D01*
X158985136Y-103093956D01*
X159024997Y-103138227D01*
X159026621Y-103140185D01*
X159026968Y-103140991D01*
X159033325Y-103149051D01*
X159041557Y-103161018D01*
X159053942Y-103183812D01*
X159077211Y-103239946D01*
X159081933Y-103253506D01*
X159085069Y-103264532D01*
X159086205Y-103268383D01*
X159086330Y-103268792D01*
X159087563Y-103272686D01*
X159121295Y-103375688D01*
X159121297Y-103375692D01*
X159121304Y-103375711D01*
X159127833Y-103392980D01*
X159128672Y-103394929D01*
X159136762Y-103411603D01*
X159136764Y-103411607D01*
X159202826Y-103533414D01*
X159207420Y-103541447D01*
X159207956Y-103542337D01*
X159207958Y-103542340D01*
X159209443Y-103543901D01*
X159226976Y-103567354D01*
X159238500Y-103587314D01*
X159331686Y-103680500D01*
X159445814Y-103746392D01*
X159573108Y-103780500D01*
X159573110Y-103780500D01*
X159704890Y-103780500D01*
X159704892Y-103780500D01*
X159832186Y-103746392D01*
X159946314Y-103680500D01*
X160039500Y-103587314D01*
X160105392Y-103473186D01*
X160139500Y-103345892D01*
X160139500Y-103214108D01*
X160105392Y-103086814D01*
X160039500Y-102972686D01*
X159946314Y-102879500D01*
X159917933Y-102863114D01*
X159901378Y-102851668D01*
X159891001Y-102843169D01*
X159806940Y-102798343D01*
X159760172Y-102773403D01*
X159743515Y-102765460D01*
X159743512Y-102765459D01*
X159743508Y-102765457D01*
X159743499Y-102765453D01*
X159741564Y-102764635D01*
X159741562Y-102764634D01*
X159741540Y-102764626D01*
X159724255Y-102758219D01*
X159724252Y-102758218D01*
X159636217Y-102730010D01*
X159631795Y-102728499D01*
X159582676Y-102710667D01*
X159553283Y-102699997D01*
X159528729Y-102687865D01*
X159515597Y-102679456D01*
X159500282Y-102667886D01*
X159491066Y-102659729D01*
X159451640Y-102624834D01*
X159445654Y-102621218D01*
X159422089Y-102602762D01*
X157060508Y-100241181D01*
X157027023Y-100179858D01*
X157032007Y-100110166D01*
X157073879Y-100054233D01*
X157139343Y-100029816D01*
X157148189Y-100029500D01*
X174955811Y-100029500D01*
X174985251Y-100038144D01*
X175015238Y-100044668D01*
X175020253Y-100048422D01*
X175022850Y-100049185D01*
X175043492Y-100065819D01*
X175092169Y-100114496D01*
X175111053Y-100138774D01*
X175114136Y-100143956D01*
X175114139Y-100143959D01*
X175152312Y-100186355D01*
X175162327Y-100199054D01*
X175170559Y-100211022D01*
X175182942Y-100233812D01*
X175206211Y-100289946D01*
X175210933Y-100303506D01*
X175214069Y-100314532D01*
X175215205Y-100318383D01*
X175215330Y-100318792D01*
X175216563Y-100322686D01*
X175250295Y-100425688D01*
X175250297Y-100425692D01*
X175250304Y-100425711D01*
X175256833Y-100442980D01*
X175257672Y-100444929D01*
X175265762Y-100461603D01*
X175265764Y-100461607D01*
X175265771Y-100461620D01*
X175265773Y-100461624D01*
X175293097Y-100512005D01*
X175331826Y-100583414D01*
X175336420Y-100591447D01*
X175336956Y-100592337D01*
X175336958Y-100592340D01*
X175338443Y-100593901D01*
X175355976Y-100617354D01*
X175367500Y-100637314D01*
X175460686Y-100730500D01*
X175574814Y-100796392D01*
X175702108Y-100830500D01*
X175702110Y-100830500D01*
X175833890Y-100830500D01*
X175833892Y-100830500D01*
X175961186Y-100796392D01*
X176075314Y-100730500D01*
X176168500Y-100637314D01*
X176234392Y-100523186D01*
X176268500Y-100395892D01*
X176268500Y-100264108D01*
X176234392Y-100136814D01*
X176168500Y-100022686D01*
X176075314Y-99929500D01*
X176046933Y-99913114D01*
X176030378Y-99901668D01*
X176020001Y-99893169D01*
X175935940Y-99848343D01*
X175889172Y-99823403D01*
X175872515Y-99815460D01*
X175872512Y-99815459D01*
X175872508Y-99815457D01*
X175872499Y-99815453D01*
X175870564Y-99814635D01*
X175870562Y-99814634D01*
X175870540Y-99814626D01*
X175853255Y-99808219D01*
X175853252Y-99808218D01*
X175765217Y-99780010D01*
X175760795Y-99778499D01*
X175711676Y-99760667D01*
X175682283Y-99749997D01*
X175657729Y-99737865D01*
X175644597Y-99729456D01*
X175629282Y-99717886D01*
X175617608Y-99707554D01*
X175580640Y-99674834D01*
X175580637Y-99674832D01*
X175580635Y-99674830D01*
X175574656Y-99671219D01*
X175551087Y-99652760D01*
X175341864Y-99443537D01*
X175341862Y-99443535D01*
X175304750Y-99422108D01*
X175267640Y-99400682D01*
X175226246Y-99389591D01*
X175184853Y-99378500D01*
X153132353Y-99378500D01*
X153046647Y-99378500D01*
X152963859Y-99400682D01*
X152889638Y-99443535D01*
X152889635Y-99443537D01*
X151944537Y-100388635D01*
X151944535Y-100388638D01*
X151901680Y-100462863D01*
X151887005Y-100517634D01*
X151887004Y-100517639D01*
X151883449Y-100530910D01*
X151879500Y-100545647D01*
X151879500Y-100700267D01*
X151879395Y-100702823D01*
X151878553Y-100705308D01*
X151875686Y-100728248D01*
X151874202Y-100734091D01*
X151874201Y-100734098D01*
X151871215Y-100791073D01*
X151869317Y-100807135D01*
X151866676Y-100821414D01*
X151859317Y-100846286D01*
X151836074Y-100902439D01*
X151829832Y-100915351D01*
X151824222Y-100925423D01*
X151822251Y-100929044D01*
X151822051Y-100929421D01*
X151820223Y-100932945D01*
X151771279Y-101029558D01*
X151771263Y-101029592D01*
X151763683Y-101046381D01*
X151763674Y-101046402D01*
X151762917Y-101048303D01*
X151762895Y-101048363D01*
X151756816Y-101065892D01*
X151756792Y-101065967D01*
X151717387Y-101198766D01*
X151714977Y-101207606D01*
X151714726Y-101208618D01*
X151714670Y-101210824D01*
X151712369Y-101226735D01*
X151711801Y-101234376D01*
X151711200Y-101237098D01*
X151704500Y-101262108D01*
X132580500Y-101262108D01*
X132580500Y-90504427D01*
X132580816Y-90495581D01*
X132595130Y-90295443D01*
X132595131Y-90295434D01*
X132597646Y-90277938D01*
X132639356Y-90086199D01*
X132644333Y-90069248D01*
X132712911Y-89885385D01*
X132720259Y-89869298D01*
X132782815Y-89754734D01*
X132814291Y-89697089D01*
X132823845Y-89682221D01*
X132941448Y-89525123D01*
X132953020Y-89511769D01*
X133091769Y-89373020D01*
X133105123Y-89361448D01*
X133262221Y-89243845D01*
X133277089Y-89234291D01*
X133449298Y-89140258D01*
X133465385Y-89132911D01*
X133649248Y-89064333D01*
X133666199Y-89059356D01*
X133857938Y-89017646D01*
X133875436Y-89015130D01*
X134075582Y-89000816D01*
X134084428Y-89000500D01*
X134145892Y-89000500D01*
X180414108Y-89000500D01*
X180475572Y-89000500D01*
X180484418Y-89000816D01*
G37*
%TD.AperFunction*%
%TD*%
%TA.AperFunction,Conductor*%
%TO.N,GND*%
G36*
X153359039Y-106445685D02*
G01*
X153404794Y-106498489D01*
X153416000Y-106550000D01*
X153416000Y-116641655D01*
X153396315Y-116708694D01*
X153358577Y-116746265D01*
X153350537Y-116751383D01*
X153344695Y-116755101D01*
X153331329Y-116762492D01*
X153319230Y-116768240D01*
X153296901Y-116776330D01*
X153281260Y-116780352D01*
X153259215Y-116783943D01*
X153253029Y-116784385D01*
X153198982Y-116788246D01*
X153193488Y-116789649D01*
X153162826Y-116793500D01*
X143994516Y-116793500D01*
X143986265Y-116793225D01*
X143975956Y-116792537D01*
X143957769Y-116788225D01*
X143854985Y-116784470D01*
X143853118Y-116784346D01*
X143852599Y-116784155D01*
X143843644Y-116783348D01*
X143788404Y-116775370D01*
X143774500Y-116772541D01*
X143696954Y-116752084D01*
X143694340Y-116751413D01*
X143694269Y-116751395D01*
X143694221Y-116751383D01*
X143504930Y-116704240D01*
X143504479Y-116704133D01*
X143500547Y-116703198D01*
X143500051Y-116703086D01*
X143500046Y-116703086D01*
X143497497Y-116703048D01*
X143467213Y-116698837D01*
X143450761Y-116694429D01*
X143318977Y-116694429D01*
X143191681Y-116728537D01*
X143077555Y-116794429D01*
X143077552Y-116794431D01*
X142984371Y-116887612D01*
X142984369Y-116887615D01*
X142918477Y-117001741D01*
X142897048Y-117081717D01*
X142884369Y-117129037D01*
X142884369Y-117260821D01*
X142898484Y-117313499D01*
X142918477Y-117388116D01*
X142944396Y-117433008D01*
X142984369Y-117502243D01*
X143077555Y-117595429D01*
X143176390Y-117652492D01*
X143191679Y-117661319D01*
X143191683Y-117661321D01*
X143318977Y-117695429D01*
X143318979Y-117695429D01*
X143450759Y-117695429D01*
X143450761Y-117695429D01*
X143578055Y-117661321D01*
X143692183Y-117595429D01*
X143692273Y-117595338D01*
X143696772Y-117591060D01*
X143698733Y-117589286D01*
X143793801Y-117510536D01*
X143803457Y-117502013D01*
X143804524Y-117501010D01*
X143813608Y-117491920D01*
X143851018Y-117452064D01*
X143863102Y-117439527D01*
X143923802Y-117404926D01*
X143941466Y-117402069D01*
X143968940Y-117399645D01*
X143972291Y-117398745D01*
X144004458Y-117394500D01*
X153165938Y-117394500D01*
X153178321Y-117395120D01*
X153187767Y-117396068D01*
X153202196Y-117399796D01*
X153254252Y-117402741D01*
X153256923Y-117403009D01*
X153257848Y-117403384D01*
X153268570Y-117404740D01*
X153274850Y-117405981D01*
X153301578Y-117414503D01*
X153342794Y-117433009D01*
X153395887Y-117478426D01*
X153415997Y-117545339D01*
X153416000Y-117546128D01*
X153416000Y-119582638D01*
X153396315Y-119649677D01*
X153379681Y-119670319D01*
X150622000Y-122427999D01*
X150622000Y-122428000D01*
X150622000Y-123063000D01*
X150368000Y-123063000D01*
X150368000Y-125984000D01*
X150622000Y-125984000D01*
X150622000Y-126375500D01*
X150602315Y-126442539D01*
X150549511Y-126488294D01*
X150498000Y-126499500D01*
X134084428Y-126499500D01*
X134075582Y-126499184D01*
X134053622Y-126497613D01*
X133875442Y-126484869D01*
X133857931Y-126482351D01*
X133666212Y-126440646D01*
X133649236Y-126435662D01*
X133465390Y-126367090D01*
X133449298Y-126359740D01*
X133277095Y-126265711D01*
X133262210Y-126256146D01*
X133105132Y-126138558D01*
X133091762Y-126126972D01*
X132953027Y-125988237D01*
X132941441Y-125974867D01*
X132823849Y-125817784D01*
X132814288Y-125802904D01*
X132720259Y-125630701D01*
X132712909Y-125614609D01*
X132644334Y-125430755D01*
X132639355Y-125413797D01*
X132597647Y-125222063D01*
X132595130Y-125204556D01*
X132590460Y-125139266D01*
X132580816Y-125004418D01*
X132580500Y-124995572D01*
X132580500Y-123780730D01*
X138899500Y-123780730D01*
X138899500Y-125139269D01*
X138902353Y-125169699D01*
X138902353Y-125169701D01*
X138947206Y-125297880D01*
X138947207Y-125297882D01*
X139027850Y-125407150D01*
X139137118Y-125487793D01*
X139179845Y-125502744D01*
X139265299Y-125532646D01*
X139295730Y-125535500D01*
X139295734Y-125535500D01*
X140104270Y-125535500D01*
X140134699Y-125532646D01*
X140134701Y-125532646D01*
X140198790Y-125510219D01*
X140262882Y-125487793D01*
X140372150Y-125407150D01*
X140452793Y-125297882D01*
X140485449Y-125204556D01*
X140497646Y-125169701D01*
X140497646Y-125169699D01*
X140500500Y-125139269D01*
X140500500Y-124106153D01*
X140899500Y-124106153D01*
X140899500Y-124813846D01*
X140930261Y-124968489D01*
X140930264Y-124968501D01*
X140990602Y-125114172D01*
X140990609Y-125114185D01*
X141078210Y-125245288D01*
X141078213Y-125245292D01*
X141189707Y-125356786D01*
X141189711Y-125356789D01*
X141320814Y-125444390D01*
X141320827Y-125444397D01*
X141425596Y-125487793D01*
X141466503Y-125504737D01*
X141606810Y-125532646D01*
X141621153Y-125535499D01*
X141621156Y-125535500D01*
X141621158Y-125535500D01*
X141778844Y-125535500D01*
X141778845Y-125535499D01*
X141933497Y-125504737D01*
X142079179Y-125444394D01*
X142210289Y-125356789D01*
X142321789Y-125245289D01*
X142409394Y-125114179D01*
X142469737Y-124968497D01*
X142500500Y-124813842D01*
X142500500Y-124106158D01*
X142499529Y-124101277D01*
X142850000Y-124101277D01*
X142850000Y-124210000D01*
X143419670Y-124210000D01*
X143399925Y-124229745D01*
X143350556Y-124315255D01*
X143325000Y-124410630D01*
X143325000Y-124509370D01*
X143350556Y-124604745D01*
X143399925Y-124690255D01*
X143419670Y-124710000D01*
X142850000Y-124710000D01*
X142850000Y-124818722D01*
X142882663Y-124982928D01*
X142882665Y-124982936D01*
X142946740Y-125137627D01*
X142946740Y-125137628D01*
X143039758Y-125276839D01*
X143039764Y-125276847D01*
X143158152Y-125395235D01*
X143158160Y-125395241D01*
X143297372Y-125488259D01*
X143449999Y-125551479D01*
X143450000Y-125551479D01*
X143450000Y-124740330D01*
X143469745Y-124760075D01*
X143555255Y-124809444D01*
X143650630Y-124835000D01*
X143749370Y-124835000D01*
X143844745Y-124809444D01*
X143930255Y-124760075D01*
X143950000Y-124740330D01*
X143950000Y-125551479D01*
X144102627Y-125488259D01*
X144102628Y-125488259D01*
X144241839Y-125395241D01*
X144241847Y-125395235D01*
X144360235Y-125276847D01*
X144360241Y-125276839D01*
X144453259Y-125137628D01*
X144453259Y-125137627D01*
X144517334Y-124982936D01*
X144517336Y-124982928D01*
X144549999Y-124818722D01*
X144550000Y-124818720D01*
X144550000Y-124710000D01*
X143980330Y-124710000D01*
X144000075Y-124690255D01*
X144049444Y-124604745D01*
X144075000Y-124509370D01*
X144075000Y-124410630D01*
X144049444Y-124315255D01*
X144000075Y-124229745D01*
X143980330Y-124210000D01*
X144550000Y-124210000D01*
X144550000Y-124101279D01*
X144549999Y-124101277D01*
X144850000Y-124101277D01*
X144850000Y-124210000D01*
X145419670Y-124210000D01*
X145399925Y-124229745D01*
X145350556Y-124315255D01*
X145325000Y-124410630D01*
X145325000Y-124509370D01*
X145350556Y-124604745D01*
X145399925Y-124690255D01*
X145419670Y-124710000D01*
X144850000Y-124710000D01*
X144850000Y-124818722D01*
X144882663Y-124982928D01*
X144882665Y-124982936D01*
X144946740Y-125137627D01*
X144946740Y-125137628D01*
X145039758Y-125276839D01*
X145039764Y-125276847D01*
X145158152Y-125395235D01*
X145158160Y-125395241D01*
X145297372Y-125488259D01*
X145449999Y-125551479D01*
X145450000Y-125551479D01*
X145450000Y-124740330D01*
X145469745Y-124760075D01*
X145555255Y-124809444D01*
X145650630Y-124835000D01*
X145749370Y-124835000D01*
X145844745Y-124809444D01*
X145930255Y-124760075D01*
X145950000Y-124740330D01*
X145950000Y-125551479D01*
X146102627Y-125488259D01*
X146102628Y-125488259D01*
X146241839Y-125395241D01*
X146241847Y-125395235D01*
X146360235Y-125276847D01*
X146360241Y-125276839D01*
X146453259Y-125137628D01*
X146453259Y-125137627D01*
X146517334Y-124982936D01*
X146517336Y-124982928D01*
X146549999Y-124818722D01*
X146550000Y-124818720D01*
X146550000Y-124710000D01*
X145980330Y-124710000D01*
X146000075Y-124690255D01*
X146049444Y-124604745D01*
X146075000Y-124509370D01*
X146075000Y-124410630D01*
X146049444Y-124315255D01*
X146000075Y-124229745D01*
X145980330Y-124210000D01*
X146550000Y-124210000D01*
X146550000Y-124101279D01*
X146549999Y-124101277D01*
X146517336Y-123937071D01*
X146517334Y-123937063D01*
X146453259Y-123782372D01*
X146453259Y-123782371D01*
X146360241Y-123643160D01*
X146360235Y-123643152D01*
X146241844Y-123524761D01*
X146102632Y-123431743D01*
X146102622Y-123431738D01*
X145950000Y-123368519D01*
X145950000Y-124179670D01*
X145930255Y-124159925D01*
X145844745Y-124110556D01*
X145749370Y-124085000D01*
X145650630Y-124085000D01*
X145555255Y-124110556D01*
X145469745Y-124159925D01*
X145450000Y-124179670D01*
X145450000Y-123368519D01*
X145297377Y-123431738D01*
X145297367Y-123431743D01*
X145158155Y-123524761D01*
X145039764Y-123643152D01*
X145039758Y-123643160D01*
X144946740Y-123782371D01*
X144946740Y-123782372D01*
X144882665Y-123937063D01*
X144882663Y-123937071D01*
X144850000Y-124101277D01*
X144549999Y-124101277D01*
X144517336Y-123937071D01*
X144517334Y-123937063D01*
X144453259Y-123782372D01*
X144453259Y-123782371D01*
X144360241Y-123643160D01*
X144360235Y-123643152D01*
X144241844Y-123524761D01*
X144102632Y-123431743D01*
X144102622Y-123431738D01*
X143950000Y-123368519D01*
X143950000Y-124179670D01*
X143930255Y-124159925D01*
X143844745Y-124110556D01*
X143749370Y-124085000D01*
X143650630Y-124085000D01*
X143555255Y-124110556D01*
X143469745Y-124159925D01*
X143450000Y-124179670D01*
X143450000Y-123368519D01*
X143297377Y-123431738D01*
X143297367Y-123431743D01*
X143158155Y-123524761D01*
X143039764Y-123643152D01*
X143039758Y-123643160D01*
X142946740Y-123782371D01*
X142946740Y-123782372D01*
X142882665Y-123937063D01*
X142882663Y-123937071D01*
X142850000Y-124101277D01*
X142499529Y-124101277D01*
X142469737Y-123951503D01*
X142463756Y-123937063D01*
X142409397Y-123805827D01*
X142409390Y-123805814D01*
X142321789Y-123674711D01*
X142321786Y-123674707D01*
X142210292Y-123563213D01*
X142210288Y-123563210D01*
X142079185Y-123475609D01*
X142079172Y-123475602D01*
X141933501Y-123415264D01*
X141933489Y-123415261D01*
X141778845Y-123384500D01*
X141778842Y-123384500D01*
X141621158Y-123384500D01*
X141621155Y-123384500D01*
X141466510Y-123415261D01*
X141466498Y-123415264D01*
X141320827Y-123475602D01*
X141320814Y-123475609D01*
X141189711Y-123563210D01*
X141189707Y-123563213D01*
X141078213Y-123674707D01*
X141078210Y-123674711D01*
X140990609Y-123805814D01*
X140990602Y-123805827D01*
X140930264Y-123951498D01*
X140930261Y-123951510D01*
X140899500Y-124106153D01*
X140500500Y-124106153D01*
X140500500Y-123780730D01*
X140497646Y-123750300D01*
X140497646Y-123750298D01*
X140452793Y-123622119D01*
X140452792Y-123622117D01*
X140409319Y-123563213D01*
X140372150Y-123512850D01*
X140262882Y-123432207D01*
X140262880Y-123432206D01*
X140134700Y-123387353D01*
X140104270Y-123384500D01*
X140104266Y-123384500D01*
X139295734Y-123384500D01*
X139295730Y-123384500D01*
X139265300Y-123387353D01*
X139265298Y-123387353D01*
X139137119Y-123432206D01*
X139137117Y-123432207D01*
X139027850Y-123512850D01*
X138947207Y-123622117D01*
X138947206Y-123622119D01*
X138902353Y-123750298D01*
X138902353Y-123750300D01*
X138899500Y-123780730D01*
X132580500Y-123780730D01*
X132580500Y-111045943D01*
X139861499Y-111045943D01*
X139861499Y-111204057D01*
X139861500Y-111204060D01*
X139861500Y-116792057D01*
X139890642Y-116900814D01*
X139902423Y-116944783D01*
X139902426Y-116944790D01*
X139981475Y-117081709D01*
X139981479Y-117081714D01*
X139981480Y-117081716D01*
X140093284Y-117193520D01*
X140093286Y-117193521D01*
X140093290Y-117193524D01*
X140209852Y-117260820D01*
X140230216Y-117272577D01*
X140382943Y-117313500D01*
X140382945Y-117313500D01*
X140541055Y-117313500D01*
X140541057Y-117313500D01*
X140693784Y-117272577D01*
X140830716Y-117193520D01*
X140942520Y-117081716D01*
X141021577Y-116944784D01*
X141062500Y-116792057D01*
X141062500Y-111425097D01*
X141082185Y-111358058D01*
X141098819Y-111337416D01*
X142833416Y-109602819D01*
X142894739Y-109569334D01*
X142921097Y-109566500D01*
X142954055Y-109566500D01*
X142954057Y-109566500D01*
X143106784Y-109525577D01*
X143243716Y-109446520D01*
X143355520Y-109334716D01*
X143434577Y-109197784D01*
X143475500Y-109045057D01*
X143475500Y-108886943D01*
X143434577Y-108734216D01*
X143434573Y-108734209D01*
X143355524Y-108597290D01*
X143355518Y-108597282D01*
X143243717Y-108485481D01*
X143243709Y-108485475D01*
X143106790Y-108406426D01*
X143106786Y-108406424D01*
X143106784Y-108406423D01*
X142954057Y-108365500D01*
X142700057Y-108365500D01*
X142541943Y-108365500D01*
X142389215Y-108406423D01*
X142389214Y-108406423D01*
X142389212Y-108406424D01*
X142389209Y-108406425D01*
X142339096Y-108435359D01*
X142339095Y-108435360D01*
X142295689Y-108460420D01*
X142252285Y-108485479D01*
X142252282Y-108485481D01*
X139981481Y-110756282D01*
X139981479Y-110756285D01*
X139931361Y-110843094D01*
X139931359Y-110843096D01*
X139902425Y-110893209D01*
X139902424Y-110893210D01*
X139902423Y-110893215D01*
X139861499Y-111045943D01*
X132580500Y-111045943D01*
X132580500Y-106550000D01*
X132600185Y-106482961D01*
X132652989Y-106437206D01*
X132704500Y-106426000D01*
X153292000Y-106426000D01*
X153359039Y-106445685D01*
G37*
%TD.AperFunction*%
%TD*%
%TA.AperFunction,Conductor*%
%TO.N,/ESP32/PRES_ADC*%
G36*
X160047612Y-106989973D02*
G01*
X160047701Y-106989991D01*
X160055130Y-106994991D01*
X160056849Y-107003779D01*
X160056598Y-107004787D01*
X160017192Y-107137589D01*
X160016412Y-107139548D01*
X159967455Y-107236186D01*
X159967239Y-107236594D01*
X159952358Y-107263302D01*
X159908552Y-107369139D01*
X159895693Y-107438666D01*
X159891581Y-107517148D01*
X159887726Y-107525231D01*
X159879897Y-107528236D01*
X159652008Y-107528236D01*
X159643735Y-107524809D01*
X159640330Y-107517248D01*
X159634822Y-107426880D01*
X159634822Y-107426878D01*
X159618163Y-107350906D01*
X159618162Y-107350905D01*
X159618162Y-107350902D01*
X159564658Y-107236411D01*
X159519477Y-107148624D01*
X159518693Y-107146692D01*
X159475514Y-107004846D01*
X159476383Y-106995936D01*
X159483300Y-106990248D01*
X159484382Y-106989974D01*
X159763682Y-106933469D01*
X159768318Y-106933469D01*
X160047612Y-106989973D01*
G37*
%TD.AperFunction*%
%TD*%
%TA.AperFunction,Conductor*%
%TO.N,/ESP32/PRES_ADC*%
G36*
X158619089Y-119021402D02*
G01*
X158622404Y-119028062D01*
X158631465Y-119093168D01*
X158631465Y-119093169D01*
X158631466Y-119093171D01*
X158660837Y-119139631D01*
X158706074Y-119168000D01*
X158720634Y-119173247D01*
X158764117Y-119188918D01*
X158764138Y-119188925D01*
X158810401Y-119204720D01*
X158811818Y-119205312D01*
X158904801Y-119251644D01*
X158910678Y-119258401D01*
X158910055Y-119267334D01*
X158909323Y-119268598D01*
X158752704Y-119503935D01*
X158745268Y-119508924D01*
X158745209Y-119508936D01*
X158466901Y-119563349D01*
X158458124Y-119561573D01*
X158453247Y-119554461D01*
X158442893Y-119508936D01*
X158412529Y-119375428D01*
X158390375Y-119280259D01*
X158390180Y-119279198D01*
X158375986Y-119173840D01*
X158375888Y-119172649D01*
X158375741Y-119167999D01*
X158371381Y-119030043D01*
X158374545Y-119021667D01*
X158382705Y-119017981D01*
X158383075Y-119017975D01*
X158610816Y-119017975D01*
X158619089Y-119021402D01*
G37*
%TD.AperFunction*%
%TD*%
%TA.AperFunction,Conductor*%
%TO.N,/ESP32/EN*%
G36*
X152327265Y-100737191D02*
G01*
X152330670Y-100744752D01*
X152336176Y-100835109D01*
X152336178Y-100835118D01*
X152352836Y-100911095D01*
X152406349Y-101025602D01*
X152451519Y-101113367D01*
X152452308Y-101115312D01*
X152479693Y-101205273D01*
X152495485Y-101257151D01*
X152494616Y-101266063D01*
X152487699Y-101271751D01*
X152486612Y-101272026D01*
X152207320Y-101328530D01*
X152202680Y-101328530D01*
X151923298Y-101272008D01*
X151915869Y-101267008D01*
X151914150Y-101258220D01*
X151914395Y-101257235D01*
X151953809Y-101124401D01*
X151954584Y-101122456D01*
X152003567Y-101025765D01*
X152003739Y-101025441D01*
X152018642Y-100998695D01*
X152062448Y-100892859D01*
X152075306Y-100823337D01*
X152079419Y-100744852D01*
X152083274Y-100736769D01*
X152091103Y-100733764D01*
X152318992Y-100733764D01*
X152327265Y-100737191D01*
G37*
%TD.AperFunction*%
%TD*%
%TA.AperFunction,Conductor*%
%TO.N,/ESP32/EN*%
G36*
X175444441Y-99828717D02*
G01*
X175512238Y-99888723D01*
X175555908Y-99916687D01*
X175577744Y-99930670D01*
X175696535Y-99973794D01*
X175790547Y-100003917D01*
X175792482Y-100004735D01*
X175923306Y-100074498D01*
X175928994Y-100081415D01*
X175928125Y-100090327D01*
X175927550Y-100091290D01*
X175770015Y-100328734D01*
X175766734Y-100332015D01*
X175529215Y-100489600D01*
X175520427Y-100491319D01*
X175512998Y-100486319D01*
X175512462Y-100485429D01*
X175507481Y-100476245D01*
X175446416Y-100363652D01*
X175445589Y-100361731D01*
X175411857Y-100258729D01*
X175411732Y-100258320D01*
X175403374Y-100228931D01*
X175403372Y-100228923D01*
X175359510Y-100123109D01*
X175319442Y-100064858D01*
X175286154Y-100027888D01*
X175266853Y-100006451D01*
X175263864Y-99998009D01*
X175267274Y-99990350D01*
X175428418Y-99829206D01*
X175436690Y-99825780D01*
X175444441Y-99828717D01*
G37*
%TD.AperFunction*%
%TD*%
%TA.AperFunction,Conductor*%
%TO.N,PRES_SENSE*%
G36*
X156794789Y-115823969D02*
G01*
X157072304Y-115880113D01*
X157079733Y-115885113D01*
X157081452Y-115893901D01*
X157081351Y-115894353D01*
X157052316Y-116013402D01*
X157052057Y-116014304D01*
X157021614Y-116106355D01*
X156987523Y-116218311D01*
X156974693Y-116302744D01*
X156974690Y-116302771D01*
X156970456Y-116407011D01*
X156966697Y-116415138D01*
X156958766Y-116418236D01*
X156731096Y-116418236D01*
X156722823Y-116414809D01*
X156719412Y-116407156D01*
X156719404Y-116407011D01*
X156714026Y-116305662D01*
X156714025Y-116305657D01*
X156714025Y-116305655D01*
X156695289Y-116226658D01*
X156695286Y-116226650D01*
X156662567Y-116162625D01*
X156662561Y-116162615D01*
X156614637Y-116094963D01*
X156614637Y-116094964D01*
X156614633Y-116094958D01*
X156547509Y-116000456D01*
X156545513Y-115991729D01*
X156550274Y-115984144D01*
X156550464Y-115984012D01*
X156785943Y-115825726D01*
X156794720Y-115823956D01*
X156794789Y-115823969D01*
G37*
%TD.AperFunction*%
%TD*%
%TA.AperFunction,Conductor*%
%TO.N,PRES_SENSE*%
G36*
X155757532Y-123226781D02*
G01*
X155919351Y-123388600D01*
X155922778Y-123396873D01*
X155920207Y-123404191D01*
X155834069Y-123511642D01*
X155834062Y-123511653D01*
X155778544Y-123606069D01*
X155728570Y-123712617D01*
X155649714Y-123953551D01*
X155649713Y-123953556D01*
X155607708Y-124203158D01*
X155607707Y-124203169D01*
X155603924Y-124438593D01*
X155632266Y-124629796D01*
X155630089Y-124638483D01*
X155622408Y-124643086D01*
X155617205Y-124642680D01*
X155041241Y-124462876D01*
X155034365Y-124457140D01*
X155033169Y-124453519D01*
X154902829Y-123619644D01*
X154904937Y-123610942D01*
X154912582Y-123606278D01*
X154916182Y-123606277D01*
X154953667Y-123612108D01*
X155030691Y-123610244D01*
X155112617Y-123595355D01*
X155221529Y-123560494D01*
X155331667Y-123511658D01*
X155460598Y-123440057D01*
X155579139Y-123361253D01*
X155741782Y-123226056D01*
X155750333Y-123223403D01*
X155757532Y-123226781D01*
G37*
%TD.AperFunction*%
%TD*%
%TA.AperFunction,Conductor*%
%TO.N,TEMP_DQ*%
G36*
X158269612Y-111561973D02*
G01*
X158269701Y-111561991D01*
X158277130Y-111566991D01*
X158278849Y-111575779D01*
X158278598Y-111576787D01*
X158239192Y-111709589D01*
X158238412Y-111711548D01*
X158189455Y-111808186D01*
X158189239Y-111808594D01*
X158174358Y-111835302D01*
X158130552Y-111941139D01*
X158117693Y-112010666D01*
X158113581Y-112089148D01*
X158109726Y-112097231D01*
X158101897Y-112100236D01*
X157874008Y-112100236D01*
X157865735Y-112096809D01*
X157862330Y-112089248D01*
X157856822Y-111998880D01*
X157856822Y-111998878D01*
X157840163Y-111922906D01*
X157840162Y-111922905D01*
X157840162Y-111922902D01*
X157786658Y-111808411D01*
X157741477Y-111720624D01*
X157740693Y-111718692D01*
X157697514Y-111576846D01*
X157698383Y-111567936D01*
X157705300Y-111562248D01*
X157706382Y-111561974D01*
X157985682Y-111505469D01*
X157990318Y-111505469D01*
X158269612Y-111561973D01*
G37*
%TD.AperFunction*%
%TD*%
%TA.AperFunction,Conductor*%
%TO.N,TEMP_DQ*%
G36*
X158095068Y-123507307D02*
G01*
X158098495Y-123515580D01*
X158095506Y-123523389D01*
X158071202Y-123550495D01*
X158053626Y-123570097D01*
X157977420Y-123672525D01*
X157977419Y-123672527D01*
X157902334Y-123792242D01*
X157902334Y-123792243D01*
X157770410Y-124058275D01*
X157770404Y-124058289D01*
X157681351Y-124314589D01*
X157638374Y-124533599D01*
X157635329Y-124691642D01*
X157631743Y-124699848D01*
X157623406Y-124703115D01*
X157619165Y-124702231D01*
X157042361Y-124464039D01*
X157036022Y-124457714D01*
X157035129Y-124453035D01*
X157048722Y-123616418D01*
X157052282Y-123608204D01*
X157060610Y-123604912D01*
X157066270Y-123606478D01*
X157086549Y-123618192D01*
X157158011Y-123648180D01*
X157233645Y-123667596D01*
X157323182Y-123677985D01*
X157413927Y-123677089D01*
X157511362Y-123664859D01*
X157604653Y-123642572D01*
X157763354Y-123576849D01*
X157770340Y-123571732D01*
X157859915Y-123506140D01*
X157866827Y-123503880D01*
X158086795Y-123503880D01*
X158095068Y-123507307D01*
G37*
%TD.AperFunction*%
%TD*%
%TA.AperFunction,Conductor*%
%TO.N,/PGOOD*%
G36*
X143455267Y-116903649D02*
G01*
X143644558Y-116950792D01*
X143740341Y-116976062D01*
X143831719Y-116989258D01*
X143950268Y-116993588D01*
X143958411Y-116997314D01*
X143961541Y-117005280D01*
X143961541Y-117183286D01*
X143958114Y-117191559D01*
X143950870Y-117194941D01*
X143865284Y-117202496D01*
X143798037Y-117226365D01*
X143798036Y-117226365D01*
X143747678Y-117263167D01*
X143747674Y-117263170D01*
X143702100Y-117310447D01*
X143663774Y-117351278D01*
X143662707Y-117352281D01*
X143561499Y-117436119D01*
X143552942Y-117438758D01*
X143545025Y-117434573D01*
X143544325Y-117433636D01*
X143386596Y-117198986D01*
X143384825Y-117190208D01*
X143384838Y-117190139D01*
X143422237Y-117005280D01*
X143440970Y-116912680D01*
X143445970Y-116905253D01*
X143454758Y-116903534D01*
X143455267Y-116903649D01*
G37*
%TD.AperFunction*%
%TD*%
%TA.AperFunction,Conductor*%
%TO.N,/PGOOD*%
G36*
X153735405Y-116804088D02*
G01*
X153740780Y-116811250D01*
X153740915Y-116811837D01*
X153797530Y-117091680D01*
X153797530Y-117096320D01*
X153740921Y-117376132D01*
X153735921Y-117383561D01*
X153727133Y-117385280D01*
X153726518Y-117385138D01*
X153691762Y-117376132D01*
X153655119Y-117366637D01*
X153653723Y-117366179D01*
X153625669Y-117354976D01*
X153589503Y-117340535D01*
X153587883Y-117339738D01*
X153490614Y-117282169D01*
X153490203Y-117281914D01*
X153450308Y-117256020D01*
X153351518Y-117211663D01*
X153351517Y-117211662D01*
X153285991Y-117198708D01*
X153213803Y-117194624D01*
X153205737Y-117190736D01*
X153202764Y-117182943D01*
X153202764Y-117004893D01*
X153206191Y-116996620D01*
X153213628Y-116993224D01*
X153303574Y-116986800D01*
X153378776Y-116967464D01*
X153437883Y-116939383D01*
X153490254Y-116906050D01*
X153490541Y-116905874D01*
X153592939Y-116845879D01*
X153594584Y-116845083D01*
X153656956Y-116820758D01*
X153658266Y-116820336D01*
X153726541Y-116802824D01*
X153735405Y-116804088D01*
G37*
%TD.AperFunction*%
%TD*%
%TA.AperFunction,Conductor*%
%TO.N,/ESP32/pgm*%
G36*
X159315441Y-102778717D02*
G01*
X159383238Y-102838723D01*
X159426908Y-102866687D01*
X159448744Y-102880670D01*
X159567535Y-102923794D01*
X159661547Y-102953917D01*
X159663482Y-102954735D01*
X159794306Y-103024498D01*
X159799994Y-103031415D01*
X159799125Y-103040327D01*
X159798550Y-103041290D01*
X159641015Y-103278734D01*
X159637734Y-103282015D01*
X159400215Y-103439600D01*
X159391427Y-103441319D01*
X159383998Y-103436319D01*
X159383462Y-103435429D01*
X159378481Y-103426245D01*
X159317416Y-103313652D01*
X159316589Y-103311731D01*
X159282857Y-103208729D01*
X159282732Y-103208320D01*
X159274374Y-103178931D01*
X159274372Y-103178923D01*
X159230510Y-103073109D01*
X159190442Y-103014858D01*
X159157154Y-102977888D01*
X159137853Y-102956451D01*
X159134864Y-102948009D01*
X159138274Y-102940350D01*
X159299418Y-102779206D01*
X159307690Y-102775780D01*
X159315441Y-102778717D01*
G37*
%TD.AperFunction*%
%TD*%
%TA.AperFunction,Conductor*%
%TO.N,/ESP32/pgm*%
G36*
X153486769Y-100039396D02*
G01*
X153619593Y-100078808D01*
X153621545Y-100079586D01*
X153718209Y-100128556D01*
X153718576Y-100128750D01*
X153745304Y-100143642D01*
X153851141Y-100187448D01*
X153920663Y-100200306D01*
X153999150Y-100204419D01*
X154007231Y-100208273D01*
X154010236Y-100216102D01*
X154010236Y-100443991D01*
X154006809Y-100452264D01*
X153999248Y-100455669D01*
X153908880Y-100461177D01*
X153908878Y-100461177D01*
X153832905Y-100477836D01*
X153718406Y-100531344D01*
X153630632Y-100576519D01*
X153628685Y-100577309D01*
X153486848Y-100620485D01*
X153477936Y-100619616D01*
X153472248Y-100612699D01*
X153471973Y-100611612D01*
X153455734Y-100531344D01*
X153415469Y-100332318D01*
X153415469Y-100327680D01*
X153438043Y-100216102D01*
X153471991Y-100048297D01*
X153476991Y-100040869D01*
X153485779Y-100039150D01*
X153486769Y-100039396D01*
G37*
%TD.AperFunction*%
%TD*%
M02*
