M48
; DRILL file {KiCad 9.0.6} date 2025-11-20T15:59:52+0100
; FORMAT={-:-/ absolute / inch / decimal}
; #@! TF.CreationDate,2025-11-20T15:59:52+01:00
; #@! TF.GenerationSoftware,Kicad,Pcbnew,9.0.6
; #@! TF.FileFunction,Plated,1,2,PTH
FMAT,2
INCH
; #@! TA.AperFunction,Plated,PTH,ViaDrill
T1C0.0118
; #@! TA.AperFunction,Plated,PTH,ViaDrill
T2C0.0157
; #@! TA.AperFunction,Plated,PTH,ComponentDrill
T3C0.0236
; #@! TA.AperFunction,Plated,PTH,ComponentDrill
T4C0.0295
; #@! TA.AperFunction,Plated,PTH,ComponentDrill
T5C0.1260
%
G90
G05
T1
X5.25Y-3.86
X5.25Y-3.915
X5.25Y-3.965
X5.25Y-4.02
X5.25Y-4.07
X5.25Y-4.12
X5.25Y-4.23
X5.25Y-4.28
X5.25Y-4.33
X5.25Y-4.64
X5.25Y-4.69
X5.25Y-4.74
X5.25Y-4.79
X5.25Y-4.84
X5.25Y-4.89
X5.25Y-4.945
X5.3Y-3.86
X5.31Y-4.21
X5.35Y-3.86
X5.36Y-4.21
X5.4Y-3.86
X5.41Y-4.21
X5.45Y-3.86
X5.505Y-3.86
X5.53Y-4.595
X5.53Y-4.65
X5.55Y-4.63
X5.56Y-3.86
X5.57Y-4.61
X5.61Y-3.86
X5.625Y-4.29
X5.6451Y-4.614
X5.66Y-3.86
X5.675Y-4.15
X5.71Y-3.86
X5.725Y-4.15
X5.76Y-3.86
X5.775Y-4.15
X5.81Y-3.86
X5.85Y-4.34
X5.86Y-4.945
X5.865Y-3.86
X5.9Y-4.34
X5.92Y-3.86
X5.935Y-4.86
X5.935Y-4.945
X5.97Y-3.86
X5.9923Y-3.9893
X6.02Y-3.86
X6.04Y-3.95
X6.055Y-4.61
X6.07Y-3.86
X6.08Y-4.41
X6.095Y-4.53
X6.12Y-3.86
X6.135Y-4.075
X6.135Y-4.105
X6.135Y-4.135
X6.135Y-4.73
X6.135Y-4.76
X6.135Y-4.79
X6.15Y-4.3
X6.17Y-3.86
X6.1728Y-4.56
X6.175Y-4.775
X6.22Y-4.39
X6.225Y-3.86
X6.25Y-4.705
X6.275Y-3.86
X6.285Y-4.0661
X6.29Y-4.21
X6.325Y-3.86
X6.325Y-4.525
X6.375Y-3.86
X6.375Y-3.975
X6.375Y-4.425
X6.425Y-3.86
X6.4677Y-4.8622
X6.475Y-3.86
X6.475Y-4.125
X6.475Y-4.175
X6.475Y-4.225
X6.475Y-4.275
X6.525Y-3.86
X6.525Y-4.075
X6.525Y-4.325
X6.575Y-3.86
X6.575Y-4.075
X6.575Y-4.325
X6.625Y-3.86
X6.625Y-4.075
X6.625Y-4.325
X6.6349Y-4.639
X6.675Y-3.86
X6.675Y-4.075
X6.675Y-4.325
X6.725Y-3.86
X6.725Y-4.125
X6.725Y-4.175
X6.725Y-4.225
X6.725Y-4.275
X6.74Y-4.545
X6.775Y-3.86
X6.79Y-4.585
X6.825Y-3.86
X6.825Y-3.975
X6.825Y-4.425
X6.83Y-4.61
X6.875Y-3.86
X6.875Y-4.525
X6.92Y-3.95
X6.93Y-3.86
X6.95Y-4.075
X6.95Y-4.13
X6.95Y-4.18
X6.95Y-4.23
X6.95Y-4.28
X6.95Y-4.33
X6.95Y-4.38
X7.0976Y-4.8937
T2
X5.475Y-4.21
X5.52Y-4.275
X5.52Y-4.325
X5.575Y-4.21
X5.675Y-4.21
X5.76Y-4.45
X5.76Y-4.49
X5.775Y-4.21
X5.79Y-4.47
X5.82Y-4.45
X5.82Y-4.49
X5.875Y-4.21
X5.935Y-4.775
X5.95Y-4.41
X5.975Y-4.21
X5.985Y-4.73
X6.01Y-4.41
X6.01Y-4.46
X6.01Y-4.51
X6.01Y-4.56
X6.01Y-4.655
X6.015Y-4.805
X6.065Y-4.76
X6.075Y-4.21
X6.095Y-4.63
X6.2685Y-4.67
T4
X5.5Y-4.9
X5.5787Y-4.9
X5.6575Y-4.9
X5.7362Y-4.9
X6.025Y-4.9
X6.1037Y-4.9
X6.1825Y-4.9
X6.2612Y-4.9
X6.34Y-4.9
T5
X5.3378Y-4.5
X7.0465Y-4.5
T3
G00X6.6049Y-4.6811
M15
G01X6.6049Y-4.7244
M16
G05
G00X6.6049Y-4.8516
M15
G01X6.6049Y-4.8831
M16
G05
G00X6.9451Y-4.6811
M15
G01X6.9451Y-4.7244
M16
G05
G00X6.9451Y-4.8516
M15
G01X6.9451Y-4.8831
M16
G05
M30
