%TF.GenerationSoftware,KiCad,Pcbnew,9.0.6*%
%TF.CreationDate,2025-11-20T15:59:52+01:00*%
%TF.ProjectId,N57__ldruckanzeige,4e35375f-d66c-4647-9275-636b616e7a65,rev?*%
%TF.SameCoordinates,Original*%
%TF.FileFunction,Legend,Bot*%
%TF.FilePolarity,Positive*%
%FSLAX46Y46*%
G04 Gerber Fmt 4.6, Leading zero omitted, Abs format (unit mm)*
G04 Created by KiCad (PCBNEW 9.0.6) date 2025-11-20 15:59:52*
%MOMM*%
%LPD*%
G01*
G04 APERTURE LIST*
G04 Aperture macros list*
%AMRoundRect*
0 Rectangle with rounded corners*
0 $1 Rounding radius*
0 $2 $3 $4 $5 $6 $7 $8 $9 X,Y pos of 4 corners*
0 Add a 4 corners polygon primitive as box body*
4,1,4,$2,$3,$4,$5,$6,$7,$8,$9,$2,$3,0*
0 Add four circle primitives for the rounded corners*
1,1,$1+$1,$2,$3*
1,1,$1+$1,$4,$5*
1,1,$1+$1,$6,$7*
1,1,$1+$1,$8,$9*
0 Add four rect primitives between the rounded corners*
20,1,$1+$1,$2,$3,$4,$5,0*
20,1,$1+$1,$4,$5,$6,$7,0*
20,1,$1+$1,$6,$7,$8,$9,0*
20,1,$1+$1,$8,$9,$2,$3,0*%
G04 Aperture macros list end*
%ADD10C,0.153000*%
%ADD11C,0.150000*%
%ADD12C,0.000000*%
%ADD13C,5.700000*%
%ADD14RoundRect,0.250000X-0.350000X-0.625000X0.350000X-0.625000X0.350000X0.625000X-0.350000X0.625000X0*%
%ADD15O,1.200000X1.750000*%
%ADD16C,0.650000*%
%ADD17O,1.000000X2.100000*%
%ADD18O,1.000000X1.800000*%
G04 APERTURE END LIST*
D10*
X165140000Y-104220000D02*
X170140000Y-104220000D01*
X170140000Y-109220000D01*
X165140000Y-109220000D01*
X165140000Y-104220000D01*
G36*
X165140000Y-104220000D02*
G01*
X170140000Y-104220000D01*
X170140000Y-109220000D01*
X165140000Y-109220000D01*
X165140000Y-104220000D01*
G37*
X142107628Y-121835186D02*
X142107628Y-122806615D01*
X142107628Y-122806615D02*
X142050485Y-122920901D01*
X142050485Y-122920901D02*
X141993343Y-122978044D01*
X141993343Y-122978044D02*
X141879057Y-123035186D01*
X141879057Y-123035186D02*
X141650485Y-123035186D01*
X141650485Y-123035186D02*
X141536200Y-122978044D01*
X141536200Y-122978044D02*
X141479057Y-122920901D01*
X141479057Y-122920901D02*
X141421914Y-122806615D01*
X141421914Y-122806615D02*
X141421914Y-121835186D01*
X140587628Y-122664901D02*
X140450485Y-122710615D01*
X140450485Y-122710615D02*
X140404771Y-122756329D01*
X140404771Y-122756329D02*
X140359057Y-122847758D01*
X140359057Y-122847758D02*
X140359057Y-122984901D01*
X140359057Y-122984901D02*
X140404771Y-123076329D01*
X140404771Y-123076329D02*
X140450485Y-123122044D01*
X140450485Y-123122044D02*
X140541914Y-123167758D01*
X140541914Y-123167758D02*
X140907628Y-123167758D01*
X140907628Y-123167758D02*
X140907628Y-122207758D01*
X140907628Y-122207758D02*
X140587628Y-122207758D01*
X140587628Y-122207758D02*
X140496200Y-122253472D01*
X140496200Y-122253472D02*
X140450485Y-122299186D01*
X140450485Y-122299186D02*
X140404771Y-122390615D01*
X140404771Y-122390615D02*
X140404771Y-122482044D01*
X140404771Y-122482044D02*
X140450485Y-122573472D01*
X140450485Y-122573472D02*
X140496200Y-122619186D01*
X140496200Y-122619186D02*
X140587628Y-122664901D01*
X140587628Y-122664901D02*
X140907628Y-122664901D01*
X139536200Y-123167758D02*
X139536200Y-122664901D01*
X139536200Y-122664901D02*
X139581914Y-122573472D01*
X139581914Y-122573472D02*
X139673342Y-122527758D01*
X139673342Y-122527758D02*
X139856200Y-122527758D01*
X139856200Y-122527758D02*
X139947628Y-122573472D01*
X139536200Y-123122044D02*
X139627628Y-123167758D01*
X139627628Y-123167758D02*
X139856200Y-123167758D01*
X139856200Y-123167758D02*
X139947628Y-123122044D01*
X139947628Y-123122044D02*
X139993342Y-123030615D01*
X139993342Y-123030615D02*
X139993342Y-122939186D01*
X139993342Y-122939186D02*
X139947628Y-122847758D01*
X139947628Y-122847758D02*
X139856200Y-122802044D01*
X139856200Y-122802044D02*
X139627628Y-122802044D01*
X139627628Y-122802044D02*
X139536200Y-122756329D01*
X139216200Y-122527758D02*
X138850486Y-122527758D01*
X139079057Y-122207758D02*
X139079057Y-123030615D01*
X139079057Y-123030615D02*
X139033343Y-123122044D01*
X139033343Y-123122044D02*
X138941914Y-123167758D01*
X138941914Y-123167758D02*
X138850486Y-123167758D01*
X145797057Y-121892329D02*
X145911343Y-121835186D01*
X145911343Y-121835186D02*
X146082771Y-121835186D01*
X146082771Y-121835186D02*
X146254200Y-121892329D01*
X146254200Y-121892329D02*
X146368485Y-122006615D01*
X146368485Y-122006615D02*
X146425628Y-122120901D01*
X146425628Y-122120901D02*
X146482771Y-122349472D01*
X146482771Y-122349472D02*
X146482771Y-122520901D01*
X146482771Y-122520901D02*
X146425628Y-122749472D01*
X146425628Y-122749472D02*
X146368485Y-122863758D01*
X146368485Y-122863758D02*
X146254200Y-122978044D01*
X146254200Y-122978044D02*
X146082771Y-123035186D01*
X146082771Y-123035186D02*
X145968485Y-123035186D01*
X145968485Y-123035186D02*
X145797057Y-122978044D01*
X145797057Y-122978044D02*
X145739914Y-122920901D01*
X145739914Y-122920901D02*
X145739914Y-122520901D01*
X145739914Y-122520901D02*
X145968485Y-122520901D01*
X145225628Y-123035186D02*
X145225628Y-121835186D01*
X145225628Y-121835186D02*
X144539914Y-123035186D01*
X144539914Y-123035186D02*
X144539914Y-121835186D01*
X143968485Y-123035186D02*
X143968485Y-121835186D01*
X143968485Y-121835186D02*
X143682771Y-121835186D01*
X143682771Y-121835186D02*
X143511342Y-121892329D01*
X143511342Y-121892329D02*
X143397057Y-122006615D01*
X143397057Y-122006615D02*
X143339914Y-122120901D01*
X143339914Y-122120901D02*
X143282771Y-122349472D01*
X143282771Y-122349472D02*
X143282771Y-122520901D01*
X143282771Y-122520901D02*
X143339914Y-122749472D01*
X143339914Y-122749472D02*
X143397057Y-122863758D01*
X143397057Y-122863758D02*
X143511342Y-122978044D01*
X143511342Y-122978044D02*
X143682771Y-123035186D01*
X143682771Y-123035186D02*
X143968485Y-123035186D01*
X157818813Y-122975057D02*
X157818813Y-122289343D01*
X156618813Y-122632200D02*
X157818813Y-122632200D01*
X156675956Y-121432199D02*
X156618813Y-121546485D01*
X156618813Y-121546485D02*
X156618813Y-121775057D01*
X156618813Y-121775057D02*
X156675956Y-121889342D01*
X156675956Y-121889342D02*
X156790241Y-121946485D01*
X156790241Y-121946485D02*
X157247384Y-121946485D01*
X157247384Y-121946485D02*
X157361670Y-121889342D01*
X157361670Y-121889342D02*
X157418813Y-121775057D01*
X157418813Y-121775057D02*
X157418813Y-121546485D01*
X157418813Y-121546485D02*
X157361670Y-121432199D01*
X157361670Y-121432199D02*
X157247384Y-121375057D01*
X157247384Y-121375057D02*
X157133098Y-121375057D01*
X157133098Y-121375057D02*
X157018813Y-121946485D01*
X156618813Y-120860771D02*
X157418813Y-120860771D01*
X157304527Y-120860771D02*
X157361670Y-120803628D01*
X157361670Y-120803628D02*
X157418813Y-120689343D01*
X157418813Y-120689343D02*
X157418813Y-120517914D01*
X157418813Y-120517914D02*
X157361670Y-120403628D01*
X157361670Y-120403628D02*
X157247384Y-120346486D01*
X157247384Y-120346486D02*
X156618813Y-120346486D01*
X157247384Y-120346486D02*
X157361670Y-120289343D01*
X157361670Y-120289343D02*
X157418813Y-120175057D01*
X157418813Y-120175057D02*
X157418813Y-120003628D01*
X157418813Y-120003628D02*
X157361670Y-119889343D01*
X157361670Y-119889343D02*
X157247384Y-119832200D01*
X157247384Y-119832200D02*
X156618813Y-119832200D01*
X157418813Y-119260771D02*
X156218813Y-119260771D01*
X157361670Y-119260771D02*
X157418813Y-119146486D01*
X157418813Y-119146486D02*
X157418813Y-118917914D01*
X157418813Y-118917914D02*
X157361670Y-118803628D01*
X157361670Y-118803628D02*
X157304527Y-118746486D01*
X157304527Y-118746486D02*
X157190241Y-118689343D01*
X157190241Y-118689343D02*
X156847384Y-118689343D01*
X156847384Y-118689343D02*
X156733098Y-118746486D01*
X156733098Y-118746486D02*
X156675956Y-118803628D01*
X156675956Y-118803628D02*
X156618813Y-118917914D01*
X156618813Y-118917914D02*
X156618813Y-119146486D01*
X156618813Y-119146486D02*
X156675956Y-119260771D01*
X156733098Y-118175057D02*
X156675956Y-118117914D01*
X156675956Y-118117914D02*
X156618813Y-118175057D01*
X156618813Y-118175057D02*
X156675956Y-118232200D01*
X156675956Y-118232200D02*
X156733098Y-118175057D01*
X156733098Y-118175057D02*
X156618813Y-118175057D01*
X163660856Y-92280682D02*
X163489428Y-92337825D01*
X163489428Y-92337825D02*
X163432285Y-92394968D01*
X163432285Y-92394968D02*
X163375142Y-92509253D01*
X163375142Y-92509253D02*
X163375142Y-92680682D01*
X163375142Y-92680682D02*
X163432285Y-92794968D01*
X163432285Y-92794968D02*
X163489428Y-92852111D01*
X163489428Y-92852111D02*
X163603713Y-92909253D01*
X163603713Y-92909253D02*
X164060856Y-92909253D01*
X164060856Y-92909253D02*
X164060856Y-91709253D01*
X164060856Y-91709253D02*
X163660856Y-91709253D01*
X163660856Y-91709253D02*
X163546571Y-91766396D01*
X163546571Y-91766396D02*
X163489428Y-91823539D01*
X163489428Y-91823539D02*
X163432285Y-91937825D01*
X163432285Y-91937825D02*
X163432285Y-92052111D01*
X163432285Y-92052111D02*
X163489428Y-92166396D01*
X163489428Y-92166396D02*
X163546571Y-92223539D01*
X163546571Y-92223539D02*
X163660856Y-92280682D01*
X163660856Y-92280682D02*
X164060856Y-92280682D01*
X162860856Y-92909253D02*
X162860856Y-91709253D01*
X162860856Y-91709253D02*
X162460856Y-92566396D01*
X162460856Y-92566396D02*
X162060856Y-91709253D01*
X162060856Y-91709253D02*
X162060856Y-92909253D01*
X161603713Y-91709253D02*
X161317999Y-92909253D01*
X161317999Y-92909253D02*
X161089427Y-92052111D01*
X161089427Y-92052111D02*
X160860856Y-92909253D01*
X160860856Y-92909253D02*
X160575142Y-91709253D01*
X159203712Y-92909253D02*
X159203712Y-91709253D01*
X159203712Y-91709253D02*
X158517998Y-92909253D01*
X158517998Y-92909253D02*
X158517998Y-91709253D01*
X157375141Y-91709253D02*
X157946569Y-91709253D01*
X157946569Y-91709253D02*
X158003712Y-92280682D01*
X158003712Y-92280682D02*
X157946569Y-92223539D01*
X157946569Y-92223539D02*
X157832284Y-92166396D01*
X157832284Y-92166396D02*
X157546569Y-92166396D01*
X157546569Y-92166396D02*
X157432284Y-92223539D01*
X157432284Y-92223539D02*
X157375141Y-92280682D01*
X157375141Y-92280682D02*
X157317998Y-92394968D01*
X157317998Y-92394968D02*
X157317998Y-92680682D01*
X157317998Y-92680682D02*
X157375141Y-92794968D01*
X157375141Y-92794968D02*
X157432284Y-92852111D01*
X157432284Y-92852111D02*
X157546569Y-92909253D01*
X157546569Y-92909253D02*
X157832284Y-92909253D01*
X157832284Y-92909253D02*
X157946569Y-92852111D01*
X157946569Y-92852111D02*
X158003712Y-92794968D01*
X156917998Y-91709253D02*
X156117998Y-91709253D01*
X156117998Y-91709253D02*
X156632284Y-92909253D01*
X154746569Y-92280682D02*
X154346569Y-92280682D01*
X154175141Y-92909253D02*
X154746569Y-92909253D01*
X154746569Y-92909253D02*
X154746569Y-91709253D01*
X154746569Y-91709253D02*
X154175141Y-91709253D01*
X153660855Y-92109253D02*
X153660855Y-92909253D01*
X153660855Y-92223539D02*
X153603712Y-92166396D01*
X153603712Y-92166396D02*
X153489427Y-92109253D01*
X153489427Y-92109253D02*
X153317998Y-92109253D01*
X153317998Y-92109253D02*
X153203712Y-92166396D01*
X153203712Y-92166396D02*
X153146570Y-92280682D01*
X153146570Y-92280682D02*
X153146570Y-92909253D01*
X152060856Y-92109253D02*
X152060856Y-93080682D01*
X152060856Y-93080682D02*
X152117998Y-93194968D01*
X152117998Y-93194968D02*
X152175141Y-93252111D01*
X152175141Y-93252111D02*
X152289427Y-93309253D01*
X152289427Y-93309253D02*
X152460856Y-93309253D01*
X152460856Y-93309253D02*
X152575141Y-93252111D01*
X152060856Y-92852111D02*
X152175141Y-92909253D01*
X152175141Y-92909253D02*
X152403713Y-92909253D01*
X152403713Y-92909253D02*
X152517998Y-92852111D01*
X152517998Y-92852111D02*
X152575141Y-92794968D01*
X152575141Y-92794968D02*
X152632284Y-92680682D01*
X152632284Y-92680682D02*
X152632284Y-92337825D01*
X152632284Y-92337825D02*
X152575141Y-92223539D01*
X152575141Y-92223539D02*
X152517998Y-92166396D01*
X152517998Y-92166396D02*
X152403713Y-92109253D01*
X152403713Y-92109253D02*
X152175141Y-92109253D01*
X152175141Y-92109253D02*
X152060856Y-92166396D01*
X151489427Y-92909253D02*
X151489427Y-92109253D01*
X151489427Y-91709253D02*
X151546570Y-91766396D01*
X151546570Y-91766396D02*
X151489427Y-91823539D01*
X151489427Y-91823539D02*
X151432284Y-91766396D01*
X151432284Y-91766396D02*
X151489427Y-91709253D01*
X151489427Y-91709253D02*
X151489427Y-91823539D01*
X150917998Y-92109253D02*
X150917998Y-92909253D01*
X150917998Y-92223539D02*
X150860855Y-92166396D01*
X150860855Y-92166396D02*
X150746570Y-92109253D01*
X150746570Y-92109253D02*
X150575141Y-92109253D01*
X150575141Y-92109253D02*
X150460855Y-92166396D01*
X150460855Y-92166396D02*
X150403713Y-92280682D01*
X150403713Y-92280682D02*
X150403713Y-92909253D01*
X149375141Y-92852111D02*
X149489427Y-92909253D01*
X149489427Y-92909253D02*
X149717999Y-92909253D01*
X149717999Y-92909253D02*
X149832284Y-92852111D01*
X149832284Y-92852111D02*
X149889427Y-92737825D01*
X149889427Y-92737825D02*
X149889427Y-92280682D01*
X149889427Y-92280682D02*
X149832284Y-92166396D01*
X149832284Y-92166396D02*
X149717999Y-92109253D01*
X149717999Y-92109253D02*
X149489427Y-92109253D01*
X149489427Y-92109253D02*
X149375141Y-92166396D01*
X149375141Y-92166396D02*
X149317999Y-92280682D01*
X149317999Y-92280682D02*
X149317999Y-92394968D01*
X149317999Y-92394968D02*
X149889427Y-92509253D01*
X165660857Y-93641186D02*
X165432285Y-93641186D01*
X165432285Y-93641186D02*
X165318000Y-93698329D01*
X165318000Y-93698329D02*
X165203714Y-93812615D01*
X165203714Y-93812615D02*
X165146571Y-94041186D01*
X165146571Y-94041186D02*
X165146571Y-94441186D01*
X165146571Y-94441186D02*
X165203714Y-94669758D01*
X165203714Y-94669758D02*
X165318000Y-94784044D01*
X165318000Y-94784044D02*
X165432285Y-94841186D01*
X165432285Y-94841186D02*
X165660857Y-94841186D01*
X165660857Y-94841186D02*
X165775143Y-94784044D01*
X165775143Y-94784044D02*
X165889428Y-94669758D01*
X165889428Y-94669758D02*
X165946571Y-94441186D01*
X165946571Y-94441186D02*
X165946571Y-94041186D01*
X165946571Y-94041186D02*
X165889428Y-93812615D01*
X165889428Y-93812615D02*
X165775143Y-93698329D01*
X165775143Y-93698329D02*
X165660857Y-93641186D01*
X164632285Y-94841186D02*
X164632285Y-94041186D01*
X164632285Y-93641186D02*
X164689428Y-93698329D01*
X164689428Y-93698329D02*
X164632285Y-93755472D01*
X164632285Y-93755472D02*
X164575142Y-93698329D01*
X164575142Y-93698329D02*
X164632285Y-93641186D01*
X164632285Y-93641186D02*
X164632285Y-93755472D01*
X163889428Y-94841186D02*
X164003713Y-94784044D01*
X164003713Y-94784044D02*
X164060856Y-94669758D01*
X164060856Y-94669758D02*
X164060856Y-93641186D01*
X163432285Y-94041186D02*
X163432285Y-95241186D01*
X163432285Y-94098329D02*
X163318000Y-94041186D01*
X163318000Y-94041186D02*
X163089428Y-94041186D01*
X163089428Y-94041186D02*
X162975142Y-94098329D01*
X162975142Y-94098329D02*
X162918000Y-94155472D01*
X162918000Y-94155472D02*
X162860857Y-94269758D01*
X162860857Y-94269758D02*
X162860857Y-94612615D01*
X162860857Y-94612615D02*
X162918000Y-94726901D01*
X162918000Y-94726901D02*
X162975142Y-94784044D01*
X162975142Y-94784044D02*
X163089428Y-94841186D01*
X163089428Y-94841186D02*
X163318000Y-94841186D01*
X163318000Y-94841186D02*
X163432285Y-94784044D01*
X162346571Y-94841186D02*
X162346571Y-94041186D01*
X162346571Y-94269758D02*
X162289428Y-94155472D01*
X162289428Y-94155472D02*
X162232286Y-94098329D01*
X162232286Y-94098329D02*
X162118000Y-94041186D01*
X162118000Y-94041186D02*
X162003714Y-94041186D01*
X161146571Y-94784044D02*
X161260857Y-94841186D01*
X161260857Y-94841186D02*
X161489429Y-94841186D01*
X161489429Y-94841186D02*
X161603714Y-94784044D01*
X161603714Y-94784044D02*
X161660857Y-94669758D01*
X161660857Y-94669758D02*
X161660857Y-94212615D01*
X161660857Y-94212615D02*
X161603714Y-94098329D01*
X161603714Y-94098329D02*
X161489429Y-94041186D01*
X161489429Y-94041186D02*
X161260857Y-94041186D01*
X161260857Y-94041186D02*
X161146571Y-94098329D01*
X161146571Y-94098329D02*
X161089429Y-94212615D01*
X161089429Y-94212615D02*
X161089429Y-94326901D01*
X161089429Y-94326901D02*
X161660857Y-94441186D01*
X160632286Y-94784044D02*
X160518000Y-94841186D01*
X160518000Y-94841186D02*
X160289429Y-94841186D01*
X160289429Y-94841186D02*
X160175143Y-94784044D01*
X160175143Y-94784044D02*
X160118000Y-94669758D01*
X160118000Y-94669758D02*
X160118000Y-94612615D01*
X160118000Y-94612615D02*
X160175143Y-94498329D01*
X160175143Y-94498329D02*
X160289429Y-94441186D01*
X160289429Y-94441186D02*
X160460858Y-94441186D01*
X160460858Y-94441186D02*
X160575143Y-94384044D01*
X160575143Y-94384044D02*
X160632286Y-94269758D01*
X160632286Y-94269758D02*
X160632286Y-94212615D01*
X160632286Y-94212615D02*
X160575143Y-94098329D01*
X160575143Y-94098329D02*
X160460858Y-94041186D01*
X160460858Y-94041186D02*
X160289429Y-94041186D01*
X160289429Y-94041186D02*
X160175143Y-94098329D01*
X159660857Y-94784044D02*
X159546571Y-94841186D01*
X159546571Y-94841186D02*
X159318000Y-94841186D01*
X159318000Y-94841186D02*
X159203714Y-94784044D01*
X159203714Y-94784044D02*
X159146571Y-94669758D01*
X159146571Y-94669758D02*
X159146571Y-94612615D01*
X159146571Y-94612615D02*
X159203714Y-94498329D01*
X159203714Y-94498329D02*
X159318000Y-94441186D01*
X159318000Y-94441186D02*
X159489429Y-94441186D01*
X159489429Y-94441186D02*
X159603714Y-94384044D01*
X159603714Y-94384044D02*
X159660857Y-94269758D01*
X159660857Y-94269758D02*
X159660857Y-94212615D01*
X159660857Y-94212615D02*
X159603714Y-94098329D01*
X159603714Y-94098329D02*
X159489429Y-94041186D01*
X159489429Y-94041186D02*
X159318000Y-94041186D01*
X159318000Y-94041186D02*
X159203714Y-94098329D01*
X158118000Y-94041186D02*
X158118000Y-94841186D01*
X158632285Y-94041186D02*
X158632285Y-94669758D01*
X158632285Y-94669758D02*
X158575142Y-94784044D01*
X158575142Y-94784044D02*
X158460857Y-94841186D01*
X158460857Y-94841186D02*
X158289428Y-94841186D01*
X158289428Y-94841186D02*
X158175142Y-94784044D01*
X158175142Y-94784044D02*
X158118000Y-94726901D01*
X157546571Y-94841186D02*
X157546571Y-94041186D01*
X157546571Y-94269758D02*
X157489428Y-94155472D01*
X157489428Y-94155472D02*
X157432286Y-94098329D01*
X157432286Y-94098329D02*
X157318000Y-94041186D01*
X157318000Y-94041186D02*
X157203714Y-94041186D01*
X156346571Y-94784044D02*
X156460857Y-94841186D01*
X156460857Y-94841186D02*
X156689429Y-94841186D01*
X156689429Y-94841186D02*
X156803714Y-94784044D01*
X156803714Y-94784044D02*
X156860857Y-94669758D01*
X156860857Y-94669758D02*
X156860857Y-94212615D01*
X156860857Y-94212615D02*
X156803714Y-94098329D01*
X156803714Y-94098329D02*
X156689429Y-94041186D01*
X156689429Y-94041186D02*
X156460857Y-94041186D01*
X156460857Y-94041186D02*
X156346571Y-94098329D01*
X156346571Y-94098329D02*
X156289429Y-94212615D01*
X156289429Y-94212615D02*
X156289429Y-94326901D01*
X156289429Y-94326901D02*
X156860857Y-94441186D01*
X154689429Y-94841186D02*
X154803714Y-94784044D01*
X154803714Y-94784044D02*
X154860857Y-94726901D01*
X154860857Y-94726901D02*
X154918000Y-94612615D01*
X154918000Y-94612615D02*
X154918000Y-94269758D01*
X154918000Y-94269758D02*
X154860857Y-94155472D01*
X154860857Y-94155472D02*
X154803714Y-94098329D01*
X154803714Y-94098329D02*
X154689429Y-94041186D01*
X154689429Y-94041186D02*
X154518000Y-94041186D01*
X154518000Y-94041186D02*
X154403714Y-94098329D01*
X154403714Y-94098329D02*
X154346572Y-94155472D01*
X154346572Y-94155472D02*
X154289429Y-94269758D01*
X154289429Y-94269758D02*
X154289429Y-94612615D01*
X154289429Y-94612615D02*
X154346572Y-94726901D01*
X154346572Y-94726901D02*
X154403714Y-94784044D01*
X154403714Y-94784044D02*
X154518000Y-94841186D01*
X154518000Y-94841186D02*
X154689429Y-94841186D01*
X153889429Y-94041186D02*
X153603715Y-94841186D01*
X153603715Y-94841186D02*
X153318000Y-94041186D01*
X152403714Y-94784044D02*
X152518000Y-94841186D01*
X152518000Y-94841186D02*
X152746572Y-94841186D01*
X152746572Y-94841186D02*
X152860857Y-94784044D01*
X152860857Y-94784044D02*
X152918000Y-94669758D01*
X152918000Y-94669758D02*
X152918000Y-94212615D01*
X152918000Y-94212615D02*
X152860857Y-94098329D01*
X152860857Y-94098329D02*
X152746572Y-94041186D01*
X152746572Y-94041186D02*
X152518000Y-94041186D01*
X152518000Y-94041186D02*
X152403714Y-94098329D01*
X152403714Y-94098329D02*
X152346572Y-94212615D01*
X152346572Y-94212615D02*
X152346572Y-94326901D01*
X152346572Y-94326901D02*
X152918000Y-94441186D01*
X151832286Y-94841186D02*
X151832286Y-94041186D01*
X151832286Y-94269758D02*
X151775143Y-94155472D01*
X151775143Y-94155472D02*
X151718001Y-94098329D01*
X151718001Y-94098329D02*
X151603715Y-94041186D01*
X151603715Y-94041186D02*
X151489429Y-94041186D01*
X150289429Y-93641186D02*
X150003715Y-94841186D01*
X150003715Y-94841186D02*
X149775143Y-93984044D01*
X149775143Y-93984044D02*
X149546572Y-94841186D01*
X149546572Y-94841186D02*
X149260858Y-93641186D01*
X148803714Y-94841186D02*
X148803714Y-94041186D01*
X148803714Y-93641186D02*
X148860857Y-93698329D01*
X148860857Y-93698329D02*
X148803714Y-93755472D01*
X148803714Y-93755472D02*
X148746571Y-93698329D01*
X148746571Y-93698329D02*
X148803714Y-93641186D01*
X148803714Y-93641186D02*
X148803714Y-93755472D01*
X148403714Y-94041186D02*
X147946571Y-94041186D01*
X148232285Y-94841186D02*
X148232285Y-93812615D01*
X148232285Y-93812615D02*
X148175142Y-93698329D01*
X148175142Y-93698329D02*
X148060857Y-93641186D01*
X148060857Y-93641186D02*
X147946571Y-93641186D01*
X147546571Y-94841186D02*
X147546571Y-94041186D01*
X147546571Y-93641186D02*
X147603714Y-93698329D01*
X147603714Y-93698329D02*
X147546571Y-93755472D01*
X147546571Y-93755472D02*
X147489428Y-93698329D01*
X147489428Y-93698329D02*
X147546571Y-93641186D01*
X147546571Y-93641186D02*
X147546571Y-93755472D01*
X153011956Y-122803628D02*
X153011956Y-121889343D01*
X152554813Y-122346485D02*
X153469098Y-122346485D01*
X153754813Y-121432200D02*
X153754813Y-120689343D01*
X153754813Y-120689343D02*
X153297670Y-121089343D01*
X153297670Y-121089343D02*
X153297670Y-120917914D01*
X153297670Y-120917914D02*
X153240527Y-120803629D01*
X153240527Y-120803629D02*
X153183384Y-120746486D01*
X153183384Y-120746486D02*
X153069098Y-120689343D01*
X153069098Y-120689343D02*
X152783384Y-120689343D01*
X152783384Y-120689343D02*
X152669098Y-120746486D01*
X152669098Y-120746486D02*
X152611956Y-120803629D01*
X152611956Y-120803629D02*
X152554813Y-120917914D01*
X152554813Y-120917914D02*
X152554813Y-121260771D01*
X152554813Y-121260771D02*
X152611956Y-121375057D01*
X152611956Y-121375057D02*
X152669098Y-121432200D01*
X152611956Y-120117914D02*
X152554813Y-120117914D01*
X152554813Y-120117914D02*
X152440527Y-120175057D01*
X152440527Y-120175057D02*
X152383384Y-120232200D01*
X153754813Y-119717914D02*
X153754813Y-118975057D01*
X153754813Y-118975057D02*
X153297670Y-119375057D01*
X153297670Y-119375057D02*
X153297670Y-119203628D01*
X153297670Y-119203628D02*
X153240527Y-119089343D01*
X153240527Y-119089343D02*
X153183384Y-119032200D01*
X153183384Y-119032200D02*
X153069098Y-118975057D01*
X153069098Y-118975057D02*
X152783384Y-118975057D01*
X152783384Y-118975057D02*
X152669098Y-119032200D01*
X152669098Y-119032200D02*
X152611956Y-119089343D01*
X152611956Y-119089343D02*
X152554813Y-119203628D01*
X152554813Y-119203628D02*
X152554813Y-119546485D01*
X152554813Y-119546485D02*
X152611956Y-119660771D01*
X152611956Y-119660771D02*
X152669098Y-119717914D01*
X153754813Y-118632200D02*
X152554813Y-118232200D01*
X152554813Y-118232200D02*
X153754813Y-117832200D01*
X154332813Y-122803628D02*
X155532813Y-122803628D01*
X155532813Y-122803628D02*
X155532813Y-122346485D01*
X155532813Y-122346485D02*
X155475670Y-122232200D01*
X155475670Y-122232200D02*
X155418527Y-122175057D01*
X155418527Y-122175057D02*
X155304241Y-122117914D01*
X155304241Y-122117914D02*
X155132813Y-122117914D01*
X155132813Y-122117914D02*
X155018527Y-122175057D01*
X155018527Y-122175057D02*
X154961384Y-122232200D01*
X154961384Y-122232200D02*
X154904241Y-122346485D01*
X154904241Y-122346485D02*
X154904241Y-122803628D01*
X154332813Y-121603628D02*
X155132813Y-121603628D01*
X154904241Y-121603628D02*
X155018527Y-121546485D01*
X155018527Y-121546485D02*
X155075670Y-121489343D01*
X155075670Y-121489343D02*
X155132813Y-121375057D01*
X155132813Y-121375057D02*
X155132813Y-121260771D01*
X154389956Y-120403628D02*
X154332813Y-120517914D01*
X154332813Y-120517914D02*
X154332813Y-120746486D01*
X154332813Y-120746486D02*
X154389956Y-120860771D01*
X154389956Y-120860771D02*
X154504241Y-120917914D01*
X154504241Y-120917914D02*
X154961384Y-120917914D01*
X154961384Y-120917914D02*
X155075670Y-120860771D01*
X155075670Y-120860771D02*
X155132813Y-120746486D01*
X155132813Y-120746486D02*
X155132813Y-120517914D01*
X155132813Y-120517914D02*
X155075670Y-120403628D01*
X155075670Y-120403628D02*
X154961384Y-120346486D01*
X154961384Y-120346486D02*
X154847098Y-120346486D01*
X154847098Y-120346486D02*
X154732813Y-120917914D01*
X154389956Y-119889343D02*
X154332813Y-119775057D01*
X154332813Y-119775057D02*
X154332813Y-119546486D01*
X154332813Y-119546486D02*
X154389956Y-119432200D01*
X154389956Y-119432200D02*
X154504241Y-119375057D01*
X154504241Y-119375057D02*
X154561384Y-119375057D01*
X154561384Y-119375057D02*
X154675670Y-119432200D01*
X154675670Y-119432200D02*
X154732813Y-119546486D01*
X154732813Y-119546486D02*
X154732813Y-119717915D01*
X154732813Y-119717915D02*
X154789956Y-119832200D01*
X154789956Y-119832200D02*
X154904241Y-119889343D01*
X154904241Y-119889343D02*
X154961384Y-119889343D01*
X154961384Y-119889343D02*
X155075670Y-119832200D01*
X155075670Y-119832200D02*
X155132813Y-119717915D01*
X155132813Y-119717915D02*
X155132813Y-119546486D01*
X155132813Y-119546486D02*
X155075670Y-119432200D01*
X154447098Y-118860771D02*
X154389956Y-118803628D01*
X154389956Y-118803628D02*
X154332813Y-118860771D01*
X154332813Y-118860771D02*
X154389956Y-118917914D01*
X154389956Y-118917914D02*
X154447098Y-118860771D01*
X154447098Y-118860771D02*
X154332813Y-118860771D01*
G36*
X172406359Y-123916468D02*
G01*
X172420365Y-123921827D01*
X172423106Y-123922021D01*
X172425647Y-123923074D01*
X172440571Y-123924544D01*
X172708226Y-123924544D01*
X172783551Y-123962206D01*
X172821214Y-124037532D01*
X172821214Y-124115698D01*
X172783551Y-124191023D01*
X172708226Y-124228686D01*
X172458630Y-124228686D01*
X172402786Y-124200764D01*
X172402786Y-123914681D01*
X172406359Y-123916468D01*
G37*
G36*
X172592642Y-122296754D02*
G01*
X172230058Y-122296754D01*
X172143028Y-122253239D01*
X172103443Y-122213653D01*
X172059928Y-122126623D01*
X172059928Y-121991314D01*
X172103443Y-121904284D01*
X172139037Y-121868689D01*
X172281555Y-121821183D01*
X172592642Y-121821183D01*
X172592642Y-122296754D01*
G37*
G36*
X172592642Y-121668183D02*
G01*
X172287200Y-121668183D01*
X172200171Y-121624667D01*
X172160586Y-121585081D01*
X172117071Y-121498051D01*
X172117071Y-121419886D01*
X172160586Y-121332855D01*
X172200171Y-121293269D01*
X172287200Y-121249754D01*
X172592642Y-121249754D01*
X172592642Y-121668183D01*
G37*
G36*
X175278975Y-124515019D02*
G01*
X169089351Y-124515019D01*
X169089351Y-123676615D01*
X170192643Y-123676615D01*
X170192643Y-124305186D01*
X170194113Y-124320110D01*
X170205536Y-124347687D01*
X170226642Y-124368793D01*
X170254219Y-124380216D01*
X170284067Y-124380216D01*
X170311644Y-124368793D01*
X170332750Y-124347687D01*
X170344173Y-124320110D01*
X170345643Y-124305186D01*
X170345643Y-123694673D01*
X170383305Y-123619348D01*
X170458631Y-123581686D01*
X170593940Y-123581686D01*
X170680969Y-123625201D01*
X170706928Y-123651159D01*
X170706928Y-124305186D01*
X170708398Y-124320110D01*
X170719821Y-124347687D01*
X170740927Y-124368793D01*
X170768504Y-124380216D01*
X170798352Y-124380216D01*
X170825929Y-124368793D01*
X170847035Y-124347687D01*
X170858458Y-124320110D01*
X170859928Y-124305186D01*
X170859928Y-124076615D01*
X171221214Y-124076615D01*
X171221214Y-124133758D01*
X171222684Y-124148682D01*
X171223736Y-124151222D01*
X171223931Y-124153964D01*
X171229290Y-124167970D01*
X171286433Y-124282256D01*
X171288004Y-124284752D01*
X171288397Y-124285929D01*
X171289668Y-124287394D01*
X171294423Y-124294947D01*
X171301669Y-124301232D01*
X171307955Y-124308479D01*
X171315505Y-124313231D01*
X171316972Y-124314504D01*
X171318149Y-124314896D01*
X171320646Y-124316468D01*
X171434931Y-124373610D01*
X171448937Y-124378969D01*
X171451678Y-124379163D01*
X171454219Y-124380216D01*
X171469143Y-124381686D01*
X171697714Y-124381686D01*
X171712638Y-124380216D01*
X171715178Y-124379163D01*
X171717919Y-124378969D01*
X171731925Y-124373610D01*
X171846211Y-124316468D01*
X171858902Y-124308479D01*
X171878460Y-124285929D01*
X171887899Y-124257613D01*
X171885783Y-124227839D01*
X171872435Y-124201142D01*
X171849885Y-124181584D01*
X171821569Y-124172145D01*
X171791794Y-124174261D01*
X171777788Y-124179620D01*
X171679655Y-124228686D01*
X171487202Y-124228686D01*
X171411877Y-124191024D01*
X171374214Y-124115698D01*
X171374214Y-124094675D01*
X171411877Y-124019349D01*
X171487203Y-123981686D01*
X171640572Y-123981686D01*
X171655496Y-123980216D01*
X171658036Y-123979163D01*
X171660778Y-123978969D01*
X171674784Y-123973610D01*
X171789068Y-123916468D01*
X171791564Y-123914896D01*
X171792742Y-123914504D01*
X171794208Y-123913231D01*
X171801759Y-123908479D01*
X171808042Y-123901234D01*
X171815292Y-123894947D01*
X171820047Y-123887392D01*
X171821317Y-123885929D01*
X171821708Y-123884753D01*
X171823281Y-123882256D01*
X171880424Y-123767970D01*
X171885783Y-123753964D01*
X171885977Y-123751222D01*
X171887030Y-123748682D01*
X171888500Y-123733758D01*
X171888500Y-123676615D01*
X172249786Y-123676615D01*
X172249786Y-124305186D01*
X172251256Y-124320110D01*
X172262679Y-124347687D01*
X172283785Y-124368793D01*
X172311362Y-124380216D01*
X172341210Y-124380216D01*
X172368787Y-124368793D01*
X172378099Y-124359480D01*
X172406359Y-124373610D01*
X172420365Y-124378969D01*
X172423106Y-124379163D01*
X172425647Y-124380216D01*
X172440571Y-124381686D01*
X172726286Y-124381686D01*
X172741210Y-124380216D01*
X172743750Y-124379163D01*
X172746492Y-124378969D01*
X172760498Y-124373610D01*
X172874782Y-124316468D01*
X172877278Y-124314896D01*
X172878456Y-124314504D01*
X172879922Y-124313231D01*
X172887473Y-124308479D01*
X172893756Y-124301234D01*
X172900232Y-124295618D01*
X173221815Y-124295618D01*
X173223931Y-124325392D01*
X173237279Y-124352089D01*
X173259829Y-124371646D01*
X173288146Y-124381085D01*
X173317920Y-124378969D01*
X173331926Y-124373610D01*
X173446210Y-124316468D01*
X173448706Y-124314896D01*
X173449884Y-124314504D01*
X173451350Y-124313231D01*
X173458901Y-124308479D01*
X173465184Y-124301234D01*
X173472434Y-124294947D01*
X173477189Y-124287392D01*
X173478459Y-124285929D01*
X173478850Y-124284753D01*
X173480423Y-124282256D01*
X173537566Y-124167970D01*
X173542925Y-124153964D01*
X173543119Y-124151222D01*
X173544172Y-124148682D01*
X173545642Y-124133758D01*
X173545642Y-123105186D01*
X173544172Y-123090262D01*
X173794112Y-123090262D01*
X173794112Y-123120110D01*
X173805535Y-123147687D01*
X173826641Y-123168793D01*
X173854218Y-123180216D01*
X173869142Y-123181686D01*
X173965368Y-123181686D01*
X174040692Y-123219348D01*
X174078356Y-123294675D01*
X174078356Y-123428686D01*
X173869142Y-123428686D01*
X173854218Y-123430156D01*
X173826641Y-123441579D01*
X173805535Y-123462685D01*
X173794112Y-123490262D01*
X173794112Y-123520110D01*
X173805535Y-123547687D01*
X173826641Y-123568793D01*
X173854218Y-123580216D01*
X173869142Y-123581686D01*
X174078356Y-123581686D01*
X174078356Y-124305186D01*
X174079826Y-124320110D01*
X174091249Y-124347687D01*
X174112355Y-124368793D01*
X174139932Y-124380216D01*
X174169780Y-124380216D01*
X174197357Y-124368793D01*
X174218463Y-124347687D01*
X174229886Y-124320110D01*
X174231356Y-124305186D01*
X174231356Y-123581686D01*
X174326285Y-123581686D01*
X174341209Y-123580216D01*
X174368786Y-123568793D01*
X174389892Y-123547687D01*
X174401315Y-123520110D01*
X174401315Y-123490262D01*
X174389892Y-123462685D01*
X174368786Y-123441579D01*
X174341209Y-123430156D01*
X174326285Y-123428686D01*
X174231356Y-123428686D01*
X174231356Y-123276615D01*
X174229886Y-123261691D01*
X174228833Y-123259150D01*
X174228639Y-123256409D01*
X174223280Y-123242403D01*
X174166137Y-123128117D01*
X174164564Y-123125618D01*
X174164173Y-123124445D01*
X174162905Y-123122983D01*
X174158148Y-123115426D01*
X174150897Y-123109137D01*
X174144616Y-123101895D01*
X174137066Y-123097142D01*
X174135598Y-123095869D01*
X174134419Y-123095476D01*
X174131925Y-123093906D01*
X174017640Y-123036762D01*
X174003634Y-123031403D01*
X174000892Y-123031208D01*
X173998352Y-123030156D01*
X173983428Y-123028686D01*
X173869142Y-123028686D01*
X173854218Y-123030156D01*
X173826641Y-123041579D01*
X173805535Y-123062685D01*
X173794112Y-123090262D01*
X173544172Y-123090262D01*
X173532749Y-123062685D01*
X173511643Y-123041579D01*
X173484066Y-123030156D01*
X173454218Y-123030156D01*
X173426641Y-123041579D01*
X173405535Y-123062685D01*
X173394112Y-123090262D01*
X173392642Y-123105186D01*
X173392642Y-124115698D01*
X173354979Y-124191023D01*
X173263502Y-124236762D01*
X173250811Y-124244751D01*
X173231254Y-124267301D01*
X173221815Y-124295618D01*
X172900232Y-124295618D01*
X172901006Y-124294947D01*
X172905761Y-124287392D01*
X172907031Y-124285929D01*
X172907422Y-124284753D01*
X172908995Y-124282256D01*
X172966138Y-124167970D01*
X172971497Y-124153964D01*
X172971691Y-124151222D01*
X172972744Y-124148682D01*
X172974214Y-124133758D01*
X172974214Y-124019472D01*
X172972744Y-124004548D01*
X172971691Y-124002007D01*
X172971497Y-123999266D01*
X172966138Y-123985260D01*
X172908995Y-123870974D01*
X172907422Y-123868476D01*
X172907031Y-123867301D01*
X172905761Y-123865837D01*
X172901006Y-123858283D01*
X172893756Y-123851995D01*
X172887473Y-123844751D01*
X172879922Y-123839998D01*
X172878456Y-123838726D01*
X172877278Y-123838333D01*
X172874782Y-123836762D01*
X172760498Y-123779620D01*
X172746492Y-123774261D01*
X172743750Y-123774066D01*
X172741210Y-123773014D01*
X172726286Y-123771544D01*
X172458629Y-123771544D01*
X172402786Y-123743621D01*
X172402786Y-123694673D01*
X172440448Y-123619348D01*
X172515774Y-123581686D01*
X172708226Y-123581686D01*
X172806359Y-123630753D01*
X172820365Y-123636112D01*
X172850139Y-123638228D01*
X172878456Y-123628789D01*
X172901006Y-123609232D01*
X172914354Y-123582535D01*
X172916470Y-123552761D01*
X172907031Y-123524445D01*
X172887474Y-123501895D01*
X172874783Y-123493906D01*
X172760498Y-123436762D01*
X172746492Y-123431403D01*
X172743750Y-123431208D01*
X172741210Y-123430156D01*
X172726286Y-123428686D01*
X172497714Y-123428686D01*
X172482790Y-123430156D01*
X172480249Y-123431208D01*
X172477508Y-123431403D01*
X172463502Y-123436762D01*
X172349216Y-123493905D01*
X172346718Y-123495477D01*
X172345543Y-123495869D01*
X172344079Y-123497138D01*
X172336525Y-123501894D01*
X172330237Y-123509143D01*
X172322993Y-123515427D01*
X172318240Y-123522977D01*
X172316968Y-123524444D01*
X172316575Y-123525621D01*
X172315004Y-123528118D01*
X172257862Y-123642404D01*
X172252503Y-123656410D01*
X172252308Y-123659150D01*
X172251256Y-123661691D01*
X172249786Y-123676615D01*
X171888500Y-123676615D01*
X171887030Y-123661691D01*
X171885977Y-123659150D01*
X171885783Y-123656409D01*
X171880424Y-123642403D01*
X171823281Y-123528117D01*
X171821708Y-123525618D01*
X171821317Y-123524445D01*
X171820049Y-123522983D01*
X171815292Y-123515426D01*
X171808041Y-123509137D01*
X171801760Y-123501895D01*
X171794210Y-123497142D01*
X171792742Y-123495869D01*
X171791563Y-123495476D01*
X171789069Y-123493906D01*
X171674784Y-123436762D01*
X171660778Y-123431403D01*
X171658036Y-123431208D01*
X171655496Y-123430156D01*
X171640572Y-123428686D01*
X171469143Y-123428686D01*
X171454219Y-123430156D01*
X171451678Y-123431208D01*
X171448937Y-123431403D01*
X171434931Y-123436762D01*
X171320645Y-123493905D01*
X171307954Y-123501894D01*
X171288397Y-123524444D01*
X171278958Y-123552761D01*
X171281074Y-123582535D01*
X171294422Y-123609232D01*
X171316972Y-123628789D01*
X171345289Y-123638228D01*
X171375063Y-123636112D01*
X171389069Y-123630753D01*
X171487203Y-123581686D01*
X171622512Y-123581686D01*
X171697836Y-123619348D01*
X171735500Y-123694675D01*
X171735500Y-123715698D01*
X171697837Y-123791023D01*
X171622512Y-123828686D01*
X171469143Y-123828686D01*
X171454219Y-123830156D01*
X171451678Y-123831208D01*
X171448937Y-123831403D01*
X171434931Y-123836762D01*
X171320645Y-123893905D01*
X171318147Y-123895477D01*
X171316972Y-123895869D01*
X171315507Y-123897138D01*
X171307954Y-123901894D01*
X171301666Y-123909143D01*
X171294423Y-123915426D01*
X171289668Y-123922978D01*
X171288397Y-123924444D01*
X171288004Y-123925620D01*
X171286433Y-123928117D01*
X171229290Y-124042403D01*
X171223931Y-124056409D01*
X171223736Y-124059150D01*
X171222684Y-124061691D01*
X171221214Y-124076615D01*
X170859928Y-124076615D01*
X170859928Y-123105186D01*
X170858458Y-123090262D01*
X170847035Y-123062685D01*
X170825929Y-123041579D01*
X170798352Y-123030156D01*
X170768504Y-123030156D01*
X170740927Y-123041579D01*
X170719821Y-123062685D01*
X170708398Y-123090262D01*
X170706928Y-123105186D01*
X170706928Y-123467120D01*
X170646212Y-123436762D01*
X170632206Y-123431403D01*
X170629464Y-123431208D01*
X170626924Y-123430156D01*
X170612000Y-123428686D01*
X170440571Y-123428686D01*
X170425647Y-123430156D01*
X170423106Y-123431208D01*
X170420365Y-123431403D01*
X170406359Y-123436762D01*
X170292073Y-123493905D01*
X170289575Y-123495477D01*
X170288400Y-123495869D01*
X170286936Y-123497138D01*
X170279382Y-123501894D01*
X170273094Y-123509143D01*
X170265850Y-123515427D01*
X170261097Y-123522977D01*
X170259825Y-123524444D01*
X170259432Y-123525621D01*
X170257861Y-123528118D01*
X170200719Y-123642404D01*
X170195360Y-123656410D01*
X170195165Y-123659150D01*
X170194113Y-123661691D01*
X170192643Y-123676615D01*
X169089351Y-123676615D01*
X169089351Y-121272616D01*
X169222684Y-121272616D01*
X169222684Y-121302464D01*
X169234107Y-121330041D01*
X169255213Y-121351147D01*
X169282790Y-121362570D01*
X169312638Y-121362570D01*
X169340215Y-121351147D01*
X169351808Y-121341634D01*
X169396180Y-121297260D01*
X169538698Y-121249754D01*
X169628158Y-121249754D01*
X169770675Y-121297259D01*
X169863411Y-121389996D01*
X169911249Y-121485671D01*
X169964071Y-121696958D01*
X169964071Y-121849550D01*
X169911249Y-122060837D01*
X169863411Y-122156512D01*
X169770675Y-122249248D01*
X169628158Y-122296754D01*
X169538698Y-122296754D01*
X169396181Y-122249249D01*
X169351808Y-122204875D01*
X169340215Y-122195362D01*
X169312638Y-122183939D01*
X169282790Y-122183939D01*
X169255213Y-122195362D01*
X169234107Y-122216468D01*
X169222684Y-122244045D01*
X169222684Y-122273893D01*
X169234107Y-122301470D01*
X169243620Y-122313063D01*
X169300763Y-122370205D01*
X169312355Y-122379719D01*
X169314897Y-122380772D01*
X169316973Y-122382572D01*
X169330666Y-122388686D01*
X169502094Y-122445828D01*
X169509493Y-122447510D01*
X169511361Y-122448284D01*
X169514067Y-122448550D01*
X169516717Y-122449153D01*
X169518730Y-122449009D01*
X169526285Y-122449754D01*
X169640571Y-122449754D01*
X169648125Y-122449009D01*
X169650139Y-122449153D01*
X169652788Y-122448550D01*
X169655495Y-122448284D01*
X169657362Y-122447510D01*
X169664762Y-122445828D01*
X169836191Y-122388686D01*
X169849885Y-122382572D01*
X169851960Y-122380771D01*
X169854502Y-122379719D01*
X169866094Y-122370205D01*
X169980379Y-122255920D01*
X169985193Y-122250053D01*
X169986720Y-122248729D01*
X169988170Y-122246425D01*
X169989892Y-122244327D01*
X169990663Y-122242464D01*
X169994709Y-122236038D01*
X170051852Y-122121752D01*
X170052270Y-122120657D01*
X170052598Y-122120216D01*
X170054832Y-122113961D01*
X170057211Y-122107746D01*
X170057250Y-122107196D01*
X170057644Y-122106094D01*
X170108871Y-121901188D01*
X170479827Y-121901188D01*
X170479827Y-121931036D01*
X170491250Y-121958613D01*
X170512356Y-121979719D01*
X170539933Y-121991142D01*
X170554857Y-121992612D01*
X171469142Y-121992612D01*
X171484066Y-121991142D01*
X171511643Y-121979719D01*
X171518108Y-121973254D01*
X171906928Y-121973254D01*
X171906928Y-122144683D01*
X171908398Y-122159607D01*
X171909450Y-122162147D01*
X171909645Y-122164889D01*
X171915004Y-122178895D01*
X171972147Y-122293181D01*
X171976191Y-122299605D01*
X171976964Y-122301470D01*
X171978689Y-122303572D01*
X171980137Y-122305872D01*
X171981660Y-122307193D01*
X171986477Y-122313063D01*
X172043620Y-122370205D01*
X172049486Y-122375020D01*
X172050811Y-122376547D01*
X172053112Y-122377995D01*
X172055212Y-122379719D01*
X172057076Y-122380491D01*
X172063502Y-122384536D01*
X172177787Y-122441678D01*
X172191793Y-122447037D01*
X172194534Y-122447231D01*
X172197075Y-122448284D01*
X172211999Y-122449754D01*
X172669142Y-122449754D01*
X172684066Y-122448284D01*
X172711643Y-122436861D01*
X172732749Y-122415755D01*
X172744172Y-122388178D01*
X172745642Y-122373254D01*
X172745642Y-122030397D01*
X173106928Y-122030397D01*
X173106928Y-122144683D01*
X173108398Y-122159607D01*
X173109450Y-122162147D01*
X173109645Y-122164889D01*
X173115004Y-122178895D01*
X173172147Y-122293181D01*
X173176191Y-122299605D01*
X173176964Y-122301470D01*
X173178689Y-122303572D01*
X173180137Y-122305872D01*
X173181660Y-122307193D01*
X173186477Y-122313063D01*
X173243620Y-122370205D01*
X173249486Y-122375020D01*
X173250811Y-122376547D01*
X173253112Y-122377995D01*
X173255212Y-122379719D01*
X173257076Y-122380491D01*
X173263502Y-122384536D01*
X173377787Y-122441678D01*
X173391793Y-122447037D01*
X173394534Y-122447231D01*
X173397075Y-122448284D01*
X173411999Y-122449754D01*
X173697714Y-122449754D01*
X173705268Y-122449009D01*
X173707282Y-122449153D01*
X173709931Y-122448550D01*
X173712638Y-122448284D01*
X173714505Y-122447510D01*
X173721905Y-122445828D01*
X173893333Y-122388686D01*
X173907027Y-122382572D01*
X173929576Y-122363015D01*
X173942925Y-122336318D01*
X173945041Y-122306544D01*
X173935603Y-122278227D01*
X173916045Y-122255678D01*
X173889348Y-122242329D01*
X173859574Y-122240213D01*
X173844951Y-122243538D01*
X173685301Y-122296754D01*
X173430058Y-122296754D01*
X173343028Y-122253239D01*
X173303443Y-122213653D01*
X173259928Y-122126623D01*
X173259928Y-122048457D01*
X173303443Y-121961427D01*
X173343028Y-121921841D01*
X173438697Y-121874005D01*
X173659125Y-121818899D01*
X173660227Y-121818505D01*
X173660777Y-121818466D01*
X173666992Y-121816087D01*
X173673247Y-121813853D01*
X173673688Y-121813525D01*
X173674783Y-121813107D01*
X173789068Y-121755963D01*
X173795489Y-121751920D01*
X173797357Y-121751147D01*
X173799460Y-121749420D01*
X173801759Y-121747974D01*
X173803080Y-121746450D01*
X173808950Y-121741634D01*
X173866092Y-121684491D01*
X173870909Y-121678621D01*
X173872433Y-121677300D01*
X173873879Y-121675003D01*
X173875606Y-121672899D01*
X173876379Y-121671031D01*
X173880423Y-121664609D01*
X173937566Y-121550324D01*
X173942925Y-121536318D01*
X173943119Y-121533576D01*
X173944172Y-121531036D01*
X173945642Y-121516112D01*
X173945642Y-121401826D01*
X173944172Y-121386902D01*
X173943119Y-121384361D01*
X173942925Y-121381620D01*
X173937566Y-121367614D01*
X173880423Y-121253328D01*
X173876378Y-121246902D01*
X173875606Y-121245038D01*
X173873882Y-121242938D01*
X173872434Y-121240637D01*
X173870907Y-121239312D01*
X173866092Y-121233446D01*
X173808950Y-121176303D01*
X173805234Y-121173254D01*
X174306928Y-121173254D01*
X174306928Y-122144683D01*
X174308398Y-122159607D01*
X174309450Y-122162147D01*
X174309645Y-122164889D01*
X174315004Y-122178895D01*
X174372147Y-122293181D01*
X174376191Y-122299605D01*
X174376964Y-122301470D01*
X174378689Y-122303572D01*
X174380137Y-122305872D01*
X174381660Y-122307193D01*
X174386477Y-122313063D01*
X174443620Y-122370205D01*
X174449486Y-122375020D01*
X174450811Y-122376547D01*
X174453112Y-122377995D01*
X174455212Y-122379719D01*
X174457076Y-122380491D01*
X174463502Y-122384536D01*
X174577787Y-122441678D01*
X174591793Y-122447037D01*
X174594534Y-122447231D01*
X174597075Y-122448284D01*
X174611999Y-122449754D01*
X174840571Y-122449754D01*
X174855495Y-122448284D01*
X174858035Y-122447231D01*
X174860776Y-122447037D01*
X174874782Y-122441678D01*
X174989068Y-122384536D01*
X174995490Y-122380492D01*
X174997359Y-122379719D01*
X174999462Y-122377992D01*
X175001759Y-122376547D01*
X175003081Y-122375022D01*
X175008951Y-122370205D01*
X175066093Y-122313062D01*
X175070907Y-122307195D01*
X175072434Y-122305872D01*
X175073882Y-122303571D01*
X175075607Y-122301470D01*
X175076380Y-122299603D01*
X175080423Y-122293181D01*
X175137566Y-122178895D01*
X175142925Y-122164889D01*
X175143119Y-122162147D01*
X175144172Y-122159607D01*
X175145642Y-122144683D01*
X175145642Y-121173254D01*
X175144172Y-121158330D01*
X175132749Y-121130753D01*
X175111643Y-121109647D01*
X175084066Y-121098224D01*
X175054218Y-121098224D01*
X175026641Y-121109647D01*
X175005535Y-121130753D01*
X174994112Y-121158330D01*
X174992642Y-121173254D01*
X174992642Y-122126623D01*
X174949125Y-122213655D01*
X174909542Y-122253239D01*
X174822512Y-122296754D01*
X174630058Y-122296754D01*
X174543028Y-122253239D01*
X174503443Y-122213653D01*
X174459928Y-122126623D01*
X174459928Y-121173254D01*
X174458458Y-121158330D01*
X174447035Y-121130753D01*
X174425929Y-121109647D01*
X174398352Y-121098224D01*
X174368504Y-121098224D01*
X174340927Y-121109647D01*
X174319821Y-121130753D01*
X174308398Y-121158330D01*
X174306928Y-121173254D01*
X173805234Y-121173254D01*
X173803080Y-121171486D01*
X173801759Y-121169963D01*
X173799460Y-121168516D01*
X173797357Y-121166790D01*
X173795489Y-121166016D01*
X173789068Y-121161974D01*
X173674783Y-121104830D01*
X173660777Y-121099471D01*
X173658035Y-121099276D01*
X173655495Y-121098224D01*
X173640571Y-121096754D01*
X173354856Y-121096754D01*
X173347301Y-121097498D01*
X173345287Y-121097355D01*
X173342637Y-121097957D01*
X173339932Y-121098224D01*
X173338066Y-121098996D01*
X173330664Y-121100680D01*
X173159236Y-121157823D01*
X173145543Y-121163937D01*
X173122994Y-121183494D01*
X173109645Y-121210191D01*
X173107529Y-121239966D01*
X173116968Y-121268282D01*
X173136525Y-121290831D01*
X173163222Y-121304180D01*
X173192997Y-121306296D01*
X173207620Y-121302971D01*
X173367269Y-121249754D01*
X173622511Y-121249754D01*
X173709540Y-121293269D01*
X173749126Y-121332854D01*
X173792642Y-121419886D01*
X173792642Y-121498053D01*
X173749126Y-121585082D01*
X173709540Y-121624667D01*
X173613868Y-121672504D01*
X173393445Y-121727610D01*
X173392342Y-121728003D01*
X173391793Y-121728043D01*
X173385577Y-121730421D01*
X173379323Y-121732656D01*
X173378881Y-121732983D01*
X173377787Y-121733402D01*
X173263502Y-121790545D01*
X173257079Y-121794588D01*
X173255212Y-121795362D01*
X173253107Y-121797088D01*
X173250811Y-121798535D01*
X173249489Y-121800058D01*
X173243620Y-121804876D01*
X173186477Y-121862018D01*
X173181660Y-121867887D01*
X173180137Y-121869209D01*
X173178690Y-121871507D01*
X173176964Y-121873611D01*
X173176190Y-121875478D01*
X173172148Y-121881900D01*
X173115004Y-121996185D01*
X173109645Y-122010191D01*
X173109450Y-122012932D01*
X173108398Y-122015473D01*
X173106928Y-122030397D01*
X172745642Y-122030397D01*
X172745642Y-121173254D01*
X172744172Y-121158330D01*
X172732749Y-121130753D01*
X172711643Y-121109647D01*
X172684066Y-121098224D01*
X172669142Y-121096754D01*
X172269142Y-121096754D01*
X172254218Y-121098224D01*
X172251677Y-121099276D01*
X172248936Y-121099471D01*
X172234930Y-121104830D01*
X172120645Y-121161973D01*
X172114222Y-121166016D01*
X172112355Y-121166790D01*
X172110250Y-121168516D01*
X172107954Y-121169963D01*
X172106632Y-121171486D01*
X172100763Y-121176304D01*
X172043620Y-121233446D01*
X172038803Y-121239315D01*
X172037280Y-121240637D01*
X172035832Y-121242936D01*
X172034107Y-121245039D01*
X172033334Y-121246903D01*
X172029290Y-121253328D01*
X171972147Y-121367614D01*
X171966788Y-121381620D01*
X171966593Y-121384361D01*
X171965541Y-121386902D01*
X171964071Y-121401826D01*
X171964071Y-121516112D01*
X171965541Y-121531036D01*
X171966593Y-121533576D01*
X171966788Y-121536318D01*
X171972147Y-121550324D01*
X172029291Y-121664609D01*
X172033333Y-121671030D01*
X172034107Y-121672898D01*
X172035833Y-121675001D01*
X172037280Y-121677300D01*
X172038803Y-121678621D01*
X172043620Y-121684491D01*
X172084666Y-121725537D01*
X172073522Y-121729252D01*
X172059829Y-121735366D01*
X172057752Y-121737166D01*
X172055212Y-121738219D01*
X172043620Y-121747733D01*
X171986477Y-121804875D01*
X171981660Y-121810744D01*
X171980137Y-121812066D01*
X171978690Y-121814364D01*
X171976964Y-121816468D01*
X171976190Y-121818335D01*
X171972148Y-121824757D01*
X171915004Y-121939042D01*
X171909645Y-121953048D01*
X171909450Y-121955789D01*
X171908398Y-121958330D01*
X171906928Y-121973254D01*
X171518108Y-121973254D01*
X171532749Y-121958613D01*
X171544172Y-121931036D01*
X171544172Y-121901188D01*
X171532749Y-121873611D01*
X171511643Y-121852505D01*
X171484066Y-121841082D01*
X171469142Y-121839612D01*
X170554857Y-121839612D01*
X170539933Y-121841082D01*
X170512356Y-121852505D01*
X170491250Y-121873611D01*
X170479827Y-121901188D01*
X170108871Y-121901188D01*
X170114787Y-121877523D01*
X170115169Y-121874934D01*
X170115601Y-121873893D01*
X170116154Y-121868269D01*
X170116980Y-121862688D01*
X170116814Y-121861574D01*
X170117071Y-121858969D01*
X170117071Y-121687540D01*
X170116814Y-121684934D01*
X170116980Y-121683821D01*
X170116154Y-121678239D01*
X170115601Y-121672616D01*
X170115169Y-121671574D01*
X170114787Y-121668986D01*
X170057644Y-121440415D01*
X170057250Y-121439312D01*
X170057211Y-121438763D01*
X170054832Y-121432547D01*
X170052598Y-121426293D01*
X170052270Y-121425851D01*
X170051852Y-121424757D01*
X169994709Y-121310471D01*
X169990663Y-121304044D01*
X169989892Y-121302182D01*
X169988170Y-121300083D01*
X169986720Y-121297780D01*
X169985193Y-121296455D01*
X169980379Y-121290589D01*
X169866094Y-121176304D01*
X169854502Y-121166790D01*
X169851960Y-121165737D01*
X169849885Y-121163937D01*
X169836191Y-121157823D01*
X169664762Y-121100680D01*
X169657362Y-121098997D01*
X169655495Y-121098224D01*
X169652788Y-121097957D01*
X169650139Y-121097355D01*
X169648125Y-121097498D01*
X169640571Y-121096754D01*
X169526285Y-121096754D01*
X169518730Y-121097498D01*
X169516716Y-121097355D01*
X169514066Y-121097957D01*
X169511361Y-121098224D01*
X169509495Y-121098996D01*
X169502093Y-121100680D01*
X169330665Y-121157823D01*
X169316972Y-121163937D01*
X169314895Y-121165737D01*
X169312355Y-121166790D01*
X169300763Y-121176304D01*
X169243620Y-121233446D01*
X169234107Y-121245039D01*
X169222684Y-121272616D01*
X169089351Y-121272616D01*
X169089351Y-120963421D01*
X175278975Y-120963421D01*
X175278975Y-124515019D01*
G37*
X161571670Y-122175057D02*
X161628813Y-122289343D01*
X161628813Y-122289343D02*
X161628813Y-122460771D01*
X161628813Y-122460771D02*
X161571670Y-122632200D01*
X161571670Y-122632200D02*
X161457384Y-122746485D01*
X161457384Y-122746485D02*
X161343098Y-122803628D01*
X161343098Y-122803628D02*
X161114527Y-122860771D01*
X161114527Y-122860771D02*
X160943098Y-122860771D01*
X160943098Y-122860771D02*
X160714527Y-122803628D01*
X160714527Y-122803628D02*
X160600241Y-122746485D01*
X160600241Y-122746485D02*
X160485956Y-122632200D01*
X160485956Y-122632200D02*
X160428813Y-122460771D01*
X160428813Y-122460771D02*
X160428813Y-122346485D01*
X160428813Y-122346485D02*
X160485956Y-122175057D01*
X160485956Y-122175057D02*
X160543098Y-122117914D01*
X160543098Y-122117914D02*
X160943098Y-122117914D01*
X160943098Y-122117914D02*
X160943098Y-122346485D01*
X160428813Y-121603628D02*
X161628813Y-121603628D01*
X161628813Y-121603628D02*
X160428813Y-120917914D01*
X160428813Y-120917914D02*
X161628813Y-120917914D01*
X160428813Y-120346485D02*
X161628813Y-120346485D01*
X161628813Y-120346485D02*
X161628813Y-120060771D01*
X161628813Y-120060771D02*
X161571670Y-119889342D01*
X161571670Y-119889342D02*
X161457384Y-119775057D01*
X161457384Y-119775057D02*
X161343098Y-119717914D01*
X161343098Y-119717914D02*
X161114527Y-119660771D01*
X161114527Y-119660771D02*
X160943098Y-119660771D01*
X160943098Y-119660771D02*
X160714527Y-119717914D01*
X160714527Y-119717914D02*
X160600241Y-119775057D01*
X160600241Y-119775057D02*
X160485956Y-119889342D01*
X160485956Y-119889342D02*
X160428813Y-120060771D01*
X160428813Y-120060771D02*
X160428813Y-120346485D01*
D11*
G36*
X141715907Y-120287672D02*
G01*
X141744428Y-120344714D01*
X141744428Y-120425999D01*
X141418238Y-120360761D01*
X141418238Y-120344714D01*
X141446758Y-120287672D01*
X141503800Y-120259152D01*
X141658866Y-120259152D01*
X141715907Y-120287672D01*
G37*
G36*
X143632144Y-120293410D02*
G01*
X143662551Y-120323817D01*
X143696809Y-120392333D01*
X143696809Y-120642637D01*
X143662550Y-120711153D01*
X143632143Y-120741561D01*
X143563628Y-120775819D01*
X143456181Y-120775819D01*
X143387665Y-120741561D01*
X143357258Y-120711153D01*
X143323000Y-120642637D01*
X143323000Y-120392333D01*
X143357258Y-120323817D01*
X143387665Y-120293410D01*
X143456181Y-120259152D01*
X143563628Y-120259152D01*
X143632144Y-120293410D01*
G37*
G36*
X144649190Y-120299628D02*
G01*
X144360943Y-120299628D01*
X144292427Y-120265370D01*
X144262020Y-120234963D01*
X144227762Y-120166447D01*
X144227762Y-120059000D01*
X144262020Y-119990484D01*
X144292427Y-119960077D01*
X144360943Y-119925819D01*
X144649190Y-119925819D01*
X144649190Y-120299628D01*
G37*
G36*
X144910301Y-121036930D02*
G01*
X140444282Y-121036930D01*
X140444282Y-120169520D01*
X140555393Y-120169520D01*
X140555393Y-120198784D01*
X140566592Y-120225820D01*
X140587284Y-120246512D01*
X140614320Y-120257711D01*
X140628952Y-120259152D01*
X140706485Y-120259152D01*
X140775001Y-120293410D01*
X140805408Y-120323817D01*
X140839666Y-120392333D01*
X140839666Y-120850819D01*
X140841107Y-120865451D01*
X140852306Y-120892487D01*
X140872998Y-120913179D01*
X140900034Y-120924378D01*
X140929298Y-120924378D01*
X140956334Y-120913179D01*
X140977026Y-120892487D01*
X140988225Y-120865451D01*
X140989666Y-120850819D01*
X140989666Y-120327009D01*
X141268238Y-120327009D01*
X141268238Y-120422247D01*
X141269679Y-120436879D01*
X141272490Y-120443667D01*
X141273917Y-120450876D01*
X141278036Y-120457055D01*
X141280878Y-120463915D01*
X141286073Y-120469110D01*
X141290149Y-120475224D01*
X141296319Y-120479356D01*
X141301570Y-120484607D01*
X141308358Y-120487418D01*
X141314464Y-120491508D01*
X141328529Y-120495791D01*
X141744428Y-120578969D01*
X141744428Y-120690256D01*
X141715907Y-120747298D01*
X141658866Y-120775819D01*
X141503800Y-120775819D01*
X141424398Y-120736118D01*
X141410666Y-120730863D01*
X141381476Y-120728789D01*
X141353715Y-120738043D01*
X141331607Y-120757216D01*
X141318520Y-120783391D01*
X141316446Y-120812581D01*
X141325700Y-120840342D01*
X141344873Y-120862450D01*
X141357316Y-120870282D01*
X141452554Y-120917901D01*
X141466285Y-120923156D01*
X141468974Y-120923347D01*
X141471463Y-120924378D01*
X141486095Y-120925819D01*
X141676571Y-120925819D01*
X141691203Y-120924378D01*
X141693692Y-120923346D01*
X141696380Y-120923156D01*
X141710112Y-120917901D01*
X141805350Y-120870282D01*
X141807797Y-120868741D01*
X141808951Y-120868357D01*
X141810387Y-120867111D01*
X141817793Y-120862450D01*
X141823954Y-120855345D01*
X141831059Y-120849184D01*
X141835720Y-120841778D01*
X141836966Y-120840342D01*
X141837350Y-120839188D01*
X141838891Y-120836741D01*
X141886510Y-120741502D01*
X141891765Y-120727770D01*
X141891955Y-120725082D01*
X141892987Y-120722593D01*
X141894428Y-120707961D01*
X141894428Y-120327009D01*
X141892987Y-120312377D01*
X141891956Y-120309888D01*
X141891765Y-120307199D01*
X141886510Y-120293468D01*
X141838891Y-120198230D01*
X141837350Y-120195782D01*
X141836966Y-120194629D01*
X141835720Y-120193192D01*
X141833894Y-120190291D01*
X142078014Y-120190291D01*
X142080648Y-120204756D01*
X142271124Y-120871423D01*
X142276529Y-120885096D01*
X142279504Y-120888843D01*
X142281390Y-120893244D01*
X142288527Y-120900209D01*
X142294724Y-120908015D01*
X142298905Y-120910338D01*
X142302333Y-120913683D01*
X142311592Y-120917386D01*
X142320305Y-120922227D01*
X142325059Y-120922773D01*
X142329504Y-120924551D01*
X142339474Y-120924429D01*
X142349377Y-120925567D01*
X142353978Y-120924252D01*
X142358766Y-120924194D01*
X142367931Y-120920265D01*
X142377515Y-120917528D01*
X142381262Y-120914552D01*
X142385663Y-120912667D01*
X142392628Y-120905529D01*
X142400434Y-120899333D01*
X142402757Y-120895151D01*
X142406102Y-120891724D01*
X142412874Y-120878673D01*
X142533714Y-120576572D01*
X142654554Y-120878673D01*
X142661326Y-120891723D01*
X142664669Y-120895148D01*
X142666994Y-120899333D01*
X142674803Y-120905532D01*
X142681765Y-120912666D01*
X142686163Y-120914551D01*
X142689913Y-120917528D01*
X142699498Y-120920266D01*
X142708662Y-120924194D01*
X142713449Y-120924252D01*
X142718051Y-120925567D01*
X142727953Y-120924429D01*
X142737924Y-120924551D01*
X142742367Y-120922773D01*
X142747123Y-120922227D01*
X142755841Y-120917383D01*
X142765094Y-120913682D01*
X142768518Y-120910340D01*
X142772704Y-120908015D01*
X142778902Y-120900206D01*
X142786038Y-120893244D01*
X142787923Y-120888843D01*
X142790899Y-120885096D01*
X142796304Y-120871423D01*
X142938245Y-120374628D01*
X143173000Y-120374628D01*
X143173000Y-120660342D01*
X143174441Y-120674974D01*
X143175472Y-120677463D01*
X143175663Y-120680151D01*
X143180918Y-120693883D01*
X143228537Y-120789121D01*
X143232500Y-120795417D01*
X143233258Y-120797247D01*
X143234947Y-120799305D01*
X143236369Y-120801564D01*
X143237867Y-120802863D01*
X143242585Y-120808612D01*
X143290204Y-120856232D01*
X143295953Y-120860950D01*
X143297254Y-120862450D01*
X143299513Y-120863872D01*
X143301570Y-120865560D01*
X143303397Y-120866317D01*
X143309697Y-120870282D01*
X143404935Y-120917901D01*
X143418666Y-120923156D01*
X143421355Y-120923347D01*
X143423844Y-120924378D01*
X143438476Y-120925819D01*
X143581333Y-120925819D01*
X143595965Y-120924378D01*
X143598454Y-120923346D01*
X143601142Y-120923156D01*
X143614874Y-120917901D01*
X143710112Y-120870282D01*
X143716411Y-120866317D01*
X143718239Y-120865560D01*
X143720295Y-120863872D01*
X143722555Y-120862450D01*
X143723855Y-120860950D01*
X143729605Y-120856232D01*
X143777223Y-120808613D01*
X143781941Y-120802863D01*
X143783440Y-120801564D01*
X143784861Y-120799305D01*
X143786551Y-120797247D01*
X143787308Y-120795417D01*
X143791272Y-120789121D01*
X143838891Y-120693883D01*
X143844146Y-120680152D01*
X143844337Y-120677462D01*
X143845368Y-120674974D01*
X143846809Y-120660342D01*
X143846809Y-120374628D01*
X143845368Y-120359996D01*
X143844337Y-120357507D01*
X143844146Y-120354818D01*
X143838891Y-120341087D01*
X143791272Y-120245849D01*
X143787307Y-120239549D01*
X143786550Y-120237722D01*
X143784861Y-120235665D01*
X143783440Y-120233406D01*
X143781941Y-120232106D01*
X143777223Y-120226357D01*
X143729604Y-120178738D01*
X143723854Y-120174019D01*
X143722555Y-120172521D01*
X143720295Y-120171099D01*
X143718239Y-120169411D01*
X143716411Y-120168653D01*
X143710112Y-120164689D01*
X143614874Y-120117070D01*
X143601142Y-120111815D01*
X143598454Y-120111624D01*
X143595965Y-120110593D01*
X143581333Y-120109152D01*
X143438476Y-120109152D01*
X143423844Y-120110593D01*
X143421355Y-120111623D01*
X143418666Y-120111815D01*
X143404935Y-120117070D01*
X143309697Y-120164689D01*
X143303397Y-120168653D01*
X143301570Y-120169411D01*
X143299513Y-120171099D01*
X143297254Y-120172521D01*
X143295954Y-120174019D01*
X143290205Y-120178738D01*
X143242586Y-120226357D01*
X143237867Y-120232106D01*
X143236369Y-120233406D01*
X143234947Y-120235665D01*
X143233259Y-120237722D01*
X143232501Y-120239549D01*
X143228537Y-120245849D01*
X143180918Y-120341087D01*
X143175663Y-120354819D01*
X143175472Y-120357506D01*
X143174441Y-120359996D01*
X143173000Y-120374628D01*
X142938245Y-120374628D01*
X142986780Y-120204756D01*
X142989414Y-120190291D01*
X142986074Y-120161219D01*
X142971862Y-120135638D01*
X142948943Y-120117443D01*
X142920805Y-120109404D01*
X142891733Y-120112744D01*
X142866152Y-120126956D01*
X142847957Y-120149875D01*
X142842552Y-120163548D01*
X142712346Y-120619266D01*
X142603350Y-120346774D01*
X142596578Y-120333723D01*
X142595927Y-120333056D01*
X142595562Y-120332203D01*
X142585751Y-120322629D01*
X142576139Y-120312780D01*
X142575281Y-120312412D01*
X142574618Y-120311765D01*
X142561886Y-120306671D01*
X142549242Y-120301253D01*
X142548312Y-120301241D01*
X142547448Y-120300896D01*
X142533714Y-120301063D01*
X142519980Y-120300896D01*
X142519115Y-120301241D01*
X142518186Y-120301253D01*
X142505584Y-120306654D01*
X142492809Y-120311764D01*
X142492141Y-120312415D01*
X142491289Y-120312781D01*
X142481716Y-120322589D01*
X142471866Y-120332203D01*
X142471499Y-120333058D01*
X142470850Y-120333724D01*
X142464078Y-120346774D01*
X142355081Y-120619266D01*
X142224876Y-120163548D01*
X142219471Y-120149875D01*
X142201276Y-120126956D01*
X142175695Y-120112744D01*
X142146623Y-120109404D01*
X142118485Y-120117443D01*
X142095566Y-120135638D01*
X142081354Y-120161219D01*
X142078014Y-120190291D01*
X141833894Y-120190291D01*
X141831059Y-120185787D01*
X141823954Y-120179625D01*
X141817793Y-120172521D01*
X141810387Y-120167859D01*
X141808951Y-120166614D01*
X141807797Y-120166229D01*
X141805350Y-120164689D01*
X141710112Y-120117070D01*
X141696380Y-120111815D01*
X141693692Y-120111624D01*
X141691203Y-120110593D01*
X141676571Y-120109152D01*
X141486095Y-120109152D01*
X141471463Y-120110593D01*
X141468974Y-120111623D01*
X141466285Y-120111815D01*
X141452554Y-120117070D01*
X141357316Y-120164689D01*
X141354868Y-120166229D01*
X141353715Y-120166614D01*
X141352278Y-120167859D01*
X141344873Y-120172521D01*
X141338711Y-120179625D01*
X141331607Y-120185787D01*
X141326945Y-120193192D01*
X141325700Y-120194629D01*
X141325315Y-120195782D01*
X141323775Y-120198230D01*
X141276156Y-120293468D01*
X141270901Y-120307200D01*
X141270710Y-120309887D01*
X141269679Y-120312377D01*
X141268238Y-120327009D01*
X140989666Y-120327009D01*
X140989666Y-120184152D01*
X140988225Y-120169520D01*
X140977026Y-120142484D01*
X140956334Y-120121792D01*
X140929298Y-120110593D01*
X140900034Y-120110593D01*
X140872998Y-120121792D01*
X140852306Y-120142484D01*
X140844800Y-120160604D01*
X140757731Y-120117070D01*
X140743999Y-120111815D01*
X140741311Y-120111624D01*
X140738822Y-120110593D01*
X140724190Y-120109152D01*
X140628952Y-120109152D01*
X140614320Y-120110593D01*
X140587284Y-120121792D01*
X140566592Y-120142484D01*
X140555393Y-120169520D01*
X140444282Y-120169520D01*
X140444282Y-120041295D01*
X144077762Y-120041295D01*
X144077762Y-120184152D01*
X144079203Y-120198784D01*
X144080234Y-120201273D01*
X144080425Y-120203961D01*
X144085680Y-120217693D01*
X144133299Y-120312931D01*
X144137263Y-120319230D01*
X144138021Y-120321058D01*
X144139709Y-120323114D01*
X144141131Y-120325374D01*
X144142629Y-120326673D01*
X144147348Y-120332423D01*
X144194967Y-120380042D01*
X144200716Y-120384760D01*
X144202016Y-120386259D01*
X144204275Y-120387680D01*
X144206332Y-120389369D01*
X144208159Y-120390126D01*
X144214459Y-120394091D01*
X144309697Y-120441710D01*
X144323428Y-120446965D01*
X144326117Y-120447156D01*
X144328606Y-120448187D01*
X144343238Y-120449628D01*
X144649190Y-120449628D01*
X144649190Y-120850819D01*
X144650631Y-120865451D01*
X144661830Y-120892487D01*
X144682522Y-120913179D01*
X144709558Y-120924378D01*
X144738822Y-120924378D01*
X144765858Y-120913179D01*
X144786550Y-120892487D01*
X144797749Y-120865451D01*
X144799190Y-120850819D01*
X144799190Y-119850819D01*
X144797749Y-119836187D01*
X144786550Y-119809151D01*
X144765858Y-119788459D01*
X144738822Y-119777260D01*
X144724190Y-119775819D01*
X144343238Y-119775819D01*
X144328606Y-119777260D01*
X144326117Y-119778290D01*
X144323428Y-119778482D01*
X144309697Y-119783737D01*
X144214459Y-119831356D01*
X144208159Y-119835320D01*
X144206332Y-119836078D01*
X144204275Y-119837766D01*
X144202016Y-119839188D01*
X144200716Y-119840686D01*
X144194967Y-119845405D01*
X144147348Y-119893024D01*
X144142629Y-119898773D01*
X144141131Y-119900073D01*
X144139709Y-119902332D01*
X144138021Y-119904389D01*
X144137263Y-119906216D01*
X144133299Y-119912516D01*
X144085680Y-120007754D01*
X144080425Y-120021486D01*
X144080234Y-120024173D01*
X144079203Y-120026663D01*
X144077762Y-120041295D01*
X140444282Y-120041295D01*
X140444282Y-119664708D01*
X144910301Y-119664708D01*
X144910301Y-121036930D01*
G37*
G36*
X155639858Y-116483410D02*
G01*
X155670265Y-116513817D01*
X155704523Y-116582333D01*
X155704523Y-116832637D01*
X155670264Y-116901153D01*
X155639857Y-116931561D01*
X155571342Y-116965819D01*
X155463895Y-116965819D01*
X155395379Y-116931561D01*
X155364972Y-116901153D01*
X155330714Y-116832637D01*
X155330714Y-116582333D01*
X155364972Y-116513817D01*
X155395379Y-116483410D01*
X155463895Y-116449152D01*
X155571342Y-116449152D01*
X155639858Y-116483410D01*
G37*
G36*
X158247431Y-116477672D02*
G01*
X158275952Y-116534714D01*
X158275952Y-116615999D01*
X157949762Y-116550761D01*
X157949762Y-116534714D01*
X157978282Y-116477672D01*
X158035324Y-116449152D01*
X158190390Y-116449152D01*
X158247431Y-116477672D01*
G37*
G36*
X159489444Y-117226930D02*
G01*
X154356758Y-117226930D01*
X154356758Y-116359520D01*
X154467869Y-116359520D01*
X154467869Y-116388784D01*
X154479068Y-116415820D01*
X154499760Y-116436512D01*
X154526796Y-116447711D01*
X154541428Y-116449152D01*
X154618961Y-116449152D01*
X154687477Y-116483410D01*
X154717884Y-116513817D01*
X154752142Y-116582333D01*
X154752142Y-117040819D01*
X154753583Y-117055451D01*
X154764782Y-117082487D01*
X154785474Y-117103179D01*
X154812510Y-117114378D01*
X154841774Y-117114378D01*
X154868810Y-117103179D01*
X154889502Y-117082487D01*
X154900701Y-117055451D01*
X154902142Y-117040819D01*
X154902142Y-116564628D01*
X155180714Y-116564628D01*
X155180714Y-116850342D01*
X155182155Y-116864974D01*
X155183186Y-116867463D01*
X155183377Y-116870151D01*
X155188632Y-116883883D01*
X155236251Y-116979121D01*
X155240214Y-116985417D01*
X155240972Y-116987247D01*
X155242661Y-116989305D01*
X155244083Y-116991564D01*
X155245581Y-116992863D01*
X155250299Y-116998612D01*
X155297918Y-117046232D01*
X155303667Y-117050950D01*
X155304968Y-117052450D01*
X155307227Y-117053872D01*
X155309284Y-117055560D01*
X155311111Y-117056317D01*
X155317411Y-117060282D01*
X155412649Y-117107901D01*
X155426380Y-117113156D01*
X155429069Y-117113347D01*
X155431558Y-117114378D01*
X155446190Y-117115819D01*
X155589047Y-117115819D01*
X155603679Y-117114378D01*
X155606168Y-117113346D01*
X155608856Y-117113156D01*
X155622588Y-117107901D01*
X155717826Y-117060282D01*
X155724125Y-117056317D01*
X155725953Y-117055560D01*
X155728009Y-117053872D01*
X155730269Y-117052450D01*
X155731569Y-117050950D01*
X155737319Y-117046232D01*
X155784937Y-116998613D01*
X155789655Y-116992863D01*
X155791154Y-116991564D01*
X155792575Y-116989305D01*
X155794265Y-116987247D01*
X155795022Y-116985417D01*
X155798986Y-116979121D01*
X155846605Y-116883883D01*
X155851860Y-116870152D01*
X155852051Y-116867462D01*
X155853082Y-116864974D01*
X155854523Y-116850342D01*
X156085476Y-116850342D01*
X156085476Y-116897961D01*
X156086917Y-116912593D01*
X156087948Y-116915082D01*
X156088139Y-116917770D01*
X156093394Y-116931502D01*
X156141013Y-117026741D01*
X156142553Y-117029187D01*
X156142938Y-117030342D01*
X156144184Y-117031779D01*
X156148845Y-117039183D01*
X156155947Y-117045342D01*
X156162111Y-117052450D01*
X156169516Y-117057111D01*
X156170953Y-117058357D01*
X156172106Y-117058741D01*
X156174554Y-117060282D01*
X156269792Y-117107901D01*
X156283523Y-117113156D01*
X156286212Y-117113347D01*
X156288701Y-117114378D01*
X156303333Y-117115819D01*
X156493809Y-117115819D01*
X156508441Y-117114378D01*
X156510930Y-117113346D01*
X156513618Y-117113156D01*
X156527350Y-117107901D01*
X156622588Y-117060282D01*
X156635031Y-117052450D01*
X156654204Y-117030342D01*
X156663458Y-117002581D01*
X156661384Y-116973391D01*
X156648296Y-116947216D01*
X156626189Y-116928043D01*
X156598427Y-116918789D01*
X156569237Y-116920863D01*
X156555506Y-116926118D01*
X156476104Y-116965819D01*
X156321038Y-116965819D01*
X156263996Y-116937298D01*
X156235476Y-116880256D01*
X156235476Y-116868047D01*
X156263996Y-116811005D01*
X156321038Y-116782485D01*
X156446190Y-116782485D01*
X156460822Y-116781044D01*
X156463311Y-116780012D01*
X156465999Y-116779822D01*
X156479731Y-116774567D01*
X156574969Y-116726948D01*
X156577416Y-116725407D01*
X156578570Y-116725023D01*
X156580006Y-116723777D01*
X156587412Y-116719116D01*
X156593573Y-116712011D01*
X156600678Y-116705850D01*
X156605339Y-116698444D01*
X156606585Y-116697008D01*
X156606969Y-116695854D01*
X156608510Y-116693407D01*
X156656129Y-116598169D01*
X156661384Y-116584438D01*
X156661575Y-116581748D01*
X156662606Y-116579260D01*
X156664047Y-116564628D01*
X156664047Y-116517009D01*
X156942619Y-116517009D01*
X156942619Y-117040819D01*
X156944060Y-117055451D01*
X156955259Y-117082487D01*
X156975951Y-117103179D01*
X157002987Y-117114378D01*
X157032251Y-117114378D01*
X157059287Y-117103179D01*
X157079979Y-117082487D01*
X157091178Y-117055451D01*
X157092619Y-117040819D01*
X157092619Y-116534714D01*
X157121139Y-116477672D01*
X157178181Y-116449152D01*
X157285628Y-116449152D01*
X157354144Y-116483410D01*
X157371190Y-116500456D01*
X157371190Y-117040819D01*
X157372631Y-117055451D01*
X157383830Y-117082487D01*
X157404522Y-117103179D01*
X157431558Y-117114378D01*
X157460822Y-117114378D01*
X157487858Y-117103179D01*
X157508550Y-117082487D01*
X157519749Y-117055451D01*
X157521190Y-117040819D01*
X157521190Y-116517009D01*
X157799762Y-116517009D01*
X157799762Y-116612247D01*
X157801203Y-116626879D01*
X157804014Y-116633667D01*
X157805441Y-116640876D01*
X157809560Y-116647055D01*
X157812402Y-116653915D01*
X157817597Y-116659110D01*
X157821673Y-116665224D01*
X157827843Y-116669356D01*
X157833094Y-116674607D01*
X157839882Y-116677418D01*
X157845988Y-116681508D01*
X157860053Y-116685791D01*
X158275952Y-116768969D01*
X158275952Y-116880256D01*
X158247431Y-116937298D01*
X158190390Y-116965819D01*
X158035324Y-116965819D01*
X157955922Y-116926118D01*
X157942190Y-116920863D01*
X157913000Y-116918789D01*
X157885239Y-116928043D01*
X157863131Y-116947216D01*
X157850044Y-116973391D01*
X157847970Y-117002581D01*
X157857224Y-117030342D01*
X157876397Y-117052450D01*
X157888840Y-117060282D01*
X157984078Y-117107901D01*
X157997809Y-117113156D01*
X158000498Y-117113347D01*
X158002987Y-117114378D01*
X158017619Y-117115819D01*
X158208095Y-117115819D01*
X158222727Y-117114378D01*
X158225216Y-117113346D01*
X158227904Y-117113156D01*
X158241636Y-117107901D01*
X158336874Y-117060282D01*
X158339321Y-117058741D01*
X158340475Y-117058357D01*
X158341911Y-117057111D01*
X158349317Y-117052450D01*
X158355478Y-117045345D01*
X158362583Y-117039184D01*
X158367244Y-117031778D01*
X158368490Y-117030342D01*
X158368874Y-117029188D01*
X158370415Y-117026741D01*
X158418034Y-116931502D01*
X158423289Y-116917770D01*
X158423479Y-116915082D01*
X158424511Y-116912593D01*
X158425952Y-116897961D01*
X158425952Y-116755104D01*
X158656905Y-116755104D01*
X158656905Y-116850342D01*
X158658346Y-116864974D01*
X158659377Y-116867463D01*
X158659568Y-116870151D01*
X158664823Y-116883883D01*
X158712442Y-116979121D01*
X158716405Y-116985417D01*
X158717163Y-116987247D01*
X158718852Y-116989305D01*
X158720274Y-116991564D01*
X158721772Y-116992863D01*
X158726490Y-116998612D01*
X158774109Y-117046232D01*
X158779858Y-117050950D01*
X158781159Y-117052450D01*
X158783418Y-117053872D01*
X158785475Y-117055560D01*
X158787302Y-117056317D01*
X158793602Y-117060282D01*
X158888840Y-117107901D01*
X158902571Y-117113156D01*
X158905260Y-117113347D01*
X158907749Y-117114378D01*
X158922381Y-117115819D01*
X159160476Y-117115819D01*
X159167881Y-117115089D01*
X159169856Y-117115230D01*
X159172453Y-117114639D01*
X159175108Y-117114378D01*
X159176939Y-117113619D01*
X159184193Y-117111970D01*
X159327050Y-117064351D01*
X159340475Y-117058357D01*
X159362582Y-117039183D01*
X159375669Y-117013010D01*
X159377744Y-116983820D01*
X159368490Y-116956058D01*
X159349316Y-116933950D01*
X159323142Y-116920864D01*
X159293952Y-116918789D01*
X159279615Y-116922049D01*
X159148306Y-116965819D01*
X158940086Y-116965819D01*
X158871570Y-116931561D01*
X158841163Y-116901153D01*
X158806905Y-116832637D01*
X158806905Y-116772809D01*
X158841163Y-116704293D01*
X158871570Y-116673886D01*
X158948557Y-116635392D01*
X159131047Y-116589770D01*
X159132126Y-116589384D01*
X159132666Y-116589346D01*
X159138747Y-116587018D01*
X159144893Y-116584823D01*
X159145328Y-116584500D01*
X159146398Y-116584091D01*
X159241636Y-116536472D01*
X159247935Y-116532507D01*
X159249763Y-116531750D01*
X159251819Y-116530061D01*
X159254079Y-116528640D01*
X159255378Y-116527141D01*
X159261128Y-116522423D01*
X159308747Y-116474804D01*
X159313465Y-116469054D01*
X159314964Y-116467755D01*
X159316385Y-116465495D01*
X159318074Y-116463439D01*
X159318831Y-116461611D01*
X159322796Y-116455312D01*
X159370415Y-116360074D01*
X159375670Y-116346343D01*
X159375861Y-116343653D01*
X159376892Y-116341165D01*
X159378333Y-116326533D01*
X159378333Y-116231295D01*
X159376892Y-116216663D01*
X159375861Y-116214174D01*
X159375670Y-116211485D01*
X159370415Y-116197754D01*
X159322796Y-116102516D01*
X159318831Y-116096216D01*
X159318074Y-116094389D01*
X159316385Y-116092332D01*
X159314964Y-116090073D01*
X159313465Y-116088773D01*
X159308747Y-116083024D01*
X159261128Y-116035405D01*
X159255378Y-116030686D01*
X159254079Y-116029188D01*
X159251819Y-116027766D01*
X159249763Y-116026078D01*
X159247935Y-116025320D01*
X159241636Y-116021356D01*
X159146398Y-115973737D01*
X159132666Y-115968482D01*
X159129978Y-115968291D01*
X159127489Y-115967260D01*
X159112857Y-115965819D01*
X158874762Y-115965819D01*
X158867355Y-115966548D01*
X158865381Y-115966408D01*
X158862783Y-115966998D01*
X158860130Y-115967260D01*
X158858299Y-115968018D01*
X158851044Y-115969668D01*
X158708188Y-116017287D01*
X158694762Y-116023281D01*
X158672655Y-116042455D01*
X158659569Y-116068628D01*
X158657494Y-116097818D01*
X158666748Y-116125581D01*
X158685922Y-116147688D01*
X158712095Y-116160774D01*
X158741285Y-116162849D01*
X158755622Y-116159589D01*
X158886932Y-116115819D01*
X159095152Y-116115819D01*
X159163668Y-116150077D01*
X159194075Y-116180484D01*
X159228333Y-116249000D01*
X159228333Y-116308828D01*
X159194075Y-116377344D01*
X159163668Y-116407751D01*
X159086681Y-116446244D01*
X158904191Y-116491867D01*
X158903111Y-116492252D01*
X158902571Y-116492291D01*
X158896481Y-116494621D01*
X158890345Y-116496814D01*
X158889909Y-116497136D01*
X158888840Y-116497546D01*
X158793602Y-116545165D01*
X158787302Y-116549129D01*
X158785475Y-116549887D01*
X158783418Y-116551575D01*
X158781159Y-116552997D01*
X158779859Y-116554495D01*
X158774110Y-116559214D01*
X158726491Y-116606833D01*
X158721772Y-116612582D01*
X158720274Y-116613882D01*
X158718852Y-116616141D01*
X158717164Y-116618198D01*
X158716406Y-116620025D01*
X158712442Y-116626325D01*
X158664823Y-116721563D01*
X158659568Y-116735295D01*
X158659377Y-116737982D01*
X158658346Y-116740472D01*
X158656905Y-116755104D01*
X158425952Y-116755104D01*
X158425952Y-116517009D01*
X158424511Y-116502377D01*
X158423480Y-116499888D01*
X158423289Y-116497199D01*
X158418034Y-116483468D01*
X158370415Y-116388230D01*
X158368874Y-116385782D01*
X158368490Y-116384629D01*
X158367244Y-116383192D01*
X158362583Y-116375787D01*
X158355478Y-116369625D01*
X158349317Y-116362521D01*
X158341911Y-116357859D01*
X158340475Y-116356614D01*
X158339321Y-116356229D01*
X158336874Y-116354689D01*
X158241636Y-116307070D01*
X158227904Y-116301815D01*
X158225216Y-116301624D01*
X158222727Y-116300593D01*
X158208095Y-116299152D01*
X158017619Y-116299152D01*
X158002987Y-116300593D01*
X158000498Y-116301623D01*
X157997809Y-116301815D01*
X157984078Y-116307070D01*
X157888840Y-116354689D01*
X157886392Y-116356229D01*
X157885239Y-116356614D01*
X157883802Y-116357859D01*
X157876397Y-116362521D01*
X157870235Y-116369625D01*
X157863131Y-116375787D01*
X157858469Y-116383192D01*
X157857224Y-116384629D01*
X157856839Y-116385782D01*
X157855299Y-116388230D01*
X157807680Y-116483468D01*
X157802425Y-116497200D01*
X157802234Y-116499887D01*
X157801203Y-116502377D01*
X157799762Y-116517009D01*
X157521190Y-116517009D01*
X157521190Y-116374152D01*
X157519749Y-116359520D01*
X157508550Y-116332484D01*
X157487858Y-116311792D01*
X157460822Y-116300593D01*
X157431558Y-116300593D01*
X157404522Y-116311792D01*
X157385120Y-116331193D01*
X157336874Y-116307070D01*
X157323142Y-116301815D01*
X157320454Y-116301624D01*
X157317965Y-116300593D01*
X157303333Y-116299152D01*
X157160476Y-116299152D01*
X157145844Y-116300593D01*
X157143355Y-116301623D01*
X157140666Y-116301815D01*
X157126935Y-116307070D01*
X157031697Y-116354689D01*
X157029249Y-116356229D01*
X157028096Y-116356614D01*
X157026659Y-116357859D01*
X157019254Y-116362521D01*
X157013092Y-116369625D01*
X157005988Y-116375787D01*
X157001326Y-116383192D01*
X157000081Y-116384629D01*
X156999696Y-116385782D01*
X156998156Y-116388230D01*
X156950537Y-116483468D01*
X156945282Y-116497200D01*
X156945091Y-116499887D01*
X156944060Y-116502377D01*
X156942619Y-116517009D01*
X156664047Y-116517009D01*
X156662606Y-116502377D01*
X156661575Y-116499888D01*
X156661384Y-116497199D01*
X156656129Y-116483468D01*
X156608510Y-116388230D01*
X156606969Y-116385782D01*
X156606585Y-116384629D01*
X156605339Y-116383192D01*
X156600678Y-116375787D01*
X156593573Y-116369625D01*
X156587412Y-116362521D01*
X156580006Y-116357859D01*
X156578570Y-116356614D01*
X156577416Y-116356229D01*
X156574969Y-116354689D01*
X156479731Y-116307070D01*
X156465999Y-116301815D01*
X156463311Y-116301624D01*
X156460822Y-116300593D01*
X156446190Y-116299152D01*
X156303333Y-116299152D01*
X156288701Y-116300593D01*
X156286212Y-116301623D01*
X156283523Y-116301815D01*
X156269792Y-116307070D01*
X156174554Y-116354689D01*
X156162111Y-116362521D01*
X156142938Y-116384629D01*
X156133684Y-116412390D01*
X156135758Y-116441580D01*
X156148845Y-116467755D01*
X156170953Y-116486928D01*
X156198714Y-116496182D01*
X156227904Y-116494108D01*
X156241636Y-116488853D01*
X156321038Y-116449152D01*
X156428485Y-116449152D01*
X156485526Y-116477672D01*
X156514047Y-116534714D01*
X156514047Y-116546923D01*
X156485526Y-116603964D01*
X156428485Y-116632485D01*
X156303333Y-116632485D01*
X156288701Y-116633926D01*
X156286212Y-116634956D01*
X156283523Y-116635148D01*
X156269792Y-116640403D01*
X156174554Y-116688022D01*
X156172106Y-116689562D01*
X156170953Y-116689947D01*
X156169516Y-116691192D01*
X156162111Y-116695854D01*
X156155949Y-116702958D01*
X156148845Y-116709120D01*
X156144183Y-116716525D01*
X156142938Y-116717962D01*
X156142553Y-116719115D01*
X156141013Y-116721563D01*
X156093394Y-116816801D01*
X156088139Y-116830533D01*
X156087948Y-116833220D01*
X156086917Y-116835710D01*
X156085476Y-116850342D01*
X155854523Y-116850342D01*
X155854523Y-116564628D01*
X155853082Y-116549996D01*
X155852051Y-116547507D01*
X155851860Y-116544818D01*
X155846605Y-116531087D01*
X155798986Y-116435849D01*
X155795021Y-116429549D01*
X155794264Y-116427722D01*
X155792575Y-116425665D01*
X155791154Y-116423406D01*
X155789655Y-116422106D01*
X155784937Y-116416357D01*
X155737318Y-116368738D01*
X155731568Y-116364019D01*
X155730269Y-116362521D01*
X155728009Y-116361099D01*
X155725953Y-116359411D01*
X155724125Y-116358653D01*
X155717826Y-116354689D01*
X155622588Y-116307070D01*
X155608856Y-116301815D01*
X155606168Y-116301624D01*
X155603679Y-116300593D01*
X155589047Y-116299152D01*
X155446190Y-116299152D01*
X155431558Y-116300593D01*
X155429069Y-116301623D01*
X155426380Y-116301815D01*
X155412649Y-116307070D01*
X155317411Y-116354689D01*
X155311111Y-116358653D01*
X155309284Y-116359411D01*
X155307227Y-116361099D01*
X155304968Y-116362521D01*
X155303668Y-116364019D01*
X155297919Y-116368738D01*
X155250300Y-116416357D01*
X155245581Y-116422106D01*
X155244083Y-116423406D01*
X155242661Y-116425665D01*
X155240973Y-116427722D01*
X155240215Y-116429549D01*
X155236251Y-116435849D01*
X155188632Y-116531087D01*
X155183377Y-116544819D01*
X155183186Y-116547506D01*
X155182155Y-116549996D01*
X155180714Y-116564628D01*
X154902142Y-116564628D01*
X154902142Y-116374152D01*
X154900701Y-116359520D01*
X154889502Y-116332484D01*
X154868810Y-116311792D01*
X154841774Y-116300593D01*
X154812510Y-116300593D01*
X154785474Y-116311792D01*
X154764782Y-116332484D01*
X154757276Y-116350604D01*
X154670207Y-116307070D01*
X154656475Y-116301815D01*
X154653787Y-116301624D01*
X154651298Y-116300593D01*
X154636666Y-116299152D01*
X154541428Y-116299152D01*
X154526796Y-116300593D01*
X154499760Y-116311792D01*
X154479068Y-116332484D01*
X154467869Y-116359520D01*
X154356758Y-116359520D01*
X154356758Y-115854708D01*
X159489444Y-115854708D01*
X159489444Y-117226930D01*
G37*
D12*
%TO.C,G\u002A\u002A\u002A*%
G36*
X171037325Y-92866307D02*
G01*
X171037561Y-92970182D01*
X171037790Y-93104620D01*
X171037922Y-93232648D01*
X171037959Y-93352954D01*
X171037904Y-93464226D01*
X171037761Y-93565150D01*
X171037531Y-93654413D01*
X171037219Y-93730702D01*
X171036825Y-93792705D01*
X171036354Y-93839109D01*
X171035808Y-93868599D01*
X171035190Y-93879865D01*
X171031645Y-93882311D01*
X171019413Y-93884895D01*
X170997227Y-93887012D01*
X170963717Y-93888697D01*
X170917515Y-93889988D01*
X170857252Y-93890920D01*
X170781558Y-93891530D01*
X170689065Y-93891854D01*
X170578403Y-93891927D01*
X170496791Y-93891770D01*
X170409380Y-93891299D01*
X170329542Y-93890549D01*
X170259273Y-93889555D01*
X170200565Y-93888352D01*
X170155413Y-93886975D01*
X170125811Y-93885457D01*
X170113754Y-93883835D01*
X170111782Y-93882039D01*
X170107035Y-93869642D01*
X170104271Y-93845070D01*
X170103313Y-93805888D01*
X170103984Y-93749658D01*
X170106731Y-93623423D01*
X170438885Y-93618538D01*
X170771039Y-93613654D01*
X170773629Y-93327904D01*
X170776219Y-93042154D01*
X170498844Y-93042154D01*
X170477138Y-93042145D01*
X170397672Y-93041899D01*
X170335286Y-93041243D01*
X170287999Y-93040085D01*
X170253828Y-93038330D01*
X170230790Y-93035886D01*
X170216903Y-93032659D01*
X170210185Y-93028556D01*
X170208477Y-93025737D01*
X170203569Y-93002731D01*
X170201295Y-92960490D01*
X170201662Y-92899114D01*
X170204423Y-92783269D01*
X170487731Y-92778384D01*
X170771039Y-92773500D01*
X170771039Y-92456000D01*
X170771039Y-92138500D01*
X170438885Y-92133615D01*
X170106731Y-92128730D01*
X170106731Y-91996846D01*
X170106731Y-91864961D01*
X170570770Y-91864961D01*
X171034808Y-91864961D01*
X171037325Y-92866307D01*
G37*
G36*
X173957081Y-92188595D02*
G01*
X173958121Y-92229453D01*
X173958940Y-92279812D01*
X173959564Y-92340925D01*
X173960019Y-92414048D01*
X173960332Y-92500436D01*
X173960530Y-92601342D01*
X173960638Y-92718023D01*
X173960683Y-92851733D01*
X173960693Y-93003727D01*
X173960693Y-93892644D01*
X173831250Y-93889918D01*
X173701808Y-93887192D01*
X173699252Y-93503750D01*
X173696697Y-93120307D01*
X173477002Y-93120307D01*
X173257308Y-93120307D01*
X173257308Y-93490739D01*
X173257306Y-93501138D01*
X173257118Y-93584225D01*
X173256652Y-93661237D01*
X173255945Y-93729929D01*
X173255029Y-93788057D01*
X173253940Y-93833378D01*
X173252711Y-93863648D01*
X173251378Y-93876624D01*
X173247219Y-93882356D01*
X173235993Y-93887229D01*
X173214948Y-93890198D01*
X173180849Y-93891676D01*
X173130459Y-93892077D01*
X173125328Y-93892072D01*
X173072917Y-93891297D01*
X173037074Y-93888980D01*
X173015089Y-93884831D01*
X173004253Y-93878561D01*
X173003463Y-93876875D01*
X173001514Y-93864909D01*
X172999838Y-93841497D01*
X172998426Y-93805832D01*
X172997271Y-93757102D01*
X172996365Y-93694499D01*
X172995700Y-93617214D01*
X172995269Y-93524438D01*
X172995065Y-93415361D01*
X172995078Y-93289174D01*
X172995303Y-93145069D01*
X172995730Y-92982234D01*
X172997152Y-92516129D01*
X173257308Y-92516129D01*
X173257308Y-92856538D01*
X173470603Y-92856538D01*
X173496965Y-92856488D01*
X173557246Y-92855981D01*
X173609645Y-92854994D01*
X173651248Y-92853615D01*
X173679141Y-92851930D01*
X173690411Y-92850025D01*
X173691626Y-92842928D01*
X173693062Y-92818206D01*
X173694336Y-92778042D01*
X173695402Y-92724727D01*
X173696218Y-92660555D01*
X173696740Y-92587819D01*
X173696923Y-92508811D01*
X173696923Y-92174110D01*
X173670428Y-92153269D01*
X173661200Y-92146596D01*
X173649772Y-92140986D01*
X173634403Y-92137249D01*
X173611976Y-92135107D01*
X173579371Y-92134281D01*
X173533471Y-92134493D01*
X173471157Y-92135464D01*
X173445512Y-92135938D01*
X173388973Y-92137311D01*
X173347863Y-92139100D01*
X173319188Y-92141639D01*
X173299956Y-92145263D01*
X173287172Y-92150309D01*
X173277845Y-92157110D01*
X173277790Y-92157160D01*
X173272340Y-92162636D01*
X173267954Y-92169492D01*
X173264517Y-92179746D01*
X173261912Y-92195414D01*
X173260024Y-92218516D01*
X173258739Y-92251067D01*
X173257940Y-92295087D01*
X173257512Y-92352592D01*
X173257340Y-92425600D01*
X173257308Y-92516129D01*
X172997152Y-92516129D01*
X172998423Y-92099423D01*
X173023641Y-92045669D01*
X173040988Y-92013714D01*
X173084747Y-91956880D01*
X173137916Y-91910723D01*
X173195898Y-91879672D01*
X173213797Y-91873364D01*
X173231935Y-91868375D01*
X173252486Y-91864790D01*
X173278303Y-91862437D01*
X173312240Y-91861145D01*
X173357150Y-91860741D01*
X173415888Y-91861056D01*
X173491306Y-91861916D01*
X173731116Y-91864961D01*
X173786941Y-91892375D01*
X173798429Y-91898356D01*
X173858015Y-91941378D01*
X173906897Y-91997389D01*
X173940828Y-92061718D01*
X173941376Y-92063186D01*
X173944707Y-92072678D01*
X173947632Y-92082886D01*
X173950176Y-92095066D01*
X173952367Y-92110472D01*
X173954230Y-92130359D01*
X173955793Y-92155982D01*
X173956509Y-92174110D01*
X173957081Y-92188595D01*
G37*
G36*
X172879570Y-94717577D02*
G01*
X172878906Y-94738692D01*
X172873248Y-94786509D01*
X172862845Y-94822813D01*
X172856398Y-94836035D01*
X172821451Y-94886503D01*
X172775421Y-94931138D01*
X172724885Y-94963245D01*
X172667110Y-94981715D01*
X172601514Y-94985607D01*
X172537174Y-94973484D01*
X172478393Y-94946199D01*
X172429477Y-94904608D01*
X172412479Y-94884198D01*
X172384349Y-94840473D01*
X172368181Y-94793983D01*
X172360695Y-94736722D01*
X172360240Y-94712712D01*
X172516959Y-94712712D01*
X172521447Y-94751685D01*
X172539705Y-94785769D01*
X172570652Y-94809552D01*
X172611009Y-94820383D01*
X172650034Y-94813288D01*
X172686785Y-94786938D01*
X172692061Y-94781466D01*
X172714712Y-94747673D01*
X172718876Y-94712913D01*
X172705181Y-94673295D01*
X172684132Y-94645222D01*
X172650135Y-94624333D01*
X172611548Y-94618674D01*
X172573184Y-94628773D01*
X172539858Y-94655158D01*
X172527319Y-94674264D01*
X172516959Y-94712712D01*
X172360240Y-94712712D01*
X172360075Y-94703988D01*
X172370551Y-94636846D01*
X172397999Y-94578622D01*
X172442983Y-94527880D01*
X172485628Y-94490342D01*
X172483141Y-93458516D01*
X172482936Y-93379698D01*
X172482336Y-93200647D01*
X172481597Y-93039766D01*
X172480721Y-92897208D01*
X172479708Y-92773124D01*
X172478562Y-92667666D01*
X172477284Y-92580987D01*
X172475875Y-92513238D01*
X172474338Y-92464571D01*
X172472674Y-92435139D01*
X172470885Y-92425092D01*
X172467043Y-92430127D01*
X172455969Y-92451248D01*
X172438746Y-92487187D01*
X172416188Y-92536152D01*
X172389106Y-92596353D01*
X172358313Y-92665997D01*
X172324623Y-92743293D01*
X172288847Y-92826449D01*
X172261521Y-92890210D01*
X172227189Y-92969853D01*
X172195587Y-93042641D01*
X172167533Y-93106720D01*
X172143845Y-93160234D01*
X172125340Y-93201328D01*
X172112835Y-93228147D01*
X172107148Y-93238836D01*
X172093391Y-93243166D01*
X172066027Y-93245521D01*
X172031069Y-93245345D01*
X171964422Y-93242423D01*
X171791064Y-92837271D01*
X171762539Y-92770892D01*
X171728132Y-92691615D01*
X171696431Y-92619436D01*
X171668253Y-92556173D01*
X171644416Y-92503641D01*
X171625737Y-92463656D01*
X171613033Y-92438034D01*
X171607123Y-92428592D01*
X171605759Y-92431091D01*
X171603906Y-92446240D01*
X171602277Y-92475593D01*
X171600863Y-92519744D01*
X171599657Y-92579284D01*
X171598652Y-92654807D01*
X171597841Y-92746905D01*
X171597217Y-92856170D01*
X171596771Y-92983196D01*
X171596496Y-93128574D01*
X171596386Y-93292897D01*
X171596371Y-93347277D01*
X171596249Y-93498651D01*
X171596004Y-93631965D01*
X171595619Y-93748327D01*
X171595078Y-93848849D01*
X171594365Y-93934639D01*
X171593465Y-94006807D01*
X171592362Y-94066463D01*
X171591040Y-94114717D01*
X171589484Y-94152678D01*
X171587677Y-94181456D01*
X171585603Y-94202161D01*
X171583248Y-94215902D01*
X171581433Y-94223281D01*
X171552797Y-94298570D01*
X171509121Y-94362551D01*
X171451840Y-94413551D01*
X171382391Y-94449897D01*
X171377932Y-94451573D01*
X171366491Y-94455558D01*
X171354297Y-94458935D01*
X171339786Y-94461751D01*
X171321392Y-94464050D01*
X171297549Y-94465877D01*
X171266691Y-94467278D01*
X171227254Y-94468298D01*
X171177672Y-94468983D01*
X171116379Y-94469377D01*
X171041810Y-94469525D01*
X170952399Y-94469473D01*
X170846581Y-94469267D01*
X170722790Y-94468950D01*
X170708508Y-94468911D01*
X170602157Y-94468530D01*
X170501817Y-94468023D01*
X170409178Y-94467407D01*
X170325932Y-94466701D01*
X170253768Y-94465921D01*
X170194380Y-94465087D01*
X170149457Y-94464216D01*
X170120690Y-94463327D01*
X170109771Y-94462436D01*
X170109318Y-94461952D01*
X170106400Y-94448369D01*
X170104026Y-94419647D01*
X170102430Y-94379630D01*
X170101846Y-94332161D01*
X170101849Y-94326698D01*
X170102265Y-94275455D01*
X170103653Y-94240357D01*
X170106377Y-94218295D01*
X170110804Y-94206163D01*
X170117299Y-94200853D01*
X170125920Y-94199968D01*
X170152828Y-94198934D01*
X170196046Y-94197979D01*
X170253790Y-94197121D01*
X170324279Y-94196378D01*
X170405730Y-94195769D01*
X170496359Y-94195311D01*
X170594385Y-94195023D01*
X170698024Y-94194923D01*
X171263295Y-94194923D01*
X171290706Y-94171347D01*
X171318116Y-94147771D01*
X171323000Y-93006366D01*
X171327885Y-91864961D01*
X171503237Y-91864961D01*
X171678590Y-91864961D01*
X171753804Y-92060346D01*
X171761835Y-92081148D01*
X171793714Y-92162705D01*
X171826800Y-92245900D01*
X171860255Y-92328750D01*
X171893244Y-92409274D01*
X171924932Y-92485489D01*
X171954483Y-92555414D01*
X171981061Y-92617066D01*
X172003831Y-92668464D01*
X172021956Y-92707625D01*
X172034601Y-92732568D01*
X172040930Y-92741310D01*
X172043426Y-92738945D01*
X172053235Y-92721564D01*
X172068890Y-92688940D01*
X172089565Y-92643031D01*
X172114436Y-92585794D01*
X172142675Y-92519185D01*
X172173459Y-92445163D01*
X172205961Y-92365683D01*
X172239355Y-92282704D01*
X172272817Y-92198183D01*
X172305519Y-92114077D01*
X172310371Y-92101485D01*
X172333073Y-92042843D01*
X172353995Y-91989228D01*
X172371836Y-91943945D01*
X172385296Y-91910299D01*
X172393073Y-91891596D01*
X172407289Y-91859615D01*
X172575856Y-91862288D01*
X172744423Y-91864961D01*
X172746901Y-93176312D01*
X172749379Y-94487662D01*
X172794128Y-94528911D01*
X172829734Y-94565558D01*
X172859415Y-94610198D01*
X172875169Y-94658977D01*
X172879220Y-94712913D01*
X172879570Y-94717577D01*
G37*
G36*
X172764901Y-90335090D02*
G01*
X172756824Y-90395736D01*
X172737331Y-90449592D01*
X172719667Y-90479365D01*
X172676426Y-90528134D01*
X172623606Y-90560231D01*
X172593000Y-90572909D01*
X172593000Y-90762223D01*
X172593000Y-90951538D01*
X172993539Y-90951538D01*
X173394077Y-90951538D01*
X173394077Y-90761038D01*
X173393984Y-90719452D01*
X173393313Y-90660616D01*
X173391892Y-90618240D01*
X173389594Y-90590366D01*
X173386293Y-90575037D01*
X173381866Y-90570296D01*
X173360794Y-90562916D01*
X173332624Y-90543392D01*
X173302200Y-90515783D01*
X173273982Y-90484144D01*
X173252425Y-90452531D01*
X173239305Y-90427165D01*
X173229056Y-90399101D01*
X173224382Y-90368263D01*
X173223363Y-90326307D01*
X173223824Y-90315144D01*
X173378132Y-90315144D01*
X173382495Y-90348356D01*
X173399440Y-90382076D01*
X173425503Y-90408753D01*
X173427950Y-90410326D01*
X173453996Y-90420033D01*
X173484926Y-90424000D01*
X173521668Y-90416930D01*
X173552725Y-90395873D01*
X173572905Y-90365072D01*
X173580505Y-90328822D01*
X173573817Y-90291423D01*
X173551136Y-90257171D01*
X173539200Y-90246897D01*
X173502419Y-90230103D01*
X173463518Y-90229174D01*
X173427020Y-90242769D01*
X173397448Y-90269545D01*
X173379325Y-90308159D01*
X173378132Y-90315144D01*
X173223824Y-90315144D01*
X173224546Y-90297638D01*
X173238559Y-90228800D01*
X173269057Y-90169463D01*
X173316907Y-90117693D01*
X173370884Y-90081311D01*
X173433877Y-90058981D01*
X173498570Y-90054559D01*
X173562301Y-90067829D01*
X173622412Y-90098579D01*
X173676240Y-90146595D01*
X173703318Y-90182491D01*
X173732774Y-90244847D01*
X173744563Y-90309911D01*
X173742961Y-90328822D01*
X173739046Y-90375036D01*
X173716581Y-90437575D01*
X173677528Y-90494880D01*
X173622247Y-90544304D01*
X173579693Y-90574299D01*
X173579693Y-90762919D01*
X173579693Y-90951538D01*
X173844020Y-90951538D01*
X173880313Y-90951614D01*
X173960688Y-90952386D01*
X174030508Y-90953925D01*
X174087529Y-90956153D01*
X174129505Y-90958991D01*
X174154194Y-90962363D01*
X174168738Y-90966517D01*
X174204610Y-90979389D01*
X174247894Y-90997124D01*
X174292187Y-91017179D01*
X174305442Y-91023586D01*
X174349719Y-91047000D01*
X174386489Y-91071170D01*
X174422389Y-91100875D01*
X174464059Y-91140893D01*
X174465972Y-91142809D01*
X174506871Y-91185789D01*
X174537715Y-91223878D01*
X174563567Y-91264034D01*
X174589491Y-91313212D01*
X174600044Y-91334959D01*
X174618964Y-91377249D01*
X174633776Y-91417282D01*
X174644972Y-91458171D01*
X174653043Y-91503027D01*
X174658480Y-91554963D01*
X174661776Y-91617090D01*
X174663421Y-91692520D01*
X174663908Y-91784365D01*
X174664077Y-92026154D01*
X174848042Y-92026154D01*
X175032006Y-92026154D01*
X175045674Y-92000615D01*
X175072635Y-91963182D01*
X175117123Y-91923281D01*
X175170287Y-91890482D01*
X175226352Y-91868257D01*
X175279539Y-91860077D01*
X175298137Y-91860881D01*
X175360765Y-91875245D01*
X175418572Y-91905344D01*
X175468639Y-91948252D01*
X175508047Y-92001040D01*
X175533878Y-92060781D01*
X175543213Y-92124548D01*
X175543181Y-92125851D01*
X175542725Y-92144292D01*
X175530526Y-92215803D01*
X175501886Y-92276763D01*
X175456752Y-92327260D01*
X175395069Y-92367384D01*
X175342988Y-92387583D01*
X175274569Y-92397536D01*
X175208371Y-92389437D01*
X175146969Y-92364049D01*
X175092935Y-92322139D01*
X175048842Y-92264470D01*
X175023682Y-92221538D01*
X174843880Y-92221538D01*
X174664077Y-92221538D01*
X174664077Y-92641615D01*
X174664077Y-93061692D01*
X174849034Y-93061692D01*
X174871037Y-93061687D01*
X174929880Y-93061526D01*
X174972706Y-93060918D01*
X175002198Y-93059576D01*
X175021042Y-93057209D01*
X175031923Y-93053529D01*
X175037526Y-93048247D01*
X175040535Y-93041074D01*
X175042834Y-93035047D01*
X175061935Y-93005102D01*
X175092230Y-92972334D01*
X175128684Y-92941669D01*
X175166262Y-92918034D01*
X175196977Y-92905102D01*
X175262168Y-92892531D01*
X175328894Y-92897582D01*
X175393700Y-92919768D01*
X175453134Y-92958600D01*
X175460994Y-92965553D01*
X175502697Y-93016570D01*
X175529721Y-93076445D01*
X175541738Y-93141327D01*
X175540694Y-93162109D01*
X175538420Y-93207367D01*
X175519442Y-93270715D01*
X175484475Y-93327521D01*
X175446719Y-93362567D01*
X175393924Y-93393983D01*
X175335794Y-93415300D01*
X175279539Y-93423154D01*
X175252818Y-93421550D01*
X175188311Y-93404959D01*
X175128106Y-93372387D01*
X175076146Y-93326332D01*
X175036378Y-93269288D01*
X175034996Y-93266708D01*
X175030038Y-93259639D01*
X175022321Y-93254536D01*
X175009048Y-93251080D01*
X174987422Y-93248949D01*
X174954647Y-93247823D01*
X174907927Y-93247383D01*
X174844464Y-93247307D01*
X174664077Y-93247307D01*
X174664077Y-93672269D01*
X174664077Y-94097230D01*
X174843510Y-94097230D01*
X175022942Y-94097230D01*
X175049820Y-94056615D01*
X175055302Y-94048540D01*
X175105418Y-93990580D01*
X175162465Y-93950079D01*
X175225403Y-93927605D01*
X175293192Y-93923726D01*
X175350065Y-93933622D01*
X175414116Y-93961345D01*
X175470463Y-94006783D01*
X175489837Y-94027537D01*
X175514650Y-94060227D01*
X175529377Y-94093148D01*
X175536438Y-94132668D01*
X175538251Y-94185044D01*
X175538255Y-94185154D01*
X175538250Y-94188396D01*
X175536467Y-94238291D01*
X175530973Y-94273854D01*
X175521060Y-94299810D01*
X175500852Y-94332273D01*
X175453669Y-94384701D01*
X175398524Y-94422559D01*
X175338171Y-94445650D01*
X175275362Y-94453782D01*
X175212851Y-94446758D01*
X175153388Y-94424384D01*
X175099728Y-94386466D01*
X175054623Y-94332809D01*
X175022248Y-94282846D01*
X174843908Y-94282846D01*
X174665568Y-94282846D01*
X174661944Y-94583250D01*
X174661490Y-94620489D01*
X174660450Y-94697893D01*
X174659329Y-94759407D01*
X174657924Y-94807611D01*
X174656031Y-94845084D01*
X174653447Y-94874407D01*
X174649969Y-94898161D01*
X174645394Y-94918926D01*
X174639519Y-94939281D01*
X174632141Y-94961807D01*
X174624523Y-94983573D01*
X174582856Y-95076233D01*
X174528676Y-95157839D01*
X174458484Y-95233870D01*
X174421010Y-95267791D01*
X174352911Y-95320226D01*
X174282547Y-95361145D01*
X174203308Y-95394716D01*
X174203064Y-95394805D01*
X174181597Y-95402427D01*
X174162128Y-95408426D01*
X174141966Y-95413028D01*
X174118418Y-95416460D01*
X174088792Y-95418949D01*
X174050397Y-95420722D01*
X174000540Y-95422005D01*
X173936529Y-95423026D01*
X173855673Y-95424012D01*
X173579693Y-95427206D01*
X173579693Y-95616367D01*
X173579701Y-95644788D01*
X173579883Y-95702877D01*
X173580520Y-95745148D01*
X173581892Y-95774253D01*
X173584277Y-95792845D01*
X173587956Y-95803577D01*
X173593207Y-95809102D01*
X173600311Y-95812073D01*
X173608174Y-95815280D01*
X173636734Y-95834112D01*
X173668170Y-95862498D01*
X173696993Y-95895085D01*
X173717709Y-95926521D01*
X173726014Y-95944733D01*
X173741649Y-96007225D01*
X173741354Y-96024959D01*
X173740582Y-96071362D01*
X173724318Y-96133980D01*
X173694359Y-96191912D01*
X173652213Y-96241993D01*
X173599382Y-96281057D01*
X173537373Y-96305938D01*
X173510185Y-96310695D01*
X173449178Y-96308299D01*
X173388029Y-96290348D01*
X173330886Y-96258869D01*
X173281899Y-96215886D01*
X173245219Y-96163423D01*
X173242238Y-96157279D01*
X173227020Y-96108931D01*
X173219839Y-96052806D01*
X173219840Y-96052773D01*
X173377294Y-96052773D01*
X173386962Y-96089512D01*
X173410412Y-96119038D01*
X173437515Y-96133171D01*
X173481615Y-96139000D01*
X173500311Y-96137846D01*
X173538359Y-96124678D01*
X173563744Y-96096663D01*
X173576685Y-96053603D01*
X173577102Y-96050366D01*
X173577693Y-96024959D01*
X173569845Y-96004227D01*
X173550449Y-95979373D01*
X173543244Y-95971714D01*
X173507722Y-95948018D01*
X173468183Y-95943403D01*
X173424276Y-95957808D01*
X173397326Y-95980715D01*
X173380914Y-96014586D01*
X173377294Y-96052773D01*
X173219840Y-96052773D01*
X173221220Y-95997168D01*
X173231687Y-95950278D01*
X173234110Y-95944395D01*
X173257164Y-95905342D01*
X173290054Y-95865864D01*
X173327026Y-95832127D01*
X173362327Y-95810297D01*
X173394077Y-95796814D01*
X173394077Y-95611330D01*
X173394077Y-95425846D01*
X172993539Y-95425846D01*
X172593000Y-95425846D01*
X172593000Y-95615287D01*
X172593000Y-95804728D01*
X172618293Y-95811076D01*
X172645240Y-95824523D01*
X172677080Y-95850957D01*
X172708580Y-95885281D01*
X172735240Y-95922572D01*
X172752559Y-95957911D01*
X172757899Y-95975098D01*
X172768247Y-96044179D01*
X172768430Y-96045400D01*
X172759782Y-96112195D01*
X172732059Y-96175047D01*
X172685369Y-96233521D01*
X172642367Y-96269581D01*
X172581907Y-96300326D01*
X172517990Y-96312032D01*
X172451756Y-96304535D01*
X172384341Y-96277666D01*
X172374411Y-96272031D01*
X172318095Y-96227772D01*
X172276268Y-96171524D01*
X172250260Y-96105574D01*
X172242247Y-96039199D01*
X172397825Y-96039199D01*
X172403863Y-96076400D01*
X172426172Y-96110443D01*
X172439567Y-96122592D01*
X172464282Y-96135532D01*
X172496999Y-96138703D01*
X172506548Y-96138498D01*
X172543651Y-96132878D01*
X172569198Y-96117260D01*
X172588981Y-96088481D01*
X172591494Y-96083239D01*
X172599484Y-96044179D01*
X172591327Y-96006456D01*
X172569725Y-95974324D01*
X172537382Y-95952032D01*
X172497001Y-95943832D01*
X172459263Y-95951171D01*
X172427333Y-95972332D01*
X172406251Y-96003092D01*
X172397825Y-96039199D01*
X172242247Y-96039199D01*
X172241403Y-96032207D01*
X172246949Y-95988983D01*
X172266705Y-95934976D01*
X172297574Y-95884651D01*
X172336191Y-95843285D01*
X172379192Y-95816153D01*
X172407385Y-95804475D01*
X172407385Y-95615161D01*
X172407385Y-95425846D01*
X172016616Y-95425846D01*
X171625846Y-95425846D01*
X171625846Y-95611263D01*
X171625846Y-95796679D01*
X171663978Y-95816133D01*
X171669805Y-95819233D01*
X171718061Y-95856427D01*
X171755209Y-95906229D01*
X171780044Y-95964745D01*
X171791359Y-96028083D01*
X171791134Y-96032320D01*
X171787947Y-96092350D01*
X171768601Y-96153654D01*
X171763211Y-96164440D01*
X171723158Y-96221625D01*
X171672017Y-96265234D01*
X171612821Y-96294161D01*
X171548604Y-96307299D01*
X171482399Y-96303541D01*
X171417241Y-96281783D01*
X171366244Y-96250496D01*
X171325874Y-96209828D01*
X171291360Y-96154791D01*
X171282606Y-96134011D01*
X171271452Y-96083207D01*
X171269148Y-96029304D01*
X171430157Y-96029304D01*
X171433982Y-96070076D01*
X171455753Y-96108942D01*
X171475059Y-96128154D01*
X171495674Y-96136824D01*
X171526580Y-96138703D01*
X171544850Y-96138084D01*
X171580613Y-96131163D01*
X171604613Y-96114352D01*
X171621755Y-96084879D01*
X171626191Y-96072311D01*
X171629671Y-96032320D01*
X171618383Y-95996980D01*
X171595716Y-95968638D01*
X171565057Y-95949639D01*
X171529796Y-95942330D01*
X171493320Y-95949059D01*
X171459018Y-95972171D01*
X171444184Y-95990636D01*
X171430157Y-96029304D01*
X171269148Y-96029304D01*
X171269047Y-96026936D01*
X171275419Y-95972830D01*
X171290592Y-95928522D01*
X171305274Y-95905587D01*
X171332459Y-95872647D01*
X171363912Y-95841173D01*
X171394599Y-95816096D01*
X171419483Y-95802345D01*
X171422462Y-95801357D01*
X171429087Y-95797887D01*
X171433803Y-95791125D01*
X171436873Y-95778364D01*
X171438563Y-95756896D01*
X171439137Y-95724013D01*
X171438862Y-95677010D01*
X171438002Y-95613178D01*
X171435346Y-95430730D01*
X171051904Y-95428175D01*
X170668462Y-95425619D01*
X170668462Y-95611149D01*
X170668462Y-95796679D01*
X170706594Y-95816133D01*
X170753771Y-95848651D01*
X170793162Y-95895597D01*
X170819306Y-95951169D01*
X170831937Y-96012122D01*
X170831362Y-96043634D01*
X170830786Y-96075218D01*
X170815587Y-96137213D01*
X170786072Y-96194867D01*
X170741973Y-96244939D01*
X170705247Y-96274422D01*
X170667045Y-96295828D01*
X170626288Y-96306442D01*
X170575654Y-96309088D01*
X170553213Y-96308164D01*
X170484158Y-96294265D01*
X170424817Y-96264289D01*
X170376831Y-96218980D01*
X170349768Y-96179093D01*
X170322167Y-96114112D01*
X170312484Y-96052194D01*
X170476259Y-96052194D01*
X170485940Y-96089615D01*
X170508950Y-96119038D01*
X170535945Y-96133624D01*
X170575313Y-96140020D01*
X170613831Y-96133094D01*
X170644505Y-96113150D01*
X170664132Y-96081462D01*
X170670271Y-96043634D01*
X170662448Y-96006511D01*
X170642513Y-95974518D01*
X170612313Y-95952078D01*
X170573695Y-95943615D01*
X170569440Y-95943701D01*
X170539010Y-95948341D01*
X170515674Y-95957880D01*
X170495877Y-95977561D01*
X170479656Y-96012827D01*
X170476259Y-96052194D01*
X170312484Y-96052194D01*
X170311806Y-96047857D01*
X170318290Y-95983022D01*
X170341223Y-95922303D01*
X170380210Y-95868394D01*
X170434853Y-95823990D01*
X170483266Y-95793895D01*
X170480614Y-95612313D01*
X170477962Y-95430730D01*
X170233731Y-95425403D01*
X170224131Y-95425193D01*
X170150030Y-95423455D01*
X170092226Y-95421714D01*
X170047813Y-95419685D01*
X170013882Y-95417086D01*
X169987525Y-95413634D01*
X169965837Y-95409046D01*
X169945908Y-95403038D01*
X169924832Y-95395328D01*
X169891008Y-95381738D01*
X169835021Y-95354863D01*
X169785283Y-95323436D01*
X169736049Y-95283589D01*
X169681576Y-95231451D01*
X169647120Y-95195471D01*
X169611023Y-95152885D01*
X169582409Y-95111260D01*
X169556632Y-95064384D01*
X169539696Y-95030235D01*
X169523612Y-94995540D01*
X169510896Y-94963415D01*
X169501108Y-94931097D01*
X169493807Y-94895821D01*
X169488553Y-94854825D01*
X169484907Y-94805344D01*
X169482428Y-94744617D01*
X169480675Y-94669878D01*
X169479208Y-94578365D01*
X169474900Y-94282846D01*
X169297133Y-94282846D01*
X169119367Y-94282846D01*
X169101224Y-94314596D01*
X169059235Y-94371803D01*
X169005120Y-94415864D01*
X168941878Y-94443126D01*
X168870923Y-94452741D01*
X168842147Y-94452053D01*
X168801652Y-94445757D01*
X168766176Y-94431451D01*
X168749109Y-94421949D01*
X168687669Y-94376313D01*
X168643297Y-94322016D01*
X168616419Y-94259707D01*
X168609191Y-94203473D01*
X168768288Y-94203473D01*
X168780080Y-94240237D01*
X168805908Y-94271819D01*
X168815295Y-94277446D01*
X168843477Y-94285978D01*
X168875291Y-94289416D01*
X168900231Y-94286164D01*
X168921639Y-94273755D01*
X168949416Y-94243728D01*
X168964699Y-94207851D01*
X168966660Y-94191324D01*
X168960194Y-94149833D01*
X168938067Y-94116937D01*
X168902649Y-94095269D01*
X168856311Y-94087461D01*
X168838311Y-94089309D01*
X168805542Y-94104445D01*
X168782177Y-94131342D01*
X168769373Y-94165763D01*
X168768288Y-94203473D01*
X168609191Y-94203473D01*
X168607464Y-94190038D01*
X168607590Y-94182523D01*
X168618136Y-94117510D01*
X168643756Y-94058698D01*
X168681791Y-94007948D01*
X168729580Y-93967116D01*
X168784462Y-93938064D01*
X168843778Y-93922649D01*
X168904867Y-93922730D01*
X168965070Y-93940165D01*
X168983535Y-93949639D01*
X169030002Y-93981964D01*
X169071435Y-94021677D01*
X169100918Y-94062545D01*
X169119597Y-94097230D01*
X169298107Y-94097230D01*
X169476616Y-94097230D01*
X169476616Y-93672269D01*
X169476616Y-93247307D01*
X169298107Y-93247307D01*
X169119597Y-93247307D01*
X169100918Y-93281992D01*
X169093764Y-93293668D01*
X169070592Y-93323629D01*
X169043862Y-93351349D01*
X168995620Y-93387519D01*
X168933421Y-93414942D01*
X168869703Y-93423430D01*
X168806016Y-93413051D01*
X168743907Y-93383870D01*
X168684926Y-93335954D01*
X168651750Y-93297457D01*
X168619192Y-93238523D01*
X168605949Y-93176685D01*
X168607472Y-93160322D01*
X168767059Y-93160322D01*
X168776260Y-93198900D01*
X168804355Y-93232682D01*
X168823885Y-93246037D01*
X168864242Y-93257941D01*
X168904699Y-93251644D01*
X168941277Y-93227302D01*
X168947164Y-93221307D01*
X168962446Y-93201862D01*
X168967686Y-93181819D01*
X168965910Y-93151913D01*
X168962026Y-93130573D01*
X168943774Y-93092712D01*
X168912894Y-93069548D01*
X168870035Y-93061692D01*
X168828112Y-93068184D01*
X168794164Y-93089506D01*
X168773292Y-93125009D01*
X168767059Y-93160322D01*
X168607472Y-93160322D01*
X168611993Y-93111763D01*
X168637293Y-93043577D01*
X168648994Y-93021787D01*
X168680891Y-92977847D01*
X168721409Y-92943964D01*
X168776005Y-92915080D01*
X168822602Y-92900189D01*
X168887387Y-92895557D01*
X168951436Y-92907227D01*
X169010916Y-92933879D01*
X169061995Y-92974196D01*
X169100838Y-93026857D01*
X169119597Y-93061692D01*
X169298107Y-93061692D01*
X169476616Y-93061692D01*
X169476616Y-92768632D01*
X169671973Y-92768632D01*
X169671989Y-92962378D01*
X169672000Y-93174757D01*
X169672002Y-93181819D01*
X169672053Y-93394723D01*
X169672227Y-93616634D01*
X169672524Y-93820797D01*
X169672941Y-94007051D01*
X169673478Y-94175232D01*
X169673548Y-94191324D01*
X169674134Y-94325178D01*
X169674908Y-94456725D01*
X169675798Y-94569712D01*
X169676805Y-94663974D01*
X169677927Y-94739350D01*
X169679162Y-94795676D01*
X169680511Y-94832789D01*
X169681972Y-94850528D01*
X169697857Y-94910431D01*
X169735729Y-94992688D01*
X169789158Y-95066373D01*
X169856168Y-95129373D01*
X169934782Y-95179578D01*
X170023023Y-95214876D01*
X170024145Y-95215195D01*
X170032088Y-95216995D01*
X170042839Y-95218649D01*
X170057196Y-95220162D01*
X170075955Y-95221539D01*
X170099912Y-95222787D01*
X170129866Y-95223911D01*
X170166611Y-95224918D01*
X170210945Y-95225812D01*
X170263664Y-95226600D01*
X170325566Y-95227288D01*
X170397446Y-95227881D01*
X170480102Y-95228385D01*
X170574329Y-95228807D01*
X170680925Y-95229150D01*
X170800686Y-95229423D01*
X170934410Y-95229630D01*
X171082892Y-95229777D01*
X171246929Y-95229870D01*
X171427318Y-95229915D01*
X171624855Y-95229917D01*
X171840338Y-95229883D01*
X172074562Y-95229818D01*
X172288182Y-95229738D01*
X172507677Y-95229623D01*
X172709101Y-95229476D01*
X172893229Y-95229292D01*
X173060831Y-95229064D01*
X173212682Y-95228788D01*
X173349554Y-95228458D01*
X173472220Y-95228067D01*
X173581453Y-95227611D01*
X173678025Y-95227084D01*
X173762709Y-95226481D01*
X173836279Y-95225795D01*
X173899506Y-95225021D01*
X173953164Y-95224154D01*
X173998026Y-95223188D01*
X174034864Y-95222118D01*
X174064451Y-95220937D01*
X174087560Y-95219641D01*
X174104964Y-95218223D01*
X174117436Y-95216678D01*
X174125747Y-95215001D01*
X174176993Y-95197729D01*
X174257127Y-95155231D01*
X174327497Y-95097971D01*
X174385890Y-95028308D01*
X174430094Y-94948596D01*
X174457897Y-94861192D01*
X174459253Y-94845004D01*
X174460530Y-94810504D01*
X174461720Y-94758978D01*
X174462823Y-94691687D01*
X174463840Y-94609889D01*
X174464769Y-94514845D01*
X174465611Y-94407813D01*
X174466364Y-94290053D01*
X174466947Y-94178737D01*
X175181111Y-94178737D01*
X175186683Y-94217188D01*
X175208712Y-94253723D01*
X175215783Y-94260898D01*
X175251890Y-94283156D01*
X175291927Y-94289164D01*
X175330582Y-94277870D01*
X175357503Y-94256883D01*
X175372718Y-94227331D01*
X175377231Y-94185044D01*
X175373333Y-94155670D01*
X175354301Y-94119732D01*
X175322057Y-94096018D01*
X175279539Y-94087461D01*
X175245662Y-94092900D01*
X175212348Y-94112492D01*
X175190248Y-94142471D01*
X175181111Y-94178737D01*
X174466947Y-94178737D01*
X174467030Y-94162824D01*
X174467607Y-94027386D01*
X174468095Y-93884997D01*
X174468494Y-93736918D01*
X174468803Y-93584407D01*
X174469023Y-93428724D01*
X174469152Y-93271128D01*
X174469180Y-93156090D01*
X175180257Y-93156090D01*
X175187013Y-93193591D01*
X175210403Y-93228520D01*
X175220014Y-93237499D01*
X175246229Y-93252958D01*
X175279539Y-93257077D01*
X175316256Y-93250344D01*
X175348605Y-93229471D01*
X175370070Y-93198635D01*
X175378833Y-93162109D01*
X175373076Y-93124170D01*
X175350980Y-93089092D01*
X175338283Y-93077238D01*
X175314499Y-93064919D01*
X175281844Y-93061692D01*
X175242369Y-93068835D01*
X175209677Y-93089644D01*
X175193431Y-93112879D01*
X175188392Y-93120085D01*
X175180257Y-93156090D01*
X174469180Y-93156090D01*
X174469191Y-93112879D01*
X174469140Y-92955235D01*
X174468997Y-92799457D01*
X174468764Y-92646804D01*
X174468438Y-92498535D01*
X174468021Y-92355909D01*
X174467511Y-92220185D01*
X174467070Y-92126680D01*
X175181096Y-92126680D01*
X175186948Y-92166895D01*
X175210403Y-92202751D01*
X175238377Y-92222840D01*
X175277609Y-92233022D01*
X175316877Y-92226725D01*
X175350980Y-92203907D01*
X175354211Y-92200367D01*
X175373878Y-92165038D01*
X175378560Y-92125851D01*
X175369378Y-92087890D01*
X175347456Y-92056239D01*
X175313915Y-92035983D01*
X175278601Y-92029751D01*
X175240023Y-92038952D01*
X175206241Y-92067046D01*
X175192982Y-92086497D01*
X175181096Y-92126680D01*
X174467070Y-92126680D01*
X174466909Y-92092624D01*
X174466214Y-91974484D01*
X174465425Y-91867024D01*
X174464544Y-91771505D01*
X174463568Y-91689185D01*
X174462498Y-91621324D01*
X174461334Y-91569181D01*
X174460075Y-91534016D01*
X174458721Y-91517087D01*
X174441118Y-91452813D01*
X174403331Y-91373011D01*
X174351259Y-91301320D01*
X174287407Y-91240478D01*
X174214279Y-91193224D01*
X174134378Y-91162298D01*
X174127649Y-91160709D01*
X174117788Y-91158953D01*
X174105188Y-91157348D01*
X174089047Y-91155887D01*
X174068567Y-91154567D01*
X174042948Y-91153382D01*
X174011389Y-91152327D01*
X173973090Y-91151396D01*
X173927252Y-91150585D01*
X173873075Y-91149889D01*
X173809759Y-91149302D01*
X173736503Y-91148819D01*
X173652508Y-91148436D01*
X173556974Y-91148146D01*
X173449102Y-91147945D01*
X173328090Y-91147828D01*
X173193139Y-91147790D01*
X173043450Y-91147825D01*
X172878222Y-91147929D01*
X172696655Y-91148096D01*
X172497950Y-91148321D01*
X172281306Y-91148599D01*
X172045923Y-91148925D01*
X170018808Y-91151807D01*
X169942525Y-91188232D01*
X169899239Y-91211964D01*
X169831043Y-91262406D01*
X169772461Y-91322287D01*
X169728454Y-91387000D01*
X169728447Y-91387014D01*
X169721319Y-91400000D01*
X169714817Y-91411691D01*
X169708910Y-91422994D01*
X169703572Y-91434815D01*
X169698773Y-91448059D01*
X169694484Y-91463631D01*
X169690678Y-91482439D01*
X169687325Y-91505386D01*
X169684396Y-91533380D01*
X169681864Y-91567326D01*
X169679700Y-91608130D01*
X169677875Y-91656698D01*
X169676359Y-91713934D01*
X169675126Y-91780746D01*
X169674146Y-91858038D01*
X169673391Y-91946717D01*
X169672831Y-92047689D01*
X169672492Y-92146478D01*
X169672439Y-92161858D01*
X169672186Y-92290131D01*
X169672043Y-92433414D01*
X169671981Y-92592612D01*
X169671973Y-92768632D01*
X169476616Y-92768632D01*
X169476616Y-92641615D01*
X169476616Y-92221538D01*
X169317866Y-92220812D01*
X169283476Y-92220566D01*
X169231279Y-92219838D01*
X169187096Y-92218791D01*
X169154769Y-92217526D01*
X169138140Y-92216142D01*
X169136258Y-92215819D01*
X169119812Y-92218835D01*
X169110870Y-92237276D01*
X169108731Y-92243468D01*
X169092339Y-92269784D01*
X169065334Y-92300834D01*
X169032269Y-92332192D01*
X168997691Y-92359430D01*
X168966151Y-92378119D01*
X168918606Y-92393277D01*
X168855365Y-92396610D01*
X168792124Y-92382930D01*
X168732348Y-92353086D01*
X168679503Y-92307926D01*
X168667379Y-92294077D01*
X168630512Y-92237877D01*
X168611608Y-92178077D01*
X168610724Y-92151067D01*
X168769390Y-92151067D01*
X168781236Y-92188663D01*
X168804999Y-92216300D01*
X168824455Y-92225785D01*
X168862934Y-92231470D01*
X168902617Y-92225714D01*
X168934840Y-92209004D01*
X168954385Y-92184224D01*
X168966460Y-92146478D01*
X168965118Y-92106983D01*
X168949586Y-92072894D01*
X168942967Y-92065251D01*
X168909177Y-92041404D01*
X168870899Y-92032591D01*
X168832899Y-92038303D01*
X168799947Y-92058033D01*
X168776809Y-92091275D01*
X168770939Y-92110074D01*
X168769390Y-92151067D01*
X168610724Y-92151067D01*
X168609418Y-92111171D01*
X168620924Y-92049622D01*
X168650034Y-91986420D01*
X168695308Y-91933880D01*
X168756017Y-91893091D01*
X168785845Y-91879899D01*
X168853353Y-91863816D01*
X168919173Y-91866538D01*
X168981477Y-91887574D01*
X169038438Y-91926430D01*
X169088227Y-91982615D01*
X169118915Y-92026154D01*
X169297766Y-92026154D01*
X169476616Y-92026154D01*
X169476616Y-91791280D01*
X169476625Y-91776691D01*
X169477324Y-91685244D01*
X169479474Y-91609749D01*
X169483556Y-91547084D01*
X169490052Y-91494129D01*
X169499443Y-91447765D01*
X169512211Y-91404872D01*
X169528837Y-91362329D01*
X169549803Y-91317016D01*
X169586811Y-91251268D01*
X169654161Y-91163163D01*
X169734818Y-91086955D01*
X169826269Y-91024901D01*
X169926000Y-90979258D01*
X169945908Y-90972548D01*
X169966312Y-90966999D01*
X169988922Y-90962791D01*
X170016628Y-90959686D01*
X170052317Y-90957443D01*
X170098879Y-90955821D01*
X170159201Y-90954582D01*
X170236173Y-90953484D01*
X170482846Y-90950319D01*
X170482316Y-90762871D01*
X170481786Y-90575423D01*
X170435912Y-90546115D01*
X170419591Y-90534563D01*
X170374452Y-90489763D01*
X170339191Y-90435268D01*
X170318465Y-90377755D01*
X170313203Y-90324364D01*
X170316042Y-90303873D01*
X170474007Y-90303873D01*
X170475783Y-90333778D01*
X170476876Y-90342163D01*
X170486965Y-90376893D01*
X170506853Y-90401697D01*
X170531897Y-90417516D01*
X170569631Y-90425346D01*
X170606440Y-90418141D01*
X170638039Y-90397900D01*
X170660142Y-90366622D01*
X170668462Y-90326307D01*
X170661354Y-90287737D01*
X170640399Y-90255682D01*
X170609690Y-90235047D01*
X170573365Y-90227505D01*
X170535561Y-90234729D01*
X170500416Y-90258389D01*
X170494529Y-90264384D01*
X170479247Y-90283830D01*
X170474007Y-90303873D01*
X170316042Y-90303873D01*
X170322461Y-90257538D01*
X170347803Y-90194850D01*
X170387336Y-90139549D01*
X170439166Y-90094879D01*
X170501400Y-90064088D01*
X170503775Y-90063294D01*
X170564197Y-90053030D01*
X170624267Y-90059915D01*
X170681393Y-90081784D01*
X170732985Y-90116476D01*
X170776451Y-90161827D01*
X170809199Y-90215674D01*
X170828638Y-90275853D01*
X170831414Y-90326307D01*
X170832178Y-90340202D01*
X170829999Y-90359290D01*
X170812562Y-90424659D01*
X170781885Y-90483094D01*
X170740442Y-90530690D01*
X170690707Y-90563539D01*
X170686274Y-90565656D01*
X170679737Y-90570339D01*
X170675033Y-90578339D01*
X170671863Y-90592360D01*
X170669922Y-90615104D01*
X170668909Y-90649277D01*
X170668523Y-90697581D01*
X170668462Y-90762720D01*
X170668462Y-90951765D01*
X171051904Y-90949209D01*
X171435346Y-90946654D01*
X171438003Y-90763738D01*
X171440660Y-90580823D01*
X171402797Y-90556921D01*
X171391346Y-90549249D01*
X171342148Y-90505383D01*
X171302629Y-90452263D01*
X171277597Y-90396061D01*
X171270785Y-90366041D01*
X171269515Y-90323276D01*
X171429351Y-90323276D01*
X171436019Y-90360823D01*
X171459018Y-90395443D01*
X171459064Y-90395489D01*
X171493420Y-90418093D01*
X171531196Y-90424723D01*
X171568082Y-90417119D01*
X171599766Y-90397022D01*
X171621938Y-90366171D01*
X171630287Y-90326307D01*
X171624962Y-90294033D01*
X171604035Y-90259797D01*
X171570352Y-90236937D01*
X171527249Y-90228615D01*
X171489973Y-90235508D01*
X171458063Y-90256376D01*
X171437277Y-90287046D01*
X171429351Y-90323276D01*
X171269515Y-90323276D01*
X171268759Y-90297837D01*
X171284295Y-90231777D01*
X171316092Y-90170728D01*
X171362850Y-90117556D01*
X171423267Y-90075126D01*
X171436446Y-90069244D01*
X171474668Y-90060681D01*
X171528154Y-90057847D01*
X171560052Y-90058325D01*
X171592627Y-90061720D01*
X171619043Y-90069853D01*
X171647007Y-90084450D01*
X171658477Y-90091540D01*
X171713650Y-90137365D01*
X171755708Y-90193282D01*
X171782513Y-90255789D01*
X171791923Y-90321390D01*
X171791725Y-90326307D01*
X171791087Y-90342144D01*
X171777744Y-90407709D01*
X171750013Y-90468102D01*
X171710314Y-90518983D01*
X171661069Y-90556012D01*
X171625846Y-90574981D01*
X171625846Y-90763260D01*
X171625846Y-90951538D01*
X172016616Y-90951538D01*
X172407385Y-90951538D01*
X172407385Y-90761289D01*
X172407385Y-90571040D01*
X172380520Y-90556940D01*
X172353532Y-90538297D01*
X172319667Y-90506507D01*
X172288345Y-90469759D01*
X172265738Y-90434627D01*
X172259476Y-90419246D01*
X172249841Y-90383611D01*
X172243888Y-90345614D01*
X172242954Y-90325496D01*
X172400488Y-90325496D01*
X172410476Y-90364931D01*
X172437774Y-90398988D01*
X172456413Y-90412210D01*
X172494582Y-90424487D01*
X172532566Y-90417329D01*
X172569554Y-90390784D01*
X172574730Y-90385420D01*
X172597446Y-90351605D01*
X172601664Y-90316841D01*
X172588015Y-90277266D01*
X172570558Y-90252093D01*
X172541501Y-90234071D01*
X172500193Y-90228615D01*
X172464464Y-90232426D01*
X172434032Y-90248242D01*
X172411506Y-90278938D01*
X172408709Y-90284782D01*
X172400488Y-90325496D01*
X172242954Y-90325496D01*
X172242609Y-90318079D01*
X172251351Y-90251973D01*
X172278064Y-90191726D01*
X172323480Y-90135400D01*
X172345771Y-90115035D01*
X172404921Y-90076797D01*
X172466927Y-90056592D01*
X172529556Y-90054012D01*
X172590578Y-90068649D01*
X172647763Y-90100096D01*
X172698878Y-90147946D01*
X172741695Y-90211791D01*
X172746298Y-90221296D01*
X172761435Y-90274621D01*
X172763855Y-90316841D01*
X172764901Y-90335090D01*
G37*
%TD*%
%LPC*%
D13*
%TO.C,H1*%
X135580000Y-114300000D03*
%TD*%
D14*
%TO.C,J1*%
X139700000Y-124460000D03*
D15*
X141700000Y-124460000D03*
X143700000Y-124460000D03*
X145700000Y-124460000D03*
%TD*%
D16*
%TO.C,J3*%
X169195000Y-119950000D03*
X174975000Y-119950000D03*
D17*
X167765000Y-119450000D03*
D18*
X167765000Y-123630000D03*
D17*
X176405000Y-119450000D03*
D18*
X176405000Y-123630000D03*
%TD*%
D13*
%TO.C,H2*%
X178980000Y-114300000D03*
%TD*%
D14*
%TO.C,J2*%
X153035000Y-124460000D03*
D15*
X155035000Y-124460000D03*
X157035000Y-124460000D03*
X159035000Y-124460000D03*
X161035000Y-124460000D03*
%TD*%
%LPD*%
M02*
